%TF.GenerationSoftware,KiCad,Pcbnew,10.0.3+dfsg-1*%
%TF.CreationDate,2026-06-21T05:33:51-04:00*%
%TF.ProjectId,teensy-41-can-lin-r6-complete-power-routed,7465656e-7379-42d3-9431-2d63616e2d6c,rev?*%
%TF.SameCoordinates,Original*%
%TF.FileFunction,Legend,Top*%
%TF.FilePolarity,Positive*%
%FSLAX46Y46*%
G04 Gerber Fmt 4.6, Leading zero omitted, Abs format (unit mm)*
G04 Created by KiCad (PCBNEW 10.0.3+dfsg-1) date 2026-06-21 05:33:51*
%MOMM*%
%LPD*%
G01*
G04 APERTURE LIST*
%ADD10C,0.120000*%
%ADD11C,0.150000*%
%ADD12C,0.158750*%
G04 APERTURE END LIST*
D10*
X9838096Y-8563855D02*
X9990477Y-8563855D01*
X9990477Y-8563855D02*
X10066667Y-8601950D01*
X10066667Y-8601950D02*
X10142858Y-8678140D01*
X10142858Y-8678140D02*
X10180953Y-8830521D01*
X10180953Y-8830521D02*
X10180953Y-9097188D01*
X10180953Y-9097188D02*
X10142858Y-9249569D01*
X10142858Y-9249569D02*
X10066667Y-9325760D01*
X10066667Y-9325760D02*
X9990477Y-9363855D01*
X9990477Y-9363855D02*
X9838096Y-9363855D01*
X9838096Y-9363855D02*
X9761905Y-9325760D01*
X9761905Y-9325760D02*
X9685715Y-9249569D01*
X9685715Y-9249569D02*
X9647619Y-9097188D01*
X9647619Y-9097188D02*
X9647619Y-8830521D01*
X9647619Y-8830521D02*
X9685715Y-8678140D01*
X9685715Y-8678140D02*
X9761905Y-8601950D01*
X9761905Y-8601950D02*
X9838096Y-8563855D01*
X10790476Y-8944807D02*
X10904762Y-8982902D01*
X10904762Y-8982902D02*
X10942857Y-9020998D01*
X10942857Y-9020998D02*
X10980953Y-9097188D01*
X10980953Y-9097188D02*
X10980953Y-9211474D01*
X10980953Y-9211474D02*
X10942857Y-9287664D01*
X10942857Y-9287664D02*
X10904762Y-9325760D01*
X10904762Y-9325760D02*
X10828572Y-9363855D01*
X10828572Y-9363855D02*
X10523810Y-9363855D01*
X10523810Y-9363855D02*
X10523810Y-8563855D01*
X10523810Y-8563855D02*
X10790476Y-8563855D01*
X10790476Y-8563855D02*
X10866667Y-8601950D01*
X10866667Y-8601950D02*
X10904762Y-8640045D01*
X10904762Y-8640045D02*
X10942857Y-8716236D01*
X10942857Y-8716236D02*
X10942857Y-8792426D01*
X10942857Y-8792426D02*
X10904762Y-8868617D01*
X10904762Y-8868617D02*
X10866667Y-8906712D01*
X10866667Y-8906712D02*
X10790476Y-8944807D01*
X10790476Y-8944807D02*
X10523810Y-8944807D01*
X11323810Y-9363855D02*
X11323810Y-8563855D01*
X11323810Y-8563855D02*
X11514286Y-8563855D01*
X11514286Y-8563855D02*
X11628572Y-8601950D01*
X11628572Y-8601950D02*
X11704762Y-8678140D01*
X11704762Y-8678140D02*
X11742857Y-8754331D01*
X11742857Y-8754331D02*
X11780953Y-8906712D01*
X11780953Y-8906712D02*
X11780953Y-9020998D01*
X11780953Y-9020998D02*
X11742857Y-9173379D01*
X11742857Y-9173379D02*
X11704762Y-9249569D01*
X11704762Y-9249569D02*
X11628572Y-9325760D01*
X11628572Y-9325760D02*
X11514286Y-9363855D01*
X11514286Y-9363855D02*
X11323810Y-9363855D01*
X12733334Y-9363855D02*
X12733334Y-8563855D01*
X12733334Y-8563855D02*
X13038096Y-8563855D01*
X13038096Y-8563855D02*
X13114286Y-8601950D01*
X13114286Y-8601950D02*
X13152381Y-8640045D01*
X13152381Y-8640045D02*
X13190477Y-8716236D01*
X13190477Y-8716236D02*
X13190477Y-8830521D01*
X13190477Y-8830521D02*
X13152381Y-8906712D01*
X13152381Y-8906712D02*
X13114286Y-8944807D01*
X13114286Y-8944807D02*
X13038096Y-8982902D01*
X13038096Y-8982902D02*
X12733334Y-8982902D01*
X13533334Y-9363855D02*
X13533334Y-8563855D01*
X14333333Y-8601950D02*
X14257143Y-8563855D01*
X14257143Y-8563855D02*
X14142857Y-8563855D01*
X14142857Y-8563855D02*
X14028571Y-8601950D01*
X14028571Y-8601950D02*
X13952381Y-8678140D01*
X13952381Y-8678140D02*
X13914286Y-8754331D01*
X13914286Y-8754331D02*
X13876190Y-8906712D01*
X13876190Y-8906712D02*
X13876190Y-9020998D01*
X13876190Y-9020998D02*
X13914286Y-9173379D01*
X13914286Y-9173379D02*
X13952381Y-9249569D01*
X13952381Y-9249569D02*
X14028571Y-9325760D01*
X14028571Y-9325760D02*
X14142857Y-9363855D01*
X14142857Y-9363855D02*
X14219048Y-9363855D01*
X14219048Y-9363855D02*
X14333333Y-9325760D01*
X14333333Y-9325760D02*
X14371429Y-9287664D01*
X14371429Y-9287664D02*
X14371429Y-9020998D01*
X14371429Y-9020998D02*
X14219048Y-9020998D01*
X14600000Y-8563855D02*
X15057143Y-8563855D01*
X14828571Y-9363855D02*
X14828571Y-8563855D01*
X15285714Y-9135283D02*
X15666667Y-9135283D01*
X15209524Y-9363855D02*
X15476191Y-8563855D01*
X15476191Y-8563855D02*
X15742857Y-9363855D01*
X16009524Y-9363855D02*
X16009524Y-8563855D01*
X16771428Y-9363855D02*
X16390476Y-9363855D01*
X16390476Y-9363855D02*
X16390476Y-8563855D01*
X17647619Y-9363855D02*
X17647619Y-8563855D01*
X17647619Y-8563855D02*
X17952381Y-8563855D01*
X17952381Y-8563855D02*
X18028571Y-8601950D01*
X18028571Y-8601950D02*
X18066666Y-8640045D01*
X18066666Y-8640045D02*
X18104762Y-8716236D01*
X18104762Y-8716236D02*
X18104762Y-8830521D01*
X18104762Y-8830521D02*
X18066666Y-8906712D01*
X18066666Y-8906712D02*
X18028571Y-8944807D01*
X18028571Y-8944807D02*
X17952381Y-8982902D01*
X17952381Y-8982902D02*
X17647619Y-8982902D01*
X18409523Y-9135283D02*
X18790476Y-9135283D01*
X18333333Y-9363855D02*
X18600000Y-8563855D01*
X18600000Y-8563855D02*
X18866666Y-9363855D01*
X19133333Y-9363855D02*
X19133333Y-8563855D01*
X19133333Y-8563855D02*
X19323809Y-8563855D01*
X19323809Y-8563855D02*
X19438095Y-8601950D01*
X19438095Y-8601950D02*
X19514285Y-8678140D01*
X19514285Y-8678140D02*
X19552380Y-8754331D01*
X19552380Y-8754331D02*
X19590476Y-8906712D01*
X19590476Y-8906712D02*
X19590476Y-9020998D01*
X19590476Y-9020998D02*
X19552380Y-9173379D01*
X19552380Y-9173379D02*
X19514285Y-9249569D01*
X19514285Y-9249569D02*
X19438095Y-9325760D01*
X19438095Y-9325760D02*
X19323809Y-9363855D01*
X19323809Y-9363855D02*
X19133333Y-9363855D01*
X19895237Y-9325760D02*
X20009523Y-9363855D01*
X20009523Y-9363855D02*
X20199999Y-9363855D01*
X20199999Y-9363855D02*
X20276190Y-9325760D01*
X20276190Y-9325760D02*
X20314285Y-9287664D01*
X20314285Y-9287664D02*
X20352380Y-9211474D01*
X20352380Y-9211474D02*
X20352380Y-9135283D01*
X20352380Y-9135283D02*
X20314285Y-9059093D01*
X20314285Y-9059093D02*
X20276190Y-9020998D01*
X20276190Y-9020998D02*
X20199999Y-8982902D01*
X20199999Y-8982902D02*
X20047618Y-8944807D01*
X20047618Y-8944807D02*
X19971428Y-8906712D01*
X19971428Y-8906712D02*
X19933333Y-8868617D01*
X19933333Y-8868617D02*
X19895237Y-8792426D01*
X19895237Y-8792426D02*
X19895237Y-8716236D01*
X19895237Y-8716236D02*
X19933333Y-8640045D01*
X19933333Y-8640045D02*
X19971428Y-8601950D01*
X19971428Y-8601950D02*
X20047618Y-8563855D01*
X20047618Y-8563855D02*
X20238095Y-8563855D01*
X20238095Y-8563855D02*
X20352380Y-8601950D01*
X16357142Y-4456379D02*
X16023809Y-3980188D01*
X15785714Y-4456379D02*
X15785714Y-3456379D01*
X15785714Y-3456379D02*
X16166666Y-3456379D01*
X16166666Y-3456379D02*
X16261904Y-3503998D01*
X16261904Y-3503998D02*
X16309523Y-3551617D01*
X16309523Y-3551617D02*
X16357142Y-3646855D01*
X16357142Y-3646855D02*
X16357142Y-3789712D01*
X16357142Y-3789712D02*
X16309523Y-3884950D01*
X16309523Y-3884950D02*
X16261904Y-3932569D01*
X16261904Y-3932569D02*
X16166666Y-3980188D01*
X16166666Y-3980188D02*
X15785714Y-3980188D01*
X17214285Y-3456379D02*
X17023809Y-3456379D01*
X17023809Y-3456379D02*
X16928571Y-3503998D01*
X16928571Y-3503998D02*
X16880952Y-3551617D01*
X16880952Y-3551617D02*
X16785714Y-3694474D01*
X16785714Y-3694474D02*
X16738095Y-3884950D01*
X16738095Y-3884950D02*
X16738095Y-4265902D01*
X16738095Y-4265902D02*
X16785714Y-4361140D01*
X16785714Y-4361140D02*
X16833333Y-4408760D01*
X16833333Y-4408760D02*
X16928571Y-4456379D01*
X16928571Y-4456379D02*
X17119047Y-4456379D01*
X17119047Y-4456379D02*
X17214285Y-4408760D01*
X17214285Y-4408760D02*
X17261904Y-4361140D01*
X17261904Y-4361140D02*
X17309523Y-4265902D01*
X17309523Y-4265902D02*
X17309523Y-4027807D01*
X17309523Y-4027807D02*
X17261904Y-3932569D01*
X17261904Y-3932569D02*
X17214285Y-3884950D01*
X17214285Y-3884950D02*
X17119047Y-3837331D01*
X17119047Y-3837331D02*
X16928571Y-3837331D01*
X16928571Y-3837331D02*
X16833333Y-3884950D01*
X16833333Y-3884950D02*
X16785714Y-3932569D01*
X16785714Y-3932569D02*
X16738095Y-4027807D01*
X18690476Y-3456379D02*
X18880952Y-3456379D01*
X18880952Y-3456379D02*
X18976190Y-3503998D01*
X18976190Y-3503998D02*
X19071428Y-3599236D01*
X19071428Y-3599236D02*
X19119047Y-3789712D01*
X19119047Y-3789712D02*
X19119047Y-4123045D01*
X19119047Y-4123045D02*
X19071428Y-4313521D01*
X19071428Y-4313521D02*
X18976190Y-4408760D01*
X18976190Y-4408760D02*
X18880952Y-4456379D01*
X18880952Y-4456379D02*
X18690476Y-4456379D01*
X18690476Y-4456379D02*
X18595238Y-4408760D01*
X18595238Y-4408760D02*
X18500000Y-4313521D01*
X18500000Y-4313521D02*
X18452381Y-4123045D01*
X18452381Y-4123045D02*
X18452381Y-3789712D01*
X18452381Y-3789712D02*
X18500000Y-3599236D01*
X18500000Y-3599236D02*
X18595238Y-3503998D01*
X18595238Y-3503998D02*
X18690476Y-3456379D01*
X19880952Y-3932569D02*
X20023809Y-3980188D01*
X20023809Y-3980188D02*
X20071428Y-4027807D01*
X20071428Y-4027807D02*
X20119047Y-4123045D01*
X20119047Y-4123045D02*
X20119047Y-4265902D01*
X20119047Y-4265902D02*
X20071428Y-4361140D01*
X20071428Y-4361140D02*
X20023809Y-4408760D01*
X20023809Y-4408760D02*
X19928571Y-4456379D01*
X19928571Y-4456379D02*
X19547619Y-4456379D01*
X19547619Y-4456379D02*
X19547619Y-3456379D01*
X19547619Y-3456379D02*
X19880952Y-3456379D01*
X19880952Y-3456379D02*
X19976190Y-3503998D01*
X19976190Y-3503998D02*
X20023809Y-3551617D01*
X20023809Y-3551617D02*
X20071428Y-3646855D01*
X20071428Y-3646855D02*
X20071428Y-3742093D01*
X20071428Y-3742093D02*
X20023809Y-3837331D01*
X20023809Y-3837331D02*
X19976190Y-3884950D01*
X19976190Y-3884950D02*
X19880952Y-3932569D01*
X19880952Y-3932569D02*
X19547619Y-3932569D01*
X20547619Y-4456379D02*
X20547619Y-3456379D01*
X20547619Y-3456379D02*
X20785714Y-3456379D01*
X20785714Y-3456379D02*
X20928571Y-3503998D01*
X20928571Y-3503998D02*
X21023809Y-3599236D01*
X21023809Y-3599236D02*
X21071428Y-3694474D01*
X21071428Y-3694474D02*
X21119047Y-3884950D01*
X21119047Y-3884950D02*
X21119047Y-4027807D01*
X21119047Y-4027807D02*
X21071428Y-4218283D01*
X21071428Y-4218283D02*
X21023809Y-4313521D01*
X21023809Y-4313521D02*
X20928571Y-4408760D01*
X20928571Y-4408760D02*
X20785714Y-4456379D01*
X20785714Y-4456379D02*
X20547619Y-4456379D01*
X22309524Y-4456379D02*
X22309524Y-3456379D01*
X22309524Y-3456379D02*
X22690476Y-3456379D01*
X22690476Y-3456379D02*
X22785714Y-3503998D01*
X22785714Y-3503998D02*
X22833333Y-3551617D01*
X22833333Y-3551617D02*
X22880952Y-3646855D01*
X22880952Y-3646855D02*
X22880952Y-3789712D01*
X22880952Y-3789712D02*
X22833333Y-3884950D01*
X22833333Y-3884950D02*
X22785714Y-3932569D01*
X22785714Y-3932569D02*
X22690476Y-3980188D01*
X22690476Y-3980188D02*
X22309524Y-3980188D01*
X23309524Y-4456379D02*
X23309524Y-3456379D01*
X24309523Y-3503998D02*
X24214285Y-3456379D01*
X24214285Y-3456379D02*
X24071428Y-3456379D01*
X24071428Y-3456379D02*
X23928571Y-3503998D01*
X23928571Y-3503998D02*
X23833333Y-3599236D01*
X23833333Y-3599236D02*
X23785714Y-3694474D01*
X23785714Y-3694474D02*
X23738095Y-3884950D01*
X23738095Y-3884950D02*
X23738095Y-4027807D01*
X23738095Y-4027807D02*
X23785714Y-4218283D01*
X23785714Y-4218283D02*
X23833333Y-4313521D01*
X23833333Y-4313521D02*
X23928571Y-4408760D01*
X23928571Y-4408760D02*
X24071428Y-4456379D01*
X24071428Y-4456379D02*
X24166666Y-4456379D01*
X24166666Y-4456379D02*
X24309523Y-4408760D01*
X24309523Y-4408760D02*
X24357142Y-4361140D01*
X24357142Y-4361140D02*
X24357142Y-4027807D01*
X24357142Y-4027807D02*
X24166666Y-4027807D01*
X24642857Y-3456379D02*
X25214285Y-3456379D01*
X24928571Y-4456379D02*
X24928571Y-3456379D01*
X25500000Y-4170664D02*
X25976190Y-4170664D01*
X25404762Y-4456379D02*
X25738095Y-3456379D01*
X25738095Y-3456379D02*
X26071428Y-4456379D01*
X26404762Y-4456379D02*
X26404762Y-3456379D01*
X27357142Y-4456379D02*
X26880952Y-4456379D01*
X26880952Y-4456379D02*
X26880952Y-3456379D01*
X28452381Y-4075426D02*
X29214286Y-4075426D01*
X28833333Y-4456379D02*
X28833333Y-3694474D01*
X30452381Y-4456379D02*
X30452381Y-3456379D01*
X30452381Y-3456379D02*
X30690476Y-3456379D01*
X30690476Y-3456379D02*
X30833333Y-3503998D01*
X30833333Y-3503998D02*
X30928571Y-3599236D01*
X30928571Y-3599236D02*
X30976190Y-3694474D01*
X30976190Y-3694474D02*
X31023809Y-3884950D01*
X31023809Y-3884950D02*
X31023809Y-4027807D01*
X31023809Y-4027807D02*
X30976190Y-4218283D01*
X30976190Y-4218283D02*
X30928571Y-4313521D01*
X30928571Y-4313521D02*
X30833333Y-4408760D01*
X30833333Y-4408760D02*
X30690476Y-4456379D01*
X30690476Y-4456379D02*
X30452381Y-4456379D01*
X31452381Y-4456379D02*
X31452381Y-3456379D01*
X31928571Y-4456379D02*
X31928571Y-3456379D01*
X31928571Y-3456379D02*
X32309523Y-3456379D01*
X32309523Y-3456379D02*
X32404761Y-3503998D01*
X32404761Y-3503998D02*
X32452380Y-3551617D01*
X32452380Y-3551617D02*
X32499999Y-3646855D01*
X32499999Y-3646855D02*
X32499999Y-3789712D01*
X32499999Y-3789712D02*
X32452380Y-3884950D01*
X32452380Y-3884950D02*
X32404761Y-3932569D01*
X32404761Y-3932569D02*
X32309523Y-3980188D01*
X32309523Y-3980188D02*
X31928571Y-3980188D01*
X33642857Y-4408760D02*
X33785714Y-4456379D01*
X33785714Y-4456379D02*
X34023809Y-4456379D01*
X34023809Y-4456379D02*
X34119047Y-4408760D01*
X34119047Y-4408760D02*
X34166666Y-4361140D01*
X34166666Y-4361140D02*
X34214285Y-4265902D01*
X34214285Y-4265902D02*
X34214285Y-4170664D01*
X34214285Y-4170664D02*
X34166666Y-4075426D01*
X34166666Y-4075426D02*
X34119047Y-4027807D01*
X34119047Y-4027807D02*
X34023809Y-3980188D01*
X34023809Y-3980188D02*
X33833333Y-3932569D01*
X33833333Y-3932569D02*
X33738095Y-3884950D01*
X33738095Y-3884950D02*
X33690476Y-3837331D01*
X33690476Y-3837331D02*
X33642857Y-3742093D01*
X33642857Y-3742093D02*
X33642857Y-3646855D01*
X33642857Y-3646855D02*
X33690476Y-3551617D01*
X33690476Y-3551617D02*
X33738095Y-3503998D01*
X33738095Y-3503998D02*
X33833333Y-3456379D01*
X33833333Y-3456379D02*
X34071428Y-3456379D01*
X34071428Y-3456379D02*
X34214285Y-3503998D01*
X34547619Y-3456379D02*
X34785714Y-4456379D01*
X34785714Y-4456379D02*
X34976190Y-3742093D01*
X34976190Y-3742093D02*
X35166666Y-4456379D01*
X35166666Y-4456379D02*
X35404762Y-3456379D01*
X35785714Y-4456379D02*
X35785714Y-3456379D01*
X36119047Y-3456379D02*
X36690475Y-3456379D01*
X36404761Y-4456379D02*
X36404761Y-3456379D01*
X37595237Y-4361140D02*
X37547618Y-4408760D01*
X37547618Y-4408760D02*
X37404761Y-4456379D01*
X37404761Y-4456379D02*
X37309523Y-4456379D01*
X37309523Y-4456379D02*
X37166666Y-4408760D01*
X37166666Y-4408760D02*
X37071428Y-4313521D01*
X37071428Y-4313521D02*
X37023809Y-4218283D01*
X37023809Y-4218283D02*
X36976190Y-4027807D01*
X36976190Y-4027807D02*
X36976190Y-3884950D01*
X36976190Y-3884950D02*
X37023809Y-3694474D01*
X37023809Y-3694474D02*
X37071428Y-3599236D01*
X37071428Y-3599236D02*
X37166666Y-3503998D01*
X37166666Y-3503998D02*
X37309523Y-3456379D01*
X37309523Y-3456379D02*
X37404761Y-3456379D01*
X37404761Y-3456379D02*
X37547618Y-3503998D01*
X37547618Y-3503998D02*
X37595237Y-3551617D01*
X38023809Y-4456379D02*
X38023809Y-3456379D01*
X38023809Y-3932569D02*
X38595237Y-3932569D01*
X38595237Y-4456379D02*
X38595237Y-3456379D01*
X40404761Y-4361140D02*
X40357142Y-4408760D01*
X40357142Y-4408760D02*
X40214285Y-4456379D01*
X40214285Y-4456379D02*
X40119047Y-4456379D01*
X40119047Y-4456379D02*
X39976190Y-4408760D01*
X39976190Y-4408760D02*
X39880952Y-4313521D01*
X39880952Y-4313521D02*
X39833333Y-4218283D01*
X39833333Y-4218283D02*
X39785714Y-4027807D01*
X39785714Y-4027807D02*
X39785714Y-3884950D01*
X39785714Y-3884950D02*
X39833333Y-3694474D01*
X39833333Y-3694474D02*
X39880952Y-3599236D01*
X39880952Y-3599236D02*
X39976190Y-3503998D01*
X39976190Y-3503998D02*
X40119047Y-3456379D01*
X40119047Y-3456379D02*
X40214285Y-3456379D01*
X40214285Y-3456379D02*
X40357142Y-3503998D01*
X40357142Y-3503998D02*
X40404761Y-3551617D01*
X40785714Y-4170664D02*
X41261904Y-4170664D01*
X40690476Y-4456379D02*
X41023809Y-3456379D01*
X41023809Y-3456379D02*
X41357142Y-4456379D01*
X41690476Y-4456379D02*
X41690476Y-3456379D01*
X41690476Y-3456379D02*
X42261904Y-4456379D01*
X42261904Y-4456379D02*
X42261904Y-3456379D01*
X43452380Y-3408760D02*
X42595238Y-4694474D01*
X44261904Y-4456379D02*
X43785714Y-4456379D01*
X43785714Y-4456379D02*
X43785714Y-3456379D01*
X44595238Y-4456379D02*
X44595238Y-3456379D01*
X45071428Y-4456379D02*
X45071428Y-3456379D01*
X45071428Y-3456379D02*
X45642856Y-4456379D01*
X45642856Y-4456379D02*
X45642856Y-3456379D01*
X46880952Y-4456379D02*
X46880952Y-3456379D01*
X47357142Y-4456379D02*
X47357142Y-3456379D01*
X47357142Y-3456379D02*
X47928570Y-4456379D01*
X47928570Y-4456379D02*
X47928570Y-3456379D01*
X48261904Y-3456379D02*
X48833332Y-3456379D01*
X48547618Y-4456379D02*
X48547618Y-3456379D01*
X49166666Y-3932569D02*
X49499999Y-3932569D01*
X49642856Y-4456379D02*
X49166666Y-4456379D01*
X49166666Y-4456379D02*
X49166666Y-3456379D01*
X49166666Y-3456379D02*
X49642856Y-3456379D01*
X50642856Y-4456379D02*
X50309523Y-3980188D01*
X50071428Y-4456379D02*
X50071428Y-3456379D01*
X50071428Y-3456379D02*
X50452380Y-3456379D01*
X50452380Y-3456379D02*
X50547618Y-3503998D01*
X50547618Y-3503998D02*
X50595237Y-3551617D01*
X50595237Y-3551617D02*
X50642856Y-3646855D01*
X50642856Y-3646855D02*
X50642856Y-3789712D01*
X50642856Y-3789712D02*
X50595237Y-3884950D01*
X50595237Y-3884950D02*
X50547618Y-3932569D01*
X50547618Y-3932569D02*
X50452380Y-3980188D01*
X50452380Y-3980188D02*
X50071428Y-3980188D01*
X51404761Y-3932569D02*
X51071428Y-3932569D01*
X51071428Y-4456379D02*
X51071428Y-3456379D01*
X51071428Y-3456379D02*
X51547618Y-3456379D01*
X51880952Y-4170664D02*
X52357142Y-4170664D01*
X51785714Y-4456379D02*
X52119047Y-3456379D01*
X52119047Y-3456379D02*
X52452380Y-4456379D01*
X53357142Y-4361140D02*
X53309523Y-4408760D01*
X53309523Y-4408760D02*
X53166666Y-4456379D01*
X53166666Y-4456379D02*
X53071428Y-4456379D01*
X53071428Y-4456379D02*
X52928571Y-4408760D01*
X52928571Y-4408760D02*
X52833333Y-4313521D01*
X52833333Y-4313521D02*
X52785714Y-4218283D01*
X52785714Y-4218283D02*
X52738095Y-4027807D01*
X52738095Y-4027807D02*
X52738095Y-3884950D01*
X52738095Y-3884950D02*
X52785714Y-3694474D01*
X52785714Y-3694474D02*
X52833333Y-3599236D01*
X52833333Y-3599236D02*
X52928571Y-3503998D01*
X52928571Y-3503998D02*
X53071428Y-3456379D01*
X53071428Y-3456379D02*
X53166666Y-3456379D01*
X53166666Y-3456379D02*
X53309523Y-3503998D01*
X53309523Y-3503998D02*
X53357142Y-3551617D01*
X53785714Y-3932569D02*
X54119047Y-3932569D01*
X54261904Y-4456379D02*
X53785714Y-4456379D01*
X53785714Y-4456379D02*
X53785714Y-3456379D01*
X53785714Y-3456379D02*
X54261904Y-3456379D01*
D11*
X41238095Y-80804819D02*
X41238095Y-81614342D01*
X41238095Y-81614342D02*
X41285714Y-81709580D01*
X41285714Y-81709580D02*
X41333333Y-81757200D01*
X41333333Y-81757200D02*
X41428571Y-81804819D01*
X41428571Y-81804819D02*
X41619047Y-81804819D01*
X41619047Y-81804819D02*
X41714285Y-81757200D01*
X41714285Y-81757200D02*
X41761904Y-81709580D01*
X41761904Y-81709580D02*
X41809523Y-81614342D01*
X41809523Y-81614342D02*
X41809523Y-80804819D01*
X42761904Y-80804819D02*
X42285714Y-80804819D01*
X42285714Y-80804819D02*
X42238095Y-81281009D01*
X42238095Y-81281009D02*
X42285714Y-81233390D01*
X42285714Y-81233390D02*
X42380952Y-81185771D01*
X42380952Y-81185771D02*
X42619047Y-81185771D01*
X42619047Y-81185771D02*
X42714285Y-81233390D01*
X42714285Y-81233390D02*
X42761904Y-81281009D01*
X42761904Y-81281009D02*
X42809523Y-81376247D01*
X42809523Y-81376247D02*
X42809523Y-81614342D01*
X42809523Y-81614342D02*
X42761904Y-81709580D01*
X42761904Y-81709580D02*
X42714285Y-81757200D01*
X42714285Y-81757200D02*
X42619047Y-81804819D01*
X42619047Y-81804819D02*
X42380952Y-81804819D01*
X42380952Y-81804819D02*
X42285714Y-81757200D01*
X42285714Y-81757200D02*
X42238095Y-81709580D01*
X93238095Y-35054819D02*
X93238095Y-35864342D01*
X93238095Y-35864342D02*
X93285714Y-35959580D01*
X93285714Y-35959580D02*
X93333333Y-36007200D01*
X93333333Y-36007200D02*
X93428571Y-36054819D01*
X93428571Y-36054819D02*
X93619047Y-36054819D01*
X93619047Y-36054819D02*
X93714285Y-36007200D01*
X93714285Y-36007200D02*
X93761904Y-35959580D01*
X93761904Y-35959580D02*
X93809523Y-35864342D01*
X93809523Y-35864342D02*
X93809523Y-35054819D01*
X94190476Y-35054819D02*
X94809523Y-35054819D01*
X94809523Y-35054819D02*
X94476190Y-35435771D01*
X94476190Y-35435771D02*
X94619047Y-35435771D01*
X94619047Y-35435771D02*
X94714285Y-35483390D01*
X94714285Y-35483390D02*
X94761904Y-35531009D01*
X94761904Y-35531009D02*
X94809523Y-35626247D01*
X94809523Y-35626247D02*
X94809523Y-35864342D01*
X94809523Y-35864342D02*
X94761904Y-35959580D01*
X94761904Y-35959580D02*
X94714285Y-36007200D01*
X94714285Y-36007200D02*
X94619047Y-36054819D01*
X94619047Y-36054819D02*
X94333333Y-36054819D01*
X94333333Y-36054819D02*
X94238095Y-36007200D01*
X94238095Y-36007200D02*
X94190476Y-35959580D01*
X23261905Y-77954819D02*
X23261905Y-76954819D01*
X23261905Y-76954819D02*
X23500000Y-76954819D01*
X23500000Y-76954819D02*
X23642857Y-77002438D01*
X23642857Y-77002438D02*
X23738095Y-77097676D01*
X23738095Y-77097676D02*
X23785714Y-77192914D01*
X23785714Y-77192914D02*
X23833333Y-77383390D01*
X23833333Y-77383390D02*
X23833333Y-77526247D01*
X23833333Y-77526247D02*
X23785714Y-77716723D01*
X23785714Y-77716723D02*
X23738095Y-77811961D01*
X23738095Y-77811961D02*
X23642857Y-77907200D01*
X23642857Y-77907200D02*
X23500000Y-77954819D01*
X23500000Y-77954819D02*
X23261905Y-77954819D01*
X24785714Y-77954819D02*
X24214286Y-77954819D01*
X24500000Y-77954819D02*
X24500000Y-76954819D01*
X24500000Y-76954819D02*
X24404762Y-77097676D01*
X24404762Y-77097676D02*
X24309524Y-77192914D01*
X24309524Y-77192914D02*
X24214286Y-77240533D01*
X172666667Y-2304819D02*
X172666667Y-1304819D01*
X172666667Y-1304819D02*
X173000000Y-2019104D01*
X173000000Y-2019104D02*
X173333333Y-1304819D01*
X173333333Y-1304819D02*
X173333333Y-2304819D01*
X173809524Y-2304819D02*
X173809524Y-1304819D01*
X173809524Y-1781009D02*
X174380952Y-1781009D01*
X174380952Y-2304819D02*
X174380952Y-1304819D01*
X174809524Y-1400057D02*
X174857143Y-1352438D01*
X174857143Y-1352438D02*
X174952381Y-1304819D01*
X174952381Y-1304819D02*
X175190476Y-1304819D01*
X175190476Y-1304819D02*
X175285714Y-1352438D01*
X175285714Y-1352438D02*
X175333333Y-1400057D01*
X175333333Y-1400057D02*
X175380952Y-1495295D01*
X175380952Y-1495295D02*
X175380952Y-1590533D01*
X175380952Y-1590533D02*
X175333333Y-1733390D01*
X175333333Y-1733390D02*
X174761905Y-2304819D01*
X174761905Y-2304819D02*
X175380952Y-2304819D01*
X85833333Y-16679580D02*
X85785714Y-16727200D01*
X85785714Y-16727200D02*
X85642857Y-16774819D01*
X85642857Y-16774819D02*
X85547619Y-16774819D01*
X85547619Y-16774819D02*
X85404762Y-16727200D01*
X85404762Y-16727200D02*
X85309524Y-16631961D01*
X85309524Y-16631961D02*
X85261905Y-16536723D01*
X85261905Y-16536723D02*
X85214286Y-16346247D01*
X85214286Y-16346247D02*
X85214286Y-16203390D01*
X85214286Y-16203390D02*
X85261905Y-16012914D01*
X85261905Y-16012914D02*
X85309524Y-15917676D01*
X85309524Y-15917676D02*
X85404762Y-15822438D01*
X85404762Y-15822438D02*
X85547619Y-15774819D01*
X85547619Y-15774819D02*
X85642857Y-15774819D01*
X85642857Y-15774819D02*
X85785714Y-15822438D01*
X85785714Y-15822438D02*
X85833333Y-15870057D01*
X86738095Y-15774819D02*
X86261905Y-15774819D01*
X86261905Y-15774819D02*
X86214286Y-16251009D01*
X86214286Y-16251009D02*
X86261905Y-16203390D01*
X86261905Y-16203390D02*
X86357143Y-16155771D01*
X86357143Y-16155771D02*
X86595238Y-16155771D01*
X86595238Y-16155771D02*
X86690476Y-16203390D01*
X86690476Y-16203390D02*
X86738095Y-16251009D01*
X86738095Y-16251009D02*
X86785714Y-16346247D01*
X86785714Y-16346247D02*
X86785714Y-16584342D01*
X86785714Y-16584342D02*
X86738095Y-16679580D01*
X86738095Y-16679580D02*
X86690476Y-16727200D01*
X86690476Y-16727200D02*
X86595238Y-16774819D01*
X86595238Y-16774819D02*
X86357143Y-16774819D01*
X86357143Y-16774819D02*
X86261905Y-16727200D01*
X86261905Y-16727200D02*
X86214286Y-16679580D01*
X156738095Y-85806819D02*
X157309523Y-85806819D01*
X157023809Y-86806819D02*
X157023809Y-85806819D01*
X157642857Y-86806819D02*
X157642857Y-85806819D01*
X157642857Y-85806819D02*
X158023809Y-85806819D01*
X158023809Y-85806819D02*
X158119047Y-85854438D01*
X158119047Y-85854438D02*
X158166666Y-85902057D01*
X158166666Y-85902057D02*
X158214285Y-85997295D01*
X158214285Y-85997295D02*
X158214285Y-86140152D01*
X158214285Y-86140152D02*
X158166666Y-86235390D01*
X158166666Y-86235390D02*
X158119047Y-86283009D01*
X158119047Y-86283009D02*
X158023809Y-86330628D01*
X158023809Y-86330628D02*
X157642857Y-86330628D01*
X158690476Y-86806819D02*
X158880952Y-86806819D01*
X158880952Y-86806819D02*
X158976190Y-86759200D01*
X158976190Y-86759200D02*
X159023809Y-86711580D01*
X159023809Y-86711580D02*
X159119047Y-86568723D01*
X159119047Y-86568723D02*
X159166666Y-86378247D01*
X159166666Y-86378247D02*
X159166666Y-85997295D01*
X159166666Y-85997295D02*
X159119047Y-85902057D01*
X159119047Y-85902057D02*
X159071428Y-85854438D01*
X159071428Y-85854438D02*
X158976190Y-85806819D01*
X158976190Y-85806819D02*
X158785714Y-85806819D01*
X158785714Y-85806819D02*
X158690476Y-85854438D01*
X158690476Y-85854438D02*
X158642857Y-85902057D01*
X158642857Y-85902057D02*
X158595238Y-85997295D01*
X158595238Y-85997295D02*
X158595238Y-86235390D01*
X158595238Y-86235390D02*
X158642857Y-86330628D01*
X158642857Y-86330628D02*
X158690476Y-86378247D01*
X158690476Y-86378247D02*
X158785714Y-86425866D01*
X158785714Y-86425866D02*
X158976190Y-86425866D01*
X158976190Y-86425866D02*
X159071428Y-86378247D01*
X159071428Y-86378247D02*
X159119047Y-86330628D01*
X159119047Y-86330628D02*
X159166666Y-86235390D01*
X60333333Y-82854819D02*
X59857143Y-82854819D01*
X59857143Y-82854819D02*
X59857143Y-81854819D01*
X61190476Y-82854819D02*
X60619048Y-82854819D01*
X60904762Y-82854819D02*
X60904762Y-81854819D01*
X60904762Y-81854819D02*
X60809524Y-81997676D01*
X60809524Y-81997676D02*
X60714286Y-82092914D01*
X60714286Y-82092914D02*
X60619048Y-82140533D01*
X4666667Y-2304819D02*
X4666667Y-1304819D01*
X4666667Y-1304819D02*
X5000000Y-2019104D01*
X5000000Y-2019104D02*
X5333333Y-1304819D01*
X5333333Y-1304819D02*
X5333333Y-2304819D01*
X5809524Y-2304819D02*
X5809524Y-1304819D01*
X5809524Y-1781009D02*
X6380952Y-1781009D01*
X6380952Y-2304819D02*
X6380952Y-1304819D01*
X7380952Y-2304819D02*
X6809524Y-2304819D01*
X7095238Y-2304819D02*
X7095238Y-1304819D01*
X7095238Y-1304819D02*
X7000000Y-1447676D01*
X7000000Y-1447676D02*
X6904762Y-1542914D01*
X6904762Y-1542914D02*
X6809524Y-1590533D01*
X71833333Y-82679580D02*
X71785714Y-82727200D01*
X71785714Y-82727200D02*
X71642857Y-82774819D01*
X71642857Y-82774819D02*
X71547619Y-82774819D01*
X71547619Y-82774819D02*
X71404762Y-82727200D01*
X71404762Y-82727200D02*
X71309524Y-82631961D01*
X71309524Y-82631961D02*
X71261905Y-82536723D01*
X71261905Y-82536723D02*
X71214286Y-82346247D01*
X71214286Y-82346247D02*
X71214286Y-82203390D01*
X71214286Y-82203390D02*
X71261905Y-82012914D01*
X71261905Y-82012914D02*
X71309524Y-81917676D01*
X71309524Y-81917676D02*
X71404762Y-81822438D01*
X71404762Y-81822438D02*
X71547619Y-81774819D01*
X71547619Y-81774819D02*
X71642857Y-81774819D01*
X71642857Y-81774819D02*
X71785714Y-81822438D01*
X71785714Y-81822438D02*
X71833333Y-81870057D01*
X72690476Y-82108152D02*
X72690476Y-82774819D01*
X72452381Y-81727200D02*
X72214286Y-82441485D01*
X72214286Y-82441485D02*
X72833333Y-82441485D01*
D12*
X117032380Y-10309271D02*
X117032380Y-11337366D01*
X117032380Y-11337366D02*
X117092857Y-11458318D01*
X117092857Y-11458318D02*
X117153333Y-11518795D01*
X117153333Y-11518795D02*
X117274285Y-11579271D01*
X117274285Y-11579271D02*
X117516190Y-11579271D01*
X117516190Y-11579271D02*
X117637142Y-11518795D01*
X117637142Y-11518795D02*
X117697619Y-11458318D01*
X117697619Y-11458318D02*
X117758095Y-11337366D01*
X117758095Y-11337366D02*
X117758095Y-10309271D01*
X119028095Y-11579271D02*
X118302380Y-11579271D01*
X118665237Y-11579271D02*
X118665237Y-10309271D01*
X118665237Y-10309271D02*
X118544285Y-10490699D01*
X118544285Y-10490699D02*
X118423333Y-10611652D01*
X118423333Y-10611652D02*
X118302380Y-10672128D01*
D11*
X19583333Y-91109580D02*
X19535714Y-91157200D01*
X19535714Y-91157200D02*
X19392857Y-91204819D01*
X19392857Y-91204819D02*
X19297619Y-91204819D01*
X19297619Y-91204819D02*
X19154762Y-91157200D01*
X19154762Y-91157200D02*
X19059524Y-91061961D01*
X19059524Y-91061961D02*
X19011905Y-90966723D01*
X19011905Y-90966723D02*
X18964286Y-90776247D01*
X18964286Y-90776247D02*
X18964286Y-90633390D01*
X18964286Y-90633390D02*
X19011905Y-90442914D01*
X19011905Y-90442914D02*
X19059524Y-90347676D01*
X19059524Y-90347676D02*
X19154762Y-90252438D01*
X19154762Y-90252438D02*
X19297619Y-90204819D01*
X19297619Y-90204819D02*
X19392857Y-90204819D01*
X19392857Y-90204819D02*
X19535714Y-90252438D01*
X19535714Y-90252438D02*
X19583333Y-90300057D01*
X20535714Y-91204819D02*
X19964286Y-91204819D01*
X20250000Y-91204819D02*
X20250000Y-90204819D01*
X20250000Y-90204819D02*
X20154762Y-90347676D01*
X20154762Y-90347676D02*
X20059524Y-90442914D01*
X20059524Y-90442914D02*
X19964286Y-90490533D01*
X57476667Y-9987200D02*
X57619524Y-10034819D01*
X57619524Y-10034819D02*
X57857619Y-10034819D01*
X57857619Y-10034819D02*
X57952857Y-9987200D01*
X57952857Y-9987200D02*
X58000476Y-9939580D01*
X58000476Y-9939580D02*
X58048095Y-9844342D01*
X58048095Y-9844342D02*
X58048095Y-9749104D01*
X58048095Y-9749104D02*
X58000476Y-9653866D01*
X58000476Y-9653866D02*
X57952857Y-9606247D01*
X57952857Y-9606247D02*
X57857619Y-9558628D01*
X57857619Y-9558628D02*
X57667143Y-9511009D01*
X57667143Y-9511009D02*
X57571905Y-9463390D01*
X57571905Y-9463390D02*
X57524286Y-9415771D01*
X57524286Y-9415771D02*
X57476667Y-9320533D01*
X57476667Y-9320533D02*
X57476667Y-9225295D01*
X57476667Y-9225295D02*
X57524286Y-9130057D01*
X57524286Y-9130057D02*
X57571905Y-9082438D01*
X57571905Y-9082438D02*
X57667143Y-9034819D01*
X57667143Y-9034819D02*
X57905238Y-9034819D01*
X57905238Y-9034819D02*
X58048095Y-9082438D01*
X58381429Y-9034819D02*
X58619524Y-10034819D01*
X58619524Y-10034819D02*
X58810000Y-9320533D01*
X58810000Y-9320533D02*
X59000476Y-10034819D01*
X59000476Y-10034819D02*
X59238572Y-9034819D01*
X60143333Y-10034819D02*
X59571905Y-10034819D01*
X59857619Y-10034819D02*
X59857619Y-9034819D01*
X59857619Y-9034819D02*
X59762381Y-9177676D01*
X59762381Y-9177676D02*
X59667143Y-9272914D01*
X59667143Y-9272914D02*
X59571905Y-9320533D01*
X42738095Y-57806819D02*
X43309523Y-57806819D01*
X43023809Y-58806819D02*
X43023809Y-57806819D01*
X43642857Y-58806819D02*
X43642857Y-57806819D01*
X43642857Y-57806819D02*
X44023809Y-57806819D01*
X44023809Y-57806819D02*
X44119047Y-57854438D01*
X44119047Y-57854438D02*
X44166666Y-57902057D01*
X44166666Y-57902057D02*
X44214285Y-57997295D01*
X44214285Y-57997295D02*
X44214285Y-58140152D01*
X44214285Y-58140152D02*
X44166666Y-58235390D01*
X44166666Y-58235390D02*
X44119047Y-58283009D01*
X44119047Y-58283009D02*
X44023809Y-58330628D01*
X44023809Y-58330628D02*
X43642857Y-58330628D01*
X44595238Y-57902057D02*
X44642857Y-57854438D01*
X44642857Y-57854438D02*
X44738095Y-57806819D01*
X44738095Y-57806819D02*
X44976190Y-57806819D01*
X44976190Y-57806819D02*
X45071428Y-57854438D01*
X45071428Y-57854438D02*
X45119047Y-57902057D01*
X45119047Y-57902057D02*
X45166666Y-57997295D01*
X45166666Y-57997295D02*
X45166666Y-58092533D01*
X45166666Y-58092533D02*
X45119047Y-58235390D01*
X45119047Y-58235390D02*
X44547619Y-58806819D01*
X44547619Y-58806819D02*
X45166666Y-58806819D01*
X29666666Y-70101009D02*
X29333333Y-70101009D01*
X29333333Y-70624819D02*
X29333333Y-69624819D01*
X29333333Y-69624819D02*
X29809523Y-69624819D01*
X30714285Y-70624819D02*
X30142857Y-70624819D01*
X30428571Y-70624819D02*
X30428571Y-69624819D01*
X30428571Y-69624819D02*
X30333333Y-69767676D01*
X30333333Y-69767676D02*
X30238095Y-69862914D01*
X30238095Y-69862914D02*
X30142857Y-69910533D01*
X8738095Y-56257200D02*
X8880952Y-56304819D01*
X8880952Y-56304819D02*
X9119047Y-56304819D01*
X9119047Y-56304819D02*
X9214285Y-56257200D01*
X9214285Y-56257200D02*
X9261904Y-56209580D01*
X9261904Y-56209580D02*
X9309523Y-56114342D01*
X9309523Y-56114342D02*
X9309523Y-56019104D01*
X9309523Y-56019104D02*
X9261904Y-55923866D01*
X9261904Y-55923866D02*
X9214285Y-55876247D01*
X9214285Y-55876247D02*
X9119047Y-55828628D01*
X9119047Y-55828628D02*
X8928571Y-55781009D01*
X8928571Y-55781009D02*
X8833333Y-55733390D01*
X8833333Y-55733390D02*
X8785714Y-55685771D01*
X8785714Y-55685771D02*
X8738095Y-55590533D01*
X8738095Y-55590533D02*
X8738095Y-55495295D01*
X8738095Y-55495295D02*
X8785714Y-55400057D01*
X8785714Y-55400057D02*
X8833333Y-55352438D01*
X8833333Y-55352438D02*
X8928571Y-55304819D01*
X8928571Y-55304819D02*
X9166666Y-55304819D01*
X9166666Y-55304819D02*
X9309523Y-55352438D01*
X10309523Y-56304819D02*
X9976190Y-55828628D01*
X9738095Y-56304819D02*
X9738095Y-55304819D01*
X9738095Y-55304819D02*
X10119047Y-55304819D01*
X10119047Y-55304819D02*
X10214285Y-55352438D01*
X10214285Y-55352438D02*
X10261904Y-55400057D01*
X10261904Y-55400057D02*
X10309523Y-55495295D01*
X10309523Y-55495295D02*
X10309523Y-55638152D01*
X10309523Y-55638152D02*
X10261904Y-55733390D01*
X10261904Y-55733390D02*
X10214285Y-55781009D01*
X10214285Y-55781009D02*
X10119047Y-55828628D01*
X10119047Y-55828628D02*
X9738095Y-55828628D01*
X11261904Y-56304819D02*
X10690476Y-56304819D01*
X10976190Y-56304819D02*
X10976190Y-55304819D01*
X10976190Y-55304819D02*
X10880952Y-55447676D01*
X10880952Y-55447676D02*
X10785714Y-55542914D01*
X10785714Y-55542914D02*
X10690476Y-55590533D01*
X109738095Y-42806819D02*
X110309523Y-42806819D01*
X110023809Y-43806819D02*
X110023809Y-42806819D01*
X110642857Y-43806819D02*
X110642857Y-42806819D01*
X110642857Y-42806819D02*
X111023809Y-42806819D01*
X111023809Y-42806819D02*
X111119047Y-42854438D01*
X111119047Y-42854438D02*
X111166666Y-42902057D01*
X111166666Y-42902057D02*
X111214285Y-42997295D01*
X111214285Y-42997295D02*
X111214285Y-43140152D01*
X111214285Y-43140152D02*
X111166666Y-43235390D01*
X111166666Y-43235390D02*
X111119047Y-43283009D01*
X111119047Y-43283009D02*
X111023809Y-43330628D01*
X111023809Y-43330628D02*
X110642857Y-43330628D01*
X111547619Y-42806819D02*
X112214285Y-42806819D01*
X112214285Y-42806819D02*
X111785714Y-43806819D01*
X109738095Y-15806819D02*
X110309523Y-15806819D01*
X110023809Y-16806819D02*
X110023809Y-15806819D01*
X110642857Y-16806819D02*
X110642857Y-15806819D01*
X110642857Y-15806819D02*
X111023809Y-15806819D01*
X111023809Y-15806819D02*
X111119047Y-15854438D01*
X111119047Y-15854438D02*
X111166666Y-15902057D01*
X111166666Y-15902057D02*
X111214285Y-15997295D01*
X111214285Y-15997295D02*
X111214285Y-16140152D01*
X111214285Y-16140152D02*
X111166666Y-16235390D01*
X111166666Y-16235390D02*
X111119047Y-16283009D01*
X111119047Y-16283009D02*
X111023809Y-16330628D01*
X111023809Y-16330628D02*
X110642857Y-16330628D01*
X112071428Y-16140152D02*
X112071428Y-16806819D01*
X111833333Y-15759200D02*
X111595238Y-16473485D01*
X111595238Y-16473485D02*
X112214285Y-16473485D01*
X93238095Y-60054819D02*
X93238095Y-60864342D01*
X93238095Y-60864342D02*
X93285714Y-60959580D01*
X93285714Y-60959580D02*
X93333333Y-61007200D01*
X93333333Y-61007200D02*
X93428571Y-61054819D01*
X93428571Y-61054819D02*
X93619047Y-61054819D01*
X93619047Y-61054819D02*
X93714285Y-61007200D01*
X93714285Y-61007200D02*
X93761904Y-60959580D01*
X93761904Y-60959580D02*
X93809523Y-60864342D01*
X93809523Y-60864342D02*
X93809523Y-60054819D01*
X94714285Y-60388152D02*
X94714285Y-61054819D01*
X94476190Y-60007200D02*
X94238095Y-60721485D01*
X94238095Y-60721485D02*
X94857142Y-60721485D01*
X55261905Y-95954819D02*
X55261905Y-94954819D01*
X55261905Y-94954819D02*
X55500000Y-94954819D01*
X55500000Y-94954819D02*
X55642857Y-95002438D01*
X55642857Y-95002438D02*
X55738095Y-95097676D01*
X55738095Y-95097676D02*
X55785714Y-95192914D01*
X55785714Y-95192914D02*
X55833333Y-95383390D01*
X55833333Y-95383390D02*
X55833333Y-95526247D01*
X55833333Y-95526247D02*
X55785714Y-95716723D01*
X55785714Y-95716723D02*
X55738095Y-95811961D01*
X55738095Y-95811961D02*
X55642857Y-95907200D01*
X55642857Y-95907200D02*
X55500000Y-95954819D01*
X55500000Y-95954819D02*
X55261905Y-95954819D01*
X56214286Y-95050057D02*
X56261905Y-95002438D01*
X56261905Y-95002438D02*
X56357143Y-94954819D01*
X56357143Y-94954819D02*
X56595238Y-94954819D01*
X56595238Y-94954819D02*
X56690476Y-95002438D01*
X56690476Y-95002438D02*
X56738095Y-95050057D01*
X56738095Y-95050057D02*
X56785714Y-95145295D01*
X56785714Y-95145295D02*
X56785714Y-95240533D01*
X56785714Y-95240533D02*
X56738095Y-95383390D01*
X56738095Y-95383390D02*
X56166667Y-95954819D01*
X56166667Y-95954819D02*
X56785714Y-95954819D01*
X25833333Y-86679580D02*
X25785714Y-86727200D01*
X25785714Y-86727200D02*
X25642857Y-86774819D01*
X25642857Y-86774819D02*
X25547619Y-86774819D01*
X25547619Y-86774819D02*
X25404762Y-86727200D01*
X25404762Y-86727200D02*
X25309524Y-86631961D01*
X25309524Y-86631961D02*
X25261905Y-86536723D01*
X25261905Y-86536723D02*
X25214286Y-86346247D01*
X25214286Y-86346247D02*
X25214286Y-86203390D01*
X25214286Y-86203390D02*
X25261905Y-86012914D01*
X25261905Y-86012914D02*
X25309524Y-85917676D01*
X25309524Y-85917676D02*
X25404762Y-85822438D01*
X25404762Y-85822438D02*
X25547619Y-85774819D01*
X25547619Y-85774819D02*
X25642857Y-85774819D01*
X25642857Y-85774819D02*
X25785714Y-85822438D01*
X25785714Y-85822438D02*
X25833333Y-85870057D01*
X26214286Y-85870057D02*
X26261905Y-85822438D01*
X26261905Y-85822438D02*
X26357143Y-85774819D01*
X26357143Y-85774819D02*
X26595238Y-85774819D01*
X26595238Y-85774819D02*
X26690476Y-85822438D01*
X26690476Y-85822438D02*
X26738095Y-85870057D01*
X26738095Y-85870057D02*
X26785714Y-85965295D01*
X26785714Y-85965295D02*
X26785714Y-86060533D01*
X26785714Y-86060533D02*
X26738095Y-86203390D01*
X26738095Y-86203390D02*
X26166667Y-86774819D01*
X26166667Y-86774819D02*
X26785714Y-86774819D01*
X85833333Y-37679580D02*
X85785714Y-37727200D01*
X85785714Y-37727200D02*
X85642857Y-37774819D01*
X85642857Y-37774819D02*
X85547619Y-37774819D01*
X85547619Y-37774819D02*
X85404762Y-37727200D01*
X85404762Y-37727200D02*
X85309524Y-37631961D01*
X85309524Y-37631961D02*
X85261905Y-37536723D01*
X85261905Y-37536723D02*
X85214286Y-37346247D01*
X85214286Y-37346247D02*
X85214286Y-37203390D01*
X85214286Y-37203390D02*
X85261905Y-37012914D01*
X85261905Y-37012914D02*
X85309524Y-36917676D01*
X85309524Y-36917676D02*
X85404762Y-36822438D01*
X85404762Y-36822438D02*
X85547619Y-36774819D01*
X85547619Y-36774819D02*
X85642857Y-36774819D01*
X85642857Y-36774819D02*
X85785714Y-36822438D01*
X85785714Y-36822438D02*
X85833333Y-36870057D01*
X86690476Y-36774819D02*
X86500000Y-36774819D01*
X86500000Y-36774819D02*
X86404762Y-36822438D01*
X86404762Y-36822438D02*
X86357143Y-36870057D01*
X86357143Y-36870057D02*
X86261905Y-37012914D01*
X86261905Y-37012914D02*
X86214286Y-37203390D01*
X86214286Y-37203390D02*
X86214286Y-37584342D01*
X86214286Y-37584342D02*
X86261905Y-37679580D01*
X86261905Y-37679580D02*
X86309524Y-37727200D01*
X86309524Y-37727200D02*
X86404762Y-37774819D01*
X86404762Y-37774819D02*
X86595238Y-37774819D01*
X86595238Y-37774819D02*
X86690476Y-37727200D01*
X86690476Y-37727200D02*
X86738095Y-37679580D01*
X86738095Y-37679580D02*
X86785714Y-37584342D01*
X86785714Y-37584342D02*
X86785714Y-37346247D01*
X86785714Y-37346247D02*
X86738095Y-37251009D01*
X86738095Y-37251009D02*
X86690476Y-37203390D01*
X86690476Y-37203390D02*
X86595238Y-37155771D01*
X86595238Y-37155771D02*
X86404762Y-37155771D01*
X86404762Y-37155771D02*
X86309524Y-37203390D01*
X86309524Y-37203390D02*
X86261905Y-37251009D01*
X86261905Y-37251009D02*
X86214286Y-37346247D01*
X57476667Y-48987200D02*
X57619524Y-49034819D01*
X57619524Y-49034819D02*
X57857619Y-49034819D01*
X57857619Y-49034819D02*
X57952857Y-48987200D01*
X57952857Y-48987200D02*
X58000476Y-48939580D01*
X58000476Y-48939580D02*
X58048095Y-48844342D01*
X58048095Y-48844342D02*
X58048095Y-48749104D01*
X58048095Y-48749104D02*
X58000476Y-48653866D01*
X58000476Y-48653866D02*
X57952857Y-48606247D01*
X57952857Y-48606247D02*
X57857619Y-48558628D01*
X57857619Y-48558628D02*
X57667143Y-48511009D01*
X57667143Y-48511009D02*
X57571905Y-48463390D01*
X57571905Y-48463390D02*
X57524286Y-48415771D01*
X57524286Y-48415771D02*
X57476667Y-48320533D01*
X57476667Y-48320533D02*
X57476667Y-48225295D01*
X57476667Y-48225295D02*
X57524286Y-48130057D01*
X57524286Y-48130057D02*
X57571905Y-48082438D01*
X57571905Y-48082438D02*
X57667143Y-48034819D01*
X57667143Y-48034819D02*
X57905238Y-48034819D01*
X57905238Y-48034819D02*
X58048095Y-48082438D01*
X58381429Y-48034819D02*
X58619524Y-49034819D01*
X58619524Y-49034819D02*
X58810000Y-48320533D01*
X58810000Y-48320533D02*
X59000476Y-49034819D01*
X59000476Y-49034819D02*
X59238572Y-48034819D01*
X59571905Y-48130057D02*
X59619524Y-48082438D01*
X59619524Y-48082438D02*
X59714762Y-48034819D01*
X59714762Y-48034819D02*
X59952857Y-48034819D01*
X59952857Y-48034819D02*
X60048095Y-48082438D01*
X60048095Y-48082438D02*
X60095714Y-48130057D01*
X60095714Y-48130057D02*
X60143333Y-48225295D01*
X60143333Y-48225295D02*
X60143333Y-48320533D01*
X60143333Y-48320533D02*
X60095714Y-48463390D01*
X60095714Y-48463390D02*
X59524286Y-49034819D01*
X59524286Y-49034819D02*
X60143333Y-49034819D01*
X109738095Y-21806819D02*
X110309523Y-21806819D01*
X110023809Y-22806819D02*
X110023809Y-21806819D01*
X110642857Y-22806819D02*
X110642857Y-21806819D01*
X110642857Y-21806819D02*
X111023809Y-21806819D01*
X111023809Y-21806819D02*
X111119047Y-21854438D01*
X111119047Y-21854438D02*
X111166666Y-21902057D01*
X111166666Y-21902057D02*
X111214285Y-21997295D01*
X111214285Y-21997295D02*
X111214285Y-22140152D01*
X111214285Y-22140152D02*
X111166666Y-22235390D01*
X111166666Y-22235390D02*
X111119047Y-22283009D01*
X111119047Y-22283009D02*
X111023809Y-22330628D01*
X111023809Y-22330628D02*
X110642857Y-22330628D01*
X112119047Y-21806819D02*
X111642857Y-21806819D01*
X111642857Y-21806819D02*
X111595238Y-22283009D01*
X111595238Y-22283009D02*
X111642857Y-22235390D01*
X111642857Y-22235390D02*
X111738095Y-22187771D01*
X111738095Y-22187771D02*
X111976190Y-22187771D01*
X111976190Y-22187771D02*
X112071428Y-22235390D01*
X112071428Y-22235390D02*
X112119047Y-22283009D01*
X112119047Y-22283009D02*
X112166666Y-22378247D01*
X112166666Y-22378247D02*
X112166666Y-22616342D01*
X112166666Y-22616342D02*
X112119047Y-22711580D01*
X112119047Y-22711580D02*
X112071428Y-22759200D01*
X112071428Y-22759200D02*
X111976190Y-22806819D01*
X111976190Y-22806819D02*
X111738095Y-22806819D01*
X111738095Y-22806819D02*
X111642857Y-22759200D01*
X111642857Y-22759200D02*
X111595238Y-22711580D01*
X109738095Y-36806819D02*
X110309523Y-36806819D01*
X110023809Y-37806819D02*
X110023809Y-36806819D01*
X110642857Y-37806819D02*
X110642857Y-36806819D01*
X110642857Y-36806819D02*
X111023809Y-36806819D01*
X111023809Y-36806819D02*
X111119047Y-36854438D01*
X111119047Y-36854438D02*
X111166666Y-36902057D01*
X111166666Y-36902057D02*
X111214285Y-36997295D01*
X111214285Y-36997295D02*
X111214285Y-37140152D01*
X111214285Y-37140152D02*
X111166666Y-37235390D01*
X111166666Y-37235390D02*
X111119047Y-37283009D01*
X111119047Y-37283009D02*
X111023809Y-37330628D01*
X111023809Y-37330628D02*
X110642857Y-37330628D01*
X112071428Y-36806819D02*
X111880952Y-36806819D01*
X111880952Y-36806819D02*
X111785714Y-36854438D01*
X111785714Y-36854438D02*
X111738095Y-36902057D01*
X111738095Y-36902057D02*
X111642857Y-37044914D01*
X111642857Y-37044914D02*
X111595238Y-37235390D01*
X111595238Y-37235390D02*
X111595238Y-37616342D01*
X111595238Y-37616342D02*
X111642857Y-37711580D01*
X111642857Y-37711580D02*
X111690476Y-37759200D01*
X111690476Y-37759200D02*
X111785714Y-37806819D01*
X111785714Y-37806819D02*
X111976190Y-37806819D01*
X111976190Y-37806819D02*
X112071428Y-37759200D01*
X112071428Y-37759200D02*
X112119047Y-37711580D01*
X112119047Y-37711580D02*
X112166666Y-37616342D01*
X112166666Y-37616342D02*
X112166666Y-37378247D01*
X112166666Y-37378247D02*
X112119047Y-37283009D01*
X112119047Y-37283009D02*
X112071428Y-37235390D01*
X112071428Y-37235390D02*
X111976190Y-37187771D01*
X111976190Y-37187771D02*
X111785714Y-37187771D01*
X111785714Y-37187771D02*
X111690476Y-37235390D01*
X111690476Y-37235390D02*
X111642857Y-37283009D01*
X111642857Y-37283009D02*
X111595238Y-37378247D01*
X22738095Y-57806819D02*
X23309523Y-57806819D01*
X23023809Y-58806819D02*
X23023809Y-57806819D01*
X23642857Y-58806819D02*
X23642857Y-57806819D01*
X23642857Y-57806819D02*
X24023809Y-57806819D01*
X24023809Y-57806819D02*
X24119047Y-57854438D01*
X24119047Y-57854438D02*
X24166666Y-57902057D01*
X24166666Y-57902057D02*
X24214285Y-57997295D01*
X24214285Y-57997295D02*
X24214285Y-58140152D01*
X24214285Y-58140152D02*
X24166666Y-58235390D01*
X24166666Y-58235390D02*
X24119047Y-58283009D01*
X24119047Y-58283009D02*
X24023809Y-58330628D01*
X24023809Y-58330628D02*
X23642857Y-58330628D01*
X24547619Y-57806819D02*
X25166666Y-57806819D01*
X25166666Y-57806819D02*
X24833333Y-58187771D01*
X24833333Y-58187771D02*
X24976190Y-58187771D01*
X24976190Y-58187771D02*
X25071428Y-58235390D01*
X25071428Y-58235390D02*
X25119047Y-58283009D01*
X25119047Y-58283009D02*
X25166666Y-58378247D01*
X25166666Y-58378247D02*
X25166666Y-58616342D01*
X25166666Y-58616342D02*
X25119047Y-58711580D01*
X25119047Y-58711580D02*
X25071428Y-58759200D01*
X25071428Y-58759200D02*
X24976190Y-58806819D01*
X24976190Y-58806819D02*
X24690476Y-58806819D01*
X24690476Y-58806819D02*
X24595238Y-58759200D01*
X24595238Y-58759200D02*
X24547619Y-58711580D01*
X85833333Y-62679580D02*
X85785714Y-62727200D01*
X85785714Y-62727200D02*
X85642857Y-62774819D01*
X85642857Y-62774819D02*
X85547619Y-62774819D01*
X85547619Y-62774819D02*
X85404762Y-62727200D01*
X85404762Y-62727200D02*
X85309524Y-62631961D01*
X85309524Y-62631961D02*
X85261905Y-62536723D01*
X85261905Y-62536723D02*
X85214286Y-62346247D01*
X85214286Y-62346247D02*
X85214286Y-62203390D01*
X85214286Y-62203390D02*
X85261905Y-62012914D01*
X85261905Y-62012914D02*
X85309524Y-61917676D01*
X85309524Y-61917676D02*
X85404762Y-61822438D01*
X85404762Y-61822438D02*
X85547619Y-61774819D01*
X85547619Y-61774819D02*
X85642857Y-61774819D01*
X85642857Y-61774819D02*
X85785714Y-61822438D01*
X85785714Y-61822438D02*
X85833333Y-61870057D01*
X86166667Y-61774819D02*
X86833333Y-61774819D01*
X86833333Y-61774819D02*
X86404762Y-62774819D01*
X20738095Y-62257200D02*
X20880952Y-62304819D01*
X20880952Y-62304819D02*
X21119047Y-62304819D01*
X21119047Y-62304819D02*
X21214285Y-62257200D01*
X21214285Y-62257200D02*
X21261904Y-62209580D01*
X21261904Y-62209580D02*
X21309523Y-62114342D01*
X21309523Y-62114342D02*
X21309523Y-62019104D01*
X21309523Y-62019104D02*
X21261904Y-61923866D01*
X21261904Y-61923866D02*
X21214285Y-61876247D01*
X21214285Y-61876247D02*
X21119047Y-61828628D01*
X21119047Y-61828628D02*
X20928571Y-61781009D01*
X20928571Y-61781009D02*
X20833333Y-61733390D01*
X20833333Y-61733390D02*
X20785714Y-61685771D01*
X20785714Y-61685771D02*
X20738095Y-61590533D01*
X20738095Y-61590533D02*
X20738095Y-61495295D01*
X20738095Y-61495295D02*
X20785714Y-61400057D01*
X20785714Y-61400057D02*
X20833333Y-61352438D01*
X20833333Y-61352438D02*
X20928571Y-61304819D01*
X20928571Y-61304819D02*
X21166666Y-61304819D01*
X21166666Y-61304819D02*
X21309523Y-61352438D01*
X22309523Y-62304819D02*
X21976190Y-61828628D01*
X21738095Y-62304819D02*
X21738095Y-61304819D01*
X21738095Y-61304819D02*
X22119047Y-61304819D01*
X22119047Y-61304819D02*
X22214285Y-61352438D01*
X22214285Y-61352438D02*
X22261904Y-61400057D01*
X22261904Y-61400057D02*
X22309523Y-61495295D01*
X22309523Y-61495295D02*
X22309523Y-61638152D01*
X22309523Y-61638152D02*
X22261904Y-61733390D01*
X22261904Y-61733390D02*
X22214285Y-61781009D01*
X22214285Y-61781009D02*
X22119047Y-61828628D01*
X22119047Y-61828628D02*
X21738095Y-61828628D01*
X22690476Y-61400057D02*
X22738095Y-61352438D01*
X22738095Y-61352438D02*
X22833333Y-61304819D01*
X22833333Y-61304819D02*
X23071428Y-61304819D01*
X23071428Y-61304819D02*
X23166666Y-61352438D01*
X23166666Y-61352438D02*
X23214285Y-61400057D01*
X23214285Y-61400057D02*
X23261904Y-61495295D01*
X23261904Y-61495295D02*
X23261904Y-61590533D01*
X23261904Y-61590533D02*
X23214285Y-61733390D01*
X23214285Y-61733390D02*
X22642857Y-62304819D01*
X22642857Y-62304819D02*
X23261904Y-62304819D01*
X73583333Y-91109580D02*
X73535714Y-91157200D01*
X73535714Y-91157200D02*
X73392857Y-91204819D01*
X73392857Y-91204819D02*
X73297619Y-91204819D01*
X73297619Y-91204819D02*
X73154762Y-91157200D01*
X73154762Y-91157200D02*
X73059524Y-91061961D01*
X73059524Y-91061961D02*
X73011905Y-90966723D01*
X73011905Y-90966723D02*
X72964286Y-90776247D01*
X72964286Y-90776247D02*
X72964286Y-90633390D01*
X72964286Y-90633390D02*
X73011905Y-90442914D01*
X73011905Y-90442914D02*
X73059524Y-90347676D01*
X73059524Y-90347676D02*
X73154762Y-90252438D01*
X73154762Y-90252438D02*
X73297619Y-90204819D01*
X73297619Y-90204819D02*
X73392857Y-90204819D01*
X73392857Y-90204819D02*
X73535714Y-90252438D01*
X73535714Y-90252438D02*
X73583333Y-90300057D01*
X73916667Y-90204819D02*
X74535714Y-90204819D01*
X74535714Y-90204819D02*
X74202381Y-90585771D01*
X74202381Y-90585771D02*
X74345238Y-90585771D01*
X74345238Y-90585771D02*
X74440476Y-90633390D01*
X74440476Y-90633390D02*
X74488095Y-90681009D01*
X74488095Y-90681009D02*
X74535714Y-90776247D01*
X74535714Y-90776247D02*
X74535714Y-91014342D01*
X74535714Y-91014342D02*
X74488095Y-91109580D01*
X74488095Y-91109580D02*
X74440476Y-91157200D01*
X74440476Y-91157200D02*
X74345238Y-91204819D01*
X74345238Y-91204819D02*
X74059524Y-91204819D01*
X74059524Y-91204819D02*
X73964286Y-91157200D01*
X73964286Y-91157200D02*
X73916667Y-91109580D01*
X172666667Y-95304819D02*
X172666667Y-94304819D01*
X172666667Y-94304819D02*
X173000000Y-95019104D01*
X173000000Y-95019104D02*
X173333333Y-94304819D01*
X173333333Y-94304819D02*
X173333333Y-95304819D01*
X173809524Y-95304819D02*
X173809524Y-94304819D01*
X173809524Y-94781009D02*
X174380952Y-94781009D01*
X174380952Y-95304819D02*
X174380952Y-94304819D01*
X175285714Y-94638152D02*
X175285714Y-95304819D01*
X175047619Y-94257200D02*
X174809524Y-94971485D01*
X174809524Y-94971485D02*
X175428571Y-94971485D01*
X93238095Y-14054819D02*
X93238095Y-14864342D01*
X93238095Y-14864342D02*
X93285714Y-14959580D01*
X93285714Y-14959580D02*
X93333333Y-15007200D01*
X93333333Y-15007200D02*
X93428571Y-15054819D01*
X93428571Y-15054819D02*
X93619047Y-15054819D01*
X93619047Y-15054819D02*
X93714285Y-15007200D01*
X93714285Y-15007200D02*
X93761904Y-14959580D01*
X93761904Y-14959580D02*
X93809523Y-14864342D01*
X93809523Y-14864342D02*
X93809523Y-14054819D01*
X94238095Y-14150057D02*
X94285714Y-14102438D01*
X94285714Y-14102438D02*
X94380952Y-14054819D01*
X94380952Y-14054819D02*
X94619047Y-14054819D01*
X94619047Y-14054819D02*
X94714285Y-14102438D01*
X94714285Y-14102438D02*
X94761904Y-14150057D01*
X94761904Y-14150057D02*
X94809523Y-14245295D01*
X94809523Y-14245295D02*
X94809523Y-14340533D01*
X94809523Y-14340533D02*
X94761904Y-14483390D01*
X94761904Y-14483390D02*
X94190476Y-15054819D01*
X94190476Y-15054819D02*
X94809523Y-15054819D01*
X157666666Y-59074819D02*
X157666666Y-59789104D01*
X157666666Y-59789104D02*
X157619047Y-59931961D01*
X157619047Y-59931961D02*
X157523809Y-60027200D01*
X157523809Y-60027200D02*
X157380952Y-60074819D01*
X157380952Y-60074819D02*
X157285714Y-60074819D01*
X158095238Y-59170057D02*
X158142857Y-59122438D01*
X158142857Y-59122438D02*
X158238095Y-59074819D01*
X158238095Y-59074819D02*
X158476190Y-59074819D01*
X158476190Y-59074819D02*
X158571428Y-59122438D01*
X158571428Y-59122438D02*
X158619047Y-59170057D01*
X158619047Y-59170057D02*
X158666666Y-59265295D01*
X158666666Y-59265295D02*
X158666666Y-59360533D01*
X158666666Y-59360533D02*
X158619047Y-59503390D01*
X158619047Y-59503390D02*
X158047619Y-60074819D01*
X158047619Y-60074819D02*
X158666666Y-60074819D01*
X4666667Y-95304819D02*
X4666667Y-94304819D01*
X4666667Y-94304819D02*
X5000000Y-95019104D01*
X5000000Y-95019104D02*
X5333333Y-94304819D01*
X5333333Y-94304819D02*
X5333333Y-95304819D01*
X5809524Y-95304819D02*
X5809524Y-94304819D01*
X5809524Y-94781009D02*
X6380952Y-94781009D01*
X6380952Y-95304819D02*
X6380952Y-94304819D01*
X6761905Y-94304819D02*
X7380952Y-94304819D01*
X7380952Y-94304819D02*
X7047619Y-94685771D01*
X7047619Y-94685771D02*
X7190476Y-94685771D01*
X7190476Y-94685771D02*
X7285714Y-94733390D01*
X7285714Y-94733390D02*
X7333333Y-94781009D01*
X7333333Y-94781009D02*
X7380952Y-94876247D01*
X7380952Y-94876247D02*
X7380952Y-95114342D01*
X7380952Y-95114342D02*
X7333333Y-95209580D01*
X7333333Y-95209580D02*
X7285714Y-95257200D01*
X7285714Y-95257200D02*
X7190476Y-95304819D01*
X7190476Y-95304819D02*
X6904762Y-95304819D01*
X6904762Y-95304819D02*
X6809524Y-95257200D01*
X6809524Y-95257200D02*
X6761905Y-95209580D01*
X109738095Y-61806819D02*
X110309523Y-61806819D01*
X110023809Y-62806819D02*
X110023809Y-61806819D01*
X110642857Y-62806819D02*
X110642857Y-61806819D01*
X110642857Y-61806819D02*
X111023809Y-61806819D01*
X111023809Y-61806819D02*
X111119047Y-61854438D01*
X111119047Y-61854438D02*
X111166666Y-61902057D01*
X111166666Y-61902057D02*
X111214285Y-61997295D01*
X111214285Y-61997295D02*
X111214285Y-62140152D01*
X111214285Y-62140152D02*
X111166666Y-62235390D01*
X111166666Y-62235390D02*
X111119047Y-62283009D01*
X111119047Y-62283009D02*
X111023809Y-62330628D01*
X111023809Y-62330628D02*
X110642857Y-62330628D01*
X111785714Y-62235390D02*
X111690476Y-62187771D01*
X111690476Y-62187771D02*
X111642857Y-62140152D01*
X111642857Y-62140152D02*
X111595238Y-62044914D01*
X111595238Y-62044914D02*
X111595238Y-61997295D01*
X111595238Y-61997295D02*
X111642857Y-61902057D01*
X111642857Y-61902057D02*
X111690476Y-61854438D01*
X111690476Y-61854438D02*
X111785714Y-61806819D01*
X111785714Y-61806819D02*
X111976190Y-61806819D01*
X111976190Y-61806819D02*
X112071428Y-61854438D01*
X112071428Y-61854438D02*
X112119047Y-61902057D01*
X112119047Y-61902057D02*
X112166666Y-61997295D01*
X112166666Y-61997295D02*
X112166666Y-62044914D01*
X112166666Y-62044914D02*
X112119047Y-62140152D01*
X112119047Y-62140152D02*
X112071428Y-62187771D01*
X112071428Y-62187771D02*
X111976190Y-62235390D01*
X111976190Y-62235390D02*
X111785714Y-62235390D01*
X111785714Y-62235390D02*
X111690476Y-62283009D01*
X111690476Y-62283009D02*
X111642857Y-62330628D01*
X111642857Y-62330628D02*
X111595238Y-62425866D01*
X111595238Y-62425866D02*
X111595238Y-62616342D01*
X111595238Y-62616342D02*
X111642857Y-62711580D01*
X111642857Y-62711580D02*
X111690476Y-62759200D01*
X111690476Y-62759200D02*
X111785714Y-62806819D01*
X111785714Y-62806819D02*
X111976190Y-62806819D01*
X111976190Y-62806819D02*
X112071428Y-62759200D01*
X112071428Y-62759200D02*
X112119047Y-62711580D01*
X112119047Y-62711580D02*
X112166666Y-62616342D01*
X112166666Y-62616342D02*
X112166666Y-62425866D01*
X112166666Y-62425866D02*
X112119047Y-62330628D01*
X112119047Y-62330628D02*
X112071428Y-62283009D01*
X112071428Y-62283009D02*
X111976190Y-62235390D01*
D12*
X11576667Y-11309271D02*
X11576667Y-12216414D01*
X11576667Y-12216414D02*
X11516190Y-12397842D01*
X11516190Y-12397842D02*
X11395238Y-12518795D01*
X11395238Y-12518795D02*
X11213809Y-12579271D01*
X11213809Y-12579271D02*
X11092857Y-12579271D01*
X12846667Y-12579271D02*
X12120952Y-12579271D01*
X12483809Y-12579271D02*
X12483809Y-11309271D01*
X12483809Y-11309271D02*
X12362857Y-11490699D01*
X12362857Y-11490699D02*
X12241905Y-11611652D01*
X12241905Y-11611652D02*
X12120952Y-11672128D01*
D11*
X32738095Y-57806819D02*
X33309523Y-57806819D01*
X33023809Y-58806819D02*
X33023809Y-57806819D01*
X33642857Y-58806819D02*
X33642857Y-57806819D01*
X33642857Y-57806819D02*
X34023809Y-57806819D01*
X34023809Y-57806819D02*
X34119047Y-57854438D01*
X34119047Y-57854438D02*
X34166666Y-57902057D01*
X34166666Y-57902057D02*
X34214285Y-57997295D01*
X34214285Y-57997295D02*
X34214285Y-58140152D01*
X34214285Y-58140152D02*
X34166666Y-58235390D01*
X34166666Y-58235390D02*
X34119047Y-58283009D01*
X34119047Y-58283009D02*
X34023809Y-58330628D01*
X34023809Y-58330628D02*
X33642857Y-58330628D01*
X35166666Y-58806819D02*
X34595238Y-58806819D01*
X34880952Y-58806819D02*
X34880952Y-57806819D01*
X34880952Y-57806819D02*
X34785714Y-57949676D01*
X34785714Y-57949676D02*
X34690476Y-58044914D01*
X34690476Y-58044914D02*
X34595238Y-58092533D01*
X85833333Y-56804819D02*
X85500000Y-56328628D01*
X85261905Y-56804819D02*
X85261905Y-55804819D01*
X85261905Y-55804819D02*
X85642857Y-55804819D01*
X85642857Y-55804819D02*
X85738095Y-55852438D01*
X85738095Y-55852438D02*
X85785714Y-55900057D01*
X85785714Y-55900057D02*
X85833333Y-55995295D01*
X85833333Y-55995295D02*
X85833333Y-56138152D01*
X85833333Y-56138152D02*
X85785714Y-56233390D01*
X85785714Y-56233390D02*
X85738095Y-56281009D01*
X85738095Y-56281009D02*
X85642857Y-56328628D01*
X85642857Y-56328628D02*
X85261905Y-56328628D01*
X86785714Y-56804819D02*
X86214286Y-56804819D01*
X86500000Y-56804819D02*
X86500000Y-55804819D01*
X86500000Y-55804819D02*
X86404762Y-55947676D01*
X86404762Y-55947676D02*
X86309524Y-56042914D01*
X86309524Y-56042914D02*
X86214286Y-56090533D01*
%TO.C,U5*%
D10*
X37175000Y-82800000D02*
X37175000Y-83750000D01*
X37175000Y-93200000D02*
X37175000Y-92250000D01*
X38540000Y-82800000D02*
X37175000Y-82800000D01*
X38540000Y-93200000D02*
X37175000Y-93200000D01*
X34350000Y-83790000D02*
X34010000Y-83320000D01*
X34690000Y-83320000D01*
X34350000Y-83790000D01*
G36*
X34350000Y-83790000D02*
G01*
X34010000Y-83320000D01*
X34690000Y-83320000D01*
X34350000Y-83790000D01*
G37*
%TO.C,U3*%
X91940000Y-36440000D02*
X96060000Y-36440000D01*
X91940000Y-36535000D02*
X91940000Y-36440000D01*
X91940000Y-41560000D02*
X91940000Y-41465000D01*
X96060000Y-36440000D02*
X96060000Y-36535000D01*
X96060000Y-41465000D02*
X96060000Y-41560000D01*
X96060000Y-41560000D02*
X91940000Y-41560000D01*
X91400000Y-36530000D02*
X91160000Y-36200000D01*
X91640000Y-36200000D01*
X91400000Y-36530000D01*
G36*
X91400000Y-36530000D02*
G01*
X91160000Y-36200000D01*
X91640000Y-36200000D01*
X91400000Y-36530000D01*
G37*
%TO.C,D1*%
X20490000Y-78350000D02*
X20490000Y-81650000D01*
X20490000Y-78350000D02*
X26000000Y-78350000D01*
X20490000Y-81650000D02*
X26000000Y-81650000D01*
%TO.C,C5*%
X85738748Y-17265000D02*
X86261252Y-17265000D01*
X85738748Y-18735000D02*
X86261252Y-18735000D01*
%TO.C,TP9*%
X158950000Y-88000000D02*
G75*
G02*
X157050000Y-88000000I-950000J0D01*
G01*
X157050000Y-88000000D02*
G75*
G02*
X158950000Y-88000000I950000J0D01*
G01*
%TO.C,L1*%
X64970000Y-88000000D02*
G75*
G02*
X56030000Y-88000000I-4470000J0D01*
G01*
X56030000Y-88000000D02*
G75*
G02*
X64970000Y-88000000I4470000J0D01*
G01*
%TO.C,C4*%
X71738748Y-83265000D02*
X72261252Y-83265000D01*
X71738748Y-84735000D02*
X72261252Y-84735000D01*
%TO.C,U1*%
X116000000Y-13000000D02*
X178500000Y-13000000D01*
X116000000Y-32299999D02*
X116000000Y-13000000D01*
X178500000Y-13000000D02*
X178500000Y-32299999D01*
X178500000Y-32299999D02*
X116000000Y-32299999D01*
%TO.C,C1*%
X15340302Y-93685000D02*
X16140302Y-93685000D01*
X15740302Y-93285000D02*
X15740302Y-94085000D01*
X19750000Y-91920000D02*
X19750000Y-100080000D01*
X19790000Y-91920000D02*
X19790000Y-100080000D01*
X19830000Y-91921000D02*
X19830000Y-100079000D01*
X19870000Y-91922000D02*
X19870000Y-100078000D01*
X19910000Y-91923000D02*
X19910000Y-100077000D01*
X19950000Y-91925000D02*
X19950000Y-100075000D01*
X19990000Y-91927000D02*
X19990000Y-100073000D01*
X20030000Y-91930000D02*
X20030000Y-100070000D01*
X20070000Y-91932000D02*
X20070000Y-100068000D01*
X20110000Y-91936000D02*
X20110000Y-100064000D01*
X20150000Y-91939000D02*
X20150000Y-100061000D01*
X20190000Y-91944000D02*
X20190000Y-100056000D01*
X20230000Y-91948000D02*
X20230000Y-100052000D01*
X20270000Y-91953000D02*
X20270000Y-100047000D01*
X20310000Y-91958000D02*
X20310000Y-100042000D01*
X20350000Y-91964000D02*
X20350000Y-100036000D01*
X20390000Y-91970000D02*
X20390000Y-100030000D01*
X20430000Y-91977000D02*
X20430000Y-100023000D01*
X20470000Y-91983000D02*
X20470000Y-94960000D01*
X20470000Y-97040000D02*
X20470000Y-100017000D01*
X20510000Y-91991000D02*
X20510000Y-94960000D01*
X20510000Y-97040000D02*
X20510000Y-100009000D01*
X20550000Y-91998000D02*
X20550000Y-94960000D01*
X20550000Y-97040000D02*
X20550000Y-100002000D01*
X20590000Y-92007000D02*
X20590000Y-94960000D01*
X20590000Y-97040000D02*
X20590000Y-99993000D01*
X20630000Y-92015000D02*
X20630000Y-94960000D01*
X20630000Y-97040000D02*
X20630000Y-99985000D01*
X20670000Y-92024000D02*
X20670000Y-94960000D01*
X20670000Y-97040000D02*
X20670000Y-99976000D01*
X20710000Y-92033000D02*
X20710000Y-94960000D01*
X20710000Y-97040000D02*
X20710000Y-99967000D01*
X20750000Y-92043000D02*
X20750000Y-94960000D01*
X20750000Y-97040000D02*
X20750000Y-99957000D01*
X20790000Y-92053000D02*
X20790000Y-94960000D01*
X20790000Y-97040000D02*
X20790000Y-99947000D01*
X20830000Y-92064000D02*
X20830000Y-94960000D01*
X20830000Y-97040000D02*
X20830000Y-99936000D01*
X20870000Y-92075000D02*
X20870000Y-94960000D01*
X20870000Y-97040000D02*
X20870000Y-99925000D01*
X20910000Y-92087000D02*
X20910000Y-94960000D01*
X20910000Y-97040000D02*
X20910000Y-99913000D01*
X20950000Y-92099000D02*
X20950000Y-94960000D01*
X20950000Y-97040000D02*
X20950000Y-99901000D01*
X20990000Y-92111000D02*
X20990000Y-94960000D01*
X20990000Y-97040000D02*
X20990000Y-99889000D01*
X21030000Y-92124000D02*
X21030000Y-94960000D01*
X21030000Y-97040000D02*
X21030000Y-99876000D01*
X21070000Y-92137000D02*
X21070000Y-94960000D01*
X21070000Y-97040000D02*
X21070000Y-99863000D01*
X21110000Y-92151000D02*
X21110000Y-94960000D01*
X21110000Y-97040000D02*
X21110000Y-99849000D01*
X21150000Y-92165000D02*
X21150000Y-94960000D01*
X21150000Y-97040000D02*
X21150000Y-99835000D01*
X21190000Y-92180000D02*
X21190000Y-94960000D01*
X21190000Y-97040000D02*
X21190000Y-99820000D01*
X21230000Y-92195000D02*
X21230000Y-94960000D01*
X21230000Y-97040000D02*
X21230000Y-99805000D01*
X21270000Y-92211000D02*
X21270000Y-94960000D01*
X21270000Y-97040000D02*
X21270000Y-99789000D01*
X21310000Y-92227000D02*
X21310000Y-94960000D01*
X21310000Y-97040000D02*
X21310000Y-99773000D01*
X21350000Y-92243000D02*
X21350000Y-94960000D01*
X21350000Y-97040000D02*
X21350000Y-99757000D01*
X21390000Y-92260000D02*
X21390000Y-94960000D01*
X21390000Y-97040000D02*
X21390000Y-99740000D01*
X21430000Y-92278000D02*
X21430000Y-94960000D01*
X21430000Y-97040000D02*
X21430000Y-99722000D01*
X21470000Y-92296000D02*
X21470000Y-94960000D01*
X21470000Y-97040000D02*
X21470000Y-99704000D01*
X21510000Y-92315000D02*
X21510000Y-94960000D01*
X21510000Y-97040000D02*
X21510000Y-99685000D01*
X21550000Y-92334000D02*
X21550000Y-94960000D01*
X21550000Y-97040000D02*
X21550000Y-99666000D01*
X21590000Y-92354000D02*
X21590000Y-94960000D01*
X21590000Y-97040000D02*
X21590000Y-99646000D01*
X21630000Y-92374000D02*
X21630000Y-94960000D01*
X21630000Y-97040000D02*
X21630000Y-99626000D01*
X21670000Y-92395000D02*
X21670000Y-94960000D01*
X21670000Y-97040000D02*
X21670000Y-99605000D01*
X21710000Y-92416000D02*
X21710000Y-94960000D01*
X21710000Y-97040000D02*
X21710000Y-99584000D01*
X21750000Y-92438000D02*
X21750000Y-94960000D01*
X21750000Y-97040000D02*
X21750000Y-99562000D01*
X21790000Y-92461000D02*
X21790000Y-94960000D01*
X21790000Y-97040000D02*
X21790000Y-99539000D01*
X21830000Y-92484000D02*
X21830000Y-94960000D01*
X21830000Y-97040000D02*
X21830000Y-99516000D01*
X21870000Y-92507000D02*
X21870000Y-94960000D01*
X21870000Y-97040000D02*
X21870000Y-99493000D01*
X21910000Y-92532000D02*
X21910000Y-94960000D01*
X21910000Y-97040000D02*
X21910000Y-99468000D01*
X21950000Y-92557000D02*
X21950000Y-94960000D01*
X21950000Y-97040000D02*
X21950000Y-99443000D01*
X21990000Y-92582000D02*
X21990000Y-94960000D01*
X21990000Y-97040000D02*
X21990000Y-99418000D01*
X22030000Y-92608000D02*
X22030000Y-94960000D01*
X22030000Y-97040000D02*
X22030000Y-99392000D01*
X22070000Y-92635000D02*
X22070000Y-94960000D01*
X22070000Y-97040000D02*
X22070000Y-99365000D01*
X22110000Y-92663000D02*
X22110000Y-94960000D01*
X22110000Y-97040000D02*
X22110000Y-99337000D01*
X22150000Y-92691000D02*
X22150000Y-94960000D01*
X22150000Y-97040000D02*
X22150000Y-99309000D01*
X22190000Y-92720000D02*
X22190000Y-94960000D01*
X22190000Y-97040000D02*
X22190000Y-99280000D01*
X22230000Y-92750000D02*
X22230000Y-94960000D01*
X22230000Y-97040000D02*
X22230000Y-99250000D01*
X22270000Y-92781000D02*
X22270000Y-94960000D01*
X22270000Y-97040000D02*
X22270000Y-99219000D01*
X22310000Y-92812000D02*
X22310000Y-94960000D01*
X22310000Y-97040000D02*
X22310000Y-99188000D01*
X22350000Y-92844000D02*
X22350000Y-94960000D01*
X22350000Y-97040000D02*
X22350000Y-99156000D01*
X22390000Y-92877000D02*
X22390000Y-94960000D01*
X22390000Y-97040000D02*
X22390000Y-99123000D01*
X22430000Y-92911000D02*
X22430000Y-94960000D01*
X22430000Y-97040000D02*
X22430000Y-99089000D01*
X22470000Y-92945000D02*
X22470000Y-94960000D01*
X22470000Y-97040000D02*
X22470000Y-99055000D01*
X22510000Y-92981000D02*
X22510000Y-94960000D01*
X22510000Y-97040000D02*
X22510000Y-99019000D01*
X22550000Y-93018000D02*
X22550000Y-98982000D01*
X22590000Y-93055000D02*
X22590000Y-98945000D01*
X22630000Y-93094000D02*
X22630000Y-98906000D01*
X22670000Y-93133000D02*
X22670000Y-98867000D01*
X22710000Y-93174000D02*
X22710000Y-98826000D01*
X22750000Y-93216000D02*
X22750000Y-98784000D01*
X22790000Y-93259000D02*
X22790000Y-98741000D01*
X22830000Y-93304000D02*
X22830000Y-98696000D01*
X22870000Y-93349000D02*
X22870000Y-98651000D01*
X22910000Y-93396000D02*
X22910000Y-98604000D01*
X22950000Y-93445000D02*
X22950000Y-98555000D01*
X22990000Y-93495000D02*
X22990000Y-98505000D01*
X23030000Y-93547000D02*
X23030000Y-98453000D01*
X23070000Y-93600000D02*
X23070000Y-98400000D01*
X23110000Y-93656000D02*
X23110000Y-98344000D01*
X23150000Y-93713000D02*
X23150000Y-98287000D01*
X23190000Y-93773000D02*
X23190000Y-98227000D01*
X23230000Y-93835000D02*
X23230000Y-98165000D01*
X23270000Y-93899000D02*
X23270000Y-98101000D01*
X23310000Y-93966000D02*
X23310000Y-98034000D01*
X23350000Y-94036000D02*
X23350000Y-97964000D01*
X23390000Y-94110000D02*
X23390000Y-97890000D01*
X23430000Y-94187000D02*
X23430000Y-97813000D01*
X23470000Y-94269000D02*
X23470000Y-97731000D01*
X23510000Y-94356000D02*
X23510000Y-97644000D01*
X23550000Y-94448000D02*
X23550000Y-97552000D01*
X23590000Y-94547000D02*
X23590000Y-97453000D01*
X23630000Y-94654000D02*
X23630000Y-97346000D01*
X23670000Y-94772000D02*
X23670000Y-97228000D01*
X23710000Y-94903000D02*
X23710000Y-97097000D01*
X23750000Y-95053000D02*
X23750000Y-96947000D01*
X23790000Y-95232000D02*
X23790000Y-96768000D01*
X23830000Y-95467000D02*
X23830000Y-96533000D01*
X23870000Y-96000000D02*
G75*
G02*
X15630000Y-96000000I-4120000J0D01*
G01*
X15630000Y-96000000D02*
G75*
G02*
X23870000Y-96000000I4120000J0D01*
G01*
%TO.C,SW1*%
X53620000Y-10340000D02*
X53620000Y-11723000D01*
X53620000Y-10340000D02*
X55003000Y-10340000D01*
X53860000Y-10580000D02*
X53860000Y-33200000D01*
X53860000Y-10580000D02*
X63760000Y-10580000D01*
X53860000Y-33200000D02*
X63760000Y-33200000D01*
X58133333Y-12365000D02*
X58133333Y-13635000D01*
X58133333Y-14905000D02*
X58133333Y-16175000D01*
X58133333Y-17445000D02*
X58133333Y-18715000D01*
X58133333Y-19985000D02*
X58133333Y-21255000D01*
X58133333Y-22525000D02*
X58133333Y-23795000D01*
X58133333Y-25065000D02*
X58133333Y-26335000D01*
X58133333Y-27605000D02*
X58133333Y-28875000D01*
X58133333Y-30145000D02*
X58133333Y-31415000D01*
X63760000Y-10580000D02*
X63760000Y-33200000D01*
X56780000Y-12365000D02*
X58133333Y-12365000D01*
X58133333Y-13635000D01*
X56780000Y-13635000D01*
X56780000Y-12365000D01*
G36*
X56780000Y-12365000D02*
G01*
X58133333Y-12365000D01*
X58133333Y-13635000D01*
X56780000Y-13635000D01*
X56780000Y-12365000D01*
G37*
X56780000Y-12365000D02*
X60840000Y-12365000D01*
X60840000Y-13635000D01*
X56780000Y-13635000D01*
X56780000Y-12365000D01*
X56780000Y-14905000D02*
X58133333Y-14905000D01*
X58133333Y-16175000D01*
X56780000Y-16175000D01*
X56780000Y-14905000D01*
G36*
X56780000Y-14905000D02*
G01*
X58133333Y-14905000D01*
X58133333Y-16175000D01*
X56780000Y-16175000D01*
X56780000Y-14905000D01*
G37*
X56780000Y-14905000D02*
X60840000Y-14905000D01*
X60840000Y-16175000D01*
X56780000Y-16175000D01*
X56780000Y-14905000D01*
X56780000Y-17445000D02*
X58133333Y-17445000D01*
X58133333Y-18715000D01*
X56780000Y-18715000D01*
X56780000Y-17445000D01*
G36*
X56780000Y-17445000D02*
G01*
X58133333Y-17445000D01*
X58133333Y-18715000D01*
X56780000Y-18715000D01*
X56780000Y-17445000D01*
G37*
X56780000Y-17445000D02*
X60840000Y-17445000D01*
X60840000Y-18715000D01*
X56780000Y-18715000D01*
X56780000Y-17445000D01*
X56780000Y-19985000D02*
X58133333Y-19985000D01*
X58133333Y-21255000D01*
X56780000Y-21255000D01*
X56780000Y-19985000D01*
G36*
X56780000Y-19985000D02*
G01*
X58133333Y-19985000D01*
X58133333Y-21255000D01*
X56780000Y-21255000D01*
X56780000Y-19985000D01*
G37*
X56780000Y-19985000D02*
X60840000Y-19985000D01*
X60840000Y-21255000D01*
X56780000Y-21255000D01*
X56780000Y-19985000D01*
X56780000Y-22525000D02*
X58133333Y-22525000D01*
X58133333Y-23795000D01*
X56780000Y-23795000D01*
X56780000Y-22525000D01*
G36*
X56780000Y-22525000D02*
G01*
X58133333Y-22525000D01*
X58133333Y-23795000D01*
X56780000Y-23795000D01*
X56780000Y-22525000D01*
G37*
X56780000Y-22525000D02*
X60840000Y-22525000D01*
X60840000Y-23795000D01*
X56780000Y-23795000D01*
X56780000Y-22525000D01*
X56780000Y-25065000D02*
X58133333Y-25065000D01*
X58133333Y-26335000D01*
X56780000Y-26335000D01*
X56780000Y-25065000D01*
G36*
X56780000Y-25065000D02*
G01*
X58133333Y-25065000D01*
X58133333Y-26335000D01*
X56780000Y-26335000D01*
X56780000Y-25065000D01*
G37*
X56780000Y-25065000D02*
X60840000Y-25065000D01*
X60840000Y-26335000D01*
X56780000Y-26335000D01*
X56780000Y-25065000D01*
X56780000Y-27605000D02*
X58133333Y-27605000D01*
X58133333Y-28875000D01*
X56780000Y-28875000D01*
X56780000Y-27605000D01*
G36*
X56780000Y-27605000D02*
G01*
X58133333Y-27605000D01*
X58133333Y-28875000D01*
X56780000Y-28875000D01*
X56780000Y-27605000D01*
G37*
X56780000Y-27605000D02*
X60840000Y-27605000D01*
X60840000Y-28875000D01*
X56780000Y-28875000D01*
X56780000Y-27605000D01*
X56780000Y-30145000D02*
X58133333Y-30145000D01*
X58133333Y-31415000D01*
X56780000Y-31415000D01*
X56780000Y-30145000D01*
G36*
X56780000Y-30145000D02*
G01*
X58133333Y-30145000D01*
X58133333Y-31415000D01*
X56780000Y-31415000D01*
X56780000Y-30145000D01*
G37*
X56780000Y-30145000D02*
X60840000Y-30145000D01*
X60840000Y-31415000D01*
X56780000Y-31415000D01*
X56780000Y-30145000D01*
%TO.C,TP2*%
X44950000Y-60000000D02*
G75*
G02*
X43050000Y-60000000I-950000J0D01*
G01*
X43050000Y-60000000D02*
G75*
G02*
X44950000Y-60000000I950000J0D01*
G01*
%TO.C,F1*%
X29397936Y-71090000D02*
X30602064Y-71090000D01*
X29397936Y-72910000D02*
X30602064Y-72910000D01*
%TO.C,TP7*%
X111950000Y-45000000D02*
G75*
G02*
X110050000Y-45000000I-950000J0D01*
G01*
X110050000Y-45000000D02*
G75*
G02*
X111950000Y-45000000I950000J0D01*
G01*
%TO.C,TP4*%
X111950000Y-18000000D02*
G75*
G02*
X110050000Y-18000000I-950000J0D01*
G01*
X110050000Y-18000000D02*
G75*
G02*
X111950000Y-18000000I950000J0D01*
G01*
%TO.C,U4*%
X91940000Y-61440000D02*
X96060000Y-61440000D01*
X91940000Y-61535000D02*
X91940000Y-61440000D01*
X91940000Y-66560000D02*
X91940000Y-66465000D01*
X96060000Y-61440000D02*
X96060000Y-61535000D01*
X96060000Y-66465000D02*
X96060000Y-66560000D01*
X96060000Y-66560000D02*
X91940000Y-66560000D01*
X91400000Y-61530000D02*
X91160000Y-61200000D01*
X91640000Y-61200000D01*
X91400000Y-61530000D01*
G36*
X91400000Y-61530000D02*
G01*
X91160000Y-61200000D01*
X91640000Y-61200000D01*
X91400000Y-61530000D01*
G37*
%TO.C,D2*%
X52490000Y-96350000D02*
X52490000Y-99650000D01*
X52490000Y-96350000D02*
X58000000Y-96350000D01*
X52490000Y-99650000D02*
X58000000Y-99650000D01*
%TO.C,C2*%
X25738748Y-87265000D02*
X26261252Y-87265000D01*
X25738748Y-88735000D02*
X26261252Y-88735000D01*
%TO.C,C6*%
X85738748Y-38265000D02*
X86261252Y-38265000D01*
X85738748Y-39735000D02*
X86261252Y-39735000D01*
%TO.C,SW2*%
X53620000Y-49340000D02*
X53620000Y-50723000D01*
X53620000Y-49340000D02*
X55003000Y-49340000D01*
X53860000Y-49580000D02*
X53860000Y-72200000D01*
X53860000Y-49580000D02*
X63760000Y-49580000D01*
X53860000Y-72200000D02*
X63760000Y-72200000D01*
X58133333Y-51365000D02*
X58133333Y-52635000D01*
X58133333Y-53905000D02*
X58133333Y-55175000D01*
X58133333Y-56445000D02*
X58133333Y-57715000D01*
X58133333Y-58985000D02*
X58133333Y-60255000D01*
X58133333Y-61525000D02*
X58133333Y-62795000D01*
X58133333Y-64065000D02*
X58133333Y-65335000D01*
X58133333Y-66605000D02*
X58133333Y-67875000D01*
X58133333Y-69145000D02*
X58133333Y-70415000D01*
X63760000Y-49580000D02*
X63760000Y-72200000D01*
X56780000Y-51365000D02*
X58133333Y-51365000D01*
X58133333Y-52635000D01*
X56780000Y-52635000D01*
X56780000Y-51365000D01*
G36*
X56780000Y-51365000D02*
G01*
X58133333Y-51365000D01*
X58133333Y-52635000D01*
X56780000Y-52635000D01*
X56780000Y-51365000D01*
G37*
X56780000Y-51365000D02*
X60840000Y-51365000D01*
X60840000Y-52635000D01*
X56780000Y-52635000D01*
X56780000Y-51365000D01*
X56780000Y-53905000D02*
X58133333Y-53905000D01*
X58133333Y-55175000D01*
X56780000Y-55175000D01*
X56780000Y-53905000D01*
G36*
X56780000Y-53905000D02*
G01*
X58133333Y-53905000D01*
X58133333Y-55175000D01*
X56780000Y-55175000D01*
X56780000Y-53905000D01*
G37*
X56780000Y-53905000D02*
X60840000Y-53905000D01*
X60840000Y-55175000D01*
X56780000Y-55175000D01*
X56780000Y-53905000D01*
X56780000Y-56445000D02*
X58133333Y-56445000D01*
X58133333Y-57715000D01*
X56780000Y-57715000D01*
X56780000Y-56445000D01*
G36*
X56780000Y-56445000D02*
G01*
X58133333Y-56445000D01*
X58133333Y-57715000D01*
X56780000Y-57715000D01*
X56780000Y-56445000D01*
G37*
X56780000Y-56445000D02*
X60840000Y-56445000D01*
X60840000Y-57715000D01*
X56780000Y-57715000D01*
X56780000Y-56445000D01*
X56780000Y-58985000D02*
X58133333Y-58985000D01*
X58133333Y-60255000D01*
X56780000Y-60255000D01*
X56780000Y-58985000D01*
G36*
X56780000Y-58985000D02*
G01*
X58133333Y-58985000D01*
X58133333Y-60255000D01*
X56780000Y-60255000D01*
X56780000Y-58985000D01*
G37*
X56780000Y-58985000D02*
X60840000Y-58985000D01*
X60840000Y-60255000D01*
X56780000Y-60255000D01*
X56780000Y-58985000D01*
X56780000Y-61525000D02*
X58133333Y-61525000D01*
X58133333Y-62795000D01*
X56780000Y-62795000D01*
X56780000Y-61525000D01*
G36*
X56780000Y-61525000D02*
G01*
X58133333Y-61525000D01*
X58133333Y-62795000D01*
X56780000Y-62795000D01*
X56780000Y-61525000D01*
G37*
X56780000Y-61525000D02*
X60840000Y-61525000D01*
X60840000Y-62795000D01*
X56780000Y-62795000D01*
X56780000Y-61525000D01*
X56780000Y-64065000D02*
X58133333Y-64065000D01*
X58133333Y-65335000D01*
X56780000Y-65335000D01*
X56780000Y-64065000D01*
G36*
X56780000Y-64065000D02*
G01*
X58133333Y-64065000D01*
X58133333Y-65335000D01*
X56780000Y-65335000D01*
X56780000Y-64065000D01*
G37*
X56780000Y-64065000D02*
X60840000Y-64065000D01*
X60840000Y-65335000D01*
X56780000Y-65335000D01*
X56780000Y-64065000D01*
X56780000Y-66605000D02*
X58133333Y-66605000D01*
X58133333Y-67875000D01*
X56780000Y-67875000D01*
X56780000Y-66605000D01*
G36*
X56780000Y-66605000D02*
G01*
X58133333Y-66605000D01*
X58133333Y-67875000D01*
X56780000Y-67875000D01*
X56780000Y-66605000D01*
G37*
X56780000Y-66605000D02*
X60840000Y-66605000D01*
X60840000Y-67875000D01*
X56780000Y-67875000D01*
X56780000Y-66605000D01*
X56780000Y-69145000D02*
X58133333Y-69145000D01*
X58133333Y-70415000D01*
X56780000Y-70415000D01*
X56780000Y-69145000D01*
G36*
X56780000Y-69145000D02*
G01*
X58133333Y-69145000D01*
X58133333Y-70415000D01*
X56780000Y-70415000D01*
X56780000Y-69145000D01*
G37*
X56780000Y-69145000D02*
X60840000Y-69145000D01*
X60840000Y-70415000D01*
X56780000Y-70415000D01*
X56780000Y-69145000D01*
%TO.C,TP5*%
X111950000Y-24000000D02*
G75*
G02*
X110050000Y-24000000I-950000J0D01*
G01*
X110050000Y-24000000D02*
G75*
G02*
X111950000Y-24000000I950000J0D01*
G01*
%TO.C,TP6*%
X111950000Y-39000000D02*
G75*
G02*
X110050000Y-39000000I-950000J0D01*
G01*
X110050000Y-39000000D02*
G75*
G02*
X111950000Y-39000000I950000J0D01*
G01*
%TO.C,TP3*%
X24950000Y-60000000D02*
G75*
G02*
X23050000Y-60000000I-950000J0D01*
G01*
X23050000Y-60000000D02*
G75*
G02*
X24950000Y-60000000I950000J0D01*
G01*
%TO.C,C7*%
X85738748Y-63265000D02*
X86261252Y-63265000D01*
X85738748Y-64735000D02*
X86261252Y-64735000D01*
%TO.C,C3*%
X69340302Y-93685000D02*
X70140302Y-93685000D01*
X69740302Y-93285000D02*
X69740302Y-94085000D01*
X73750000Y-91920000D02*
X73750000Y-100080000D01*
X73790000Y-91920000D02*
X73790000Y-100080000D01*
X73830000Y-91921000D02*
X73830000Y-100079000D01*
X73870000Y-91922000D02*
X73870000Y-100078000D01*
X73910000Y-91923000D02*
X73910000Y-100077000D01*
X73950000Y-91925000D02*
X73950000Y-100075000D01*
X73990000Y-91927000D02*
X73990000Y-100073000D01*
X74030000Y-91930000D02*
X74030000Y-100070000D01*
X74070000Y-91932000D02*
X74070000Y-100068000D01*
X74110000Y-91936000D02*
X74110000Y-100064000D01*
X74150000Y-91939000D02*
X74150000Y-100061000D01*
X74190000Y-91944000D02*
X74190000Y-100056000D01*
X74230000Y-91948000D02*
X74230000Y-100052000D01*
X74270000Y-91953000D02*
X74270000Y-100047000D01*
X74310000Y-91958000D02*
X74310000Y-100042000D01*
X74350000Y-91964000D02*
X74350000Y-100036000D01*
X74390000Y-91970000D02*
X74390000Y-100030000D01*
X74430000Y-91977000D02*
X74430000Y-100023000D01*
X74470000Y-91983000D02*
X74470000Y-94960000D01*
X74470000Y-97040000D02*
X74470000Y-100017000D01*
X74510000Y-91991000D02*
X74510000Y-94960000D01*
X74510000Y-97040000D02*
X74510000Y-100009000D01*
X74550000Y-91998000D02*
X74550000Y-94960000D01*
X74550000Y-97040000D02*
X74550000Y-100002000D01*
X74590000Y-92007000D02*
X74590000Y-94960000D01*
X74590000Y-97040000D02*
X74590000Y-99993000D01*
X74630000Y-92015000D02*
X74630000Y-94960000D01*
X74630000Y-97040000D02*
X74630000Y-99985000D01*
X74670000Y-92024000D02*
X74670000Y-94960000D01*
X74670000Y-97040000D02*
X74670000Y-99976000D01*
X74710000Y-92033000D02*
X74710000Y-94960000D01*
X74710000Y-97040000D02*
X74710000Y-99967000D01*
X74750000Y-92043000D02*
X74750000Y-94960000D01*
X74750000Y-97040000D02*
X74750000Y-99957000D01*
X74790000Y-92053000D02*
X74790000Y-94960000D01*
X74790000Y-97040000D02*
X74790000Y-99947000D01*
X74830000Y-92064000D02*
X74830000Y-94960000D01*
X74830000Y-97040000D02*
X74830000Y-99936000D01*
X74870000Y-92075000D02*
X74870000Y-94960000D01*
X74870000Y-97040000D02*
X74870000Y-99925000D01*
X74910000Y-92087000D02*
X74910000Y-94960000D01*
X74910000Y-97040000D02*
X74910000Y-99913000D01*
X74950000Y-92099000D02*
X74950000Y-94960000D01*
X74950000Y-97040000D02*
X74950000Y-99901000D01*
X74990000Y-92111000D02*
X74990000Y-94960000D01*
X74990000Y-97040000D02*
X74990000Y-99889000D01*
X75030000Y-92124000D02*
X75030000Y-94960000D01*
X75030000Y-97040000D02*
X75030000Y-99876000D01*
X75070000Y-92137000D02*
X75070000Y-94960000D01*
X75070000Y-97040000D02*
X75070000Y-99863000D01*
X75110000Y-92151000D02*
X75110000Y-94960000D01*
X75110000Y-97040000D02*
X75110000Y-99849000D01*
X75150000Y-92165000D02*
X75150000Y-94960000D01*
X75150000Y-97040000D02*
X75150000Y-99835000D01*
X75190000Y-92180000D02*
X75190000Y-94960000D01*
X75190000Y-97040000D02*
X75190000Y-99820000D01*
X75230000Y-92195000D02*
X75230000Y-94960000D01*
X75230000Y-97040000D02*
X75230000Y-99805000D01*
X75270000Y-92211000D02*
X75270000Y-94960000D01*
X75270000Y-97040000D02*
X75270000Y-99789000D01*
X75310000Y-92227000D02*
X75310000Y-94960000D01*
X75310000Y-97040000D02*
X75310000Y-99773000D01*
X75350000Y-92243000D02*
X75350000Y-94960000D01*
X75350000Y-97040000D02*
X75350000Y-99757000D01*
X75390000Y-92260000D02*
X75390000Y-94960000D01*
X75390000Y-97040000D02*
X75390000Y-99740000D01*
X75430000Y-92278000D02*
X75430000Y-94960000D01*
X75430000Y-97040000D02*
X75430000Y-99722000D01*
X75470000Y-92296000D02*
X75470000Y-94960000D01*
X75470000Y-97040000D02*
X75470000Y-99704000D01*
X75510000Y-92315000D02*
X75510000Y-94960000D01*
X75510000Y-97040000D02*
X75510000Y-99685000D01*
X75550000Y-92334000D02*
X75550000Y-94960000D01*
X75550000Y-97040000D02*
X75550000Y-99666000D01*
X75590000Y-92354000D02*
X75590000Y-94960000D01*
X75590000Y-97040000D02*
X75590000Y-99646000D01*
X75630000Y-92374000D02*
X75630000Y-94960000D01*
X75630000Y-97040000D02*
X75630000Y-99626000D01*
X75670000Y-92395000D02*
X75670000Y-94960000D01*
X75670000Y-97040000D02*
X75670000Y-99605000D01*
X75710000Y-92416000D02*
X75710000Y-94960000D01*
X75710000Y-97040000D02*
X75710000Y-99584000D01*
X75750000Y-92438000D02*
X75750000Y-94960000D01*
X75750000Y-97040000D02*
X75750000Y-99562000D01*
X75790000Y-92461000D02*
X75790000Y-94960000D01*
X75790000Y-97040000D02*
X75790000Y-99539000D01*
X75830000Y-92484000D02*
X75830000Y-94960000D01*
X75830000Y-97040000D02*
X75830000Y-99516000D01*
X75870000Y-92507000D02*
X75870000Y-94960000D01*
X75870000Y-97040000D02*
X75870000Y-99493000D01*
X75910000Y-92532000D02*
X75910000Y-94960000D01*
X75910000Y-97040000D02*
X75910000Y-99468000D01*
X75950000Y-92557000D02*
X75950000Y-94960000D01*
X75950000Y-97040000D02*
X75950000Y-99443000D01*
X75990000Y-92582000D02*
X75990000Y-94960000D01*
X75990000Y-97040000D02*
X75990000Y-99418000D01*
X76030000Y-92608000D02*
X76030000Y-94960000D01*
X76030000Y-97040000D02*
X76030000Y-99392000D01*
X76070000Y-92635000D02*
X76070000Y-94960000D01*
X76070000Y-97040000D02*
X76070000Y-99365000D01*
X76110000Y-92663000D02*
X76110000Y-94960000D01*
X76110000Y-97040000D02*
X76110000Y-99337000D01*
X76150000Y-92691000D02*
X76150000Y-94960000D01*
X76150000Y-97040000D02*
X76150000Y-99309000D01*
X76190000Y-92720000D02*
X76190000Y-94960000D01*
X76190000Y-97040000D02*
X76190000Y-99280000D01*
X76230000Y-92750000D02*
X76230000Y-94960000D01*
X76230000Y-97040000D02*
X76230000Y-99250000D01*
X76270000Y-92781000D02*
X76270000Y-94960000D01*
X76270000Y-97040000D02*
X76270000Y-99219000D01*
X76310000Y-92812000D02*
X76310000Y-94960000D01*
X76310000Y-97040000D02*
X76310000Y-99188000D01*
X76350000Y-92844000D02*
X76350000Y-94960000D01*
X76350000Y-97040000D02*
X76350000Y-99156000D01*
X76390000Y-92877000D02*
X76390000Y-94960000D01*
X76390000Y-97040000D02*
X76390000Y-99123000D01*
X76430000Y-92911000D02*
X76430000Y-94960000D01*
X76430000Y-97040000D02*
X76430000Y-99089000D01*
X76470000Y-92945000D02*
X76470000Y-94960000D01*
X76470000Y-97040000D02*
X76470000Y-99055000D01*
X76510000Y-92981000D02*
X76510000Y-94960000D01*
X76510000Y-97040000D02*
X76510000Y-99019000D01*
X76550000Y-93018000D02*
X76550000Y-98982000D01*
X76590000Y-93055000D02*
X76590000Y-98945000D01*
X76630000Y-93094000D02*
X76630000Y-98906000D01*
X76670000Y-93133000D02*
X76670000Y-98867000D01*
X76710000Y-93174000D02*
X76710000Y-98826000D01*
X76750000Y-93216000D02*
X76750000Y-98784000D01*
X76790000Y-93259000D02*
X76790000Y-98741000D01*
X76830000Y-93304000D02*
X76830000Y-98696000D01*
X76870000Y-93349000D02*
X76870000Y-98651000D01*
X76910000Y-93396000D02*
X76910000Y-98604000D01*
X76950000Y-93445000D02*
X76950000Y-98555000D01*
X76990000Y-93495000D02*
X76990000Y-98505000D01*
X77030000Y-93547000D02*
X77030000Y-98453000D01*
X77070000Y-93600000D02*
X77070000Y-98400000D01*
X77110000Y-93656000D02*
X77110000Y-98344000D01*
X77150000Y-93713000D02*
X77150000Y-98287000D01*
X77190000Y-93773000D02*
X77190000Y-98227000D01*
X77230000Y-93835000D02*
X77230000Y-98165000D01*
X77270000Y-93899000D02*
X77270000Y-98101000D01*
X77310000Y-93966000D02*
X77310000Y-98034000D01*
X77350000Y-94036000D02*
X77350000Y-97964000D01*
X77390000Y-94110000D02*
X77390000Y-97890000D01*
X77430000Y-94187000D02*
X77430000Y-97813000D01*
X77470000Y-94269000D02*
X77470000Y-97731000D01*
X77510000Y-94356000D02*
X77510000Y-97644000D01*
X77550000Y-94448000D02*
X77550000Y-97552000D01*
X77590000Y-94547000D02*
X77590000Y-97453000D01*
X77630000Y-94654000D02*
X77630000Y-97346000D01*
X77670000Y-94772000D02*
X77670000Y-97228000D01*
X77710000Y-94903000D02*
X77710000Y-97097000D01*
X77750000Y-95053000D02*
X77750000Y-96947000D01*
X77790000Y-95232000D02*
X77790000Y-96768000D01*
X77830000Y-95467000D02*
X77830000Y-96533000D01*
X77870000Y-96000000D02*
G75*
G02*
X69630000Y-96000000I-4120000J0D01*
G01*
X69630000Y-96000000D02*
G75*
G02*
X77870000Y-96000000I4120000J0D01*
G01*
%TO.C,U2*%
X91940000Y-15440000D02*
X96060000Y-15440000D01*
X91940000Y-15535000D02*
X91940000Y-15440000D01*
X91940000Y-20560000D02*
X91940000Y-20465000D01*
X96060000Y-15440000D02*
X96060000Y-15535000D01*
X96060000Y-20465000D02*
X96060000Y-20560000D01*
X96060000Y-20560000D02*
X91940000Y-20560000D01*
X91400000Y-15530000D02*
X91160000Y-15200000D01*
X91640000Y-15200000D01*
X91400000Y-15530000D01*
G36*
X91400000Y-15530000D02*
G01*
X91160000Y-15200000D01*
X91640000Y-15200000D01*
X91400000Y-15530000D01*
G37*
%TO.C,J2*%
X156620000Y-60620000D02*
X158000000Y-60620000D01*
X156620000Y-62000000D02*
X156620000Y-60620000D01*
X156620000Y-63270000D02*
X156620000Y-81160000D01*
X156620000Y-63270000D02*
X159380000Y-63270000D01*
X156620000Y-81160000D02*
X159380000Y-81160000D01*
X159380000Y-63270000D02*
X159380000Y-81160000D01*
%TO.C,TP8*%
X111950000Y-64000000D02*
G75*
G02*
X110050000Y-64000000I-950000J0D01*
G01*
X110050000Y-64000000D02*
G75*
G02*
X111950000Y-64000000I950000J0D01*
G01*
%TO.C,J1*%
X9000000Y-13000000D02*
X22500000Y-13000000D01*
X9000000Y-54000000D02*
X9000000Y-13000000D01*
X22500000Y-13000000D02*
X22500000Y-54000000D01*
X22500000Y-54000000D02*
X9000000Y-54000000D01*
%TO.C,TP1*%
X34950000Y-60000000D02*
G75*
G02*
X33050000Y-60000000I-950000J0D01*
G01*
X33050000Y-60000000D02*
G75*
G02*
X34950000Y-60000000I950000J0D01*
G01*
%TO.C,R1*%
X85772936Y-57265000D02*
X86227064Y-57265000D01*
X85772936Y-58735000D02*
X86227064Y-58735000D01*
%TD*%
M02*
