%TF.GenerationSoftware,KiCad,Pcbnew,10.0.3+dfsg-1*%
%TF.CreationDate,2026-06-21T05:33:51-04:00*%
%TF.ProjectId,teensy-41-can-lin-r6-complete-power-routed,7465656e-7379-42d3-9431-2d63616e2d6c,rev?*%
%TF.SameCoordinates,Original*%
%TF.FileFunction,Copper,L2,Bot*%
%TF.FilePolarity,Positive*%
%FSLAX46Y46*%
G04 Gerber Fmt 4.6, Leading zero omitted, Abs format (unit mm)*
G04 Created by KiCad (PCBNEW 10.0.3+dfsg-1) date 2026-06-21 05:33:51*
%MOMM*%
%LPD*%
G01*
G04 APERTURE LIST*
G04 Aperture macros list*
%AMRoundRect*
0 Rectangle with rounded corners*
0 $1 Rounding radius*
0 $2 $3 $4 $5 $6 $7 $8 $9 X,Y pos of 4 corners*
0 Add a 4 corners polygon primitive as box body*
4,1,4,$2,$3,$4,$5,$6,$7,$8,$9,$2,$3,0*
0 Add four circle primitives for the rounded corners*
1,1,$1+$1,$2,$3*
1,1,$1+$1,$4,$5*
1,1,$1+$1,$6,$7*
1,1,$1+$1,$8,$9*
0 Add four rect primitives between the rounded corners*
20,1,$1+$1,$2,$3,$4,$5,0*
20,1,$1+$1,$4,$5,$6,$7,0*
20,1,$1+$1,$6,$7,$8,$9,0*
20,1,$1+$1,$8,$9,$2,$3,0*%
G04 Aperture macros list end*
%TA.AperFunction,ComponentPad*%
%ADD10C,2.600000*%
%TD*%
%TA.AperFunction,ComponentPad*%
%ADD11C,1.800000*%
%TD*%
%TA.AperFunction,ComponentPad*%
%ADD12RoundRect,0.250000X-0.550000X-0.550000X0.550000X-0.550000X0.550000X0.550000X-0.550000X0.550000X0*%
%TD*%
%TA.AperFunction,ComponentPad*%
%ADD13C,1.600000*%
%TD*%
%TA.AperFunction,ComponentPad*%
%ADD14R,1.700000X1.700000*%
%TD*%
%TA.AperFunction,ComponentPad*%
%ADD15C,1.700000*%
%TD*%
%TA.AperFunction,ComponentPad*%
%ADD16C,2.700000*%
%TD*%
%TA.AperFunction,ViaPad*%
%ADD17C,0.600000*%
%TD*%
%TA.AperFunction,Conductor*%
%ADD18C,0.200000*%
%TD*%
G04 APERTURE END LIST*
D10*
%TO.P,L1,1*%
%TO.N,BUCK_SW*%
X58000000Y-88000000D03*
%TO.P,L1,2*%
%TO.N,+5V_REGULATED*%
X63000000Y-88000000D03*
%TD*%
D11*
%TO.P,U1,0*%
%TO.N,CAN_B_RX*%
X120540000Y-30240000D03*
%TO.P,U1,1*%
%TO.N,CAN_B_TX*%
X123080000Y-30240000D03*
%TO.P,U1,2*%
%TO.N,N/C*%
X125620000Y-30240000D03*
%TO.P,U1,3*%
X128160000Y-30240000D03*
%TO.P,U1,3V3_B*%
%TO.N,+3V3*%
X153560000Y-30240000D03*
%TO.P,U1,3V3_T*%
X148480000Y-15000000D03*
%TO.P,U1,4*%
%TO.N,CAN_B_STB*%
X130699999Y-30240000D03*
%TO.P,U1,5*%
%TO.N,CAN_A_STB*%
X133240000Y-30240000D03*
%TO.P,U1,6*%
%TO.N,LIN_EN*%
X135780000Y-30240000D03*
%TO.P,U1,7*%
%TO.N,LIN_RX*%
X138320000Y-30240000D03*
%TO.P,U1,8*%
%TO.N,LIN_TX*%
X140860000Y-30240000D03*
%TO.P,U1,9*%
%TO.N,N/C*%
X143400000Y-30240000D03*
%TO.P,U1,10*%
X145940000Y-30240000D03*
%TO.P,U1,11*%
X148480000Y-30240000D03*
%TO.P,U1,12*%
X151020000Y-30240000D03*
%TO.P,U1,14*%
X145940000Y-15000000D03*
%TO.P,U1,15*%
X143400000Y-15000000D03*
%TO.P,U1,16*%
X140860000Y-15000000D03*
%TO.P,U1,17*%
X138320000Y-15000000D03*
%TO.P,U1,18*%
X135780000Y-15000000D03*
%TO.P,U1,19*%
X133240000Y-15000000D03*
%TO.P,U1,20*%
X130699999Y-15000000D03*
%TO.P,U1,21*%
X128160000Y-15000000D03*
%TO.P,U1,22*%
%TO.N,CAN_A_TX*%
X125620000Y-15000000D03*
%TO.P,U1,23*%
%TO.N,CAN_A_RX*%
X123080000Y-15000000D03*
%TO.P,U1,24*%
%TO.N,N/C*%
X156100000Y-30240000D03*
%TO.P,U1,25*%
X158640000Y-30240000D03*
%TO.P,U1,26*%
X161180000Y-30240000D03*
%TO.P,U1,27*%
X163720000Y-30240000D03*
%TO.P,U1,28*%
X166260000Y-30240000D03*
%TO.P,U1,29*%
X168800000Y-30240000D03*
%TO.P,U1,30*%
X171340000Y-30240000D03*
%TO.P,U1,31*%
X173880000Y-30240000D03*
%TO.P,U1,32*%
X176420000Y-30240000D03*
%TO.P,U1,33*%
X171340000Y-15000000D03*
%TO.P,U1,34*%
X168800000Y-15000000D03*
%TO.P,U1,35*%
X166260000Y-15000000D03*
%TO.P,U1,36*%
X163720000Y-15000000D03*
%TO.P,U1,37*%
X161180000Y-15000000D03*
%TO.P,U1,38*%
X158640000Y-15000000D03*
%TO.P,U1,39*%
X156100000Y-15000000D03*
%TO.P,U1,40*%
X153560000Y-15000000D03*
%TO.P,U1,41*%
X151020000Y-15000000D03*
%TO.P,U1,GND_B1*%
%TO.N,GND*%
X118000000Y-30240000D03*
%TO.P,U1,GND_T1*%
X118000000Y-15000000D03*
%TO.P,U1,VIN*%
%TO.N,+5V_REGULATED*%
X120540000Y-15000000D03*
%TD*%
D12*
%TO.P,C1,1*%
%TO.N,+12V_PROTECTED*%
X18000000Y-96000000D03*
D13*
%TO.P,C1,2*%
%TO.N,GND*%
X21500000Y-96000000D03*
%TD*%
D12*
%TO.P,SW1,1*%
%TO.N,OBD6_CAN_A_PAIR_A*%
X55000000Y-13000000D03*
D13*
%TO.P,SW1,2*%
%TO.N,OBD14_CAN_A_PAIR_B*%
X55000000Y-15540000D03*
%TO.P,SW1,3*%
%TO.N,OBD6_CAN_A_PAIR_A*%
X55000000Y-18080000D03*
%TO.P,SW1,4*%
%TO.N,OBD14_CAN_A_PAIR_B*%
X55000000Y-20620000D03*
%TO.P,SW1,5*%
%TO.N,OBD3_CAN_B_PAIR_A_CANDIDATE*%
X55000000Y-23160000D03*
%TO.P,SW1,6*%
%TO.N,OBD11_CAN_B_PAIR_B_CANDIDATE*%
X55000000Y-25700000D03*
%TO.P,SW1,7*%
%TO.N,OBD3_CAN_B_PAIR_A_CANDIDATE*%
X55000000Y-28240000D03*
%TO.P,SW1,8*%
%TO.N,OBD11_CAN_B_PAIR_B_CANDIDATE*%
X55000000Y-30780000D03*
%TO.P,SW1,9*%
%TO.N,CAN_B_H*%
X62620000Y-30780000D03*
%TO.P,SW1,10*%
%TO.N,CAN_B_L*%
X62620000Y-28240000D03*
%TO.P,SW1,11*%
X62620000Y-25700000D03*
%TO.P,SW1,12*%
%TO.N,CAN_B_H*%
X62620000Y-23160000D03*
%TO.P,SW1,13*%
%TO.N,CAN_A_H*%
X62620000Y-20620000D03*
%TO.P,SW1,14*%
%TO.N,CAN_A_L*%
X62620000Y-18080000D03*
%TO.P,SW1,15*%
X62620000Y-15540000D03*
%TO.P,SW1,16*%
%TO.N,CAN_A_H*%
X62620000Y-13000000D03*
%TD*%
D12*
%TO.P,SW2,1*%
%TO.N,OBD7_SINGLE_WIRE_CANDIDATE*%
X55000000Y-52000000D03*
D13*
%TO.P,SW2,2*%
%TO.N,OBD15_SINGLE_WIRE_CANDIDATE*%
X55000000Y-54540000D03*
%TO.P,SW2,3*%
%TO.N,OBD1_SINGLE_WIRE_CANDIDATE*%
X55000000Y-57080000D03*
%TO.P,SW2,4*%
%TO.N,OBD8_SINGLE_WIRE_CANDIDATE*%
X55000000Y-59620000D03*
%TO.P,SW2,5*%
%TO.N,OBD9_SINGLE_WIRE_CANDIDATE*%
X55000000Y-62160000D03*
%TO.P,SW2,6*%
%TO.N,OBD12_SINGLE_WIRE_CANDIDATE*%
X55000000Y-64700000D03*
%TO.P,SW2,7*%
%TO.N,OBD13_SINGLE_WIRE_CANDIDATE*%
X55000000Y-67240000D03*
%TO.P,SW2,8*%
%TO.N,AUX_LIN_K_IO*%
X55000000Y-69780000D03*
%TO.P,SW2,9*%
%TO.N,LIN_BUS*%
X62620000Y-69780000D03*
%TO.P,SW2,10*%
X62620000Y-67240000D03*
%TO.P,SW2,11*%
X62620000Y-64700000D03*
%TO.P,SW2,12*%
X62620000Y-62160000D03*
%TO.P,SW2,13*%
X62620000Y-59620000D03*
%TO.P,SW2,14*%
X62620000Y-57080000D03*
%TO.P,SW2,15*%
X62620000Y-54540000D03*
%TO.P,SW2,16*%
X62620000Y-52000000D03*
%TD*%
D12*
%TO.P,C3,1*%
%TO.N,+5V_REGULATED*%
X72000000Y-96000000D03*
D13*
%TO.P,C3,2*%
%TO.N,GND*%
X75500000Y-96000000D03*
%TD*%
D14*
%TO.P,J2,1*%
%TO.N,CAN_B_H*%
X158000000Y-62000000D03*
D15*
%TO.P,J2,2*%
%TO.N,CAN_B_L*%
X158000000Y-64540000D03*
%TO.P,J2,3*%
%TO.N,AUX_LIN_K_IO*%
X158000000Y-67080000D03*
%TO.P,J2,4*%
%TO.N,GND*%
X158000000Y-69620000D03*
%TO.P,J2,5*%
%TO.N,+5V_REGULATED*%
X158000000Y-72160000D03*
%TO.P,J2,6*%
%TO.N,+12V_PROTECTED*%
X158000000Y-74700000D03*
%TO.P,J2,7*%
%TO.N,CAN_A_H*%
X158000000Y-77240000D03*
%TO.P,J2,8*%
%TO.N,CAN_A_L*%
X158000000Y-79780000D03*
%TD*%
D16*
%TO.P,J1,1*%
%TO.N,OBD1_SINGLE_WIRE_CANDIDATE*%
X12000000Y-16000000D03*
%TO.P,J1,2*%
%TO.N,OBD2_SPARE_PWM_J1850_CANDIDATE*%
X12000000Y-21000000D03*
%TO.P,J1,3*%
%TO.N,OBD3_CAN_B_PAIR_A_CANDIDATE*%
X12000000Y-26000000D03*
%TO.P,J1,4*%
%TO.N,GND*%
X12000000Y-31000000D03*
%TO.P,J1,5*%
X12000000Y-36000000D03*
%TO.P,J1,6*%
%TO.N,OBD6_CAN_A_PAIR_A*%
X12000000Y-41000000D03*
%TO.P,J1,7*%
%TO.N,OBD7_SINGLE_WIRE_CANDIDATE*%
X12000000Y-46000000D03*
%TO.P,J1,8*%
%TO.N,OBD8_SINGLE_WIRE_CANDIDATE*%
X12000000Y-51000000D03*
%TO.P,J1,9*%
%TO.N,OBD9_SINGLE_WIRE_CANDIDATE*%
X19500000Y-16000000D03*
%TO.P,J1,10*%
%TO.N,OBD10_SPARE_PWM_J1850_CANDIDATE*%
X19500000Y-21000000D03*
%TO.P,J1,11*%
%TO.N,OBD11_CAN_B_PAIR_B_CANDIDATE*%
X19500000Y-26000000D03*
%TO.P,J1,12*%
%TO.N,OBD12_SINGLE_WIRE_CANDIDATE*%
X19500000Y-31000000D03*
%TO.P,J1,13*%
%TO.N,OBD13_SINGLE_WIRE_CANDIDATE*%
X19500000Y-36000000D03*
%TO.P,J1,14*%
%TO.N,OBD14_CAN_A_PAIR_B*%
X19500000Y-41000000D03*
%TO.P,J1,15*%
%TO.N,OBD15_SINGLE_WIRE_CANDIDATE*%
X19500000Y-46000000D03*
%TO.P,J1,16*%
%TO.N,+12V_OBD*%
X19500000Y-51000000D03*
%TD*%
D17*
%TO.N,BUCK_SW*%
X55545900Y-96809600D03*
%TO.N,GND*%
X89536200Y-18000000D03*
X87775200Y-66411000D03*
X13687500Y-59804300D03*
X89536200Y-38920100D03*
X94113900Y-67195700D03*
X27759400Y-80260400D03*
%TO.N,+5V_REGULATED*%
X87046000Y-19251300D03*
X68485100Y-63430000D03*
X86622100Y-40267700D03*
%TO.N,+3V3*%
X98895000Y-19865400D03*
X98895000Y-40272200D03*
%TO.N,AUX_LIN_K_IO*%
X158226400Y-86744700D03*
%TO.N,CAN_A_STB*%
X110678300Y-15603100D03*
%TO.N,LIN_EN*%
X118474400Y-61375600D03*
%TO.N,LIN_RX*%
X122602500Y-57936200D03*
%TO.N,LIN_TX*%
X93983500Y-65905000D03*
%TO.N,CAN_A_RX*%
X93010100Y-19905000D03*
%TO.N,OBD14_CAN_A_PAIR_B*%
X38804300Y-32025300D03*
%TO.N,CAN_A_H*%
X121635200Y-19187900D03*
%TO.N,CAN_A_L*%
X136620500Y-24000000D03*
%TD*%
%TO.N,BUCK_SW*%
D18*
X58000000Y-88000000D02*
X58000000Y-94355500D01*
X58000000Y-94355500D02*
X55545900Y-96809600D01*
%TO.N,GND*%
X87775200Y-66411000D02*
X88559900Y-67195700D01*
X118000000Y-15000000D02*
X118000000Y-30240000D01*
X13687500Y-88187500D02*
X21500000Y-96000000D01*
X21500000Y-86519800D02*
X27759400Y-80260400D01*
X87775200Y-66411000D02*
X87775200Y-40681100D01*
X13687500Y-37687500D02*
X13687500Y-59804300D01*
X88559900Y-67195700D02*
X94113900Y-67195700D01*
X12000000Y-36000000D02*
X13687500Y-37687500D01*
X12000000Y-36000000D02*
X12000000Y-31000000D01*
X75500000Y-78686200D02*
X87775200Y-66411000D01*
X21500000Y-96000000D02*
X21500000Y-86519800D01*
X89536200Y-38920100D02*
X89536200Y-18000000D01*
X87775200Y-40681100D02*
X89536200Y-38920100D01*
X75500000Y-96000000D02*
X75500000Y-78686200D01*
X13687500Y-59804300D02*
X13687500Y-88187500D01*
%TO.N,+5V_REGULATED*%
X63000000Y-88000000D02*
X68485100Y-82514900D01*
X158000000Y-72160000D02*
X147210000Y-61370000D01*
X86622100Y-19675200D02*
X87046000Y-19251300D01*
X68485100Y-63430000D02*
X68485100Y-58404700D01*
X68485100Y-82514900D02*
X68485100Y-63430000D01*
X68485100Y-58404700D02*
X86622100Y-40267700D01*
X72000000Y-96000000D02*
X71000000Y-96000000D01*
X147210000Y-29776000D02*
X134390500Y-16956500D01*
X122496500Y-16956500D02*
X120540000Y-15000000D01*
X147210000Y-61370000D02*
X147210000Y-29776000D01*
X134390500Y-16956500D02*
X122496500Y-16956500D01*
X71000000Y-96000000D02*
X63000000Y-88000000D01*
X86622100Y-40267700D02*
X86622100Y-19675200D01*
%TO.N,+3V3*%
X98895000Y-40272200D02*
X98895000Y-19865400D01*
X148480000Y-15000000D02*
X153560000Y-20080000D01*
X153560000Y-20080000D02*
X153560000Y-30240000D01*
%TO.N,CAN_B_L*%
X62620000Y-25700000D02*
X62620000Y-28240000D01*
%TO.N,CAN_B_H*%
X62620000Y-23160000D02*
X61450200Y-24329800D01*
X61450200Y-29610200D02*
X62620000Y-30780000D01*
X61450200Y-24329800D02*
X61450200Y-29610200D01*
%TO.N,AUX_LIN_K_IO*%
X158000000Y-67080000D02*
X159171900Y-68251900D01*
X159171900Y-68251900D02*
X159171900Y-85799200D01*
X159171900Y-85799200D02*
X158226400Y-86744700D01*
%TO.N,CAN_A_STB*%
X119270000Y-14561400D02*
X118483900Y-13775300D01*
X112506100Y-13775300D02*
X110678300Y-15603100D01*
X133240000Y-29941800D02*
X119270000Y-15971800D01*
X118483900Y-13775300D02*
X112506100Y-13775300D01*
X119270000Y-15971800D02*
X119270000Y-14561400D01*
X133240000Y-30240000D02*
X133240000Y-29941800D01*
%TO.N,LIN_EN*%
X118474400Y-47545600D02*
X118474400Y-61375600D01*
X135780000Y-30240000D02*
X118474400Y-47545600D01*
%TO.N,LIN_RX*%
X138320000Y-42218700D02*
X138320000Y-30240000D01*
X122602500Y-57936200D02*
X138320000Y-42218700D01*
%TO.N,LIN_TX*%
X115511300Y-65905000D02*
X93983500Y-65905000D01*
X140860000Y-30240000D02*
X140860000Y-40556300D01*
X140860000Y-40556300D02*
X115511300Y-65905000D01*
%TO.N,CAN_A_RX*%
X123080000Y-15000000D02*
X121452700Y-13372700D01*
X121452700Y-13372700D02*
X99542400Y-13372700D01*
X99542400Y-13372700D02*
X93010100Y-19905000D01*
%TO.N,OBD6_CAN_A_PAIR_A*%
X56169800Y-16910200D02*
X56169800Y-14169800D01*
X56169800Y-14169800D02*
X55000000Y-13000000D01*
X55000000Y-18080000D02*
X56169800Y-16910200D01*
%TO.N,OBD14_CAN_A_PAIR_B*%
X53897400Y-19584600D02*
X53897400Y-16642600D01*
X53897400Y-19584600D02*
X51245000Y-19584600D01*
X55000000Y-20620000D02*
X53964600Y-19584600D01*
X51245000Y-19584600D02*
X38804300Y-32025300D01*
X53964600Y-19584600D02*
X53897400Y-19584600D01*
X53897400Y-16642600D02*
X55000000Y-15540000D01*
%TO.N,OBD3_CAN_B_PAIR_A_CANDIDATE*%
X53830200Y-24329800D02*
X55000000Y-23160000D01*
X55000000Y-28240000D02*
X53830200Y-27070200D01*
X53830200Y-27070200D02*
X53830200Y-24329800D01*
%TO.N,OBD11_CAN_B_PAIR_B_CANDIDATE*%
X56169800Y-26869800D02*
X56169800Y-29610200D01*
X56169800Y-29610200D02*
X55000000Y-30780000D01*
X55000000Y-25700000D02*
X56169800Y-26869800D01*
%TO.N,CAN_A_H*%
X132710900Y-31441700D02*
X133768200Y-31441700D01*
X144670000Y-29798200D02*
X144670000Y-63910000D01*
X121635200Y-19187900D02*
X131901700Y-29454400D01*
X134510000Y-25196500D02*
X136342300Y-23364200D01*
X62620000Y-13000000D02*
X63789800Y-14169800D01*
X138236000Y-23364200D02*
X144670000Y-29798200D01*
X131901700Y-30632500D02*
X132710900Y-31441700D01*
X63789800Y-19450200D02*
X62620000Y-20620000D01*
X131901700Y-29454400D02*
X131901700Y-30632500D01*
X133768200Y-31441700D02*
X134510000Y-30699900D01*
X144670000Y-63910000D02*
X158000000Y-77240000D01*
X134510000Y-30699900D02*
X134510000Y-25196500D01*
X136342300Y-23364200D02*
X138236000Y-23364200D01*
X63789800Y-14169800D02*
X63789800Y-19450200D01*
%TO.N,CAN_A_L*%
X158000000Y-79780000D02*
X142106300Y-63886300D01*
X62620000Y-15540000D02*
X62620000Y-18080000D01*
X142106300Y-29485800D02*
X136620500Y-24000000D01*
X142106300Y-63886300D02*
X142106300Y-29485800D01*
%TO.N,LIN_BUS*%
X62620000Y-57080000D02*
X62620000Y-59620000D01*
X62620000Y-64700000D02*
X62620000Y-67240000D01*
X62620000Y-62160000D02*
X62620000Y-64700000D01*
X62620000Y-54540000D02*
X62620000Y-57080000D01*
X62620000Y-67240000D02*
X62620000Y-69780000D01*
X62620000Y-59620000D02*
X62620000Y-62160000D01*
X62620000Y-52000000D02*
X62620000Y-54540000D01*
%TO.N,OBD1_SINGLE_WIRE_CANDIDATE*%
X13699100Y-14300900D02*
X20192200Y-14300900D01*
X49417200Y-51497200D02*
X55000000Y-57080000D01*
X12000000Y-16000000D02*
X13699100Y-14300900D01*
X49417200Y-43525900D02*
X49417200Y-51497200D01*
X20192200Y-14300900D02*
X49417200Y-43525900D01*
%TO.N,OBD9_SINGLE_WIRE_CANDIDATE*%
X48974200Y-56134200D02*
X55000000Y-62160000D01*
X19500000Y-16000000D02*
X48974200Y-45474200D01*
X48974200Y-45474200D02*
X48974200Y-56134200D01*
%TO.N,OBD12_SINGLE_WIRE_CANDIDATE*%
X53200000Y-64700000D02*
X55000000Y-64700000D01*
X19500000Y-31000000D02*
X53200000Y-64700000D01*
%TO.N,OBD13_SINGLE_WIRE_CANDIDATE*%
X17808900Y-37691100D02*
X17808900Y-41672100D01*
X19500000Y-36000000D02*
X17808900Y-37691100D01*
X43376800Y-67240000D02*
X55000000Y-67240000D01*
X17808900Y-41672100D02*
X43376800Y-67240000D01*
%TD*%
M02*
