%TF.GenerationSoftware,KiCad,Pcbnew,10.0.3+dfsg-1*%
%TF.CreationDate,2026-06-21T05:33:51-04:00*%
%TF.ProjectId,teensy-41-can-lin-r6-complete-power-routed,7465656e-7379-42d3-9431-2d63616e2d6c,rev?*%
%TF.SameCoordinates,Original*%
%TF.FileFunction,Copper,L1,Top*%
%TF.FilePolarity,Positive*%
%FSLAX46Y46*%
G04 Gerber Fmt 4.6, Leading zero omitted, Abs format (unit mm)*
G04 Created by KiCad (PCBNEW 10.0.3+dfsg-1) date 2026-06-21 05:33:51*
%MOMM*%
%LPD*%
G01*
G04 APERTURE LIST*
G04 Aperture macros list*
%AMRoundRect*
0 Rectangle with rounded corners*
0 $1 Rounding radius*
0 $2 $3 $4 $5 $6 $7 $8 $9 X,Y pos of 4 corners*
0 Add a 4 corners polygon primitive as box body*
4,1,4,$2,$3,$4,$5,$6,$7,$8,$9,$2,$3,0*
0 Add four circle primitives for the rounded corners*
1,1,$1+$1,$2,$3*
1,1,$1+$1,$4,$5*
1,1,$1+$1,$6,$7*
1,1,$1+$1,$8,$9*
0 Add four rect primitives between the rounded corners*
20,1,$1+$1,$2,$3,$4,$5,0*
20,1,$1+$1,$4,$5,$6,$7,0*
20,1,$1+$1,$6,$7,$8,$9,0*
20,1,$1+$1,$8,$9,$2,$3,0*%
G04 Aperture macros list end*
%TA.AperFunction,SMDPad,CuDef*%
%ADD10RoundRect,0.250000X-2.050000X-0.300000X2.050000X-0.300000X2.050000X0.300000X-2.050000X0.300000X0*%
%TD*%
%TA.AperFunction,SMDPad,CuDef*%
%ADD11RoundRect,0.250002X-4.449998X-5.149998X4.449998X-5.149998X4.449998X5.149998X-4.449998X5.149998X0*%
%TD*%
%TA.AperFunction,SMDPad,CuDef*%
%ADD12RoundRect,0.150000X-0.825000X-0.150000X0.825000X-0.150000X0.825000X0.150000X-0.825000X0.150000X0*%
%TD*%
%TA.AperFunction,SMDPad,CuDef*%
%ADD13RoundRect,0.250000X-1.000000X-0.650000X1.000000X-0.650000X1.000000X0.650000X-1.000000X0.650000X0*%
%TD*%
%TA.AperFunction,SMDPad,CuDef*%
%ADD14RoundRect,0.250000X-0.337500X-0.475000X0.337500X-0.475000X0.337500X0.475000X-0.337500X0.475000X0*%
%TD*%
%TA.AperFunction,SMDPad,CuDef*%
%ADD15C,1.500000*%
%TD*%
%TA.AperFunction,ComponentPad*%
%ADD16C,2.600000*%
%TD*%
%TA.AperFunction,ComponentPad*%
%ADD17C,1.800000*%
%TD*%
%TA.AperFunction,ComponentPad*%
%ADD18RoundRect,0.250000X-0.550000X-0.550000X0.550000X-0.550000X0.550000X0.550000X-0.550000X0.550000X0*%
%TD*%
%TA.AperFunction,ComponentPad*%
%ADD19C,1.600000*%
%TD*%
%TA.AperFunction,SMDPad,CuDef*%
%ADD20RoundRect,0.250000X-0.375000X-0.625000X0.375000X-0.625000X0.375000X0.625000X-0.375000X0.625000X0*%
%TD*%
%TA.AperFunction,ComponentPad*%
%ADD21R,1.700000X1.700000*%
%TD*%
%TA.AperFunction,ComponentPad*%
%ADD22C,1.700000*%
%TD*%
%TA.AperFunction,ComponentPad*%
%ADD23C,2.700000*%
%TD*%
%TA.AperFunction,SMDPad,CuDef*%
%ADD24RoundRect,0.250000X-0.350000X-0.450000X0.350000X-0.450000X0.350000X0.450000X-0.350000X0.450000X0*%
%TD*%
%TA.AperFunction,ViaPad*%
%ADD25C,0.600000*%
%TD*%
%TA.AperFunction,Conductor*%
%ADD26C,0.200000*%
%TD*%
G04 APERTURE END LIST*
D10*
%TO.P,U5,1*%
%TO.N,+12V_PROTECTED*%
X34350000Y-84600000D03*
%TO.P,U5,2*%
%TO.N,BUCK_SW*%
X34350000Y-86300000D03*
%TO.P,U5,3*%
%TO.N,GND*%
X34350000Y-88000000D03*
D11*
%TO.N,N/C*%
X43500000Y-88000000D03*
D10*
%TO.P,U5,4*%
%TO.N,+5V_REGULATED*%
X34350000Y-89700000D03*
%TO.P,U5,5*%
%TO.N,GND*%
X34350000Y-91400000D03*
%TD*%
D12*
%TO.P,U3,1*%
%TO.N,CAN_B_TX*%
X91525000Y-37095000D03*
%TO.P,U3,2*%
%TO.N,GND*%
X91525000Y-38365000D03*
%TO.P,U3,3*%
%TO.N,+5V_REGULATED*%
X91525000Y-39635000D03*
%TO.P,U3,4*%
%TO.N,CAN_B_RX*%
X91525000Y-40905000D03*
%TO.P,U3,5*%
%TO.N,+3V3*%
X96475000Y-40905000D03*
%TO.P,U3,6*%
%TO.N,CAN_B_L*%
X96475000Y-39635000D03*
%TO.P,U3,7*%
%TO.N,CAN_B_H*%
X96475000Y-38365000D03*
%TO.P,U3,8*%
%TO.N,CAN_B_STB*%
X96475000Y-37095000D03*
%TD*%
D13*
%TO.P,D1,1*%
%TO.N,+12V_PROTECTED*%
X22000000Y-80000000D03*
%TO.P,D1,2*%
%TO.N,GND*%
X26000000Y-80000000D03*
%TD*%
D14*
%TO.P,C5,1*%
%TO.N,+5V_REGULATED*%
X84962500Y-18000000D03*
%TO.P,C5,2*%
%TO.N,GND*%
X87037500Y-18000000D03*
%TD*%
D15*
%TO.P,TP9,1*%
%TO.N,AUX_LIN_K_IO*%
X158000000Y-88000000D03*
%TD*%
D16*
%TO.P,L1,1*%
%TO.N,BUCK_SW*%
X58000000Y-88000000D03*
%TO.P,L1,2*%
%TO.N,+5V_REGULATED*%
X63000000Y-88000000D03*
%TD*%
D14*
%TO.P,C4,1*%
%TO.N,+5V_REGULATED*%
X70962500Y-84000000D03*
%TO.P,C4,2*%
%TO.N,GND*%
X73037500Y-84000000D03*
%TD*%
D17*
%TO.P,U1,0*%
%TO.N,CAN_B_RX*%
X120540000Y-30240000D03*
%TO.P,U1,1*%
%TO.N,CAN_B_TX*%
X123080000Y-30240000D03*
%TO.P,U1,2*%
%TO.N,N/C*%
X125620000Y-30240000D03*
%TO.P,U1,3*%
X128160000Y-30240000D03*
%TO.P,U1,3V3_B*%
%TO.N,+3V3*%
X153560000Y-30240000D03*
%TO.P,U1,3V3_T*%
X148480000Y-15000000D03*
%TO.P,U1,4*%
%TO.N,CAN_B_STB*%
X130699999Y-30240000D03*
%TO.P,U1,5*%
%TO.N,CAN_A_STB*%
X133240000Y-30240000D03*
%TO.P,U1,6*%
%TO.N,LIN_EN*%
X135780000Y-30240000D03*
%TO.P,U1,7*%
%TO.N,LIN_RX*%
X138320000Y-30240000D03*
%TO.P,U1,8*%
%TO.N,LIN_TX*%
X140860000Y-30240000D03*
%TO.P,U1,9*%
%TO.N,N/C*%
X143400000Y-30240000D03*
%TO.P,U1,10*%
X145940000Y-30240000D03*
%TO.P,U1,11*%
X148480000Y-30240000D03*
%TO.P,U1,12*%
X151020000Y-30240000D03*
%TO.P,U1,14*%
X145940000Y-15000000D03*
%TO.P,U1,15*%
X143400000Y-15000000D03*
%TO.P,U1,16*%
X140860000Y-15000000D03*
%TO.P,U1,17*%
X138320000Y-15000000D03*
%TO.P,U1,18*%
X135780000Y-15000000D03*
%TO.P,U1,19*%
X133240000Y-15000000D03*
%TO.P,U1,20*%
X130699999Y-15000000D03*
%TO.P,U1,21*%
X128160000Y-15000000D03*
%TO.P,U1,22*%
%TO.N,CAN_A_TX*%
X125620000Y-15000000D03*
%TO.P,U1,23*%
%TO.N,CAN_A_RX*%
X123080000Y-15000000D03*
%TO.P,U1,24*%
%TO.N,N/C*%
X156100000Y-30240000D03*
%TO.P,U1,25*%
X158640000Y-30240000D03*
%TO.P,U1,26*%
X161180000Y-30240000D03*
%TO.P,U1,27*%
X163720000Y-30240000D03*
%TO.P,U1,28*%
X166260000Y-30240000D03*
%TO.P,U1,29*%
X168800000Y-30240000D03*
%TO.P,U1,30*%
X171340000Y-30240000D03*
%TO.P,U1,31*%
X173880000Y-30240000D03*
%TO.P,U1,32*%
X176420000Y-30240000D03*
%TO.P,U1,33*%
X171340000Y-15000000D03*
%TO.P,U1,34*%
X168800000Y-15000000D03*
%TO.P,U1,35*%
X166260000Y-15000000D03*
%TO.P,U1,36*%
X163720000Y-15000000D03*
%TO.P,U1,37*%
X161180000Y-15000000D03*
%TO.P,U1,38*%
X158640000Y-15000000D03*
%TO.P,U1,39*%
X156100000Y-15000000D03*
%TO.P,U1,40*%
X153560000Y-15000000D03*
%TO.P,U1,41*%
X151020000Y-15000000D03*
%TO.P,U1,GND_B1*%
%TO.N,GND*%
X118000000Y-30240000D03*
%TO.P,U1,GND_T1*%
X118000000Y-15000000D03*
%TO.P,U1,VIN*%
%TO.N,+5V_REGULATED*%
X120540000Y-15000000D03*
%TD*%
D18*
%TO.P,C1,1*%
%TO.N,+12V_PROTECTED*%
X18000000Y-96000000D03*
D19*
%TO.P,C1,2*%
%TO.N,GND*%
X21500000Y-96000000D03*
%TD*%
D18*
%TO.P,SW1,1*%
%TO.N,OBD6_CAN_A_PAIR_A*%
X55000000Y-13000000D03*
D19*
%TO.P,SW1,2*%
%TO.N,OBD14_CAN_A_PAIR_B*%
X55000000Y-15540000D03*
%TO.P,SW1,3*%
%TO.N,OBD6_CAN_A_PAIR_A*%
X55000000Y-18080000D03*
%TO.P,SW1,4*%
%TO.N,OBD14_CAN_A_PAIR_B*%
X55000000Y-20620000D03*
%TO.P,SW1,5*%
%TO.N,OBD3_CAN_B_PAIR_A_CANDIDATE*%
X55000000Y-23160000D03*
%TO.P,SW1,6*%
%TO.N,OBD11_CAN_B_PAIR_B_CANDIDATE*%
X55000000Y-25700000D03*
%TO.P,SW1,7*%
%TO.N,OBD3_CAN_B_PAIR_A_CANDIDATE*%
X55000000Y-28240000D03*
%TO.P,SW1,8*%
%TO.N,OBD11_CAN_B_PAIR_B_CANDIDATE*%
X55000000Y-30780000D03*
%TO.P,SW1,9*%
%TO.N,CAN_B_H*%
X62620000Y-30780000D03*
%TO.P,SW1,10*%
%TO.N,CAN_B_L*%
X62620000Y-28240000D03*
%TO.P,SW1,11*%
X62620000Y-25700000D03*
%TO.P,SW1,12*%
%TO.N,CAN_B_H*%
X62620000Y-23160000D03*
%TO.P,SW1,13*%
%TO.N,CAN_A_H*%
X62620000Y-20620000D03*
%TO.P,SW1,14*%
%TO.N,CAN_A_L*%
X62620000Y-18080000D03*
%TO.P,SW1,15*%
X62620000Y-15540000D03*
%TO.P,SW1,16*%
%TO.N,CAN_A_H*%
X62620000Y-13000000D03*
%TD*%
D15*
%TO.P,TP2,1*%
%TO.N,+5V_REGULATED*%
X44000000Y-60000000D03*
%TD*%
D20*
%TO.P,F1,1*%
%TO.N,+12V_OBD*%
X28600000Y-72000000D03*
%TO.P,F1,2*%
%TO.N,+12V_PROTECTED*%
X31400000Y-72000000D03*
%TD*%
D15*
%TO.P,TP7,1*%
%TO.N,CAN_B_L*%
X111000000Y-45000000D03*
%TD*%
%TO.P,TP4,1*%
%TO.N,CAN_A_H*%
X111000000Y-18000000D03*
%TD*%
D12*
%TO.P,U4,1*%
%TO.N,LIN_RX*%
X91525000Y-62095000D03*
%TO.P,U4,2*%
%TO.N,LIN_EN*%
X91525000Y-63365000D03*
%TO.P,U4,3*%
%TO.N,N/C*%
X91525000Y-64635000D03*
%TO.P,U4,4*%
%TO.N,LIN_TX*%
X91525000Y-65905000D03*
%TO.P,U4,5*%
%TO.N,GND*%
X96475000Y-65905000D03*
%TO.P,U4,6*%
%TO.N,LIN_BUS*%
X96475000Y-64635000D03*
%TO.P,U4,7*%
%TO.N,+12V_PROTECTED*%
X96475000Y-63365000D03*
%TO.P,U4,8*%
%TO.N,N/C*%
X96475000Y-62095000D03*
%TD*%
D13*
%TO.P,D2,1*%
%TO.N,BUCK_SW*%
X54000000Y-98000000D03*
%TO.P,D2,2*%
%TO.N,GND*%
X58000000Y-98000000D03*
%TD*%
D14*
%TO.P,C2,1*%
%TO.N,+12V_PROTECTED*%
X24962500Y-88000000D03*
%TO.P,C2,2*%
%TO.N,GND*%
X27037500Y-88000000D03*
%TD*%
%TO.P,C6,1*%
%TO.N,+5V_REGULATED*%
X84962500Y-39000000D03*
%TO.P,C6,2*%
%TO.N,GND*%
X87037500Y-39000000D03*
%TD*%
D18*
%TO.P,SW2,1*%
%TO.N,OBD7_SINGLE_WIRE_CANDIDATE*%
X55000000Y-52000000D03*
D19*
%TO.P,SW2,2*%
%TO.N,OBD15_SINGLE_WIRE_CANDIDATE*%
X55000000Y-54540000D03*
%TO.P,SW2,3*%
%TO.N,OBD1_SINGLE_WIRE_CANDIDATE*%
X55000000Y-57080000D03*
%TO.P,SW2,4*%
%TO.N,OBD8_SINGLE_WIRE_CANDIDATE*%
X55000000Y-59620000D03*
%TO.P,SW2,5*%
%TO.N,OBD9_SINGLE_WIRE_CANDIDATE*%
X55000000Y-62160000D03*
%TO.P,SW2,6*%
%TO.N,OBD12_SINGLE_WIRE_CANDIDATE*%
X55000000Y-64700000D03*
%TO.P,SW2,7*%
%TO.N,OBD13_SINGLE_WIRE_CANDIDATE*%
X55000000Y-67240000D03*
%TO.P,SW2,8*%
%TO.N,AUX_LIN_K_IO*%
X55000000Y-69780000D03*
%TO.P,SW2,9*%
%TO.N,LIN_BUS*%
X62620000Y-69780000D03*
%TO.P,SW2,10*%
X62620000Y-67240000D03*
%TO.P,SW2,11*%
X62620000Y-64700000D03*
%TO.P,SW2,12*%
X62620000Y-62160000D03*
%TO.P,SW2,13*%
X62620000Y-59620000D03*
%TO.P,SW2,14*%
X62620000Y-57080000D03*
%TO.P,SW2,15*%
X62620000Y-54540000D03*
%TO.P,SW2,16*%
X62620000Y-52000000D03*
%TD*%
D15*
%TO.P,TP5,1*%
%TO.N,CAN_A_L*%
X111000000Y-24000000D03*
%TD*%
%TO.P,TP6,1*%
%TO.N,CAN_B_H*%
X111000000Y-39000000D03*
%TD*%
%TO.P,TP3,1*%
%TO.N,GND*%
X24000000Y-60000000D03*
%TD*%
D14*
%TO.P,C7,1*%
%TO.N,+5V_REGULATED*%
X84962500Y-64000000D03*
%TO.P,C7,2*%
%TO.N,GND*%
X87037500Y-64000000D03*
%TD*%
D18*
%TO.P,C3,1*%
%TO.N,+5V_REGULATED*%
X72000000Y-96000000D03*
D19*
%TO.P,C3,2*%
%TO.N,GND*%
X75500000Y-96000000D03*
%TD*%
D12*
%TO.P,U2,1*%
%TO.N,CAN_A_TX*%
X91525000Y-16095000D03*
%TO.P,U2,2*%
%TO.N,GND*%
X91525000Y-17365000D03*
%TO.P,U2,3*%
%TO.N,+5V_REGULATED*%
X91525000Y-18635000D03*
%TO.P,U2,4*%
%TO.N,CAN_A_RX*%
X91525000Y-19905000D03*
%TO.P,U2,5*%
%TO.N,+3V3*%
X96475000Y-19905000D03*
%TO.P,U2,6*%
%TO.N,CAN_A_L*%
X96475000Y-18635000D03*
%TO.P,U2,7*%
%TO.N,CAN_A_H*%
X96475000Y-17365000D03*
%TO.P,U2,8*%
%TO.N,CAN_A_STB*%
X96475000Y-16095000D03*
%TD*%
D21*
%TO.P,J2,1*%
%TO.N,CAN_B_H*%
X158000000Y-62000000D03*
D22*
%TO.P,J2,2*%
%TO.N,CAN_B_L*%
X158000000Y-64540000D03*
%TO.P,J2,3*%
%TO.N,AUX_LIN_K_IO*%
X158000000Y-67080000D03*
%TO.P,J2,4*%
%TO.N,GND*%
X158000000Y-69620000D03*
%TO.P,J2,5*%
%TO.N,+5V_REGULATED*%
X158000000Y-72160000D03*
%TO.P,J2,6*%
%TO.N,+12V_PROTECTED*%
X158000000Y-74700000D03*
%TO.P,J2,7*%
%TO.N,CAN_A_H*%
X158000000Y-77240000D03*
%TO.P,J2,8*%
%TO.N,CAN_A_L*%
X158000000Y-79780000D03*
%TD*%
D15*
%TO.P,TP8,1*%
%TO.N,LIN_BUS*%
X111000000Y-64000000D03*
%TD*%
D23*
%TO.P,J1,1*%
%TO.N,OBD1_SINGLE_WIRE_CANDIDATE*%
X12000000Y-16000000D03*
%TO.P,J1,2*%
%TO.N,OBD2_SPARE_PWM_J1850_CANDIDATE*%
X12000000Y-21000000D03*
%TO.P,J1,3*%
%TO.N,OBD3_CAN_B_PAIR_A_CANDIDATE*%
X12000000Y-26000000D03*
%TO.P,J1,4*%
%TO.N,GND*%
X12000000Y-31000000D03*
%TO.P,J1,5*%
X12000000Y-36000000D03*
%TO.P,J1,6*%
%TO.N,OBD6_CAN_A_PAIR_A*%
X12000000Y-41000000D03*
%TO.P,J1,7*%
%TO.N,OBD7_SINGLE_WIRE_CANDIDATE*%
X12000000Y-46000000D03*
%TO.P,J1,8*%
%TO.N,OBD8_SINGLE_WIRE_CANDIDATE*%
X12000000Y-51000000D03*
%TO.P,J1,9*%
%TO.N,OBD9_SINGLE_WIRE_CANDIDATE*%
X19500000Y-16000000D03*
%TO.P,J1,10*%
%TO.N,OBD10_SPARE_PWM_J1850_CANDIDATE*%
X19500000Y-21000000D03*
%TO.P,J1,11*%
%TO.N,OBD11_CAN_B_PAIR_B_CANDIDATE*%
X19500000Y-26000000D03*
%TO.P,J1,12*%
%TO.N,OBD12_SINGLE_WIRE_CANDIDATE*%
X19500000Y-31000000D03*
%TO.P,J1,13*%
%TO.N,OBD13_SINGLE_WIRE_CANDIDATE*%
X19500000Y-36000000D03*
%TO.P,J1,14*%
%TO.N,OBD14_CAN_A_PAIR_B*%
X19500000Y-41000000D03*
%TO.P,J1,15*%
%TO.N,OBD15_SINGLE_WIRE_CANDIDATE*%
X19500000Y-46000000D03*
%TO.P,J1,16*%
%TO.N,+12V_OBD*%
X19500000Y-51000000D03*
%TD*%
D15*
%TO.P,TP1,1*%
%TO.N,+12V_OBD*%
X34000000Y-60000000D03*
%TD*%
D24*
%TO.P,R1,1*%
%TO.N,LIN_RX*%
X85000000Y-58000000D03*
%TO.P,R1,2*%
%TO.N,+3V3*%
X87000000Y-58000000D03*
%TD*%
D25*
%TO.N,BUCK_SW*%
X55545900Y-96809600D03*
%TO.N,GND*%
X89536200Y-18000000D03*
X87775200Y-66411000D03*
X13687500Y-59804300D03*
X89536200Y-38920100D03*
X94113900Y-67195700D03*
X27759400Y-80260400D03*
%TO.N,+5V_REGULATED*%
X87046000Y-19251300D03*
X68485100Y-63430000D03*
X86622100Y-40267700D03*
%TO.N,+3V3*%
X98895000Y-19865400D03*
X98895000Y-40272200D03*
%TO.N,AUX_LIN_K_IO*%
X158226400Y-86744700D03*
%TO.N,CAN_A_STB*%
X110678300Y-15603100D03*
%TO.N,LIN_EN*%
X118474400Y-61375600D03*
%TO.N,LIN_RX*%
X122602500Y-57936200D03*
%TO.N,LIN_TX*%
X93983500Y-65905000D03*
%TO.N,CAN_A_RX*%
X93010100Y-19905000D03*
%TO.N,OBD14_CAN_A_PAIR_B*%
X38804300Y-32025300D03*
%TO.N,CAN_A_H*%
X121635200Y-19187900D03*
%TO.N,CAN_A_L*%
X136620500Y-24000000D03*
%TD*%
%TO.N,+12V_PROTECTED*%
D26*
X159187200Y-73512800D02*
X159187200Y-69174200D01*
X95839800Y-64000200D02*
X96475000Y-63365000D01*
X159187200Y-69174200D02*
X158363000Y-68350000D01*
X37430000Y-65970000D02*
X84659100Y-65970000D01*
X86000000Y-63437900D02*
X86488900Y-62949000D01*
X158363000Y-68350000D02*
X118359300Y-68350000D01*
X18000000Y-96000000D02*
X18000000Y-94962500D01*
X24962500Y-88000000D02*
X28090400Y-84872100D01*
X158000000Y-74700000D02*
X159187200Y-73512800D01*
X31400000Y-72000000D02*
X23485400Y-79914600D01*
X23485400Y-79995000D02*
X28090400Y-84600000D01*
X112939300Y-62930000D02*
X96910000Y-62930000D01*
X31400000Y-72000000D02*
X37430000Y-65970000D01*
X28090400Y-84600000D02*
X34350000Y-84600000D01*
X86488900Y-62949000D02*
X87701200Y-62949000D01*
X22005000Y-79995000D02*
X22000000Y-80000000D01*
X88752400Y-64000200D02*
X95839800Y-64000200D01*
X18000000Y-94962500D02*
X24962500Y-88000000D01*
X23485400Y-79914600D02*
X23485400Y-79995000D01*
X84659100Y-65970000D02*
X86000000Y-64629100D01*
X86000000Y-64629100D02*
X86000000Y-63437900D01*
X28090400Y-84872100D02*
X28090400Y-84600000D01*
X118359300Y-68350000D02*
X112939300Y-62930000D01*
X87701200Y-62949000D02*
X88752400Y-64000200D01*
X23485400Y-79995000D02*
X22005000Y-79995000D01*
X96910000Y-62930000D02*
X96475000Y-63365000D01*
%TO.N,BUCK_SW*%
X52262200Y-82262200D02*
X58000000Y-88000000D01*
X37293900Y-83807700D02*
X38839400Y-82262200D01*
X54000000Y-98000000D02*
X54355500Y-98000000D01*
X35834000Y-86300000D02*
X37293900Y-84840100D01*
X54355500Y-98000000D02*
X55545900Y-96809600D01*
X38839400Y-82262200D02*
X52262200Y-82262200D01*
X34350000Y-86300000D02*
X35834000Y-86300000D01*
X37293900Y-84840100D02*
X37293900Y-83807700D01*
%TO.N,GND*%
X90890000Y-18000000D02*
X91525000Y-17365000D01*
X58000000Y-98000000D02*
X55545400Y-95545400D01*
X100190000Y-69620000D02*
X96475000Y-65905000D01*
X27951900Y-91400000D02*
X27951900Y-88000000D01*
X27951900Y-88000000D02*
X34350000Y-88000000D01*
X24000000Y-60000000D02*
X13883200Y-60000000D01*
X158000000Y-69620000D02*
X100190000Y-69620000D01*
X94113900Y-67195700D02*
X95184300Y-67195700D01*
X89456300Y-39000000D02*
X89536200Y-38920100D01*
X26260400Y-80260400D02*
X26000000Y-80000000D01*
X13883200Y-60000000D02*
X13687500Y-59804300D01*
X89536200Y-38920100D02*
X90969900Y-38920100D01*
X87037500Y-39000000D02*
X89456300Y-39000000D01*
X87775200Y-66411000D02*
X87775200Y-64737700D01*
X73500000Y-98000000D02*
X75500000Y-96000000D01*
X95184300Y-67195700D02*
X96475000Y-65905000D01*
X90969900Y-38920100D02*
X91525000Y-38365000D01*
X101067300Y-30240000D02*
X118000000Y-30240000D01*
X92942300Y-38365000D02*
X101067300Y-30240000D01*
X26100000Y-91400000D02*
X27951900Y-91400000D01*
X58000000Y-98000000D02*
X73500000Y-98000000D01*
X87775200Y-64737700D02*
X87037500Y-64000000D01*
X27951900Y-91400000D02*
X34350000Y-91400000D01*
X55545400Y-95545400D02*
X38495400Y-95545400D01*
X87037500Y-18000000D02*
X89536200Y-18000000D01*
X73037500Y-84000000D02*
X75500000Y-86462500D01*
X38495400Y-95545400D02*
X34350000Y-91400000D01*
X27037500Y-88000000D02*
X27951900Y-88000000D01*
X91525000Y-38365000D02*
X92942300Y-38365000D01*
X21500000Y-96000000D02*
X26100000Y-91400000D01*
X75500000Y-86462500D02*
X75500000Y-96000000D01*
X89536200Y-18000000D02*
X90890000Y-18000000D01*
X27759400Y-80260400D02*
X26260400Y-80260400D01*
%TO.N,+5V_REGULATED*%
X86622100Y-40053200D02*
X86015700Y-40053200D01*
X35898100Y-89700000D02*
X34350000Y-89700000D01*
X84962500Y-18000000D02*
X86032400Y-19069900D01*
X57253200Y-93746800D02*
X38819500Y-93746800D01*
X91090100Y-19069900D02*
X91525000Y-18635000D01*
X68485100Y-63430000D02*
X84392500Y-63430000D01*
X84392500Y-63430000D02*
X84962500Y-64000000D01*
X63000000Y-88000000D02*
X57253200Y-93746800D01*
X63000000Y-88000000D02*
X66962500Y-88000000D01*
X68485100Y-63430000D02*
X47430000Y-63430000D01*
X91525000Y-39635000D02*
X91106800Y-40053200D01*
X37622200Y-91424100D02*
X35898100Y-89700000D01*
X47430000Y-63430000D02*
X44000000Y-60000000D01*
X108955000Y-18000000D02*
X92160000Y-18000000D01*
X92160000Y-18000000D02*
X91525000Y-18635000D01*
X66962500Y-88000000D02*
X70962500Y-84000000D01*
X122250400Y-16710400D02*
X122250400Y-19470700D01*
X86622100Y-40267700D02*
X86622100Y-40053200D01*
X87046000Y-19069900D02*
X87046000Y-19251300D01*
X86015700Y-40053200D02*
X84962500Y-39000000D01*
X91106800Y-40053200D02*
X86622100Y-40053200D01*
X37622200Y-92549500D02*
X37622200Y-91424100D01*
X110759900Y-19804900D02*
X108955000Y-18000000D01*
X121916200Y-19804900D02*
X110759900Y-19804900D01*
X122250400Y-19470700D02*
X121916200Y-19804900D01*
X87046000Y-19069900D02*
X91090100Y-19069900D01*
X38819500Y-93746800D02*
X37622200Y-92549500D01*
X86032400Y-19069900D02*
X87046000Y-19069900D01*
X120540000Y-15000000D02*
X122250400Y-16710400D01*
%TO.N,CAN_B_TX*%
X121807500Y-28967500D02*
X123080000Y-30240000D01*
X91525000Y-37095000D02*
X99652500Y-28967500D01*
X99652500Y-28967500D02*
X121807500Y-28967500D01*
%TO.N,CAN_B_RX*%
X91939800Y-40905000D02*
X94503900Y-38340900D01*
X94503900Y-37417500D02*
X100049700Y-31871700D01*
X100049700Y-31871700D02*
X118908300Y-31871700D01*
X91525000Y-40905000D02*
X91939800Y-40905000D01*
X118908300Y-31871700D02*
X120540000Y-30240000D01*
X94503900Y-38340900D02*
X94503900Y-37417500D01*
%TO.N,+3V3*%
X98895000Y-19865400D02*
X96514600Y-19865400D01*
X96514600Y-19865400D02*
X96475000Y-19905000D01*
X87000000Y-58000000D02*
X96475000Y-48525000D01*
X97107800Y-40272200D02*
X98895000Y-40272200D01*
X96475000Y-40905000D02*
X97107800Y-40272200D01*
X96475000Y-48525000D02*
X96475000Y-40905000D01*
X96817800Y-20247800D02*
X143232200Y-20247800D01*
X96475000Y-19905000D02*
X96817800Y-20247800D01*
X143232200Y-20247800D02*
X148480000Y-15000000D01*
%TO.N,CAN_B_L*%
X61455800Y-31215000D02*
X72177500Y-41936700D01*
X62620000Y-28240000D02*
X61455800Y-29404200D01*
X158000000Y-64540000D02*
X130540000Y-64540000D01*
X72177500Y-41936700D02*
X92762900Y-41936700D01*
X95064600Y-39635000D02*
X96475000Y-39635000D01*
X111000000Y-45000000D02*
X105635000Y-39635000D01*
X92762900Y-41936700D02*
X95064600Y-39635000D01*
X105635000Y-39635000D02*
X96475000Y-39635000D01*
X130540000Y-64540000D02*
X111000000Y-45000000D01*
X61455800Y-29404200D02*
X61455800Y-31215000D01*
%TO.N,CAN_B_H*%
X134000000Y-62000000D02*
X111000000Y-39000000D01*
X92522200Y-41522500D02*
X73362500Y-41522500D01*
X158000000Y-62000000D02*
X134000000Y-62000000D01*
X96475000Y-38365000D02*
X96475000Y-38476800D01*
X96475000Y-38476800D02*
X95567900Y-38476800D01*
X96998200Y-39000000D02*
X96475000Y-38476800D01*
X73362500Y-41522500D02*
X62620000Y-30780000D01*
X111000000Y-39000000D02*
X96998200Y-39000000D01*
X95567900Y-38476800D02*
X92522200Y-41522500D01*
%TO.N,CAN_B_STB*%
X123845000Y-37095000D02*
X130700000Y-30240000D01*
X96475000Y-37095000D02*
X123845000Y-37095000D01*
%TO.N,AUX_LIN_K_IO*%
X158226400Y-86744700D02*
X158000000Y-86971100D01*
X158000000Y-86971100D02*
X144558800Y-73529900D01*
X158000000Y-86971100D02*
X158000000Y-88000000D01*
X144558800Y-73529900D02*
X58749900Y-73529900D01*
X58749900Y-73529900D02*
X55000000Y-69780000D01*
%TO.N,CAN_A_STB*%
X96475000Y-16095000D02*
X96966900Y-15603100D01*
X96966900Y-15603100D02*
X110678300Y-15603100D01*
%TO.N,LIN_EN*%
X93473900Y-63365000D02*
X91525000Y-63365000D01*
X95463300Y-61375600D02*
X93473900Y-63365000D01*
X118474400Y-61375600D02*
X95463300Y-61375600D01*
%TO.N,LIN_RX*%
X89095000Y-62095000D02*
X91525000Y-62095000D01*
X95683800Y-57936200D02*
X91525000Y-62095000D01*
X122602500Y-57936200D02*
X95683800Y-57936200D01*
X85000000Y-58000000D02*
X89095000Y-62095000D01*
%TO.N,LIN_TX*%
X93983500Y-65905000D02*
X91525000Y-65905000D01*
%TO.N,CAN_A_TX*%
X124417600Y-13797600D02*
X93822400Y-13797600D01*
X93822400Y-13797600D02*
X91525000Y-16095000D01*
X125620000Y-15000000D02*
X124417600Y-13797600D01*
%TO.N,CAN_A_RX*%
X91525000Y-19905000D02*
X93010100Y-19905000D01*
%TO.N,OBD6_CAN_A_PAIR_A*%
X56107500Y-19187500D02*
X55000000Y-18080000D01*
X56107500Y-26183100D02*
X56107500Y-19187500D01*
X26030000Y-26970000D02*
X55320600Y-26970000D01*
X55320600Y-26970000D02*
X56107500Y-26183100D01*
X12000000Y-41000000D02*
X26030000Y-26970000D01*
%TO.N,OBD14_CAN_A_PAIR_B*%
X38804300Y-32025300D02*
X29829600Y-41000000D01*
X29829600Y-41000000D02*
X19500000Y-41000000D01*
%TO.N,OBD3_CAN_B_PAIR_A_CANDIDATE*%
X14840000Y-23160000D02*
X55000000Y-23160000D01*
X12000000Y-26000000D02*
X14840000Y-23160000D01*
%TO.N,OBD11_CAN_B_PAIR_B_CANDIDATE*%
X19500000Y-26000000D02*
X54700000Y-26000000D01*
X54700000Y-26000000D02*
X55000000Y-25700000D01*
%TO.N,CAN_A_H*%
X96475000Y-17365000D02*
X95840000Y-16730000D01*
X121635200Y-19187900D02*
X112187900Y-19187900D01*
X66350000Y-16730000D02*
X62620000Y-13000000D01*
X95840000Y-16730000D02*
X66350000Y-16730000D01*
X96475000Y-17365000D02*
X110365000Y-17365000D01*
X112187900Y-19187900D02*
X111000000Y-18000000D01*
X110365000Y-17365000D02*
X111000000Y-18000000D01*
%TO.N,CAN_A_L*%
X111000000Y-24000000D02*
X98943800Y-24000000D01*
X136620500Y-24000000D02*
X111000000Y-24000000D01*
X95188600Y-19548000D02*
X96101600Y-18635000D01*
X62620000Y-18080000D02*
X65047300Y-20507300D01*
X65047300Y-20507300D02*
X94926100Y-20507300D01*
X95188600Y-20244800D02*
X95188600Y-19548000D01*
X94926100Y-20507300D02*
X95188600Y-20244800D01*
X96101600Y-18635000D02*
X96475000Y-18635000D01*
X98943800Y-24000000D02*
X95188600Y-20244800D01*
%TO.N,+12V_OBD*%
X25000000Y-51000000D02*
X34000000Y-60000000D01*
X28600000Y-72000000D02*
X34000000Y-66600000D01*
X19500000Y-51000000D02*
X25000000Y-51000000D01*
X34000000Y-66600000D02*
X34000000Y-60000000D01*
%TO.N,LIN_BUS*%
X96130300Y-64635000D02*
X94171300Y-66594000D01*
X96475000Y-64635000D02*
X96130300Y-64635000D01*
X93864800Y-66594000D02*
X93218800Y-67240000D01*
X93218800Y-67240000D02*
X62620000Y-67240000D01*
X111000000Y-64000000D02*
X97110000Y-64000000D01*
X94171300Y-66594000D02*
X93864800Y-66594000D01*
X97110000Y-64000000D02*
X96475000Y-64635000D01*
%TO.N,OBD7_SINGLE_WIRE_CANDIDATE*%
X47344000Y-44344000D02*
X55000000Y-52000000D01*
X13656000Y-44344000D02*
X47344000Y-44344000D01*
X12000000Y-46000000D02*
X13656000Y-44344000D01*
%TO.N,OBD15_SINGLE_WIRE_CANDIDATE*%
X46460000Y-46000000D02*
X55000000Y-54540000D01*
X19500000Y-46000000D02*
X46460000Y-46000000D01*
%TO.N,OBD8_SINGLE_WIRE_CANDIDATE*%
X44713100Y-49333100D02*
X55000000Y-59620000D01*
X12000000Y-51000000D02*
X13666900Y-49333100D01*
X13666900Y-49333100D02*
X44713100Y-49333100D01*
%TD*%
M02*
