%TF.GenerationSoftware,KiCad,Pcbnew,10.0.3+dfsg-1*%
%TF.CreationDate,2026-06-30T16:31:26-04:00*%
%TF.ProjectId,teensy-41-true-dual-canfd-lin-r11_JARVIS_ROUTED_CLEAN_V2_GND_STITCH,7465656e-7379-42d3-9431-2d747275652d,rev?*%
%TF.SameCoordinates,Original*%
%TF.FileFunction,Legend,Top*%
%TF.FilePolarity,Positive*%
%FSLAX46Y46*%
G04 Gerber Fmt 4.6, Leading zero omitted, Abs format (unit mm)*
G04 Created by KiCad (PCBNEW 10.0.3+dfsg-1) date 2026-06-30 16:31:26*
%MOMM*%
%LPD*%
G01*
G04 APERTURE LIST*
G04 Aperture macros list*
%AMRoundRect*
0 Rectangle with rounded corners*
0 $1 Rounding radius*
0 $2 $3 $4 $5 $6 $7 $8 $9 X,Y pos of 4 corners*
0 Add a 4 corners polygon primitive as box body*
4,1,4,$2,$3,$4,$5,$6,$7,$8,$9,$2,$3,0*
0 Add four circle primitives for the rounded corners*
1,1,$1+$1,$2,$3*
1,1,$1+$1,$4,$5*
1,1,$1+$1,$6,$7*
1,1,$1+$1,$8,$9*
0 Add four rect primitives between the rounded corners*
20,1,$1+$1,$2,$3,$4,$5,0*
20,1,$1+$1,$4,$5,$6,$7,0*
20,1,$1+$1,$6,$7,$8,$9,0*
20,1,$1+$1,$8,$9,$2,$3,0*%
G04 Aperture macros list end*
%ADD10C,0.150000*%
%ADD11C,0.250000*%
%ADD12C,0.158750*%
%ADD13C,0.120000*%
%ADD14RoundRect,0.250000X-0.350000X-0.450000X0.350000X-0.450000X0.350000X0.450000X-0.350000X0.450000X0*%
%ADD15RoundRect,0.250000X0.337500X0.475000X-0.337500X0.475000X-0.337500X-0.475000X0.337500X-0.475000X0*%
%ADD16C,1.500000*%
%ADD17RoundRect,0.250000X-1.000000X-0.650000X1.000000X-0.650000X1.000000X0.650000X-1.000000X0.650000X0*%
%ADD18C,2.600000*%
%ADD19C,3.200000*%
%ADD20RoundRect,0.250000X-0.550000X-0.550000X0.550000X-0.550000X0.550000X0.550000X-0.550000X0.550000X0*%
%ADD21C,1.600000*%
%ADD22RoundRect,0.250000X0.475000X-0.337500X0.475000X0.337500X-0.475000X0.337500X-0.475000X-0.337500X0*%
%ADD23RoundRect,0.250000X-0.375000X-0.625000X0.375000X-0.625000X0.375000X0.625000X-0.375000X0.625000X0*%
%ADD24RoundRect,0.250000X0.650000X-0.800000X0.650000X0.800000X-0.650000X0.800000X-0.650000X-0.800000X0*%
%ADD25RoundRect,0.250000X-0.337500X-0.475000X0.337500X-0.475000X0.337500X0.475000X-0.337500X0.475000X0*%
%ADD26RoundRect,0.250000X-0.475000X0.337500X-0.475000X-0.337500X0.475000X-0.337500X0.475000X0.337500X0*%
%ADD27RoundRect,0.250000X-2.050000X-0.300000X2.050000X-0.300000X2.050000X0.300000X-2.050000X0.300000X0*%
%ADD28RoundRect,0.250002X-4.449998X-5.149998X4.449998X-5.149998X4.449998X5.149998X-4.449998X5.149998X0*%
%ADD29R,1.700000X1.700000*%
%ADD30C,1.700000*%
G04 APERTURE END LIST*
D10*
X9838096Y-8562295D02*
X9990477Y-8562295D01*
X9990477Y-8562295D02*
X10066667Y-8600390D01*
X10066667Y-8600390D02*
X10142858Y-8676580D01*
X10142858Y-8676580D02*
X10180953Y-8828961D01*
X10180953Y-8828961D02*
X10180953Y-9095628D01*
X10180953Y-9095628D02*
X10142858Y-9248009D01*
X10142858Y-9248009D02*
X10066667Y-9324200D01*
X10066667Y-9324200D02*
X9990477Y-9362295D01*
X9990477Y-9362295D02*
X9838096Y-9362295D01*
X9838096Y-9362295D02*
X9761905Y-9324200D01*
X9761905Y-9324200D02*
X9685715Y-9248009D01*
X9685715Y-9248009D02*
X9647619Y-9095628D01*
X9647619Y-9095628D02*
X9647619Y-8828961D01*
X9647619Y-8828961D02*
X9685715Y-8676580D01*
X9685715Y-8676580D02*
X9761905Y-8600390D01*
X9761905Y-8600390D02*
X9838096Y-8562295D01*
X10790476Y-8943247D02*
X10904762Y-8981342D01*
X10904762Y-8981342D02*
X10942857Y-9019438D01*
X10942857Y-9019438D02*
X10980953Y-9095628D01*
X10980953Y-9095628D02*
X10980953Y-9209914D01*
X10980953Y-9209914D02*
X10942857Y-9286104D01*
X10942857Y-9286104D02*
X10904762Y-9324200D01*
X10904762Y-9324200D02*
X10828572Y-9362295D01*
X10828572Y-9362295D02*
X10523810Y-9362295D01*
X10523810Y-9362295D02*
X10523810Y-8562295D01*
X10523810Y-8562295D02*
X10790476Y-8562295D01*
X10790476Y-8562295D02*
X10866667Y-8600390D01*
X10866667Y-8600390D02*
X10904762Y-8638485D01*
X10904762Y-8638485D02*
X10942857Y-8714676D01*
X10942857Y-8714676D02*
X10942857Y-8790866D01*
X10942857Y-8790866D02*
X10904762Y-8867057D01*
X10904762Y-8867057D02*
X10866667Y-8905152D01*
X10866667Y-8905152D02*
X10790476Y-8943247D01*
X10790476Y-8943247D02*
X10523810Y-8943247D01*
X11323810Y-9362295D02*
X11323810Y-8562295D01*
X11323810Y-8562295D02*
X11514286Y-8562295D01*
X11514286Y-8562295D02*
X11628572Y-8600390D01*
X11628572Y-8600390D02*
X11704762Y-8676580D01*
X11704762Y-8676580D02*
X11742857Y-8752771D01*
X11742857Y-8752771D02*
X11780953Y-8905152D01*
X11780953Y-8905152D02*
X11780953Y-9019438D01*
X11780953Y-9019438D02*
X11742857Y-9171819D01*
X11742857Y-9171819D02*
X11704762Y-9248009D01*
X11704762Y-9248009D02*
X11628572Y-9324200D01*
X11628572Y-9324200D02*
X11514286Y-9362295D01*
X11514286Y-9362295D02*
X11323810Y-9362295D01*
X12733334Y-9362295D02*
X12733334Y-8562295D01*
X12733334Y-8562295D02*
X13038096Y-8562295D01*
X13038096Y-8562295D02*
X13114286Y-8600390D01*
X13114286Y-8600390D02*
X13152381Y-8638485D01*
X13152381Y-8638485D02*
X13190477Y-8714676D01*
X13190477Y-8714676D02*
X13190477Y-8828961D01*
X13190477Y-8828961D02*
X13152381Y-8905152D01*
X13152381Y-8905152D02*
X13114286Y-8943247D01*
X13114286Y-8943247D02*
X13038096Y-8981342D01*
X13038096Y-8981342D02*
X12733334Y-8981342D01*
X13533334Y-9362295D02*
X13533334Y-8562295D01*
X14333333Y-8600390D02*
X14257143Y-8562295D01*
X14257143Y-8562295D02*
X14142857Y-8562295D01*
X14142857Y-8562295D02*
X14028571Y-8600390D01*
X14028571Y-8600390D02*
X13952381Y-8676580D01*
X13952381Y-8676580D02*
X13914286Y-8752771D01*
X13914286Y-8752771D02*
X13876190Y-8905152D01*
X13876190Y-8905152D02*
X13876190Y-9019438D01*
X13876190Y-9019438D02*
X13914286Y-9171819D01*
X13914286Y-9171819D02*
X13952381Y-9248009D01*
X13952381Y-9248009D02*
X14028571Y-9324200D01*
X14028571Y-9324200D02*
X14142857Y-9362295D01*
X14142857Y-9362295D02*
X14219048Y-9362295D01*
X14219048Y-9362295D02*
X14333333Y-9324200D01*
X14333333Y-9324200D02*
X14371429Y-9286104D01*
X14371429Y-9286104D02*
X14371429Y-9019438D01*
X14371429Y-9019438D02*
X14219048Y-9019438D01*
X14600000Y-8562295D02*
X15057143Y-8562295D01*
X14828571Y-9362295D02*
X14828571Y-8562295D01*
X15285714Y-9133723D02*
X15666667Y-9133723D01*
X15209524Y-9362295D02*
X15476191Y-8562295D01*
X15476191Y-8562295D02*
X15742857Y-9362295D01*
X16009524Y-9362295D02*
X16009524Y-8562295D01*
X16771428Y-9362295D02*
X16390476Y-9362295D01*
X16390476Y-9362295D02*
X16390476Y-8562295D01*
X17647619Y-9362295D02*
X17647619Y-8562295D01*
X17647619Y-8562295D02*
X17952381Y-8562295D01*
X17952381Y-8562295D02*
X18028571Y-8600390D01*
X18028571Y-8600390D02*
X18066666Y-8638485D01*
X18066666Y-8638485D02*
X18104762Y-8714676D01*
X18104762Y-8714676D02*
X18104762Y-8828961D01*
X18104762Y-8828961D02*
X18066666Y-8905152D01*
X18066666Y-8905152D02*
X18028571Y-8943247D01*
X18028571Y-8943247D02*
X17952381Y-8981342D01*
X17952381Y-8981342D02*
X17647619Y-8981342D01*
X18409523Y-9133723D02*
X18790476Y-9133723D01*
X18333333Y-9362295D02*
X18600000Y-8562295D01*
X18600000Y-8562295D02*
X18866666Y-9362295D01*
X19133333Y-9362295D02*
X19133333Y-8562295D01*
X19133333Y-8562295D02*
X19323809Y-8562295D01*
X19323809Y-8562295D02*
X19438095Y-8600390D01*
X19438095Y-8600390D02*
X19514285Y-8676580D01*
X19514285Y-8676580D02*
X19552380Y-8752771D01*
X19552380Y-8752771D02*
X19590476Y-8905152D01*
X19590476Y-8905152D02*
X19590476Y-9019438D01*
X19590476Y-9019438D02*
X19552380Y-9171819D01*
X19552380Y-9171819D02*
X19514285Y-9248009D01*
X19514285Y-9248009D02*
X19438095Y-9324200D01*
X19438095Y-9324200D02*
X19323809Y-9362295D01*
X19323809Y-9362295D02*
X19133333Y-9362295D01*
X19895237Y-9324200D02*
X20009523Y-9362295D01*
X20009523Y-9362295D02*
X20199999Y-9362295D01*
X20199999Y-9362295D02*
X20276190Y-9324200D01*
X20276190Y-9324200D02*
X20314285Y-9286104D01*
X20314285Y-9286104D02*
X20352380Y-9209914D01*
X20352380Y-9209914D02*
X20352380Y-9133723D01*
X20352380Y-9133723D02*
X20314285Y-9057533D01*
X20314285Y-9057533D02*
X20276190Y-9019438D01*
X20276190Y-9019438D02*
X20199999Y-8981342D01*
X20199999Y-8981342D02*
X20047618Y-8943247D01*
X20047618Y-8943247D02*
X19971428Y-8905152D01*
X19971428Y-8905152D02*
X19933333Y-8867057D01*
X19933333Y-8867057D02*
X19895237Y-8790866D01*
X19895237Y-8790866D02*
X19895237Y-8714676D01*
X19895237Y-8714676D02*
X19933333Y-8638485D01*
X19933333Y-8638485D02*
X19971428Y-8600390D01*
X19971428Y-8600390D02*
X20047618Y-8562295D01*
X20047618Y-8562295D02*
X20238095Y-8562295D01*
X20238095Y-8562295D02*
X20352380Y-8600390D01*
X16357142Y-4454819D02*
X16023809Y-3978628D01*
X15785714Y-4454819D02*
X15785714Y-3454819D01*
X15785714Y-3454819D02*
X16166666Y-3454819D01*
X16166666Y-3454819D02*
X16261904Y-3502438D01*
X16261904Y-3502438D02*
X16309523Y-3550057D01*
X16309523Y-3550057D02*
X16357142Y-3645295D01*
X16357142Y-3645295D02*
X16357142Y-3788152D01*
X16357142Y-3788152D02*
X16309523Y-3883390D01*
X16309523Y-3883390D02*
X16261904Y-3931009D01*
X16261904Y-3931009D02*
X16166666Y-3978628D01*
X16166666Y-3978628D02*
X15785714Y-3978628D01*
X16690476Y-3454819D02*
X17357142Y-3454819D01*
X17357142Y-3454819D02*
X16928571Y-4454819D01*
X18690476Y-3454819D02*
X18880952Y-3454819D01*
X18880952Y-3454819D02*
X18976190Y-3502438D01*
X18976190Y-3502438D02*
X19071428Y-3597676D01*
X19071428Y-3597676D02*
X19119047Y-3788152D01*
X19119047Y-3788152D02*
X19119047Y-4121485D01*
X19119047Y-4121485D02*
X19071428Y-4311961D01*
X19071428Y-4311961D02*
X18976190Y-4407200D01*
X18976190Y-4407200D02*
X18880952Y-4454819D01*
X18880952Y-4454819D02*
X18690476Y-4454819D01*
X18690476Y-4454819D02*
X18595238Y-4407200D01*
X18595238Y-4407200D02*
X18500000Y-4311961D01*
X18500000Y-4311961D02*
X18452381Y-4121485D01*
X18452381Y-4121485D02*
X18452381Y-3788152D01*
X18452381Y-3788152D02*
X18500000Y-3597676D01*
X18500000Y-3597676D02*
X18595238Y-3502438D01*
X18595238Y-3502438D02*
X18690476Y-3454819D01*
X19880952Y-3931009D02*
X20023809Y-3978628D01*
X20023809Y-3978628D02*
X20071428Y-4026247D01*
X20071428Y-4026247D02*
X20119047Y-4121485D01*
X20119047Y-4121485D02*
X20119047Y-4264342D01*
X20119047Y-4264342D02*
X20071428Y-4359580D01*
X20071428Y-4359580D02*
X20023809Y-4407200D01*
X20023809Y-4407200D02*
X19928571Y-4454819D01*
X19928571Y-4454819D02*
X19547619Y-4454819D01*
X19547619Y-4454819D02*
X19547619Y-3454819D01*
X19547619Y-3454819D02*
X19880952Y-3454819D01*
X19880952Y-3454819D02*
X19976190Y-3502438D01*
X19976190Y-3502438D02*
X20023809Y-3550057D01*
X20023809Y-3550057D02*
X20071428Y-3645295D01*
X20071428Y-3645295D02*
X20071428Y-3740533D01*
X20071428Y-3740533D02*
X20023809Y-3835771D01*
X20023809Y-3835771D02*
X19976190Y-3883390D01*
X19976190Y-3883390D02*
X19880952Y-3931009D01*
X19880952Y-3931009D02*
X19547619Y-3931009D01*
X20547619Y-4454819D02*
X20547619Y-3454819D01*
X20547619Y-3454819D02*
X20785714Y-3454819D01*
X20785714Y-3454819D02*
X20928571Y-3502438D01*
X20928571Y-3502438D02*
X21023809Y-3597676D01*
X21023809Y-3597676D02*
X21071428Y-3692914D01*
X21071428Y-3692914D02*
X21119047Y-3883390D01*
X21119047Y-3883390D02*
X21119047Y-4026247D01*
X21119047Y-4026247D02*
X21071428Y-4216723D01*
X21071428Y-4216723D02*
X21023809Y-4311961D01*
X21023809Y-4311961D02*
X20928571Y-4407200D01*
X20928571Y-4407200D02*
X20785714Y-4454819D01*
X20785714Y-4454819D02*
X20547619Y-4454819D01*
X22309524Y-4454819D02*
X22309524Y-3454819D01*
X22309524Y-3454819D02*
X22690476Y-3454819D01*
X22690476Y-3454819D02*
X22785714Y-3502438D01*
X22785714Y-3502438D02*
X22833333Y-3550057D01*
X22833333Y-3550057D02*
X22880952Y-3645295D01*
X22880952Y-3645295D02*
X22880952Y-3788152D01*
X22880952Y-3788152D02*
X22833333Y-3883390D01*
X22833333Y-3883390D02*
X22785714Y-3931009D01*
X22785714Y-3931009D02*
X22690476Y-3978628D01*
X22690476Y-3978628D02*
X22309524Y-3978628D01*
X23309524Y-4454819D02*
X23309524Y-3454819D01*
X24309523Y-3502438D02*
X24214285Y-3454819D01*
X24214285Y-3454819D02*
X24071428Y-3454819D01*
X24071428Y-3454819D02*
X23928571Y-3502438D01*
X23928571Y-3502438D02*
X23833333Y-3597676D01*
X23833333Y-3597676D02*
X23785714Y-3692914D01*
X23785714Y-3692914D02*
X23738095Y-3883390D01*
X23738095Y-3883390D02*
X23738095Y-4026247D01*
X23738095Y-4026247D02*
X23785714Y-4216723D01*
X23785714Y-4216723D02*
X23833333Y-4311961D01*
X23833333Y-4311961D02*
X23928571Y-4407200D01*
X23928571Y-4407200D02*
X24071428Y-4454819D01*
X24071428Y-4454819D02*
X24166666Y-4454819D01*
X24166666Y-4454819D02*
X24309523Y-4407200D01*
X24309523Y-4407200D02*
X24357142Y-4359580D01*
X24357142Y-4359580D02*
X24357142Y-4026247D01*
X24357142Y-4026247D02*
X24166666Y-4026247D01*
X24642857Y-3454819D02*
X25214285Y-3454819D01*
X24928571Y-4454819D02*
X24928571Y-3454819D01*
X25500000Y-4169104D02*
X25976190Y-4169104D01*
X25404762Y-4454819D02*
X25738095Y-3454819D01*
X25738095Y-3454819D02*
X26071428Y-4454819D01*
X26404762Y-4454819D02*
X26404762Y-3454819D01*
X27357142Y-4454819D02*
X26880952Y-4454819D01*
X26880952Y-4454819D02*
X26880952Y-3454819D01*
X28452381Y-4073866D02*
X29214286Y-4073866D01*
X28833333Y-4454819D02*
X28833333Y-3692914D01*
X30452381Y-4454819D02*
X30452381Y-3454819D01*
X30452381Y-3454819D02*
X30690476Y-3454819D01*
X30690476Y-3454819D02*
X30833333Y-3502438D01*
X30833333Y-3502438D02*
X30928571Y-3597676D01*
X30928571Y-3597676D02*
X30976190Y-3692914D01*
X30976190Y-3692914D02*
X31023809Y-3883390D01*
X31023809Y-3883390D02*
X31023809Y-4026247D01*
X31023809Y-4026247D02*
X30976190Y-4216723D01*
X30976190Y-4216723D02*
X30928571Y-4311961D01*
X30928571Y-4311961D02*
X30833333Y-4407200D01*
X30833333Y-4407200D02*
X30690476Y-4454819D01*
X30690476Y-4454819D02*
X30452381Y-4454819D01*
X31452381Y-4454819D02*
X31452381Y-3454819D01*
X31928571Y-4454819D02*
X31928571Y-3454819D01*
X31928571Y-3454819D02*
X32309523Y-3454819D01*
X32309523Y-3454819D02*
X32404761Y-3502438D01*
X32404761Y-3502438D02*
X32452380Y-3550057D01*
X32452380Y-3550057D02*
X32499999Y-3645295D01*
X32499999Y-3645295D02*
X32499999Y-3788152D01*
X32499999Y-3788152D02*
X32452380Y-3883390D01*
X32452380Y-3883390D02*
X32404761Y-3931009D01*
X32404761Y-3931009D02*
X32309523Y-3978628D01*
X32309523Y-3978628D02*
X31928571Y-3978628D01*
X33642857Y-4407200D02*
X33785714Y-4454819D01*
X33785714Y-4454819D02*
X34023809Y-4454819D01*
X34023809Y-4454819D02*
X34119047Y-4407200D01*
X34119047Y-4407200D02*
X34166666Y-4359580D01*
X34166666Y-4359580D02*
X34214285Y-4264342D01*
X34214285Y-4264342D02*
X34214285Y-4169104D01*
X34214285Y-4169104D02*
X34166666Y-4073866D01*
X34166666Y-4073866D02*
X34119047Y-4026247D01*
X34119047Y-4026247D02*
X34023809Y-3978628D01*
X34023809Y-3978628D02*
X33833333Y-3931009D01*
X33833333Y-3931009D02*
X33738095Y-3883390D01*
X33738095Y-3883390D02*
X33690476Y-3835771D01*
X33690476Y-3835771D02*
X33642857Y-3740533D01*
X33642857Y-3740533D02*
X33642857Y-3645295D01*
X33642857Y-3645295D02*
X33690476Y-3550057D01*
X33690476Y-3550057D02*
X33738095Y-3502438D01*
X33738095Y-3502438D02*
X33833333Y-3454819D01*
X33833333Y-3454819D02*
X34071428Y-3454819D01*
X34071428Y-3454819D02*
X34214285Y-3502438D01*
X34547619Y-3454819D02*
X34785714Y-4454819D01*
X34785714Y-4454819D02*
X34976190Y-3740533D01*
X34976190Y-3740533D02*
X35166666Y-4454819D01*
X35166666Y-4454819D02*
X35404762Y-3454819D01*
X35785714Y-4454819D02*
X35785714Y-3454819D01*
X36119047Y-3454819D02*
X36690475Y-3454819D01*
X36404761Y-4454819D02*
X36404761Y-3454819D01*
X37595237Y-4359580D02*
X37547618Y-4407200D01*
X37547618Y-4407200D02*
X37404761Y-4454819D01*
X37404761Y-4454819D02*
X37309523Y-4454819D01*
X37309523Y-4454819D02*
X37166666Y-4407200D01*
X37166666Y-4407200D02*
X37071428Y-4311961D01*
X37071428Y-4311961D02*
X37023809Y-4216723D01*
X37023809Y-4216723D02*
X36976190Y-4026247D01*
X36976190Y-4026247D02*
X36976190Y-3883390D01*
X36976190Y-3883390D02*
X37023809Y-3692914D01*
X37023809Y-3692914D02*
X37071428Y-3597676D01*
X37071428Y-3597676D02*
X37166666Y-3502438D01*
X37166666Y-3502438D02*
X37309523Y-3454819D01*
X37309523Y-3454819D02*
X37404761Y-3454819D01*
X37404761Y-3454819D02*
X37547618Y-3502438D01*
X37547618Y-3502438D02*
X37595237Y-3550057D01*
X38023809Y-4454819D02*
X38023809Y-3454819D01*
X38023809Y-3931009D02*
X38595237Y-3931009D01*
X38595237Y-4454819D02*
X38595237Y-3454819D01*
X40404761Y-4359580D02*
X40357142Y-4407200D01*
X40357142Y-4407200D02*
X40214285Y-4454819D01*
X40214285Y-4454819D02*
X40119047Y-4454819D01*
X40119047Y-4454819D02*
X39976190Y-4407200D01*
X39976190Y-4407200D02*
X39880952Y-4311961D01*
X39880952Y-4311961D02*
X39833333Y-4216723D01*
X39833333Y-4216723D02*
X39785714Y-4026247D01*
X39785714Y-4026247D02*
X39785714Y-3883390D01*
X39785714Y-3883390D02*
X39833333Y-3692914D01*
X39833333Y-3692914D02*
X39880952Y-3597676D01*
X39880952Y-3597676D02*
X39976190Y-3502438D01*
X39976190Y-3502438D02*
X40119047Y-3454819D01*
X40119047Y-3454819D02*
X40214285Y-3454819D01*
X40214285Y-3454819D02*
X40357142Y-3502438D01*
X40357142Y-3502438D02*
X40404761Y-3550057D01*
X40785714Y-4169104D02*
X41261904Y-4169104D01*
X40690476Y-4454819D02*
X41023809Y-3454819D01*
X41023809Y-3454819D02*
X41357142Y-4454819D01*
X41690476Y-4454819D02*
X41690476Y-3454819D01*
X41690476Y-3454819D02*
X42261904Y-4454819D01*
X42261904Y-4454819D02*
X42261904Y-3454819D01*
X43452380Y-3407200D02*
X42595238Y-4692914D01*
X44261904Y-4454819D02*
X43785714Y-4454819D01*
X43785714Y-4454819D02*
X43785714Y-3454819D01*
X44595238Y-4454819D02*
X44595238Y-3454819D01*
X45071428Y-4454819D02*
X45071428Y-3454819D01*
X45071428Y-3454819D02*
X45642856Y-4454819D01*
X45642856Y-4454819D02*
X45642856Y-3454819D01*
X46880952Y-4454819D02*
X46880952Y-3454819D01*
X47357142Y-4454819D02*
X47357142Y-3454819D01*
X47357142Y-3454819D02*
X47928570Y-4454819D01*
X47928570Y-4454819D02*
X47928570Y-3454819D01*
X48261904Y-3454819D02*
X48833332Y-3454819D01*
X48547618Y-4454819D02*
X48547618Y-3454819D01*
X49166666Y-3931009D02*
X49499999Y-3931009D01*
X49642856Y-4454819D02*
X49166666Y-4454819D01*
X49166666Y-4454819D02*
X49166666Y-3454819D01*
X49166666Y-3454819D02*
X49642856Y-3454819D01*
X50642856Y-4454819D02*
X50309523Y-3978628D01*
X50071428Y-4454819D02*
X50071428Y-3454819D01*
X50071428Y-3454819D02*
X50452380Y-3454819D01*
X50452380Y-3454819D02*
X50547618Y-3502438D01*
X50547618Y-3502438D02*
X50595237Y-3550057D01*
X50595237Y-3550057D02*
X50642856Y-3645295D01*
X50642856Y-3645295D02*
X50642856Y-3788152D01*
X50642856Y-3788152D02*
X50595237Y-3883390D01*
X50595237Y-3883390D02*
X50547618Y-3931009D01*
X50547618Y-3931009D02*
X50452380Y-3978628D01*
X50452380Y-3978628D02*
X50071428Y-3978628D01*
X51404761Y-3931009D02*
X51071428Y-3931009D01*
X51071428Y-4454819D02*
X51071428Y-3454819D01*
X51071428Y-3454819D02*
X51547618Y-3454819D01*
X51880952Y-4169104D02*
X52357142Y-4169104D01*
X51785714Y-4454819D02*
X52119047Y-3454819D01*
X52119047Y-3454819D02*
X52452380Y-4454819D01*
X53357142Y-4359580D02*
X53309523Y-4407200D01*
X53309523Y-4407200D02*
X53166666Y-4454819D01*
X53166666Y-4454819D02*
X53071428Y-4454819D01*
X53071428Y-4454819D02*
X52928571Y-4407200D01*
X52928571Y-4407200D02*
X52833333Y-4311961D01*
X52833333Y-4311961D02*
X52785714Y-4216723D01*
X52785714Y-4216723D02*
X52738095Y-4026247D01*
X52738095Y-4026247D02*
X52738095Y-3883390D01*
X52738095Y-3883390D02*
X52785714Y-3692914D01*
X52785714Y-3692914D02*
X52833333Y-3597676D01*
X52833333Y-3597676D02*
X52928571Y-3502438D01*
X52928571Y-3502438D02*
X53071428Y-3454819D01*
X53071428Y-3454819D02*
X53166666Y-3454819D01*
X53166666Y-3454819D02*
X53309523Y-3502438D01*
X53309523Y-3502438D02*
X53357142Y-3550057D01*
X53785714Y-3931009D02*
X54119047Y-3931009D01*
X54261904Y-4454819D02*
X53785714Y-4454819D01*
X53785714Y-4454819D02*
X53785714Y-3454819D01*
X53785714Y-3454819D02*
X54261904Y-3454819D01*
X53628571Y-6547342D02*
X53228571Y-5975914D01*
X52942857Y-6547342D02*
X52942857Y-5347342D01*
X52942857Y-5347342D02*
X53400000Y-5347342D01*
X53400000Y-5347342D02*
X53514285Y-5404485D01*
X53514285Y-5404485D02*
X53571428Y-5461628D01*
X53571428Y-5461628D02*
X53628571Y-5575914D01*
X53628571Y-5575914D02*
X53628571Y-5747342D01*
X53628571Y-5747342D02*
X53571428Y-5861628D01*
X53571428Y-5861628D02*
X53514285Y-5918771D01*
X53514285Y-5918771D02*
X53400000Y-5975914D01*
X53400000Y-5975914D02*
X52942857Y-5975914D01*
X54771428Y-6547342D02*
X54085714Y-6547342D01*
X54428571Y-6547342D02*
X54428571Y-5347342D01*
X54428571Y-5347342D02*
X54314285Y-5518771D01*
X54314285Y-5518771D02*
X54200000Y-5633057D01*
X54200000Y-5633057D02*
X54085714Y-5690200D01*
X55914285Y-6547342D02*
X55228571Y-6547342D01*
X55571428Y-6547342D02*
X55571428Y-5347342D01*
X55571428Y-5347342D02*
X55457142Y-5518771D01*
X55457142Y-5518771D02*
X55342857Y-5633057D01*
X55342857Y-5633057D02*
X55228571Y-5690200D01*
X57171428Y-5347342D02*
X57857143Y-5347342D01*
X57514285Y-6547342D02*
X57514285Y-5347342D01*
X58942857Y-6547342D02*
X58542857Y-5975914D01*
X58257143Y-6547342D02*
X58257143Y-5347342D01*
X58257143Y-5347342D02*
X58714286Y-5347342D01*
X58714286Y-5347342D02*
X58828571Y-5404485D01*
X58828571Y-5404485D02*
X58885714Y-5461628D01*
X58885714Y-5461628D02*
X58942857Y-5575914D01*
X58942857Y-5575914D02*
X58942857Y-5747342D01*
X58942857Y-5747342D02*
X58885714Y-5861628D01*
X58885714Y-5861628D02*
X58828571Y-5918771D01*
X58828571Y-5918771D02*
X58714286Y-5975914D01*
X58714286Y-5975914D02*
X58257143Y-5975914D01*
X59457143Y-5347342D02*
X59457143Y-6318771D01*
X59457143Y-6318771D02*
X59514286Y-6433057D01*
X59514286Y-6433057D02*
X59571429Y-6490200D01*
X59571429Y-6490200D02*
X59685714Y-6547342D01*
X59685714Y-6547342D02*
X59914286Y-6547342D01*
X59914286Y-6547342D02*
X60028571Y-6490200D01*
X60028571Y-6490200D02*
X60085714Y-6433057D01*
X60085714Y-6433057D02*
X60142857Y-6318771D01*
X60142857Y-6318771D02*
X60142857Y-5347342D01*
X60714286Y-5918771D02*
X61114286Y-5918771D01*
X61285714Y-6547342D02*
X60714286Y-6547342D01*
X60714286Y-6547342D02*
X60714286Y-5347342D01*
X60714286Y-5347342D02*
X61285714Y-5347342D01*
X62714286Y-6547342D02*
X62714286Y-5347342D01*
X62714286Y-5347342D02*
X63000000Y-5347342D01*
X63000000Y-5347342D02*
X63171429Y-5404485D01*
X63171429Y-5404485D02*
X63285714Y-5518771D01*
X63285714Y-5518771D02*
X63342857Y-5633057D01*
X63342857Y-5633057D02*
X63400000Y-5861628D01*
X63400000Y-5861628D02*
X63400000Y-6033057D01*
X63400000Y-6033057D02*
X63342857Y-6261628D01*
X63342857Y-6261628D02*
X63285714Y-6375914D01*
X63285714Y-6375914D02*
X63171429Y-6490200D01*
X63171429Y-6490200D02*
X63000000Y-6547342D01*
X63000000Y-6547342D02*
X62714286Y-6547342D01*
X63914286Y-5347342D02*
X63914286Y-6318771D01*
X63914286Y-6318771D02*
X63971429Y-6433057D01*
X63971429Y-6433057D02*
X64028572Y-6490200D01*
X64028572Y-6490200D02*
X64142857Y-6547342D01*
X64142857Y-6547342D02*
X64371429Y-6547342D01*
X64371429Y-6547342D02*
X64485714Y-6490200D01*
X64485714Y-6490200D02*
X64542857Y-6433057D01*
X64542857Y-6433057D02*
X64600000Y-6318771D01*
X64600000Y-6318771D02*
X64600000Y-5347342D01*
X65114286Y-6204485D02*
X65685715Y-6204485D01*
X65000000Y-6547342D02*
X65400000Y-5347342D01*
X65400000Y-5347342D02*
X65800000Y-6547342D01*
X66771428Y-6547342D02*
X66200000Y-6547342D01*
X66200000Y-6547342D02*
X66200000Y-5347342D01*
X68771429Y-6433057D02*
X68714286Y-6490200D01*
X68714286Y-6490200D02*
X68542858Y-6547342D01*
X68542858Y-6547342D02*
X68428572Y-6547342D01*
X68428572Y-6547342D02*
X68257143Y-6490200D01*
X68257143Y-6490200D02*
X68142858Y-6375914D01*
X68142858Y-6375914D02*
X68085715Y-6261628D01*
X68085715Y-6261628D02*
X68028572Y-6033057D01*
X68028572Y-6033057D02*
X68028572Y-5861628D01*
X68028572Y-5861628D02*
X68085715Y-5633057D01*
X68085715Y-5633057D02*
X68142858Y-5518771D01*
X68142858Y-5518771D02*
X68257143Y-5404485D01*
X68257143Y-5404485D02*
X68428572Y-5347342D01*
X68428572Y-5347342D02*
X68542858Y-5347342D01*
X68542858Y-5347342D02*
X68714286Y-5404485D01*
X68714286Y-5404485D02*
X68771429Y-5461628D01*
X69228572Y-6204485D02*
X69800001Y-6204485D01*
X69114286Y-6547342D02*
X69514286Y-5347342D01*
X69514286Y-5347342D02*
X69914286Y-6547342D01*
X70314286Y-6547342D02*
X70314286Y-5347342D01*
X70314286Y-5347342D02*
X71000000Y-6547342D01*
X71000000Y-6547342D02*
X71000000Y-5347342D01*
X72885715Y-5918771D02*
X72485715Y-5918771D01*
X72485715Y-6547342D02*
X72485715Y-5347342D01*
X72485715Y-5347342D02*
X73057143Y-5347342D01*
X73514286Y-6547342D02*
X73514286Y-5347342D01*
X73514286Y-5347342D02*
X73800000Y-5347342D01*
X73800000Y-5347342D02*
X73971429Y-5404485D01*
X73971429Y-5404485D02*
X74085714Y-5518771D01*
X74085714Y-5518771D02*
X74142857Y-5633057D01*
X74142857Y-5633057D02*
X74200000Y-5861628D01*
X74200000Y-5861628D02*
X74200000Y-6033057D01*
X74200000Y-6033057D02*
X74142857Y-6261628D01*
X74142857Y-6261628D02*
X74085714Y-6375914D01*
X74085714Y-6375914D02*
X73971429Y-6490200D01*
X73971429Y-6490200D02*
X73800000Y-6547342D01*
X73800000Y-6547342D02*
X73514286Y-6547342D01*
X75628572Y-6090200D02*
X76542858Y-6090200D01*
X78028572Y-6547342D02*
X78028572Y-5347342D01*
X78028572Y-5347342D02*
X78428572Y-6204485D01*
X78428572Y-6204485D02*
X78828572Y-5347342D01*
X78828572Y-5347342D02*
X78828572Y-6547342D01*
X80085715Y-6433057D02*
X80028572Y-6490200D01*
X80028572Y-6490200D02*
X79857144Y-6547342D01*
X79857144Y-6547342D02*
X79742858Y-6547342D01*
X79742858Y-6547342D02*
X79571429Y-6490200D01*
X79571429Y-6490200D02*
X79457144Y-6375914D01*
X79457144Y-6375914D02*
X79400001Y-6261628D01*
X79400001Y-6261628D02*
X79342858Y-6033057D01*
X79342858Y-6033057D02*
X79342858Y-5861628D01*
X79342858Y-5861628D02*
X79400001Y-5633057D01*
X79400001Y-5633057D02*
X79457144Y-5518771D01*
X79457144Y-5518771D02*
X79571429Y-5404485D01*
X79571429Y-5404485D02*
X79742858Y-5347342D01*
X79742858Y-5347342D02*
X79857144Y-5347342D01*
X79857144Y-5347342D02*
X80028572Y-5404485D01*
X80028572Y-5404485D02*
X80085715Y-5461628D01*
X80600001Y-6547342D02*
X80600001Y-5347342D01*
X80600001Y-5347342D02*
X81057144Y-5347342D01*
X81057144Y-5347342D02*
X81171429Y-5404485D01*
X81171429Y-5404485D02*
X81228572Y-5461628D01*
X81228572Y-5461628D02*
X81285715Y-5575914D01*
X81285715Y-5575914D02*
X81285715Y-5747342D01*
X81285715Y-5747342D02*
X81228572Y-5861628D01*
X81228572Y-5861628D02*
X81171429Y-5918771D01*
X81171429Y-5918771D02*
X81057144Y-5975914D01*
X81057144Y-5975914D02*
X80600001Y-5975914D01*
X81742858Y-5461628D02*
X81800001Y-5404485D01*
X81800001Y-5404485D02*
X81914287Y-5347342D01*
X81914287Y-5347342D02*
X82200001Y-5347342D01*
X82200001Y-5347342D02*
X82314287Y-5404485D01*
X82314287Y-5404485D02*
X82371429Y-5461628D01*
X82371429Y-5461628D02*
X82428572Y-5575914D01*
X82428572Y-5575914D02*
X82428572Y-5690200D01*
X82428572Y-5690200D02*
X82371429Y-5861628D01*
X82371429Y-5861628D02*
X81685715Y-6547342D01*
X81685715Y-6547342D02*
X82428572Y-6547342D01*
X83514286Y-5347342D02*
X82942858Y-5347342D01*
X82942858Y-5347342D02*
X82885715Y-5918771D01*
X82885715Y-5918771D02*
X82942858Y-5861628D01*
X82942858Y-5861628D02*
X83057144Y-5804485D01*
X83057144Y-5804485D02*
X83342858Y-5804485D01*
X83342858Y-5804485D02*
X83457144Y-5861628D01*
X83457144Y-5861628D02*
X83514286Y-5918771D01*
X83514286Y-5918771D02*
X83571429Y-6033057D01*
X83571429Y-6033057D02*
X83571429Y-6318771D01*
X83571429Y-6318771D02*
X83514286Y-6433057D01*
X83514286Y-6433057D02*
X83457144Y-6490200D01*
X83457144Y-6490200D02*
X83342858Y-6547342D01*
X83342858Y-6547342D02*
X83057144Y-6547342D01*
X83057144Y-6547342D02*
X82942858Y-6490200D01*
X82942858Y-6490200D02*
X82885715Y-6433057D01*
X84714286Y-6547342D02*
X84028572Y-6547342D01*
X84371429Y-6547342D02*
X84371429Y-5347342D01*
X84371429Y-5347342D02*
X84257143Y-5518771D01*
X84257143Y-5518771D02*
X84142858Y-5633057D01*
X84142858Y-5633057D02*
X84028572Y-5690200D01*
X85400000Y-5861628D02*
X85285715Y-5804485D01*
X85285715Y-5804485D02*
X85228572Y-5747342D01*
X85228572Y-5747342D02*
X85171429Y-5633057D01*
X85171429Y-5633057D02*
X85171429Y-5575914D01*
X85171429Y-5575914D02*
X85228572Y-5461628D01*
X85228572Y-5461628D02*
X85285715Y-5404485D01*
X85285715Y-5404485D02*
X85400000Y-5347342D01*
X85400000Y-5347342D02*
X85628572Y-5347342D01*
X85628572Y-5347342D02*
X85742858Y-5404485D01*
X85742858Y-5404485D02*
X85800000Y-5461628D01*
X85800000Y-5461628D02*
X85857143Y-5575914D01*
X85857143Y-5575914D02*
X85857143Y-5633057D01*
X85857143Y-5633057D02*
X85800000Y-5747342D01*
X85800000Y-5747342D02*
X85742858Y-5804485D01*
X85742858Y-5804485D02*
X85628572Y-5861628D01*
X85628572Y-5861628D02*
X85400000Y-5861628D01*
X85400000Y-5861628D02*
X85285715Y-5918771D01*
X85285715Y-5918771D02*
X85228572Y-5975914D01*
X85228572Y-5975914D02*
X85171429Y-6090200D01*
X85171429Y-6090200D02*
X85171429Y-6318771D01*
X85171429Y-6318771D02*
X85228572Y-6433057D01*
X85228572Y-6433057D02*
X85285715Y-6490200D01*
X85285715Y-6490200D02*
X85400000Y-6547342D01*
X85400000Y-6547342D02*
X85628572Y-6547342D01*
X85628572Y-6547342D02*
X85742858Y-6490200D01*
X85742858Y-6490200D02*
X85800000Y-6433057D01*
X85800000Y-6433057D02*
X85857143Y-6318771D01*
X85857143Y-6318771D02*
X85857143Y-6090200D01*
X85857143Y-6090200D02*
X85800000Y-5975914D01*
X85800000Y-5975914D02*
X85742858Y-5918771D01*
X85742858Y-5918771D02*
X85628572Y-5861628D01*
X86771429Y-5918771D02*
X86371429Y-5918771D01*
X86371429Y-6547342D02*
X86371429Y-5347342D01*
X86371429Y-5347342D02*
X86942857Y-5347342D01*
X87400000Y-6547342D02*
X87400000Y-5347342D01*
X87400000Y-5347342D02*
X87685714Y-5347342D01*
X87685714Y-5347342D02*
X87857143Y-5404485D01*
X87857143Y-5404485D02*
X87971428Y-5518771D01*
X87971428Y-5518771D02*
X88028571Y-5633057D01*
X88028571Y-5633057D02*
X88085714Y-5861628D01*
X88085714Y-5861628D02*
X88085714Y-6033057D01*
X88085714Y-6033057D02*
X88028571Y-6261628D01*
X88028571Y-6261628D02*
X87971428Y-6375914D01*
X87971428Y-6375914D02*
X87857143Y-6490200D01*
X87857143Y-6490200D02*
X87685714Y-6547342D01*
X87685714Y-6547342D02*
X87400000Y-6547342D01*
X89400000Y-6547342D02*
X90028572Y-5747342D01*
X89400000Y-5747342D02*
X90028572Y-6547342D01*
X90428572Y-5461628D02*
X90485715Y-5404485D01*
X90485715Y-5404485D02*
X90600001Y-5347342D01*
X90600001Y-5347342D02*
X90885715Y-5347342D01*
X90885715Y-5347342D02*
X91000001Y-5404485D01*
X91000001Y-5404485D02*
X91057143Y-5461628D01*
X91057143Y-5461628D02*
X91114286Y-5575914D01*
X91114286Y-5575914D02*
X91114286Y-5690200D01*
X91114286Y-5690200D02*
X91057143Y-5861628D01*
X91057143Y-5861628D02*
X90371429Y-6547342D01*
X90371429Y-6547342D02*
X91114286Y-6547342D01*
D11*
X115047615Y-110912238D02*
X114380948Y-109959857D01*
X113904758Y-110912238D02*
X113904758Y-108912238D01*
X113904758Y-108912238D02*
X114666663Y-108912238D01*
X114666663Y-108912238D02*
X114857139Y-109007476D01*
X114857139Y-109007476D02*
X114952377Y-109102714D01*
X114952377Y-109102714D02*
X115047615Y-109293190D01*
X115047615Y-109293190D02*
X115047615Y-109578904D01*
X115047615Y-109578904D02*
X114952377Y-109769380D01*
X114952377Y-109769380D02*
X114857139Y-109864619D01*
X114857139Y-109864619D02*
X114666663Y-109959857D01*
X114666663Y-109959857D02*
X113904758Y-109959857D01*
X116952377Y-110912238D02*
X115809520Y-110912238D01*
X116380948Y-110912238D02*
X116380948Y-108912238D01*
X116380948Y-108912238D02*
X116190472Y-109197952D01*
X116190472Y-109197952D02*
X115999996Y-109388428D01*
X115999996Y-109388428D02*
X115809520Y-109483666D01*
X118857139Y-110912238D02*
X117714282Y-110912238D01*
X118285710Y-110912238D02*
X118285710Y-108912238D01*
X118285710Y-108912238D02*
X118095234Y-109197952D01*
X118095234Y-109197952D02*
X117904758Y-109388428D01*
X117904758Y-109388428D02*
X117714282Y-109483666D01*
X120952378Y-108912238D02*
X122095235Y-108912238D01*
X121523806Y-110912238D02*
X121523806Y-108912238D01*
X123904759Y-110912238D02*
X123238092Y-109959857D01*
X122761902Y-110912238D02*
X122761902Y-108912238D01*
X122761902Y-108912238D02*
X123523807Y-108912238D01*
X123523807Y-108912238D02*
X123714283Y-109007476D01*
X123714283Y-109007476D02*
X123809521Y-109102714D01*
X123809521Y-109102714D02*
X123904759Y-109293190D01*
X123904759Y-109293190D02*
X123904759Y-109578904D01*
X123904759Y-109578904D02*
X123809521Y-109769380D01*
X123809521Y-109769380D02*
X123714283Y-109864619D01*
X123714283Y-109864619D02*
X123523807Y-109959857D01*
X123523807Y-109959857D02*
X122761902Y-109959857D01*
X124761902Y-108912238D02*
X124761902Y-110531285D01*
X124761902Y-110531285D02*
X124857140Y-110721761D01*
X124857140Y-110721761D02*
X124952378Y-110817000D01*
X124952378Y-110817000D02*
X125142854Y-110912238D01*
X125142854Y-110912238D02*
X125523807Y-110912238D01*
X125523807Y-110912238D02*
X125714283Y-110817000D01*
X125714283Y-110817000D02*
X125809521Y-110721761D01*
X125809521Y-110721761D02*
X125904759Y-110531285D01*
X125904759Y-110531285D02*
X125904759Y-108912238D01*
X126857140Y-109864619D02*
X127523807Y-109864619D01*
X127809521Y-110912238D02*
X126857140Y-110912238D01*
X126857140Y-110912238D02*
X126857140Y-108912238D01*
X126857140Y-108912238D02*
X127809521Y-108912238D01*
X130190474Y-110912238D02*
X130190474Y-108912238D01*
X130190474Y-108912238D02*
X130666664Y-108912238D01*
X130666664Y-108912238D02*
X130952379Y-109007476D01*
X130952379Y-109007476D02*
X131142855Y-109197952D01*
X131142855Y-109197952D02*
X131238093Y-109388428D01*
X131238093Y-109388428D02*
X131333331Y-109769380D01*
X131333331Y-109769380D02*
X131333331Y-110055095D01*
X131333331Y-110055095D02*
X131238093Y-110436047D01*
X131238093Y-110436047D02*
X131142855Y-110626523D01*
X131142855Y-110626523D02*
X130952379Y-110817000D01*
X130952379Y-110817000D02*
X130666664Y-110912238D01*
X130666664Y-110912238D02*
X130190474Y-110912238D01*
X132190474Y-108912238D02*
X132190474Y-110531285D01*
X132190474Y-110531285D02*
X132285712Y-110721761D01*
X132285712Y-110721761D02*
X132380950Y-110817000D01*
X132380950Y-110817000D02*
X132571426Y-110912238D01*
X132571426Y-110912238D02*
X132952379Y-110912238D01*
X132952379Y-110912238D02*
X133142855Y-110817000D01*
X133142855Y-110817000D02*
X133238093Y-110721761D01*
X133238093Y-110721761D02*
X133333331Y-110531285D01*
X133333331Y-110531285D02*
X133333331Y-108912238D01*
X134190474Y-110340809D02*
X135142855Y-110340809D01*
X133999998Y-110912238D02*
X134666664Y-108912238D01*
X134666664Y-108912238D02*
X135333331Y-110912238D01*
X136952379Y-110912238D02*
X135999998Y-110912238D01*
X135999998Y-110912238D02*
X135999998Y-108912238D01*
X140285713Y-110721761D02*
X140190475Y-110817000D01*
X140190475Y-110817000D02*
X139904761Y-110912238D01*
X139904761Y-110912238D02*
X139714285Y-110912238D01*
X139714285Y-110912238D02*
X139428570Y-110817000D01*
X139428570Y-110817000D02*
X139238094Y-110626523D01*
X139238094Y-110626523D02*
X139142856Y-110436047D01*
X139142856Y-110436047D02*
X139047618Y-110055095D01*
X139047618Y-110055095D02*
X139047618Y-109769380D01*
X139047618Y-109769380D02*
X139142856Y-109388428D01*
X139142856Y-109388428D02*
X139238094Y-109197952D01*
X139238094Y-109197952D02*
X139428570Y-109007476D01*
X139428570Y-109007476D02*
X139714285Y-108912238D01*
X139714285Y-108912238D02*
X139904761Y-108912238D01*
X139904761Y-108912238D02*
X140190475Y-109007476D01*
X140190475Y-109007476D02*
X140285713Y-109102714D01*
X141047618Y-110340809D02*
X141999999Y-110340809D01*
X140857142Y-110912238D02*
X141523808Y-108912238D01*
X141523808Y-108912238D02*
X142190475Y-110912238D01*
X142857142Y-110912238D02*
X142857142Y-108912238D01*
X142857142Y-108912238D02*
X143999999Y-110912238D01*
X143999999Y-110912238D02*
X143999999Y-108912238D01*
X147142857Y-109864619D02*
X146476190Y-109864619D01*
X146476190Y-110912238D02*
X146476190Y-108912238D01*
X146476190Y-108912238D02*
X147428571Y-108912238D01*
X148190476Y-110912238D02*
X148190476Y-108912238D01*
X148190476Y-108912238D02*
X148666666Y-108912238D01*
X148666666Y-108912238D02*
X148952381Y-109007476D01*
X148952381Y-109007476D02*
X149142857Y-109197952D01*
X149142857Y-109197952D02*
X149238095Y-109388428D01*
X149238095Y-109388428D02*
X149333333Y-109769380D01*
X149333333Y-109769380D02*
X149333333Y-110055095D01*
X149333333Y-110055095D02*
X149238095Y-110436047D01*
X149238095Y-110436047D02*
X149142857Y-110626523D01*
X149142857Y-110626523D02*
X148952381Y-110817000D01*
X148952381Y-110817000D02*
X148666666Y-110912238D01*
X148666666Y-110912238D02*
X148190476Y-110912238D01*
X151714286Y-110150333D02*
X153238096Y-110150333D01*
X155523810Y-108912238D02*
X156000000Y-110912238D01*
X156000000Y-110912238D02*
X156380953Y-109483666D01*
X156380953Y-109483666D02*
X156761905Y-110912238D01*
X156761905Y-110912238D02*
X157238096Y-108912238D01*
X158000000Y-110912238D02*
X158000000Y-108912238D01*
X158952381Y-110912238D02*
X158952381Y-108912238D01*
X158952381Y-108912238D02*
X159428571Y-108912238D01*
X159428571Y-108912238D02*
X159714286Y-109007476D01*
X159714286Y-109007476D02*
X159904762Y-109197952D01*
X159904762Y-109197952D02*
X160000000Y-109388428D01*
X160000000Y-109388428D02*
X160095238Y-109769380D01*
X160095238Y-109769380D02*
X160095238Y-110055095D01*
X160095238Y-110055095D02*
X160000000Y-110436047D01*
X160000000Y-110436047D02*
X159904762Y-110626523D01*
X159904762Y-110626523D02*
X159714286Y-110817000D01*
X159714286Y-110817000D02*
X159428571Y-110912238D01*
X159428571Y-110912238D02*
X158952381Y-110912238D01*
X160952381Y-109864619D02*
X161619048Y-109864619D01*
X161904762Y-110912238D02*
X160952381Y-110912238D01*
X160952381Y-110912238D02*
X160952381Y-108912238D01*
X160952381Y-108912238D02*
X161904762Y-108912238D01*
X164952382Y-109864619D02*
X164285715Y-109864619D01*
X164285715Y-110912238D02*
X164285715Y-108912238D01*
X164285715Y-108912238D02*
X165238096Y-108912238D01*
X165904763Y-110340809D02*
X166857144Y-110340809D01*
X165714287Y-110912238D02*
X166380953Y-108912238D01*
X166380953Y-108912238D02*
X167047620Y-110912238D01*
X168380954Y-109864619D02*
X168666668Y-109959857D01*
X168666668Y-109959857D02*
X168761906Y-110055095D01*
X168761906Y-110055095D02*
X168857144Y-110245571D01*
X168857144Y-110245571D02*
X168857144Y-110531285D01*
X168857144Y-110531285D02*
X168761906Y-110721761D01*
X168761906Y-110721761D02*
X168666668Y-110817000D01*
X168666668Y-110817000D02*
X168476192Y-110912238D01*
X168476192Y-110912238D02*
X167714287Y-110912238D01*
X167714287Y-110912238D02*
X167714287Y-108912238D01*
X167714287Y-108912238D02*
X168380954Y-108912238D01*
X168380954Y-108912238D02*
X168571430Y-109007476D01*
X168571430Y-109007476D02*
X168666668Y-109102714D01*
X168666668Y-109102714D02*
X168761906Y-109293190D01*
X168761906Y-109293190D02*
X168761906Y-109483666D01*
X168761906Y-109483666D02*
X168666668Y-109674142D01*
X168666668Y-109674142D02*
X168571430Y-109769380D01*
X168571430Y-109769380D02*
X168380954Y-109864619D01*
X168380954Y-109864619D02*
X167714287Y-109864619D01*
X172380954Y-110721761D02*
X172285716Y-110817000D01*
X172285716Y-110817000D02*
X172000002Y-110912238D01*
X172000002Y-110912238D02*
X171809526Y-110912238D01*
X171809526Y-110912238D02*
X171523811Y-110817000D01*
X171523811Y-110817000D02*
X171333335Y-110626523D01*
X171333335Y-110626523D02*
X171238097Y-110436047D01*
X171238097Y-110436047D02*
X171142859Y-110055095D01*
X171142859Y-110055095D02*
X171142859Y-109769380D01*
X171142859Y-109769380D02*
X171238097Y-109388428D01*
X171238097Y-109388428D02*
X171333335Y-109197952D01*
X171333335Y-109197952D02*
X171523811Y-109007476D01*
X171523811Y-109007476D02*
X171809526Y-108912238D01*
X171809526Y-108912238D02*
X172000002Y-108912238D01*
X172000002Y-108912238D02*
X172285716Y-109007476D01*
X172285716Y-109007476D02*
X172380954Y-109102714D01*
X173142859Y-110340809D02*
X174095240Y-110340809D01*
X172952383Y-110912238D02*
X173619049Y-108912238D01*
X173619049Y-108912238D02*
X174285716Y-110912238D01*
X174952383Y-110912238D02*
X174952383Y-108912238D01*
X174952383Y-108912238D02*
X176095240Y-110912238D01*
X176095240Y-110912238D02*
X176095240Y-108912238D01*
X177047621Y-110912238D02*
X177047621Y-108912238D01*
X177047621Y-108912238D02*
X177523811Y-108912238D01*
X177523811Y-108912238D02*
X177809526Y-109007476D01*
X177809526Y-109007476D02*
X178000002Y-109197952D01*
X178000002Y-109197952D02*
X178095240Y-109388428D01*
X178095240Y-109388428D02*
X178190478Y-109769380D01*
X178190478Y-109769380D02*
X178190478Y-110055095D01*
X178190478Y-110055095D02*
X178095240Y-110436047D01*
X178095240Y-110436047D02*
X178000002Y-110626523D01*
X178000002Y-110626523D02*
X177809526Y-110817000D01*
X177809526Y-110817000D02*
X177523811Y-110912238D01*
X177523811Y-110912238D02*
X177047621Y-110912238D01*
X179047621Y-110912238D02*
X179047621Y-108912238D01*
X180000002Y-110912238D02*
X180000002Y-108912238D01*
X180000002Y-108912238D02*
X180476192Y-108912238D01*
X180476192Y-108912238D02*
X180761907Y-109007476D01*
X180761907Y-109007476D02*
X180952383Y-109197952D01*
X180952383Y-109197952D02*
X181047621Y-109388428D01*
X181047621Y-109388428D02*
X181142859Y-109769380D01*
X181142859Y-109769380D02*
X181142859Y-110055095D01*
X181142859Y-110055095D02*
X181047621Y-110436047D01*
X181047621Y-110436047D02*
X180952383Y-110626523D01*
X180952383Y-110626523D02*
X180761907Y-110817000D01*
X180761907Y-110817000D02*
X180476192Y-110912238D01*
X180476192Y-110912238D02*
X180000002Y-110912238D01*
X181904764Y-110340809D02*
X182857145Y-110340809D01*
X181714288Y-110912238D02*
X182380954Y-108912238D01*
X182380954Y-108912238D02*
X183047621Y-110912238D01*
X183428574Y-108912238D02*
X184571431Y-108912238D01*
X184000002Y-110912238D02*
X184000002Y-108912238D01*
X185238098Y-109864619D02*
X185904765Y-109864619D01*
X186190479Y-110912238D02*
X185238098Y-110912238D01*
X185238098Y-110912238D02*
X185238098Y-108912238D01*
X185238098Y-108912238D02*
X186190479Y-108912238D01*
D10*
X183357142Y-10804819D02*
X183023809Y-10328628D01*
X182785714Y-10804819D02*
X182785714Y-9804819D01*
X182785714Y-9804819D02*
X183166666Y-9804819D01*
X183166666Y-9804819D02*
X183261904Y-9852438D01*
X183261904Y-9852438D02*
X183309523Y-9900057D01*
X183309523Y-9900057D02*
X183357142Y-9995295D01*
X183357142Y-9995295D02*
X183357142Y-10138152D01*
X183357142Y-10138152D02*
X183309523Y-10233390D01*
X183309523Y-10233390D02*
X183261904Y-10281009D01*
X183261904Y-10281009D02*
X183166666Y-10328628D01*
X183166666Y-10328628D02*
X182785714Y-10328628D01*
X184309523Y-10804819D02*
X183738095Y-10804819D01*
X184023809Y-10804819D02*
X184023809Y-9804819D01*
X184023809Y-9804819D02*
X183928571Y-9947676D01*
X183928571Y-9947676D02*
X183833333Y-10042914D01*
X183833333Y-10042914D02*
X183738095Y-10090533D01*
X184690476Y-9900057D02*
X184738095Y-9852438D01*
X184738095Y-9852438D02*
X184833333Y-9804819D01*
X184833333Y-9804819D02*
X185071428Y-9804819D01*
X185071428Y-9804819D02*
X185166666Y-9852438D01*
X185166666Y-9852438D02*
X185214285Y-9900057D01*
X185214285Y-9900057D02*
X185261904Y-9995295D01*
X185261904Y-9995295D02*
X185261904Y-10090533D01*
X185261904Y-10090533D02*
X185214285Y-10233390D01*
X185214285Y-10233390D02*
X184642857Y-10804819D01*
X184642857Y-10804819D02*
X185261904Y-10804819D01*
X85833333Y-20039580D02*
X85785714Y-20087200D01*
X85785714Y-20087200D02*
X85642857Y-20134819D01*
X85642857Y-20134819D02*
X85547619Y-20134819D01*
X85547619Y-20134819D02*
X85404762Y-20087200D01*
X85404762Y-20087200D02*
X85309524Y-19991961D01*
X85309524Y-19991961D02*
X85261905Y-19896723D01*
X85261905Y-19896723D02*
X85214286Y-19706247D01*
X85214286Y-19706247D02*
X85214286Y-19563390D01*
X85214286Y-19563390D02*
X85261905Y-19372914D01*
X85261905Y-19372914D02*
X85309524Y-19277676D01*
X85309524Y-19277676D02*
X85404762Y-19182438D01*
X85404762Y-19182438D02*
X85547619Y-19134819D01*
X85547619Y-19134819D02*
X85642857Y-19134819D01*
X85642857Y-19134819D02*
X85785714Y-19182438D01*
X85785714Y-19182438D02*
X85833333Y-19230057D01*
X86738095Y-19134819D02*
X86261905Y-19134819D01*
X86261905Y-19134819D02*
X86214286Y-19611009D01*
X86214286Y-19611009D02*
X86261905Y-19563390D01*
X86261905Y-19563390D02*
X86357143Y-19515771D01*
X86357143Y-19515771D02*
X86595238Y-19515771D01*
X86595238Y-19515771D02*
X86690476Y-19563390D01*
X86690476Y-19563390D02*
X86738095Y-19611009D01*
X86738095Y-19611009D02*
X86785714Y-19706247D01*
X86785714Y-19706247D02*
X86785714Y-19944342D01*
X86785714Y-19944342D02*
X86738095Y-20039580D01*
X86738095Y-20039580D02*
X86690476Y-20087200D01*
X86690476Y-20087200D02*
X86595238Y-20134819D01*
X86595238Y-20134819D02*
X86357143Y-20134819D01*
X86357143Y-20134819D02*
X86261905Y-20087200D01*
X86261905Y-20087200D02*
X86214286Y-20039580D01*
X42738095Y-57806819D02*
X43309523Y-57806819D01*
X43023809Y-58806819D02*
X43023809Y-57806819D01*
X43642857Y-58806819D02*
X43642857Y-57806819D01*
X43642857Y-57806819D02*
X44023809Y-57806819D01*
X44023809Y-57806819D02*
X44119047Y-57854438D01*
X44119047Y-57854438D02*
X44166666Y-57902057D01*
X44166666Y-57902057D02*
X44214285Y-57997295D01*
X44214285Y-57997295D02*
X44214285Y-58140152D01*
X44214285Y-58140152D02*
X44166666Y-58235390D01*
X44166666Y-58235390D02*
X44119047Y-58283009D01*
X44119047Y-58283009D02*
X44023809Y-58330628D01*
X44023809Y-58330628D02*
X43642857Y-58330628D01*
X44595238Y-57902057D02*
X44642857Y-57854438D01*
X44642857Y-57854438D02*
X44738095Y-57806819D01*
X44738095Y-57806819D02*
X44976190Y-57806819D01*
X44976190Y-57806819D02*
X45071428Y-57854438D01*
X45071428Y-57854438D02*
X45119047Y-57902057D01*
X45119047Y-57902057D02*
X45166666Y-57997295D01*
X45166666Y-57997295D02*
X45166666Y-58092533D01*
X45166666Y-58092533D02*
X45119047Y-58235390D01*
X45119047Y-58235390D02*
X44547619Y-58806819D01*
X44547619Y-58806819D02*
X45166666Y-58806819D01*
X187261905Y-89954819D02*
X187261905Y-88954819D01*
X187261905Y-88954819D02*
X187500000Y-88954819D01*
X187500000Y-88954819D02*
X187642857Y-89002438D01*
X187642857Y-89002438D02*
X187738095Y-89097676D01*
X187738095Y-89097676D02*
X187785714Y-89192914D01*
X187785714Y-89192914D02*
X187833333Y-89383390D01*
X187833333Y-89383390D02*
X187833333Y-89526247D01*
X187833333Y-89526247D02*
X187785714Y-89716723D01*
X187785714Y-89716723D02*
X187738095Y-89811961D01*
X187738095Y-89811961D02*
X187642857Y-89907200D01*
X187642857Y-89907200D02*
X187500000Y-89954819D01*
X187500000Y-89954819D02*
X187261905Y-89954819D01*
X188738095Y-88954819D02*
X188261905Y-88954819D01*
X188261905Y-88954819D02*
X188214286Y-89431009D01*
X188214286Y-89431009D02*
X188261905Y-89383390D01*
X188261905Y-89383390D02*
X188357143Y-89335771D01*
X188357143Y-89335771D02*
X188595238Y-89335771D01*
X188595238Y-89335771D02*
X188690476Y-89383390D01*
X188690476Y-89383390D02*
X188738095Y-89431009D01*
X188738095Y-89431009D02*
X188785714Y-89526247D01*
X188785714Y-89526247D02*
X188785714Y-89764342D01*
X188785714Y-89764342D02*
X188738095Y-89859580D01*
X188738095Y-89859580D02*
X188690476Y-89907200D01*
X188690476Y-89907200D02*
X188595238Y-89954819D01*
X188595238Y-89954819D02*
X188357143Y-89954819D01*
X188357143Y-89954819D02*
X188261905Y-89907200D01*
X188261905Y-89907200D02*
X188214286Y-89859580D01*
X60333333Y-82854819D02*
X59857143Y-82854819D01*
X59857143Y-82854819D02*
X59857143Y-81854819D01*
X61190476Y-82854819D02*
X60619048Y-82854819D01*
X60904762Y-82854819D02*
X60904762Y-81854819D01*
X60904762Y-81854819D02*
X60809524Y-81997676D01*
X60809524Y-81997676D02*
X60714286Y-82092914D01*
X60714286Y-82092914D02*
X60619048Y-82140533D01*
X8738095Y-56257200D02*
X8880952Y-56304819D01*
X8880952Y-56304819D02*
X9119047Y-56304819D01*
X9119047Y-56304819D02*
X9214285Y-56257200D01*
X9214285Y-56257200D02*
X9261904Y-56209580D01*
X9261904Y-56209580D02*
X9309523Y-56114342D01*
X9309523Y-56114342D02*
X9309523Y-56019104D01*
X9309523Y-56019104D02*
X9261904Y-55923866D01*
X9261904Y-55923866D02*
X9214285Y-55876247D01*
X9214285Y-55876247D02*
X9119047Y-55828628D01*
X9119047Y-55828628D02*
X8928571Y-55781009D01*
X8928571Y-55781009D02*
X8833333Y-55733390D01*
X8833333Y-55733390D02*
X8785714Y-55685771D01*
X8785714Y-55685771D02*
X8738095Y-55590533D01*
X8738095Y-55590533D02*
X8738095Y-55495295D01*
X8738095Y-55495295D02*
X8785714Y-55400057D01*
X8785714Y-55400057D02*
X8833333Y-55352438D01*
X8833333Y-55352438D02*
X8928571Y-55304819D01*
X8928571Y-55304819D02*
X9166666Y-55304819D01*
X9166666Y-55304819D02*
X9309523Y-55352438D01*
X10309523Y-56304819D02*
X9976190Y-55828628D01*
X9738095Y-56304819D02*
X9738095Y-55304819D01*
X9738095Y-55304819D02*
X10119047Y-55304819D01*
X10119047Y-55304819D02*
X10214285Y-55352438D01*
X10214285Y-55352438D02*
X10261904Y-55400057D01*
X10261904Y-55400057D02*
X10309523Y-55495295D01*
X10309523Y-55495295D02*
X10309523Y-55638152D01*
X10309523Y-55638152D02*
X10261904Y-55733390D01*
X10261904Y-55733390D02*
X10214285Y-55781009D01*
X10214285Y-55781009D02*
X10119047Y-55828628D01*
X10119047Y-55828628D02*
X9738095Y-55828628D01*
X11261904Y-56304819D02*
X10690476Y-56304819D01*
X10976190Y-56304819D02*
X10976190Y-55304819D01*
X10976190Y-55304819D02*
X10880952Y-55447676D01*
X10880952Y-55447676D02*
X10785714Y-55542914D01*
X10785714Y-55542914D02*
X10690476Y-55590533D01*
D12*
X142549271Y-30547619D02*
X143577366Y-30547619D01*
X143577366Y-30547619D02*
X143698318Y-30487142D01*
X143698318Y-30487142D02*
X143758795Y-30426666D01*
X143758795Y-30426666D02*
X143819271Y-30305714D01*
X143819271Y-30305714D02*
X143819271Y-30063809D01*
X143819271Y-30063809D02*
X143758795Y-29942857D01*
X143758795Y-29942857D02*
X143698318Y-29882380D01*
X143698318Y-29882380D02*
X143577366Y-29821904D01*
X143577366Y-29821904D02*
X142549271Y-29821904D01*
X143819271Y-28551904D02*
X143819271Y-29277619D01*
X143819271Y-28914762D02*
X142549271Y-28914762D01*
X142549271Y-28914762D02*
X142730699Y-29035714D01*
X142730699Y-29035714D02*
X142851652Y-29156666D01*
X142851652Y-29156666D02*
X142912128Y-29277619D01*
D10*
X19583333Y-91109580D02*
X19535714Y-91157200D01*
X19535714Y-91157200D02*
X19392857Y-91204819D01*
X19392857Y-91204819D02*
X19297619Y-91204819D01*
X19297619Y-91204819D02*
X19154762Y-91157200D01*
X19154762Y-91157200D02*
X19059524Y-91061961D01*
X19059524Y-91061961D02*
X19011905Y-90966723D01*
X19011905Y-90966723D02*
X18964286Y-90776247D01*
X18964286Y-90776247D02*
X18964286Y-90633390D01*
X18964286Y-90633390D02*
X19011905Y-90442914D01*
X19011905Y-90442914D02*
X19059524Y-90347676D01*
X19059524Y-90347676D02*
X19154762Y-90252438D01*
X19154762Y-90252438D02*
X19297619Y-90204819D01*
X19297619Y-90204819D02*
X19392857Y-90204819D01*
X19392857Y-90204819D02*
X19535714Y-90252438D01*
X19535714Y-90252438D02*
X19583333Y-90300057D01*
X20535714Y-91204819D02*
X19964286Y-91204819D01*
X20250000Y-91204819D02*
X20250000Y-90204819D01*
X20250000Y-90204819D02*
X20154762Y-90347676D01*
X20154762Y-90347676D02*
X20059524Y-90442914D01*
X20059524Y-90442914D02*
X19964286Y-90490533D01*
X109738095Y-21806819D02*
X110309523Y-21806819D01*
X110023809Y-22806819D02*
X110023809Y-21806819D01*
X110642857Y-22806819D02*
X110642857Y-21806819D01*
X110642857Y-21806819D02*
X111023809Y-21806819D01*
X111023809Y-21806819D02*
X111119047Y-21854438D01*
X111119047Y-21854438D02*
X111166666Y-21902057D01*
X111166666Y-21902057D02*
X111214285Y-21997295D01*
X111214285Y-21997295D02*
X111214285Y-22140152D01*
X111214285Y-22140152D02*
X111166666Y-22235390D01*
X111166666Y-22235390D02*
X111119047Y-22283009D01*
X111119047Y-22283009D02*
X111023809Y-22330628D01*
X111023809Y-22330628D02*
X110642857Y-22330628D01*
X112119047Y-21806819D02*
X111642857Y-21806819D01*
X111642857Y-21806819D02*
X111595238Y-22283009D01*
X111595238Y-22283009D02*
X111642857Y-22235390D01*
X111642857Y-22235390D02*
X111738095Y-22187771D01*
X111738095Y-22187771D02*
X111976190Y-22187771D01*
X111976190Y-22187771D02*
X112071428Y-22235390D01*
X112071428Y-22235390D02*
X112119047Y-22283009D01*
X112119047Y-22283009D02*
X112166666Y-22378247D01*
X112166666Y-22378247D02*
X112166666Y-22616342D01*
X112166666Y-22616342D02*
X112119047Y-22711580D01*
X112119047Y-22711580D02*
X112071428Y-22759200D01*
X112071428Y-22759200D02*
X111976190Y-22806819D01*
X111976190Y-22806819D02*
X111738095Y-22806819D01*
X111738095Y-22806819D02*
X111642857Y-22759200D01*
X111642857Y-22759200D02*
X111595238Y-22711580D01*
D13*
X204607664Y-56514285D02*
X204645760Y-56552381D01*
X204645760Y-56552381D02*
X204683855Y-56666666D01*
X204683855Y-56666666D02*
X204683855Y-56742857D01*
X204683855Y-56742857D02*
X204645760Y-56857143D01*
X204645760Y-56857143D02*
X204569569Y-56933333D01*
X204569569Y-56933333D02*
X204493379Y-56971428D01*
X204493379Y-56971428D02*
X204340998Y-57009524D01*
X204340998Y-57009524D02*
X204226712Y-57009524D01*
X204226712Y-57009524D02*
X204074331Y-56971428D01*
X204074331Y-56971428D02*
X203998140Y-56933333D01*
X203998140Y-56933333D02*
X203921950Y-56857143D01*
X203921950Y-56857143D02*
X203883855Y-56742857D01*
X203883855Y-56742857D02*
X203883855Y-56666666D01*
X203883855Y-56666666D02*
X203921950Y-56552381D01*
X203921950Y-56552381D02*
X203960045Y-56514285D01*
X204683855Y-55752381D02*
X204683855Y-56209524D01*
X204683855Y-55980952D02*
X203883855Y-55980952D01*
X203883855Y-55980952D02*
X203998140Y-56057143D01*
X203998140Y-56057143D02*
X204074331Y-56133333D01*
X204074331Y-56133333D02*
X204112426Y-56209524D01*
X203883855Y-55257142D02*
X203883855Y-55180952D01*
X203883855Y-55180952D02*
X203921950Y-55104761D01*
X203921950Y-55104761D02*
X203960045Y-55066666D01*
X203960045Y-55066666D02*
X204036236Y-55028571D01*
X204036236Y-55028571D02*
X204188617Y-54990476D01*
X204188617Y-54990476D02*
X204379093Y-54990476D01*
X204379093Y-54990476D02*
X204531474Y-55028571D01*
X204531474Y-55028571D02*
X204607664Y-55066666D01*
X204607664Y-55066666D02*
X204645760Y-55104761D01*
X204645760Y-55104761D02*
X204683855Y-55180952D01*
X204683855Y-55180952D02*
X204683855Y-55257142D01*
X204683855Y-55257142D02*
X204645760Y-55333333D01*
X204645760Y-55333333D02*
X204607664Y-55371428D01*
X204607664Y-55371428D02*
X204531474Y-55409523D01*
X204531474Y-55409523D02*
X204379093Y-55447619D01*
X204379093Y-55447619D02*
X204188617Y-55447619D01*
X204188617Y-55447619D02*
X204036236Y-55409523D01*
X204036236Y-55409523D02*
X203960045Y-55371428D01*
X203960045Y-55371428D02*
X203921950Y-55333333D01*
X203921950Y-55333333D02*
X203883855Y-55257142D01*
X183485714Y-25967664D02*
X183447618Y-26005760D01*
X183447618Y-26005760D02*
X183333333Y-26043855D01*
X183333333Y-26043855D02*
X183257142Y-26043855D01*
X183257142Y-26043855D02*
X183142856Y-26005760D01*
X183142856Y-26005760D02*
X183066666Y-25929569D01*
X183066666Y-25929569D02*
X183028571Y-25853379D01*
X183028571Y-25853379D02*
X182990475Y-25700998D01*
X182990475Y-25700998D02*
X182990475Y-25586712D01*
X182990475Y-25586712D02*
X183028571Y-25434331D01*
X183028571Y-25434331D02*
X183066666Y-25358140D01*
X183066666Y-25358140D02*
X183142856Y-25281950D01*
X183142856Y-25281950D02*
X183257142Y-25243855D01*
X183257142Y-25243855D02*
X183333333Y-25243855D01*
X183333333Y-25243855D02*
X183447618Y-25281950D01*
X183447618Y-25281950D02*
X183485714Y-25320045D01*
X184247618Y-26043855D02*
X183790475Y-26043855D01*
X184019047Y-26043855D02*
X184019047Y-25243855D01*
X184019047Y-25243855D02*
X183942856Y-25358140D01*
X183942856Y-25358140D02*
X183866666Y-25434331D01*
X183866666Y-25434331D02*
X183790475Y-25472426D01*
X184552380Y-25320045D02*
X184590476Y-25281950D01*
X184590476Y-25281950D02*
X184666666Y-25243855D01*
X184666666Y-25243855D02*
X184857142Y-25243855D01*
X184857142Y-25243855D02*
X184933333Y-25281950D01*
X184933333Y-25281950D02*
X184971428Y-25320045D01*
X184971428Y-25320045D02*
X185009523Y-25396236D01*
X185009523Y-25396236D02*
X185009523Y-25472426D01*
X185009523Y-25472426D02*
X184971428Y-25586712D01*
X184971428Y-25586712D02*
X184514285Y-26043855D01*
X184514285Y-26043855D02*
X185009523Y-26043855D01*
D12*
X11576667Y-11309271D02*
X11576667Y-12216414D01*
X11576667Y-12216414D02*
X11516190Y-12397842D01*
X11516190Y-12397842D02*
X11395238Y-12518795D01*
X11395238Y-12518795D02*
X11213809Y-12579271D01*
X11213809Y-12579271D02*
X11092857Y-12579271D01*
X12846667Y-12579271D02*
X12120952Y-12579271D01*
X12483809Y-12579271D02*
X12483809Y-11309271D01*
X12483809Y-11309271D02*
X12362857Y-11490699D01*
X12362857Y-11490699D02*
X12241905Y-11611652D01*
X12241905Y-11611652D02*
X12120952Y-11672128D01*
D10*
X109738095Y-36806819D02*
X110309523Y-36806819D01*
X110023809Y-37806819D02*
X110023809Y-36806819D01*
X110642857Y-37806819D02*
X110642857Y-36806819D01*
X110642857Y-36806819D02*
X111023809Y-36806819D01*
X111023809Y-36806819D02*
X111119047Y-36854438D01*
X111119047Y-36854438D02*
X111166666Y-36902057D01*
X111166666Y-36902057D02*
X111214285Y-36997295D01*
X111214285Y-36997295D02*
X111214285Y-37140152D01*
X111214285Y-37140152D02*
X111166666Y-37235390D01*
X111166666Y-37235390D02*
X111119047Y-37283009D01*
X111119047Y-37283009D02*
X111023809Y-37330628D01*
X111023809Y-37330628D02*
X110642857Y-37330628D01*
X112071428Y-36806819D02*
X111880952Y-36806819D01*
X111880952Y-36806819D02*
X111785714Y-36854438D01*
X111785714Y-36854438D02*
X111738095Y-36902057D01*
X111738095Y-36902057D02*
X111642857Y-37044914D01*
X111642857Y-37044914D02*
X111595238Y-37235390D01*
X111595238Y-37235390D02*
X111595238Y-37616342D01*
X111595238Y-37616342D02*
X111642857Y-37711580D01*
X111642857Y-37711580D02*
X111690476Y-37759200D01*
X111690476Y-37759200D02*
X111785714Y-37806819D01*
X111785714Y-37806819D02*
X111976190Y-37806819D01*
X111976190Y-37806819D02*
X112071428Y-37759200D01*
X112071428Y-37759200D02*
X112119047Y-37711580D01*
X112119047Y-37711580D02*
X112166666Y-37616342D01*
X112166666Y-37616342D02*
X112166666Y-37378247D01*
X112166666Y-37378247D02*
X112119047Y-37283009D01*
X112119047Y-37283009D02*
X112071428Y-37235390D01*
X112071428Y-37235390D02*
X111976190Y-37187771D01*
X111976190Y-37187771D02*
X111785714Y-37187771D01*
X111785714Y-37187771D02*
X111690476Y-37235390D01*
X111690476Y-37235390D02*
X111642857Y-37283009D01*
X111642857Y-37283009D02*
X111595238Y-37378247D01*
X175261905Y-97954819D02*
X175261905Y-96954819D01*
X175261905Y-96954819D02*
X175500000Y-96954819D01*
X175500000Y-96954819D02*
X175642857Y-97002438D01*
X175642857Y-97002438D02*
X175738095Y-97097676D01*
X175738095Y-97097676D02*
X175785714Y-97192914D01*
X175785714Y-97192914D02*
X175833333Y-97383390D01*
X175833333Y-97383390D02*
X175833333Y-97526247D01*
X175833333Y-97526247D02*
X175785714Y-97716723D01*
X175785714Y-97716723D02*
X175738095Y-97811961D01*
X175738095Y-97811961D02*
X175642857Y-97907200D01*
X175642857Y-97907200D02*
X175500000Y-97954819D01*
X175500000Y-97954819D02*
X175261905Y-97954819D01*
X176404762Y-97383390D02*
X176309524Y-97335771D01*
X176309524Y-97335771D02*
X176261905Y-97288152D01*
X176261905Y-97288152D02*
X176214286Y-97192914D01*
X176214286Y-97192914D02*
X176214286Y-97145295D01*
X176214286Y-97145295D02*
X176261905Y-97050057D01*
X176261905Y-97050057D02*
X176309524Y-97002438D01*
X176309524Y-97002438D02*
X176404762Y-96954819D01*
X176404762Y-96954819D02*
X176595238Y-96954819D01*
X176595238Y-96954819D02*
X176690476Y-97002438D01*
X176690476Y-97002438D02*
X176738095Y-97050057D01*
X176738095Y-97050057D02*
X176785714Y-97145295D01*
X176785714Y-97145295D02*
X176785714Y-97192914D01*
X176785714Y-97192914D02*
X176738095Y-97288152D01*
X176738095Y-97288152D02*
X176690476Y-97335771D01*
X176690476Y-97335771D02*
X176595238Y-97383390D01*
X176595238Y-97383390D02*
X176404762Y-97383390D01*
X176404762Y-97383390D02*
X176309524Y-97431009D01*
X176309524Y-97431009D02*
X176261905Y-97478628D01*
X176261905Y-97478628D02*
X176214286Y-97573866D01*
X176214286Y-97573866D02*
X176214286Y-97764342D01*
X176214286Y-97764342D02*
X176261905Y-97859580D01*
X176261905Y-97859580D02*
X176309524Y-97907200D01*
X176309524Y-97907200D02*
X176404762Y-97954819D01*
X176404762Y-97954819D02*
X176595238Y-97954819D01*
X176595238Y-97954819D02*
X176690476Y-97907200D01*
X176690476Y-97907200D02*
X176738095Y-97859580D01*
X176738095Y-97859580D02*
X176785714Y-97764342D01*
X176785714Y-97764342D02*
X176785714Y-97573866D01*
X176785714Y-97573866D02*
X176738095Y-97478628D01*
X176738095Y-97478628D02*
X176690476Y-97431009D01*
X176690476Y-97431009D02*
X176595238Y-97383390D01*
X211261905Y-89954819D02*
X211261905Y-88954819D01*
X211261905Y-88954819D02*
X211500000Y-88954819D01*
X211500000Y-88954819D02*
X211642857Y-89002438D01*
X211642857Y-89002438D02*
X211738095Y-89097676D01*
X211738095Y-89097676D02*
X211785714Y-89192914D01*
X211785714Y-89192914D02*
X211833333Y-89383390D01*
X211833333Y-89383390D02*
X211833333Y-89526247D01*
X211833333Y-89526247D02*
X211785714Y-89716723D01*
X211785714Y-89716723D02*
X211738095Y-89811961D01*
X211738095Y-89811961D02*
X211642857Y-89907200D01*
X211642857Y-89907200D02*
X211500000Y-89954819D01*
X211500000Y-89954819D02*
X211261905Y-89954819D01*
X212166667Y-88954819D02*
X212833333Y-88954819D01*
X212833333Y-88954819D02*
X212404762Y-89954819D01*
X183357142Y-40804819D02*
X183023809Y-40328628D01*
X182785714Y-40804819D02*
X182785714Y-39804819D01*
X182785714Y-39804819D02*
X183166666Y-39804819D01*
X183166666Y-39804819D02*
X183261904Y-39852438D01*
X183261904Y-39852438D02*
X183309523Y-39900057D01*
X183309523Y-39900057D02*
X183357142Y-39995295D01*
X183357142Y-39995295D02*
X183357142Y-40138152D01*
X183357142Y-40138152D02*
X183309523Y-40233390D01*
X183309523Y-40233390D02*
X183261904Y-40281009D01*
X183261904Y-40281009D02*
X183166666Y-40328628D01*
X183166666Y-40328628D02*
X182785714Y-40328628D01*
X184309523Y-40804819D02*
X183738095Y-40804819D01*
X184023809Y-40804819D02*
X184023809Y-39804819D01*
X184023809Y-39804819D02*
X183928571Y-39947676D01*
X183928571Y-39947676D02*
X183833333Y-40042914D01*
X183833333Y-40042914D02*
X183738095Y-40090533D01*
X184642857Y-39804819D02*
X185261904Y-39804819D01*
X185261904Y-39804819D02*
X184928571Y-40185771D01*
X184928571Y-40185771D02*
X185071428Y-40185771D01*
X185071428Y-40185771D02*
X185166666Y-40233390D01*
X185166666Y-40233390D02*
X185214285Y-40281009D01*
X185214285Y-40281009D02*
X185261904Y-40376247D01*
X185261904Y-40376247D02*
X185261904Y-40614342D01*
X185261904Y-40614342D02*
X185214285Y-40709580D01*
X185214285Y-40709580D02*
X185166666Y-40757200D01*
X185166666Y-40757200D02*
X185071428Y-40804819D01*
X185071428Y-40804819D02*
X184785714Y-40804819D01*
X184785714Y-40804819D02*
X184690476Y-40757200D01*
X184690476Y-40757200D02*
X184642857Y-40709580D01*
X215357142Y-80804819D02*
X215023809Y-80328628D01*
X214785714Y-80804819D02*
X214785714Y-79804819D01*
X214785714Y-79804819D02*
X215166666Y-79804819D01*
X215166666Y-79804819D02*
X215261904Y-79852438D01*
X215261904Y-79852438D02*
X215309523Y-79900057D01*
X215309523Y-79900057D02*
X215357142Y-79995295D01*
X215357142Y-79995295D02*
X215357142Y-80138152D01*
X215357142Y-80138152D02*
X215309523Y-80233390D01*
X215309523Y-80233390D02*
X215261904Y-80281009D01*
X215261904Y-80281009D02*
X215166666Y-80328628D01*
X215166666Y-80328628D02*
X214785714Y-80328628D01*
X216309523Y-80804819D02*
X215738095Y-80804819D01*
X216023809Y-80804819D02*
X216023809Y-79804819D01*
X216023809Y-79804819D02*
X215928571Y-79947676D01*
X215928571Y-79947676D02*
X215833333Y-80042914D01*
X215833333Y-80042914D02*
X215738095Y-80090533D01*
X217166666Y-79804819D02*
X216976190Y-79804819D01*
X216976190Y-79804819D02*
X216880952Y-79852438D01*
X216880952Y-79852438D02*
X216833333Y-79900057D01*
X216833333Y-79900057D02*
X216738095Y-80042914D01*
X216738095Y-80042914D02*
X216690476Y-80233390D01*
X216690476Y-80233390D02*
X216690476Y-80614342D01*
X216690476Y-80614342D02*
X216738095Y-80709580D01*
X216738095Y-80709580D02*
X216785714Y-80757200D01*
X216785714Y-80757200D02*
X216880952Y-80804819D01*
X216880952Y-80804819D02*
X217071428Y-80804819D01*
X217071428Y-80804819D02*
X217166666Y-80757200D01*
X217166666Y-80757200D02*
X217214285Y-80709580D01*
X217214285Y-80709580D02*
X217261904Y-80614342D01*
X217261904Y-80614342D02*
X217261904Y-80376247D01*
X217261904Y-80376247D02*
X217214285Y-80281009D01*
X217214285Y-80281009D02*
X217166666Y-80233390D01*
X217166666Y-80233390D02*
X217071428Y-80185771D01*
X217071428Y-80185771D02*
X216880952Y-80185771D01*
X216880952Y-80185771D02*
X216785714Y-80233390D01*
X216785714Y-80233390D02*
X216738095Y-80281009D01*
X216738095Y-80281009D02*
X216690476Y-80376247D01*
X29666666Y-70101009D02*
X29333333Y-70101009D01*
X29333333Y-70624819D02*
X29333333Y-69624819D01*
X29333333Y-69624819D02*
X29809523Y-69624819D01*
X30714285Y-70624819D02*
X30142857Y-70624819D01*
X30428571Y-70624819D02*
X30428571Y-69624819D01*
X30428571Y-69624819D02*
X30333333Y-69767676D01*
X30333333Y-69767676D02*
X30238095Y-69862914D01*
X30238095Y-69862914D02*
X30142857Y-69910533D01*
X20738095Y-62257200D02*
X20880952Y-62304819D01*
X20880952Y-62304819D02*
X21119047Y-62304819D01*
X21119047Y-62304819D02*
X21214285Y-62257200D01*
X21214285Y-62257200D02*
X21261904Y-62209580D01*
X21261904Y-62209580D02*
X21309523Y-62114342D01*
X21309523Y-62114342D02*
X21309523Y-62019104D01*
X21309523Y-62019104D02*
X21261904Y-61923866D01*
X21261904Y-61923866D02*
X21214285Y-61876247D01*
X21214285Y-61876247D02*
X21119047Y-61828628D01*
X21119047Y-61828628D02*
X20928571Y-61781009D01*
X20928571Y-61781009D02*
X20833333Y-61733390D01*
X20833333Y-61733390D02*
X20785714Y-61685771D01*
X20785714Y-61685771D02*
X20738095Y-61590533D01*
X20738095Y-61590533D02*
X20738095Y-61495295D01*
X20738095Y-61495295D02*
X20785714Y-61400057D01*
X20785714Y-61400057D02*
X20833333Y-61352438D01*
X20833333Y-61352438D02*
X20928571Y-61304819D01*
X20928571Y-61304819D02*
X21166666Y-61304819D01*
X21166666Y-61304819D02*
X21309523Y-61352438D01*
X22309523Y-62304819D02*
X21976190Y-61828628D01*
X21738095Y-62304819D02*
X21738095Y-61304819D01*
X21738095Y-61304819D02*
X22119047Y-61304819D01*
X22119047Y-61304819D02*
X22214285Y-61352438D01*
X22214285Y-61352438D02*
X22261904Y-61400057D01*
X22261904Y-61400057D02*
X22309523Y-61495295D01*
X22309523Y-61495295D02*
X22309523Y-61638152D01*
X22309523Y-61638152D02*
X22261904Y-61733390D01*
X22261904Y-61733390D02*
X22214285Y-61781009D01*
X22214285Y-61781009D02*
X22119047Y-61828628D01*
X22119047Y-61828628D02*
X21738095Y-61828628D01*
X22690476Y-61400057D02*
X22738095Y-61352438D01*
X22738095Y-61352438D02*
X22833333Y-61304819D01*
X22833333Y-61304819D02*
X23071428Y-61304819D01*
X23071428Y-61304819D02*
X23166666Y-61352438D01*
X23166666Y-61352438D02*
X23214285Y-61400057D01*
X23214285Y-61400057D02*
X23261904Y-61495295D01*
X23261904Y-61495295D02*
X23261904Y-61590533D01*
X23261904Y-61590533D02*
X23214285Y-61733390D01*
X23214285Y-61733390D02*
X22642857Y-62304819D01*
X22642857Y-62304819D02*
X23261904Y-62304819D01*
X23261905Y-77954819D02*
X23261905Y-76954819D01*
X23261905Y-76954819D02*
X23500000Y-76954819D01*
X23500000Y-76954819D02*
X23642857Y-77002438D01*
X23642857Y-77002438D02*
X23738095Y-77097676D01*
X23738095Y-77097676D02*
X23785714Y-77192914D01*
X23785714Y-77192914D02*
X23833333Y-77383390D01*
X23833333Y-77383390D02*
X23833333Y-77526247D01*
X23833333Y-77526247D02*
X23785714Y-77716723D01*
X23785714Y-77716723D02*
X23738095Y-77811961D01*
X23738095Y-77811961D02*
X23642857Y-77907200D01*
X23642857Y-77907200D02*
X23500000Y-77954819D01*
X23500000Y-77954819D02*
X23261905Y-77954819D01*
X24785714Y-77954819D02*
X24214286Y-77954819D01*
X24500000Y-77954819D02*
X24500000Y-76954819D01*
X24500000Y-76954819D02*
X24404762Y-77097676D01*
X24404762Y-77097676D02*
X24309524Y-77192914D01*
X24309524Y-77192914D02*
X24214286Y-77240533D01*
X55261905Y-95954819D02*
X55261905Y-94954819D01*
X55261905Y-94954819D02*
X55500000Y-94954819D01*
X55500000Y-94954819D02*
X55642857Y-95002438D01*
X55642857Y-95002438D02*
X55738095Y-95097676D01*
X55738095Y-95097676D02*
X55785714Y-95192914D01*
X55785714Y-95192914D02*
X55833333Y-95383390D01*
X55833333Y-95383390D02*
X55833333Y-95526247D01*
X55833333Y-95526247D02*
X55785714Y-95716723D01*
X55785714Y-95716723D02*
X55738095Y-95811961D01*
X55738095Y-95811961D02*
X55642857Y-95907200D01*
X55642857Y-95907200D02*
X55500000Y-95954819D01*
X55500000Y-95954819D02*
X55261905Y-95954819D01*
X56214286Y-95050057D02*
X56261905Y-95002438D01*
X56261905Y-95002438D02*
X56357143Y-94954819D01*
X56357143Y-94954819D02*
X56595238Y-94954819D01*
X56595238Y-94954819D02*
X56690476Y-95002438D01*
X56690476Y-95002438D02*
X56738095Y-95050057D01*
X56738095Y-95050057D02*
X56785714Y-95145295D01*
X56785714Y-95145295D02*
X56785714Y-95240533D01*
X56785714Y-95240533D02*
X56738095Y-95383390D01*
X56738095Y-95383390D02*
X56166667Y-95954819D01*
X56166667Y-95954819D02*
X56785714Y-95954819D01*
X175261905Y-89954819D02*
X175261905Y-88954819D01*
X175261905Y-88954819D02*
X175500000Y-88954819D01*
X175500000Y-88954819D02*
X175642857Y-89002438D01*
X175642857Y-89002438D02*
X175738095Y-89097676D01*
X175738095Y-89097676D02*
X175785714Y-89192914D01*
X175785714Y-89192914D02*
X175833333Y-89383390D01*
X175833333Y-89383390D02*
X175833333Y-89526247D01*
X175833333Y-89526247D02*
X175785714Y-89716723D01*
X175785714Y-89716723D02*
X175738095Y-89811961D01*
X175738095Y-89811961D02*
X175642857Y-89907200D01*
X175642857Y-89907200D02*
X175500000Y-89954819D01*
X175500000Y-89954819D02*
X175261905Y-89954819D01*
X176690476Y-89288152D02*
X176690476Y-89954819D01*
X176452381Y-88907200D02*
X176214286Y-89621485D01*
X176214286Y-89621485D02*
X176833333Y-89621485D01*
X199261905Y-89954819D02*
X199261905Y-88954819D01*
X199261905Y-88954819D02*
X199500000Y-88954819D01*
X199500000Y-88954819D02*
X199642857Y-89002438D01*
X199642857Y-89002438D02*
X199738095Y-89097676D01*
X199738095Y-89097676D02*
X199785714Y-89192914D01*
X199785714Y-89192914D02*
X199833333Y-89383390D01*
X199833333Y-89383390D02*
X199833333Y-89526247D01*
X199833333Y-89526247D02*
X199785714Y-89716723D01*
X199785714Y-89716723D02*
X199738095Y-89811961D01*
X199738095Y-89811961D02*
X199642857Y-89907200D01*
X199642857Y-89907200D02*
X199500000Y-89954819D01*
X199500000Y-89954819D02*
X199261905Y-89954819D01*
X200690476Y-88954819D02*
X200500000Y-88954819D01*
X200500000Y-88954819D02*
X200404762Y-89002438D01*
X200404762Y-89002438D02*
X200357143Y-89050057D01*
X200357143Y-89050057D02*
X200261905Y-89192914D01*
X200261905Y-89192914D02*
X200214286Y-89383390D01*
X200214286Y-89383390D02*
X200214286Y-89764342D01*
X200214286Y-89764342D02*
X200261905Y-89859580D01*
X200261905Y-89859580D02*
X200309524Y-89907200D01*
X200309524Y-89907200D02*
X200404762Y-89954819D01*
X200404762Y-89954819D02*
X200595238Y-89954819D01*
X200595238Y-89954819D02*
X200690476Y-89907200D01*
X200690476Y-89907200D02*
X200738095Y-89859580D01*
X200738095Y-89859580D02*
X200785714Y-89764342D01*
X200785714Y-89764342D02*
X200785714Y-89526247D01*
X200785714Y-89526247D02*
X200738095Y-89431009D01*
X200738095Y-89431009D02*
X200690476Y-89383390D01*
X200690476Y-89383390D02*
X200595238Y-89335771D01*
X200595238Y-89335771D02*
X200404762Y-89335771D01*
X200404762Y-89335771D02*
X200309524Y-89383390D01*
X200309524Y-89383390D02*
X200261905Y-89431009D01*
X200261905Y-89431009D02*
X200214286Y-89526247D01*
X183357142Y-80804819D02*
X183023809Y-80328628D01*
X182785714Y-80804819D02*
X182785714Y-79804819D01*
X182785714Y-79804819D02*
X183166666Y-79804819D01*
X183166666Y-79804819D02*
X183261904Y-79852438D01*
X183261904Y-79852438D02*
X183309523Y-79900057D01*
X183309523Y-79900057D02*
X183357142Y-79995295D01*
X183357142Y-79995295D02*
X183357142Y-80138152D01*
X183357142Y-80138152D02*
X183309523Y-80233390D01*
X183309523Y-80233390D02*
X183261904Y-80281009D01*
X183261904Y-80281009D02*
X183166666Y-80328628D01*
X183166666Y-80328628D02*
X182785714Y-80328628D01*
X184309523Y-80804819D02*
X183738095Y-80804819D01*
X184023809Y-80804819D02*
X184023809Y-79804819D01*
X184023809Y-79804819D02*
X183928571Y-79947676D01*
X183928571Y-79947676D02*
X183833333Y-80042914D01*
X183833333Y-80042914D02*
X183738095Y-80090533D01*
X185261904Y-80804819D02*
X184690476Y-80804819D01*
X184976190Y-80804819D02*
X184976190Y-79804819D01*
X184976190Y-79804819D02*
X184880952Y-79947676D01*
X184880952Y-79947676D02*
X184785714Y-80042914D01*
X184785714Y-80042914D02*
X184690476Y-80090533D01*
D13*
X202982902Y-24380951D02*
X203363855Y-24380951D01*
X202563855Y-24647618D02*
X202982902Y-24380951D01*
X202982902Y-24380951D02*
X202563855Y-24114285D01*
X203363855Y-23428571D02*
X203363855Y-23885714D01*
X203363855Y-23657142D02*
X202563855Y-23657142D01*
X202563855Y-23657142D02*
X202678140Y-23733333D01*
X202678140Y-23733333D02*
X202754331Y-23809523D01*
X202754331Y-23809523D02*
X202792426Y-23885714D01*
D10*
X73583333Y-91109580D02*
X73535714Y-91157200D01*
X73535714Y-91157200D02*
X73392857Y-91204819D01*
X73392857Y-91204819D02*
X73297619Y-91204819D01*
X73297619Y-91204819D02*
X73154762Y-91157200D01*
X73154762Y-91157200D02*
X73059524Y-91061961D01*
X73059524Y-91061961D02*
X73011905Y-90966723D01*
X73011905Y-90966723D02*
X72964286Y-90776247D01*
X72964286Y-90776247D02*
X72964286Y-90633390D01*
X72964286Y-90633390D02*
X73011905Y-90442914D01*
X73011905Y-90442914D02*
X73059524Y-90347676D01*
X73059524Y-90347676D02*
X73154762Y-90252438D01*
X73154762Y-90252438D02*
X73297619Y-90204819D01*
X73297619Y-90204819D02*
X73392857Y-90204819D01*
X73392857Y-90204819D02*
X73535714Y-90252438D01*
X73535714Y-90252438D02*
X73583333Y-90300057D01*
X73916667Y-90204819D02*
X74535714Y-90204819D01*
X74535714Y-90204819D02*
X74202381Y-90585771D01*
X74202381Y-90585771D02*
X74345238Y-90585771D01*
X74345238Y-90585771D02*
X74440476Y-90633390D01*
X74440476Y-90633390D02*
X74488095Y-90681009D01*
X74488095Y-90681009D02*
X74535714Y-90776247D01*
X74535714Y-90776247D02*
X74535714Y-91014342D01*
X74535714Y-91014342D02*
X74488095Y-91109580D01*
X74488095Y-91109580D02*
X74440476Y-91157200D01*
X74440476Y-91157200D02*
X74345238Y-91204819D01*
X74345238Y-91204819D02*
X74059524Y-91204819D01*
X74059524Y-91204819D02*
X73964286Y-91157200D01*
X73964286Y-91157200D02*
X73916667Y-91109580D01*
X71833333Y-82679580D02*
X71785714Y-82727200D01*
X71785714Y-82727200D02*
X71642857Y-82774819D01*
X71642857Y-82774819D02*
X71547619Y-82774819D01*
X71547619Y-82774819D02*
X71404762Y-82727200D01*
X71404762Y-82727200D02*
X71309524Y-82631961D01*
X71309524Y-82631961D02*
X71261905Y-82536723D01*
X71261905Y-82536723D02*
X71214286Y-82346247D01*
X71214286Y-82346247D02*
X71214286Y-82203390D01*
X71214286Y-82203390D02*
X71261905Y-82012914D01*
X71261905Y-82012914D02*
X71309524Y-81917676D01*
X71309524Y-81917676D02*
X71404762Y-81822438D01*
X71404762Y-81822438D02*
X71547619Y-81774819D01*
X71547619Y-81774819D02*
X71642857Y-81774819D01*
X71642857Y-81774819D02*
X71785714Y-81822438D01*
X71785714Y-81822438D02*
X71833333Y-81870057D01*
X72690476Y-82108152D02*
X72690476Y-82774819D01*
X72452381Y-81727200D02*
X72214286Y-82441485D01*
X72214286Y-82441485D02*
X72833333Y-82441485D01*
D13*
X212607664Y-24170832D02*
X212645760Y-24208928D01*
X212645760Y-24208928D02*
X212683855Y-24323213D01*
X212683855Y-24323213D02*
X212683855Y-24399404D01*
X212683855Y-24399404D02*
X212645760Y-24513690D01*
X212645760Y-24513690D02*
X212569569Y-24589880D01*
X212569569Y-24589880D02*
X212493379Y-24627975D01*
X212493379Y-24627975D02*
X212340998Y-24666071D01*
X212340998Y-24666071D02*
X212226712Y-24666071D01*
X212226712Y-24666071D02*
X212074331Y-24627975D01*
X212074331Y-24627975D02*
X211998140Y-24589880D01*
X211998140Y-24589880D02*
X211921950Y-24513690D01*
X211921950Y-24513690D02*
X211883855Y-24399404D01*
X211883855Y-24399404D02*
X211883855Y-24323213D01*
X211883855Y-24323213D02*
X211921950Y-24208928D01*
X211921950Y-24208928D02*
X211960045Y-24170832D01*
X212226712Y-23713690D02*
X212188617Y-23789880D01*
X212188617Y-23789880D02*
X212150521Y-23827975D01*
X212150521Y-23827975D02*
X212074331Y-23866071D01*
X212074331Y-23866071D02*
X212036236Y-23866071D01*
X212036236Y-23866071D02*
X211960045Y-23827975D01*
X211960045Y-23827975D02*
X211921950Y-23789880D01*
X211921950Y-23789880D02*
X211883855Y-23713690D01*
X211883855Y-23713690D02*
X211883855Y-23561309D01*
X211883855Y-23561309D02*
X211921950Y-23485118D01*
X211921950Y-23485118D02*
X211960045Y-23447023D01*
X211960045Y-23447023D02*
X212036236Y-23408928D01*
X212036236Y-23408928D02*
X212074331Y-23408928D01*
X212074331Y-23408928D02*
X212150521Y-23447023D01*
X212150521Y-23447023D02*
X212188617Y-23485118D01*
X212188617Y-23485118D02*
X212226712Y-23561309D01*
X212226712Y-23561309D02*
X212226712Y-23713690D01*
X212226712Y-23713690D02*
X212264807Y-23789880D01*
X212264807Y-23789880D02*
X212302902Y-23827975D01*
X212302902Y-23827975D02*
X212379093Y-23866071D01*
X212379093Y-23866071D02*
X212531474Y-23866071D01*
X212531474Y-23866071D02*
X212607664Y-23827975D01*
X212607664Y-23827975D02*
X212645760Y-23789880D01*
X212645760Y-23789880D02*
X212683855Y-23713690D01*
X212683855Y-23713690D02*
X212683855Y-23561309D01*
X212683855Y-23561309D02*
X212645760Y-23485118D01*
X212645760Y-23485118D02*
X212607664Y-23447023D01*
X212607664Y-23447023D02*
X212531474Y-23408928D01*
X212531474Y-23408928D02*
X212379093Y-23408928D01*
X212379093Y-23408928D02*
X212302902Y-23447023D01*
X212302902Y-23447023D02*
X212264807Y-23485118D01*
X212264807Y-23485118D02*
X212226712Y-23561309D01*
X206967664Y-69976785D02*
X207005760Y-70014881D01*
X207005760Y-70014881D02*
X207043855Y-70129166D01*
X207043855Y-70129166D02*
X207043855Y-70205357D01*
X207043855Y-70205357D02*
X207005760Y-70319643D01*
X207005760Y-70319643D02*
X206929569Y-70395833D01*
X206929569Y-70395833D02*
X206853379Y-70433928D01*
X206853379Y-70433928D02*
X206700998Y-70472024D01*
X206700998Y-70472024D02*
X206586712Y-70472024D01*
X206586712Y-70472024D02*
X206434331Y-70433928D01*
X206434331Y-70433928D02*
X206358140Y-70395833D01*
X206358140Y-70395833D02*
X206281950Y-70319643D01*
X206281950Y-70319643D02*
X206243855Y-70205357D01*
X206243855Y-70205357D02*
X206243855Y-70129166D01*
X206243855Y-70129166D02*
X206281950Y-70014881D01*
X206281950Y-70014881D02*
X206320045Y-69976785D01*
X207043855Y-69214881D02*
X207043855Y-69672024D01*
X207043855Y-69443452D02*
X206243855Y-69443452D01*
X206243855Y-69443452D02*
X206358140Y-69519643D01*
X206358140Y-69519643D02*
X206434331Y-69595833D01*
X206434331Y-69595833D02*
X206472426Y-69672024D01*
X207043855Y-68452976D02*
X207043855Y-68910119D01*
X207043855Y-68681547D02*
X206243855Y-68681547D01*
X206243855Y-68681547D02*
X206358140Y-68757738D01*
X206358140Y-68757738D02*
X206434331Y-68833928D01*
X206434331Y-68833928D02*
X206472426Y-68910119D01*
D10*
X109738095Y-42806819D02*
X110309523Y-42806819D01*
X110023809Y-43806819D02*
X110023809Y-42806819D01*
X110642857Y-43806819D02*
X110642857Y-42806819D01*
X110642857Y-42806819D02*
X111023809Y-42806819D01*
X111023809Y-42806819D02*
X111119047Y-42854438D01*
X111119047Y-42854438D02*
X111166666Y-42902057D01*
X111166666Y-42902057D02*
X111214285Y-42997295D01*
X111214285Y-42997295D02*
X111214285Y-43140152D01*
X111214285Y-43140152D02*
X111166666Y-43235390D01*
X111166666Y-43235390D02*
X111119047Y-43283009D01*
X111119047Y-43283009D02*
X111023809Y-43330628D01*
X111023809Y-43330628D02*
X110642857Y-43330628D01*
X111547619Y-42806819D02*
X112214285Y-42806819D01*
X112214285Y-42806819D02*
X111785714Y-43806819D01*
X109738095Y-61806819D02*
X110309523Y-61806819D01*
X110023809Y-62806819D02*
X110023809Y-61806819D01*
X110642857Y-62806819D02*
X110642857Y-61806819D01*
X110642857Y-61806819D02*
X111023809Y-61806819D01*
X111023809Y-61806819D02*
X111119047Y-61854438D01*
X111119047Y-61854438D02*
X111166666Y-61902057D01*
X111166666Y-61902057D02*
X111214285Y-61997295D01*
X111214285Y-61997295D02*
X111214285Y-62140152D01*
X111214285Y-62140152D02*
X111166666Y-62235390D01*
X111166666Y-62235390D02*
X111119047Y-62283009D01*
X111119047Y-62283009D02*
X111023809Y-62330628D01*
X111023809Y-62330628D02*
X110642857Y-62330628D01*
X111785714Y-62235390D02*
X111690476Y-62187771D01*
X111690476Y-62187771D02*
X111642857Y-62140152D01*
X111642857Y-62140152D02*
X111595238Y-62044914D01*
X111595238Y-62044914D02*
X111595238Y-61997295D01*
X111595238Y-61997295D02*
X111642857Y-61902057D01*
X111642857Y-61902057D02*
X111690476Y-61854438D01*
X111690476Y-61854438D02*
X111785714Y-61806819D01*
X111785714Y-61806819D02*
X111976190Y-61806819D01*
X111976190Y-61806819D02*
X112071428Y-61854438D01*
X112071428Y-61854438D02*
X112119047Y-61902057D01*
X112119047Y-61902057D02*
X112166666Y-61997295D01*
X112166666Y-61997295D02*
X112166666Y-62044914D01*
X112166666Y-62044914D02*
X112119047Y-62140152D01*
X112119047Y-62140152D02*
X112071428Y-62187771D01*
X112071428Y-62187771D02*
X111976190Y-62235390D01*
X111976190Y-62235390D02*
X111785714Y-62235390D01*
X111785714Y-62235390D02*
X111690476Y-62283009D01*
X111690476Y-62283009D02*
X111642857Y-62330628D01*
X111642857Y-62330628D02*
X111595238Y-62425866D01*
X111595238Y-62425866D02*
X111595238Y-62616342D01*
X111595238Y-62616342D02*
X111642857Y-62711580D01*
X111642857Y-62711580D02*
X111690476Y-62759200D01*
X111690476Y-62759200D02*
X111785714Y-62806819D01*
X111785714Y-62806819D02*
X111976190Y-62806819D01*
X111976190Y-62806819D02*
X112071428Y-62759200D01*
X112071428Y-62759200D02*
X112119047Y-62711580D01*
X112119047Y-62711580D02*
X112166666Y-62616342D01*
X112166666Y-62616342D02*
X112166666Y-62425866D01*
X112166666Y-62425866D02*
X112119047Y-62330628D01*
X112119047Y-62330628D02*
X112071428Y-62283009D01*
X112071428Y-62283009D02*
X111976190Y-62235390D01*
X91833333Y-37679580D02*
X91785714Y-37727200D01*
X91785714Y-37727200D02*
X91642857Y-37774819D01*
X91642857Y-37774819D02*
X91547619Y-37774819D01*
X91547619Y-37774819D02*
X91404762Y-37727200D01*
X91404762Y-37727200D02*
X91309524Y-37631961D01*
X91309524Y-37631961D02*
X91261905Y-37536723D01*
X91261905Y-37536723D02*
X91214286Y-37346247D01*
X91214286Y-37346247D02*
X91214286Y-37203390D01*
X91214286Y-37203390D02*
X91261905Y-37012914D01*
X91261905Y-37012914D02*
X91309524Y-36917676D01*
X91309524Y-36917676D02*
X91404762Y-36822438D01*
X91404762Y-36822438D02*
X91547619Y-36774819D01*
X91547619Y-36774819D02*
X91642857Y-36774819D01*
X91642857Y-36774819D02*
X91785714Y-36822438D01*
X91785714Y-36822438D02*
X91833333Y-36870057D01*
X92690476Y-36774819D02*
X92500000Y-36774819D01*
X92500000Y-36774819D02*
X92404762Y-36822438D01*
X92404762Y-36822438D02*
X92357143Y-36870057D01*
X92357143Y-36870057D02*
X92261905Y-37012914D01*
X92261905Y-37012914D02*
X92214286Y-37203390D01*
X92214286Y-37203390D02*
X92214286Y-37584342D01*
X92214286Y-37584342D02*
X92261905Y-37679580D01*
X92261905Y-37679580D02*
X92309524Y-37727200D01*
X92309524Y-37727200D02*
X92404762Y-37774819D01*
X92404762Y-37774819D02*
X92595238Y-37774819D01*
X92595238Y-37774819D02*
X92690476Y-37727200D01*
X92690476Y-37727200D02*
X92738095Y-37679580D01*
X92738095Y-37679580D02*
X92785714Y-37584342D01*
X92785714Y-37584342D02*
X92785714Y-37346247D01*
X92785714Y-37346247D02*
X92738095Y-37251009D01*
X92738095Y-37251009D02*
X92690476Y-37203390D01*
X92690476Y-37203390D02*
X92595238Y-37155771D01*
X92595238Y-37155771D02*
X92404762Y-37155771D01*
X92404762Y-37155771D02*
X92309524Y-37203390D01*
X92309524Y-37203390D02*
X92261905Y-37251009D01*
X92261905Y-37251009D02*
X92214286Y-37346247D01*
X57476667Y-9987200D02*
X57619524Y-10034819D01*
X57619524Y-10034819D02*
X57857619Y-10034819D01*
X57857619Y-10034819D02*
X57952857Y-9987200D01*
X57952857Y-9987200D02*
X58000476Y-9939580D01*
X58000476Y-9939580D02*
X58048095Y-9844342D01*
X58048095Y-9844342D02*
X58048095Y-9749104D01*
X58048095Y-9749104D02*
X58000476Y-9653866D01*
X58000476Y-9653866D02*
X57952857Y-9606247D01*
X57952857Y-9606247D02*
X57857619Y-9558628D01*
X57857619Y-9558628D02*
X57667143Y-9511009D01*
X57667143Y-9511009D02*
X57571905Y-9463390D01*
X57571905Y-9463390D02*
X57524286Y-9415771D01*
X57524286Y-9415771D02*
X57476667Y-9320533D01*
X57476667Y-9320533D02*
X57476667Y-9225295D01*
X57476667Y-9225295D02*
X57524286Y-9130057D01*
X57524286Y-9130057D02*
X57571905Y-9082438D01*
X57571905Y-9082438D02*
X57667143Y-9034819D01*
X57667143Y-9034819D02*
X57905238Y-9034819D01*
X57905238Y-9034819D02*
X58048095Y-9082438D01*
X58381429Y-9034819D02*
X58619524Y-10034819D01*
X58619524Y-10034819D02*
X58810000Y-9320533D01*
X58810000Y-9320533D02*
X59000476Y-10034819D01*
X59000476Y-10034819D02*
X59238572Y-9034819D01*
X60143333Y-10034819D02*
X59571905Y-10034819D01*
X59857619Y-10034819D02*
X59857619Y-9034819D01*
X59857619Y-9034819D02*
X59762381Y-9177676D01*
X59762381Y-9177676D02*
X59667143Y-9272914D01*
X59667143Y-9272914D02*
X59571905Y-9320533D01*
X4666667Y-2304819D02*
X4666667Y-1304819D01*
X4666667Y-1304819D02*
X5000000Y-2019104D01*
X5000000Y-2019104D02*
X5333333Y-1304819D01*
X5333333Y-1304819D02*
X5333333Y-2304819D01*
X5809524Y-2304819D02*
X5809524Y-1304819D01*
X5809524Y-1781009D02*
X6380952Y-1781009D01*
X6380952Y-2304819D02*
X6380952Y-1304819D01*
X7380952Y-2304819D02*
X6809524Y-2304819D01*
X7095238Y-2304819D02*
X7095238Y-1304819D01*
X7095238Y-1304819D02*
X7000000Y-1447676D01*
X7000000Y-1447676D02*
X6904762Y-1542914D01*
X6904762Y-1542914D02*
X6809524Y-1590533D01*
X22738095Y-57806819D02*
X23309523Y-57806819D01*
X23023809Y-58806819D02*
X23023809Y-57806819D01*
X23642857Y-58806819D02*
X23642857Y-57806819D01*
X23642857Y-57806819D02*
X24023809Y-57806819D01*
X24023809Y-57806819D02*
X24119047Y-57854438D01*
X24119047Y-57854438D02*
X24166666Y-57902057D01*
X24166666Y-57902057D02*
X24214285Y-57997295D01*
X24214285Y-57997295D02*
X24214285Y-58140152D01*
X24214285Y-58140152D02*
X24166666Y-58235390D01*
X24166666Y-58235390D02*
X24119047Y-58283009D01*
X24119047Y-58283009D02*
X24023809Y-58330628D01*
X24023809Y-58330628D02*
X23642857Y-58330628D01*
X24547619Y-57806819D02*
X25166666Y-57806819D01*
X25166666Y-57806819D02*
X24833333Y-58187771D01*
X24833333Y-58187771D02*
X24976190Y-58187771D01*
X24976190Y-58187771D02*
X25071428Y-58235390D01*
X25071428Y-58235390D02*
X25119047Y-58283009D01*
X25119047Y-58283009D02*
X25166666Y-58378247D01*
X25166666Y-58378247D02*
X25166666Y-58616342D01*
X25166666Y-58616342D02*
X25119047Y-58711580D01*
X25119047Y-58711580D02*
X25071428Y-58759200D01*
X25071428Y-58759200D02*
X24976190Y-58806819D01*
X24976190Y-58806819D02*
X24690476Y-58806819D01*
X24690476Y-58806819D02*
X24595238Y-58759200D01*
X24595238Y-58759200D02*
X24547619Y-58711580D01*
X4666667Y-95304819D02*
X4666667Y-94304819D01*
X4666667Y-94304819D02*
X5000000Y-95019104D01*
X5000000Y-95019104D02*
X5333333Y-94304819D01*
X5333333Y-94304819D02*
X5333333Y-95304819D01*
X5809524Y-95304819D02*
X5809524Y-94304819D01*
X5809524Y-94781009D02*
X6380952Y-94781009D01*
X6380952Y-95304819D02*
X6380952Y-94304819D01*
X6761905Y-94304819D02*
X7380952Y-94304819D01*
X7380952Y-94304819D02*
X7047619Y-94685771D01*
X7047619Y-94685771D02*
X7190476Y-94685771D01*
X7190476Y-94685771D02*
X7285714Y-94733390D01*
X7285714Y-94733390D02*
X7333333Y-94781009D01*
X7333333Y-94781009D02*
X7380952Y-94876247D01*
X7380952Y-94876247D02*
X7380952Y-95114342D01*
X7380952Y-95114342D02*
X7333333Y-95209580D01*
X7333333Y-95209580D02*
X7285714Y-95257200D01*
X7285714Y-95257200D02*
X7190476Y-95304819D01*
X7190476Y-95304819D02*
X6904762Y-95304819D01*
X6904762Y-95304819D02*
X6809524Y-95257200D01*
X6809524Y-95257200D02*
X6761905Y-95209580D01*
X222666667Y-105304819D02*
X222666667Y-104304819D01*
X222666667Y-104304819D02*
X223000000Y-105019104D01*
X223000000Y-105019104D02*
X223333333Y-104304819D01*
X223333333Y-104304819D02*
X223333333Y-105304819D01*
X223809524Y-105304819D02*
X223809524Y-104304819D01*
X223809524Y-104781009D02*
X224380952Y-104781009D01*
X224380952Y-105304819D02*
X224380952Y-104304819D01*
X225285714Y-104638152D02*
X225285714Y-105304819D01*
X225047619Y-104257200D02*
X224809524Y-104971485D01*
X224809524Y-104971485D02*
X225428571Y-104971485D01*
X207166666Y-79804819D02*
X207166666Y-80519104D01*
X207166666Y-80519104D02*
X207119047Y-80661961D01*
X207119047Y-80661961D02*
X207023809Y-80757200D01*
X207023809Y-80757200D02*
X206880952Y-80804819D01*
X206880952Y-80804819D02*
X206785714Y-80804819D01*
X207642857Y-80804819D02*
X207642857Y-79804819D01*
X207642857Y-79804819D02*
X208023809Y-79804819D01*
X208023809Y-79804819D02*
X208119047Y-79852438D01*
X208119047Y-79852438D02*
X208166666Y-79900057D01*
X208166666Y-79900057D02*
X208214285Y-79995295D01*
X208214285Y-79995295D02*
X208214285Y-80138152D01*
X208214285Y-80138152D02*
X208166666Y-80233390D01*
X208166666Y-80233390D02*
X208119047Y-80281009D01*
X208119047Y-80281009D02*
X208023809Y-80328628D01*
X208023809Y-80328628D02*
X207642857Y-80328628D01*
X209166666Y-80804819D02*
X208595238Y-80804819D01*
X208880952Y-80804819D02*
X208880952Y-79804819D01*
X208880952Y-79804819D02*
X208785714Y-79947676D01*
X208785714Y-79947676D02*
X208690476Y-80042914D01*
X208690476Y-80042914D02*
X208595238Y-80090533D01*
X156738095Y-85806819D02*
X157309523Y-85806819D01*
X157023809Y-86806819D02*
X157023809Y-85806819D01*
X157642857Y-86806819D02*
X157642857Y-85806819D01*
X157642857Y-85806819D02*
X158023809Y-85806819D01*
X158023809Y-85806819D02*
X158119047Y-85854438D01*
X158119047Y-85854438D02*
X158166666Y-85902057D01*
X158166666Y-85902057D02*
X158214285Y-85997295D01*
X158214285Y-85997295D02*
X158214285Y-86140152D01*
X158214285Y-86140152D02*
X158166666Y-86235390D01*
X158166666Y-86235390D02*
X158119047Y-86283009D01*
X158119047Y-86283009D02*
X158023809Y-86330628D01*
X158023809Y-86330628D02*
X157642857Y-86330628D01*
X158690476Y-86806819D02*
X158880952Y-86806819D01*
X158880952Y-86806819D02*
X158976190Y-86759200D01*
X158976190Y-86759200D02*
X159023809Y-86711580D01*
X159023809Y-86711580D02*
X159119047Y-86568723D01*
X159119047Y-86568723D02*
X159166666Y-86378247D01*
X159166666Y-86378247D02*
X159166666Y-85997295D01*
X159166666Y-85997295D02*
X159119047Y-85902057D01*
X159119047Y-85902057D02*
X159071428Y-85854438D01*
X159071428Y-85854438D02*
X158976190Y-85806819D01*
X158976190Y-85806819D02*
X158785714Y-85806819D01*
X158785714Y-85806819D02*
X158690476Y-85854438D01*
X158690476Y-85854438D02*
X158642857Y-85902057D01*
X158642857Y-85902057D02*
X158595238Y-85997295D01*
X158595238Y-85997295D02*
X158595238Y-86235390D01*
X158595238Y-86235390D02*
X158642857Y-86330628D01*
X158642857Y-86330628D02*
X158690476Y-86378247D01*
X158690476Y-86378247D02*
X158785714Y-86425866D01*
X158785714Y-86425866D02*
X158976190Y-86425866D01*
X158976190Y-86425866D02*
X159071428Y-86378247D01*
X159071428Y-86378247D02*
X159119047Y-86330628D01*
X159119047Y-86330628D02*
X159166666Y-86235390D01*
X167357142Y-40804819D02*
X167023809Y-40328628D01*
X166785714Y-40804819D02*
X166785714Y-39804819D01*
X166785714Y-39804819D02*
X167166666Y-39804819D01*
X167166666Y-39804819D02*
X167261904Y-39852438D01*
X167261904Y-39852438D02*
X167309523Y-39900057D01*
X167309523Y-39900057D02*
X167357142Y-39995295D01*
X167357142Y-39995295D02*
X167357142Y-40138152D01*
X167357142Y-40138152D02*
X167309523Y-40233390D01*
X167309523Y-40233390D02*
X167261904Y-40281009D01*
X167261904Y-40281009D02*
X167166666Y-40328628D01*
X167166666Y-40328628D02*
X166785714Y-40328628D01*
X168309523Y-40804819D02*
X167738095Y-40804819D01*
X168023809Y-40804819D02*
X168023809Y-39804819D01*
X168023809Y-39804819D02*
X167928571Y-39947676D01*
X167928571Y-39947676D02*
X167833333Y-40042914D01*
X167833333Y-40042914D02*
X167738095Y-40090533D01*
X169214285Y-39804819D02*
X168738095Y-39804819D01*
X168738095Y-39804819D02*
X168690476Y-40281009D01*
X168690476Y-40281009D02*
X168738095Y-40233390D01*
X168738095Y-40233390D02*
X168833333Y-40185771D01*
X168833333Y-40185771D02*
X169071428Y-40185771D01*
X169071428Y-40185771D02*
X169166666Y-40233390D01*
X169166666Y-40233390D02*
X169214285Y-40281009D01*
X169214285Y-40281009D02*
X169261904Y-40376247D01*
X169261904Y-40376247D02*
X169261904Y-40614342D01*
X169261904Y-40614342D02*
X169214285Y-40709580D01*
X169214285Y-40709580D02*
X169166666Y-40757200D01*
X169166666Y-40757200D02*
X169071428Y-40804819D01*
X169071428Y-40804819D02*
X168833333Y-40804819D01*
X168833333Y-40804819D02*
X168738095Y-40757200D01*
X168738095Y-40757200D02*
X168690476Y-40709580D01*
D13*
X205829167Y-16607664D02*
X205791071Y-16645760D01*
X205791071Y-16645760D02*
X205676786Y-16683855D01*
X205676786Y-16683855D02*
X205600595Y-16683855D01*
X205600595Y-16683855D02*
X205486309Y-16645760D01*
X205486309Y-16645760D02*
X205410119Y-16569569D01*
X205410119Y-16569569D02*
X205372024Y-16493379D01*
X205372024Y-16493379D02*
X205333928Y-16340998D01*
X205333928Y-16340998D02*
X205333928Y-16226712D01*
X205333928Y-16226712D02*
X205372024Y-16074331D01*
X205372024Y-16074331D02*
X205410119Y-15998140D01*
X205410119Y-15998140D02*
X205486309Y-15921950D01*
X205486309Y-15921950D02*
X205600595Y-15883855D01*
X205600595Y-15883855D02*
X205676786Y-15883855D01*
X205676786Y-15883855D02*
X205791071Y-15921950D01*
X205791071Y-15921950D02*
X205829167Y-15960045D01*
X206210119Y-16683855D02*
X206362500Y-16683855D01*
X206362500Y-16683855D02*
X206438690Y-16645760D01*
X206438690Y-16645760D02*
X206476786Y-16607664D01*
X206476786Y-16607664D02*
X206552976Y-16493379D01*
X206552976Y-16493379D02*
X206591071Y-16340998D01*
X206591071Y-16340998D02*
X206591071Y-16036236D01*
X206591071Y-16036236D02*
X206552976Y-15960045D01*
X206552976Y-15960045D02*
X206514881Y-15921950D01*
X206514881Y-15921950D02*
X206438690Y-15883855D01*
X206438690Y-15883855D02*
X206286309Y-15883855D01*
X206286309Y-15883855D02*
X206210119Y-15921950D01*
X206210119Y-15921950D02*
X206172024Y-15960045D01*
X206172024Y-15960045D02*
X206133928Y-16036236D01*
X206133928Y-16036236D02*
X206133928Y-16226712D01*
X206133928Y-16226712D02*
X206172024Y-16302902D01*
X206172024Y-16302902D02*
X206210119Y-16340998D01*
X206210119Y-16340998D02*
X206286309Y-16379093D01*
X206286309Y-16379093D02*
X206438690Y-16379093D01*
X206438690Y-16379093D02*
X206514881Y-16340998D01*
X206514881Y-16340998D02*
X206552976Y-16302902D01*
X206552976Y-16302902D02*
X206591071Y-16226712D01*
X178787664Y-62514285D02*
X178825760Y-62552381D01*
X178825760Y-62552381D02*
X178863855Y-62666666D01*
X178863855Y-62666666D02*
X178863855Y-62742857D01*
X178863855Y-62742857D02*
X178825760Y-62857143D01*
X178825760Y-62857143D02*
X178749569Y-62933333D01*
X178749569Y-62933333D02*
X178673379Y-62971428D01*
X178673379Y-62971428D02*
X178520998Y-63009524D01*
X178520998Y-63009524D02*
X178406712Y-63009524D01*
X178406712Y-63009524D02*
X178254331Y-62971428D01*
X178254331Y-62971428D02*
X178178140Y-62933333D01*
X178178140Y-62933333D02*
X178101950Y-62857143D01*
X178101950Y-62857143D02*
X178063855Y-62742857D01*
X178063855Y-62742857D02*
X178063855Y-62666666D01*
X178063855Y-62666666D02*
X178101950Y-62552381D01*
X178101950Y-62552381D02*
X178140045Y-62514285D01*
X178863855Y-61752381D02*
X178863855Y-62209524D01*
X178863855Y-61980952D02*
X178063855Y-61980952D01*
X178063855Y-61980952D02*
X178178140Y-62057143D01*
X178178140Y-62057143D02*
X178254331Y-62133333D01*
X178254331Y-62133333D02*
X178292426Y-62209524D01*
X178063855Y-61485714D02*
X178063855Y-60990476D01*
X178063855Y-60990476D02*
X178368617Y-61257142D01*
X178368617Y-61257142D02*
X178368617Y-61142857D01*
X178368617Y-61142857D02*
X178406712Y-61066666D01*
X178406712Y-61066666D02*
X178444807Y-61028571D01*
X178444807Y-61028571D02*
X178520998Y-60990476D01*
X178520998Y-60990476D02*
X178711474Y-60990476D01*
X178711474Y-60990476D02*
X178787664Y-61028571D01*
X178787664Y-61028571D02*
X178825760Y-61066666D01*
X178825760Y-61066666D02*
X178863855Y-61142857D01*
X178863855Y-61142857D02*
X178863855Y-61371428D01*
X178863855Y-61371428D02*
X178825760Y-61447619D01*
X178825760Y-61447619D02*
X178787664Y-61485714D01*
D10*
X109738095Y-15806819D02*
X110309523Y-15806819D01*
X110023809Y-16806819D02*
X110023809Y-15806819D01*
X110642857Y-16806819D02*
X110642857Y-15806819D01*
X110642857Y-15806819D02*
X111023809Y-15806819D01*
X111023809Y-15806819D02*
X111119047Y-15854438D01*
X111119047Y-15854438D02*
X111166666Y-15902057D01*
X111166666Y-15902057D02*
X111214285Y-15997295D01*
X111214285Y-15997295D02*
X111214285Y-16140152D01*
X111214285Y-16140152D02*
X111166666Y-16235390D01*
X111166666Y-16235390D02*
X111119047Y-16283009D01*
X111119047Y-16283009D02*
X111023809Y-16330628D01*
X111023809Y-16330628D02*
X110642857Y-16330628D01*
X112071428Y-16140152D02*
X112071428Y-16806819D01*
X111833333Y-15759200D02*
X111595238Y-16473485D01*
X111595238Y-16473485D02*
X112214285Y-16473485D01*
X167357142Y-10804819D02*
X167023809Y-10328628D01*
X166785714Y-10804819D02*
X166785714Y-9804819D01*
X166785714Y-9804819D02*
X167166666Y-9804819D01*
X167166666Y-9804819D02*
X167261904Y-9852438D01*
X167261904Y-9852438D02*
X167309523Y-9900057D01*
X167309523Y-9900057D02*
X167357142Y-9995295D01*
X167357142Y-9995295D02*
X167357142Y-10138152D01*
X167357142Y-10138152D02*
X167309523Y-10233390D01*
X167309523Y-10233390D02*
X167261904Y-10281009D01*
X167261904Y-10281009D02*
X167166666Y-10328628D01*
X167166666Y-10328628D02*
X166785714Y-10328628D01*
X168309523Y-10804819D02*
X167738095Y-10804819D01*
X168023809Y-10804819D02*
X168023809Y-9804819D01*
X168023809Y-9804819D02*
X167928571Y-9947676D01*
X167928571Y-9947676D02*
X167833333Y-10042914D01*
X167833333Y-10042914D02*
X167738095Y-10090533D01*
X169166666Y-10138152D02*
X169166666Y-10804819D01*
X168928571Y-9757200D02*
X168690476Y-10471485D01*
X168690476Y-10471485D02*
X169309523Y-10471485D01*
X25833333Y-86679580D02*
X25785714Y-86727200D01*
X25785714Y-86727200D02*
X25642857Y-86774819D01*
X25642857Y-86774819D02*
X25547619Y-86774819D01*
X25547619Y-86774819D02*
X25404762Y-86727200D01*
X25404762Y-86727200D02*
X25309524Y-86631961D01*
X25309524Y-86631961D02*
X25261905Y-86536723D01*
X25261905Y-86536723D02*
X25214286Y-86346247D01*
X25214286Y-86346247D02*
X25214286Y-86203390D01*
X25214286Y-86203390D02*
X25261905Y-86012914D01*
X25261905Y-86012914D02*
X25309524Y-85917676D01*
X25309524Y-85917676D02*
X25404762Y-85822438D01*
X25404762Y-85822438D02*
X25547619Y-85774819D01*
X25547619Y-85774819D02*
X25642857Y-85774819D01*
X25642857Y-85774819D02*
X25785714Y-85822438D01*
X25785714Y-85822438D02*
X25833333Y-85870057D01*
X26214286Y-85870057D02*
X26261905Y-85822438D01*
X26261905Y-85822438D02*
X26357143Y-85774819D01*
X26357143Y-85774819D02*
X26595238Y-85774819D01*
X26595238Y-85774819D02*
X26690476Y-85822438D01*
X26690476Y-85822438D02*
X26738095Y-85870057D01*
X26738095Y-85870057D02*
X26785714Y-85965295D01*
X26785714Y-85965295D02*
X26785714Y-86060533D01*
X26785714Y-86060533D02*
X26738095Y-86203390D01*
X26738095Y-86203390D02*
X26166667Y-86774819D01*
X26166667Y-86774819D02*
X26785714Y-86774819D01*
X57476667Y-48987200D02*
X57619524Y-49034819D01*
X57619524Y-49034819D02*
X57857619Y-49034819D01*
X57857619Y-49034819D02*
X57952857Y-48987200D01*
X57952857Y-48987200D02*
X58000476Y-48939580D01*
X58000476Y-48939580D02*
X58048095Y-48844342D01*
X58048095Y-48844342D02*
X58048095Y-48749104D01*
X58048095Y-48749104D02*
X58000476Y-48653866D01*
X58000476Y-48653866D02*
X57952857Y-48606247D01*
X57952857Y-48606247D02*
X57857619Y-48558628D01*
X57857619Y-48558628D02*
X57667143Y-48511009D01*
X57667143Y-48511009D02*
X57571905Y-48463390D01*
X57571905Y-48463390D02*
X57524286Y-48415771D01*
X57524286Y-48415771D02*
X57476667Y-48320533D01*
X57476667Y-48320533D02*
X57476667Y-48225295D01*
X57476667Y-48225295D02*
X57524286Y-48130057D01*
X57524286Y-48130057D02*
X57571905Y-48082438D01*
X57571905Y-48082438D02*
X57667143Y-48034819D01*
X57667143Y-48034819D02*
X57905238Y-48034819D01*
X57905238Y-48034819D02*
X58048095Y-48082438D01*
X58381429Y-48034819D02*
X58619524Y-49034819D01*
X58619524Y-49034819D02*
X58810000Y-48320533D01*
X58810000Y-48320533D02*
X59000476Y-49034819D01*
X59000476Y-49034819D02*
X59238572Y-48034819D01*
X59571905Y-48130057D02*
X59619524Y-48082438D01*
X59619524Y-48082438D02*
X59714762Y-48034819D01*
X59714762Y-48034819D02*
X59952857Y-48034819D01*
X59952857Y-48034819D02*
X60048095Y-48082438D01*
X60048095Y-48082438D02*
X60095714Y-48130057D01*
X60095714Y-48130057D02*
X60143333Y-48225295D01*
X60143333Y-48225295D02*
X60143333Y-48320533D01*
X60143333Y-48320533D02*
X60095714Y-48463390D01*
X60095714Y-48463390D02*
X59524286Y-49034819D01*
X59524286Y-49034819D02*
X60143333Y-49034819D01*
X199261905Y-79954819D02*
X199261905Y-78954819D01*
X199261905Y-78954819D02*
X199500000Y-78954819D01*
X199500000Y-78954819D02*
X199642857Y-79002438D01*
X199642857Y-79002438D02*
X199738095Y-79097676D01*
X199738095Y-79097676D02*
X199785714Y-79192914D01*
X199785714Y-79192914D02*
X199833333Y-79383390D01*
X199833333Y-79383390D02*
X199833333Y-79526247D01*
X199833333Y-79526247D02*
X199785714Y-79716723D01*
X199785714Y-79716723D02*
X199738095Y-79811961D01*
X199738095Y-79811961D02*
X199642857Y-79907200D01*
X199642857Y-79907200D02*
X199500000Y-79954819D01*
X199500000Y-79954819D02*
X199261905Y-79954819D01*
X200166667Y-78954819D02*
X200785714Y-78954819D01*
X200785714Y-78954819D02*
X200452381Y-79335771D01*
X200452381Y-79335771D02*
X200595238Y-79335771D01*
X200595238Y-79335771D02*
X200690476Y-79383390D01*
X200690476Y-79383390D02*
X200738095Y-79431009D01*
X200738095Y-79431009D02*
X200785714Y-79526247D01*
X200785714Y-79526247D02*
X200785714Y-79764342D01*
X200785714Y-79764342D02*
X200738095Y-79859580D01*
X200738095Y-79859580D02*
X200690476Y-79907200D01*
X200690476Y-79907200D02*
X200595238Y-79954819D01*
X200595238Y-79954819D02*
X200309524Y-79954819D01*
X200309524Y-79954819D02*
X200214286Y-79907200D01*
X200214286Y-79907200D02*
X200166667Y-79859580D01*
X85833333Y-56804819D02*
X85500000Y-56328628D01*
X85261905Y-56804819D02*
X85261905Y-55804819D01*
X85261905Y-55804819D02*
X85642857Y-55804819D01*
X85642857Y-55804819D02*
X85738095Y-55852438D01*
X85738095Y-55852438D02*
X85785714Y-55900057D01*
X85785714Y-55900057D02*
X85833333Y-55995295D01*
X85833333Y-55995295D02*
X85833333Y-56138152D01*
X85833333Y-56138152D02*
X85785714Y-56233390D01*
X85785714Y-56233390D02*
X85738095Y-56281009D01*
X85738095Y-56281009D02*
X85642857Y-56328628D01*
X85642857Y-56328628D02*
X85261905Y-56328628D01*
X86785714Y-56804819D02*
X86214286Y-56804819D01*
X86500000Y-56804819D02*
X86500000Y-55804819D01*
X86500000Y-55804819D02*
X86404762Y-55947676D01*
X86404762Y-55947676D02*
X86309524Y-56042914D01*
X86309524Y-56042914D02*
X86214286Y-56090533D01*
X81833333Y-62679580D02*
X81785714Y-62727200D01*
X81785714Y-62727200D02*
X81642857Y-62774819D01*
X81642857Y-62774819D02*
X81547619Y-62774819D01*
X81547619Y-62774819D02*
X81404762Y-62727200D01*
X81404762Y-62727200D02*
X81309524Y-62631961D01*
X81309524Y-62631961D02*
X81261905Y-62536723D01*
X81261905Y-62536723D02*
X81214286Y-62346247D01*
X81214286Y-62346247D02*
X81214286Y-62203390D01*
X81214286Y-62203390D02*
X81261905Y-62012914D01*
X81261905Y-62012914D02*
X81309524Y-61917676D01*
X81309524Y-61917676D02*
X81404762Y-61822438D01*
X81404762Y-61822438D02*
X81547619Y-61774819D01*
X81547619Y-61774819D02*
X81642857Y-61774819D01*
X81642857Y-61774819D02*
X81785714Y-61822438D01*
X81785714Y-61822438D02*
X81833333Y-61870057D01*
X82166667Y-61774819D02*
X82833333Y-61774819D01*
X82833333Y-61774819D02*
X82404762Y-62774819D01*
X222666667Y-2304819D02*
X222666667Y-1304819D01*
X222666667Y-1304819D02*
X223000000Y-2019104D01*
X223000000Y-2019104D02*
X223333333Y-1304819D01*
X223333333Y-1304819D02*
X223333333Y-2304819D01*
X223809524Y-2304819D02*
X223809524Y-1304819D01*
X223809524Y-1781009D02*
X224380952Y-1781009D01*
X224380952Y-2304819D02*
X224380952Y-1304819D01*
X224809524Y-1400057D02*
X224857143Y-1352438D01*
X224857143Y-1352438D02*
X224952381Y-1304819D01*
X224952381Y-1304819D02*
X225190476Y-1304819D01*
X225190476Y-1304819D02*
X225285714Y-1352438D01*
X225285714Y-1352438D02*
X225333333Y-1400057D01*
X225333333Y-1400057D02*
X225380952Y-1495295D01*
X225380952Y-1495295D02*
X225380952Y-1590533D01*
X225380952Y-1590533D02*
X225333333Y-1733390D01*
X225333333Y-1733390D02*
X224761905Y-2304819D01*
X224761905Y-2304819D02*
X225380952Y-2304819D01*
D13*
X202982902Y-62380951D02*
X203363855Y-62380951D01*
X202563855Y-62647618D02*
X202982902Y-62380951D01*
X202982902Y-62380951D02*
X202563855Y-62114285D01*
X202640045Y-61885714D02*
X202601950Y-61847618D01*
X202601950Y-61847618D02*
X202563855Y-61771428D01*
X202563855Y-61771428D02*
X202563855Y-61580952D01*
X202563855Y-61580952D02*
X202601950Y-61504761D01*
X202601950Y-61504761D02*
X202640045Y-61466666D01*
X202640045Y-61466666D02*
X202716236Y-61428571D01*
X202716236Y-61428571D02*
X202792426Y-61428571D01*
X202792426Y-61428571D02*
X202906712Y-61466666D01*
X202906712Y-61466666D02*
X203363855Y-61923809D01*
X203363855Y-61923809D02*
X203363855Y-61428571D01*
D10*
X41238095Y-80804819D02*
X41238095Y-81614342D01*
X41238095Y-81614342D02*
X41285714Y-81709580D01*
X41285714Y-81709580D02*
X41333333Y-81757200D01*
X41333333Y-81757200D02*
X41428571Y-81804819D01*
X41428571Y-81804819D02*
X41619047Y-81804819D01*
X41619047Y-81804819D02*
X41714285Y-81757200D01*
X41714285Y-81757200D02*
X41761904Y-81709580D01*
X41761904Y-81709580D02*
X41809523Y-81614342D01*
X41809523Y-81614342D02*
X41809523Y-80804819D01*
X42761904Y-80804819D02*
X42285714Y-80804819D01*
X42285714Y-80804819D02*
X42238095Y-81281009D01*
X42238095Y-81281009D02*
X42285714Y-81233390D01*
X42285714Y-81233390D02*
X42380952Y-81185771D01*
X42380952Y-81185771D02*
X42619047Y-81185771D01*
X42619047Y-81185771D02*
X42714285Y-81233390D01*
X42714285Y-81233390D02*
X42761904Y-81281009D01*
X42761904Y-81281009D02*
X42809523Y-81376247D01*
X42809523Y-81376247D02*
X42809523Y-81614342D01*
X42809523Y-81614342D02*
X42761904Y-81709580D01*
X42761904Y-81709580D02*
X42714285Y-81757200D01*
X42714285Y-81757200D02*
X42619047Y-81804819D01*
X42619047Y-81804819D02*
X42380952Y-81804819D01*
X42380952Y-81804819D02*
X42285714Y-81757200D01*
X42285714Y-81757200D02*
X42238095Y-81709580D01*
X32738095Y-57806819D02*
X33309523Y-57806819D01*
X33023809Y-58806819D02*
X33023809Y-57806819D01*
X33642857Y-58806819D02*
X33642857Y-57806819D01*
X33642857Y-57806819D02*
X34023809Y-57806819D01*
X34023809Y-57806819D02*
X34119047Y-57854438D01*
X34119047Y-57854438D02*
X34166666Y-57902057D01*
X34166666Y-57902057D02*
X34214285Y-57997295D01*
X34214285Y-57997295D02*
X34214285Y-58140152D01*
X34214285Y-58140152D02*
X34166666Y-58235390D01*
X34166666Y-58235390D02*
X34119047Y-58283009D01*
X34119047Y-58283009D02*
X34023809Y-58330628D01*
X34023809Y-58330628D02*
X33642857Y-58330628D01*
X35166666Y-58806819D02*
X34595238Y-58806819D01*
X34880952Y-58806819D02*
X34880952Y-57806819D01*
X34880952Y-57806819D02*
X34785714Y-57949676D01*
X34785714Y-57949676D02*
X34690476Y-58044914D01*
X34690476Y-58044914D02*
X34595238Y-58092533D01*
X157666666Y-59074819D02*
X157666666Y-59789104D01*
X157666666Y-59789104D02*
X157619047Y-59931961D01*
X157619047Y-59931961D02*
X157523809Y-60027200D01*
X157523809Y-60027200D02*
X157380952Y-60074819D01*
X157380952Y-60074819D02*
X157285714Y-60074819D01*
X158095238Y-59170057D02*
X158142857Y-59122438D01*
X158142857Y-59122438D02*
X158238095Y-59074819D01*
X158238095Y-59074819D02*
X158476190Y-59074819D01*
X158476190Y-59074819D02*
X158571428Y-59122438D01*
X158571428Y-59122438D02*
X158619047Y-59170057D01*
X158619047Y-59170057D02*
X158666666Y-59265295D01*
X158666666Y-59265295D02*
X158666666Y-59360533D01*
X158666666Y-59360533D02*
X158619047Y-59503390D01*
X158619047Y-59503390D02*
X158047619Y-60074819D01*
X158047619Y-60074819D02*
X158666666Y-60074819D01*
%TO.C,R12*%
X183772936Y-11265000D02*
X184227064Y-11265000D01*
X183772936Y-12735000D02*
X184227064Y-12735000D01*
%TO.C,C5*%
X86261252Y-17265000D02*
X85738748Y-17265000D01*
X86261252Y-18735000D02*
X85738748Y-18735000D01*
%TO.C,TP2*%
X44950000Y-60000000D02*
G75*
G02*
X43050000Y-60000000I-950000J0D01*
G01*
X43050000Y-60000000D02*
G75*
G02*
X44950000Y-60000000I950000J0D01*
G01*
%TO.C,D5*%
X184490000Y-90350000D02*
X184490000Y-93650000D01*
X184490000Y-90350000D02*
X190000000Y-90350000D01*
X184490000Y-93650000D02*
X190000000Y-93650000D01*
%TO.C,L1*%
X64970000Y-88000000D02*
G75*
G02*
X56030000Y-88000000I-4470000J0D01*
G01*
X56030000Y-88000000D02*
G75*
G02*
X64970000Y-88000000I4470000J0D01*
G01*
%TO.C,U1*%
X121940001Y-27580000D02*
X141240000Y-27580000D01*
X121940001Y-90080000D02*
X121940001Y-27580000D01*
X141240000Y-27580000D02*
X141240000Y-90080000D01*
X141240000Y-90080000D02*
X121940001Y-90080000D01*
%TO.C,C1*%
X15340302Y-93685000D02*
X16140302Y-93685000D01*
X15740302Y-93285000D02*
X15740302Y-94085000D01*
X19750000Y-91920000D02*
X19750000Y-100080000D01*
X19790000Y-91920000D02*
X19790000Y-100080000D01*
X19830000Y-91921000D02*
X19830000Y-100079000D01*
X19870000Y-91922000D02*
X19870000Y-100078000D01*
X19910000Y-91923000D02*
X19910000Y-100077000D01*
X19950000Y-91925000D02*
X19950000Y-100075000D01*
X19990000Y-91927000D02*
X19990000Y-100073000D01*
X20030000Y-91930000D02*
X20030000Y-100070000D01*
X20070000Y-91932000D02*
X20070000Y-100068000D01*
X20110000Y-91936000D02*
X20110000Y-100064000D01*
X20150000Y-91939000D02*
X20150000Y-100061000D01*
X20190000Y-91944000D02*
X20190000Y-100056000D01*
X20230000Y-91948000D02*
X20230000Y-100052000D01*
X20270000Y-91953000D02*
X20270000Y-100047000D01*
X20310000Y-91958000D02*
X20310000Y-100042000D01*
X20350000Y-91964000D02*
X20350000Y-100036000D01*
X20390000Y-91970000D02*
X20390000Y-100030000D01*
X20430000Y-91977000D02*
X20430000Y-100023000D01*
X20470000Y-91983000D02*
X20470000Y-94960000D01*
X20470000Y-97040000D02*
X20470000Y-100017000D01*
X20510000Y-91991000D02*
X20510000Y-94960000D01*
X20510000Y-97040000D02*
X20510000Y-100009000D01*
X20550000Y-91998000D02*
X20550000Y-94960000D01*
X20550000Y-97040000D02*
X20550000Y-100002000D01*
X20590000Y-92007000D02*
X20590000Y-94960000D01*
X20590000Y-97040000D02*
X20590000Y-99993000D01*
X20630000Y-92015000D02*
X20630000Y-94960000D01*
X20630000Y-97040000D02*
X20630000Y-99985000D01*
X20670000Y-92024000D02*
X20670000Y-94960000D01*
X20670000Y-97040000D02*
X20670000Y-99976000D01*
X20710000Y-92033000D02*
X20710000Y-94960000D01*
X20710000Y-97040000D02*
X20710000Y-99967000D01*
X20750000Y-92043000D02*
X20750000Y-94960000D01*
X20750000Y-97040000D02*
X20750000Y-99957000D01*
X20790000Y-92053000D02*
X20790000Y-94960000D01*
X20790000Y-97040000D02*
X20790000Y-99947000D01*
X20830000Y-92064000D02*
X20830000Y-94960000D01*
X20830000Y-97040000D02*
X20830000Y-99936000D01*
X20870000Y-92075000D02*
X20870000Y-94960000D01*
X20870000Y-97040000D02*
X20870000Y-99925000D01*
X20910000Y-92087000D02*
X20910000Y-94960000D01*
X20910000Y-97040000D02*
X20910000Y-99913000D01*
X20950000Y-92099000D02*
X20950000Y-94960000D01*
X20950000Y-97040000D02*
X20950000Y-99901000D01*
X20990000Y-92111000D02*
X20990000Y-94960000D01*
X20990000Y-97040000D02*
X20990000Y-99889000D01*
X21030000Y-92124000D02*
X21030000Y-94960000D01*
X21030000Y-97040000D02*
X21030000Y-99876000D01*
X21070000Y-92137000D02*
X21070000Y-94960000D01*
X21070000Y-97040000D02*
X21070000Y-99863000D01*
X21110000Y-92151000D02*
X21110000Y-94960000D01*
X21110000Y-97040000D02*
X21110000Y-99849000D01*
X21150000Y-92165000D02*
X21150000Y-94960000D01*
X21150000Y-97040000D02*
X21150000Y-99835000D01*
X21190000Y-92180000D02*
X21190000Y-94960000D01*
X21190000Y-97040000D02*
X21190000Y-99820000D01*
X21230000Y-92195000D02*
X21230000Y-94960000D01*
X21230000Y-97040000D02*
X21230000Y-99805000D01*
X21270000Y-92211000D02*
X21270000Y-94960000D01*
X21270000Y-97040000D02*
X21270000Y-99789000D01*
X21310000Y-92227000D02*
X21310000Y-94960000D01*
X21310000Y-97040000D02*
X21310000Y-99773000D01*
X21350000Y-92243000D02*
X21350000Y-94960000D01*
X21350000Y-97040000D02*
X21350000Y-99757000D01*
X21390000Y-92260000D02*
X21390000Y-94960000D01*
X21390000Y-97040000D02*
X21390000Y-99740000D01*
X21430000Y-92278000D02*
X21430000Y-94960000D01*
X21430000Y-97040000D02*
X21430000Y-99722000D01*
X21470000Y-92296000D02*
X21470000Y-94960000D01*
X21470000Y-97040000D02*
X21470000Y-99704000D01*
X21510000Y-92315000D02*
X21510000Y-94960000D01*
X21510000Y-97040000D02*
X21510000Y-99685000D01*
X21550000Y-92334000D02*
X21550000Y-94960000D01*
X21550000Y-97040000D02*
X21550000Y-99666000D01*
X21590000Y-92354000D02*
X21590000Y-94960000D01*
X21590000Y-97040000D02*
X21590000Y-99646000D01*
X21630000Y-92374000D02*
X21630000Y-94960000D01*
X21630000Y-97040000D02*
X21630000Y-99626000D01*
X21670000Y-92395000D02*
X21670000Y-94960000D01*
X21670000Y-97040000D02*
X21670000Y-99605000D01*
X21710000Y-92416000D02*
X21710000Y-94960000D01*
X21710000Y-97040000D02*
X21710000Y-99584000D01*
X21750000Y-92438000D02*
X21750000Y-94960000D01*
X21750000Y-97040000D02*
X21750000Y-99562000D01*
X21790000Y-92461000D02*
X21790000Y-94960000D01*
X21790000Y-97040000D02*
X21790000Y-99539000D01*
X21830000Y-92484000D02*
X21830000Y-94960000D01*
X21830000Y-97040000D02*
X21830000Y-99516000D01*
X21870000Y-92507000D02*
X21870000Y-94960000D01*
X21870000Y-97040000D02*
X21870000Y-99493000D01*
X21910000Y-92532000D02*
X21910000Y-94960000D01*
X21910000Y-97040000D02*
X21910000Y-99468000D01*
X21950000Y-92557000D02*
X21950000Y-94960000D01*
X21950000Y-97040000D02*
X21950000Y-99443000D01*
X21990000Y-92582000D02*
X21990000Y-94960000D01*
X21990000Y-97040000D02*
X21990000Y-99418000D01*
X22030000Y-92608000D02*
X22030000Y-94960000D01*
X22030000Y-97040000D02*
X22030000Y-99392000D01*
X22070000Y-92635000D02*
X22070000Y-94960000D01*
X22070000Y-97040000D02*
X22070000Y-99365000D01*
X22110000Y-92663000D02*
X22110000Y-94960000D01*
X22110000Y-97040000D02*
X22110000Y-99337000D01*
X22150000Y-92691000D02*
X22150000Y-94960000D01*
X22150000Y-97040000D02*
X22150000Y-99309000D01*
X22190000Y-92720000D02*
X22190000Y-94960000D01*
X22190000Y-97040000D02*
X22190000Y-99280000D01*
X22230000Y-92750000D02*
X22230000Y-94960000D01*
X22230000Y-97040000D02*
X22230000Y-99250000D01*
X22270000Y-92781000D02*
X22270000Y-94960000D01*
X22270000Y-97040000D02*
X22270000Y-99219000D01*
X22310000Y-92812000D02*
X22310000Y-94960000D01*
X22310000Y-97040000D02*
X22310000Y-99188000D01*
X22350000Y-92844000D02*
X22350000Y-94960000D01*
X22350000Y-97040000D02*
X22350000Y-99156000D01*
X22390000Y-92877000D02*
X22390000Y-94960000D01*
X22390000Y-97040000D02*
X22390000Y-99123000D01*
X22430000Y-92911000D02*
X22430000Y-94960000D01*
X22430000Y-97040000D02*
X22430000Y-99089000D01*
X22470000Y-92945000D02*
X22470000Y-94960000D01*
X22470000Y-97040000D02*
X22470000Y-99055000D01*
X22510000Y-92981000D02*
X22510000Y-94960000D01*
X22510000Y-97040000D02*
X22510000Y-99019000D01*
X22550000Y-93018000D02*
X22550000Y-98982000D01*
X22590000Y-93055000D02*
X22590000Y-98945000D01*
X22630000Y-93094000D02*
X22630000Y-98906000D01*
X22670000Y-93133000D02*
X22670000Y-98867000D01*
X22710000Y-93174000D02*
X22710000Y-98826000D01*
X22750000Y-93216000D02*
X22750000Y-98784000D01*
X22790000Y-93259000D02*
X22790000Y-98741000D01*
X22830000Y-93304000D02*
X22830000Y-98696000D01*
X22870000Y-93349000D02*
X22870000Y-98651000D01*
X22910000Y-93396000D02*
X22910000Y-98604000D01*
X22950000Y-93445000D02*
X22950000Y-98555000D01*
X22990000Y-93495000D02*
X22990000Y-98505000D01*
X23030000Y-93547000D02*
X23030000Y-98453000D01*
X23070000Y-93600000D02*
X23070000Y-98400000D01*
X23110000Y-93656000D02*
X23110000Y-98344000D01*
X23150000Y-93713000D02*
X23150000Y-98287000D01*
X23190000Y-93773000D02*
X23190000Y-98227000D01*
X23230000Y-93835000D02*
X23230000Y-98165000D01*
X23270000Y-93899000D02*
X23270000Y-98101000D01*
X23310000Y-93966000D02*
X23310000Y-98034000D01*
X23350000Y-94036000D02*
X23350000Y-97964000D01*
X23390000Y-94110000D02*
X23390000Y-97890000D01*
X23430000Y-94187000D02*
X23430000Y-97813000D01*
X23470000Y-94269000D02*
X23470000Y-97731000D01*
X23510000Y-94356000D02*
X23510000Y-97644000D01*
X23550000Y-94448000D02*
X23550000Y-97552000D01*
X23590000Y-94547000D02*
X23590000Y-97453000D01*
X23630000Y-94654000D02*
X23630000Y-97346000D01*
X23670000Y-94772000D02*
X23670000Y-97228000D01*
X23710000Y-94903000D02*
X23710000Y-97097000D01*
X23750000Y-95053000D02*
X23750000Y-96947000D01*
X23790000Y-95232000D02*
X23790000Y-96768000D01*
X23830000Y-95467000D02*
X23830000Y-96533000D01*
X23870000Y-96000000D02*
G75*
G02*
X15630000Y-96000000I-4120000J0D01*
G01*
X15630000Y-96000000D02*
G75*
G02*
X23870000Y-96000000I4120000J0D01*
G01*
%TO.C,TP5*%
X111950000Y-24000000D02*
G75*
G02*
X110050000Y-24000000I-950000J0D01*
G01*
X110050000Y-24000000D02*
G75*
G02*
X111950000Y-24000000I950000J0D01*
G01*
%TO.C,C10*%
D13*
X205265000Y-56261252D02*
X205265000Y-55738748D01*
X206735000Y-56261252D02*
X206735000Y-55738748D01*
%TO.C,C12*%
X184261252Y-23265000D02*
X183738748Y-23265000D01*
X184261252Y-24735000D02*
X183738748Y-24735000D01*
%TO.C,J1*%
D10*
X9000000Y-13000000D02*
X22500000Y-13000000D01*
X9000000Y-54000000D02*
X9000000Y-13000000D01*
X22500000Y-13000000D02*
X22500000Y-54000000D01*
X22500000Y-54000000D02*
X9000000Y-54000000D01*
%TO.C,TP6*%
X111950000Y-39000000D02*
G75*
G02*
X110050000Y-39000000I-950000J0D01*
G01*
X110050000Y-39000000D02*
G75*
G02*
X111950000Y-39000000I950000J0D01*
G01*
%TO.C,D8*%
X172490000Y-98350000D02*
X172490000Y-101650000D01*
X172490000Y-98350000D02*
X178000000Y-98350000D01*
X172490000Y-101650000D02*
X178000000Y-101650000D01*
%TO.C,D7*%
X208490000Y-90350000D02*
X208490000Y-93650000D01*
X208490000Y-90350000D02*
X214000000Y-90350000D01*
X208490000Y-93650000D02*
X214000000Y-93650000D01*
%TO.C,R13*%
X183772936Y-41265000D02*
X184227064Y-41265000D01*
X183772936Y-42735000D02*
X184227064Y-42735000D01*
%TO.C,R16*%
X215772936Y-81265000D02*
X216227064Y-81265000D01*
X215772936Y-82735000D02*
X216227064Y-82735000D01*
%TO.C,F1*%
X29397936Y-71090000D02*
X30602064Y-71090000D01*
X29397936Y-72910000D02*
X30602064Y-72910000D01*
%TO.C,D1*%
X20490000Y-78350000D02*
X20490000Y-81650000D01*
X20490000Y-78350000D02*
X26000000Y-78350000D01*
X20490000Y-81650000D02*
X26000000Y-81650000D01*
%TO.C,D2*%
X52490000Y-96350000D02*
X52490000Y-99650000D01*
X52490000Y-96350000D02*
X58000000Y-96350000D01*
X52490000Y-99650000D02*
X58000000Y-99650000D01*
%TO.C,D4*%
X172490000Y-90350000D02*
X172490000Y-93650000D01*
X172490000Y-90350000D02*
X178000000Y-90350000D01*
X172490000Y-93650000D02*
X178000000Y-93650000D01*
%TO.C,D6*%
X196490000Y-90350000D02*
X196490000Y-93650000D01*
X196490000Y-90350000D02*
X202000000Y-90350000D01*
X196490000Y-93650000D02*
X202000000Y-93650000D01*
%TO.C,R11*%
X183772936Y-81265000D02*
X184227064Y-81265000D01*
X183772936Y-82735000D02*
X184227064Y-82735000D01*
%TO.C,Y1*%
D13*
X203690000Y-26760000D02*
X208310000Y-26760000D01*
X208310000Y-26760000D02*
X208310000Y-21240000D01*
%TO.C,C3*%
D10*
X69340302Y-93685000D02*
X70140302Y-93685000D01*
X69740302Y-93285000D02*
X69740302Y-94085000D01*
X73750000Y-91920000D02*
X73750000Y-100080000D01*
X73790000Y-91920000D02*
X73790000Y-100080000D01*
X73830000Y-91921000D02*
X73830000Y-100079000D01*
X73870000Y-91922000D02*
X73870000Y-100078000D01*
X73910000Y-91923000D02*
X73910000Y-100077000D01*
X73950000Y-91925000D02*
X73950000Y-100075000D01*
X73990000Y-91927000D02*
X73990000Y-100073000D01*
X74030000Y-91930000D02*
X74030000Y-100070000D01*
X74070000Y-91932000D02*
X74070000Y-100068000D01*
X74110000Y-91936000D02*
X74110000Y-100064000D01*
X74150000Y-91939000D02*
X74150000Y-100061000D01*
X74190000Y-91944000D02*
X74190000Y-100056000D01*
X74230000Y-91948000D02*
X74230000Y-100052000D01*
X74270000Y-91953000D02*
X74270000Y-100047000D01*
X74310000Y-91958000D02*
X74310000Y-100042000D01*
X74350000Y-91964000D02*
X74350000Y-100036000D01*
X74390000Y-91970000D02*
X74390000Y-100030000D01*
X74430000Y-91977000D02*
X74430000Y-100023000D01*
X74470000Y-91983000D02*
X74470000Y-94960000D01*
X74470000Y-97040000D02*
X74470000Y-100017000D01*
X74510000Y-91991000D02*
X74510000Y-94960000D01*
X74510000Y-97040000D02*
X74510000Y-100009000D01*
X74550000Y-91998000D02*
X74550000Y-94960000D01*
X74550000Y-97040000D02*
X74550000Y-100002000D01*
X74590000Y-92007000D02*
X74590000Y-94960000D01*
X74590000Y-97040000D02*
X74590000Y-99993000D01*
X74630000Y-92015000D02*
X74630000Y-94960000D01*
X74630000Y-97040000D02*
X74630000Y-99985000D01*
X74670000Y-92024000D02*
X74670000Y-94960000D01*
X74670000Y-97040000D02*
X74670000Y-99976000D01*
X74710000Y-92033000D02*
X74710000Y-94960000D01*
X74710000Y-97040000D02*
X74710000Y-99967000D01*
X74750000Y-92043000D02*
X74750000Y-94960000D01*
X74750000Y-97040000D02*
X74750000Y-99957000D01*
X74790000Y-92053000D02*
X74790000Y-94960000D01*
X74790000Y-97040000D02*
X74790000Y-99947000D01*
X74830000Y-92064000D02*
X74830000Y-94960000D01*
X74830000Y-97040000D02*
X74830000Y-99936000D01*
X74870000Y-92075000D02*
X74870000Y-94960000D01*
X74870000Y-97040000D02*
X74870000Y-99925000D01*
X74910000Y-92087000D02*
X74910000Y-94960000D01*
X74910000Y-97040000D02*
X74910000Y-99913000D01*
X74950000Y-92099000D02*
X74950000Y-94960000D01*
X74950000Y-97040000D02*
X74950000Y-99901000D01*
X74990000Y-92111000D02*
X74990000Y-94960000D01*
X74990000Y-97040000D02*
X74990000Y-99889000D01*
X75030000Y-92124000D02*
X75030000Y-94960000D01*
X75030000Y-97040000D02*
X75030000Y-99876000D01*
X75070000Y-92137000D02*
X75070000Y-94960000D01*
X75070000Y-97040000D02*
X75070000Y-99863000D01*
X75110000Y-92151000D02*
X75110000Y-94960000D01*
X75110000Y-97040000D02*
X75110000Y-99849000D01*
X75150000Y-92165000D02*
X75150000Y-94960000D01*
X75150000Y-97040000D02*
X75150000Y-99835000D01*
X75190000Y-92180000D02*
X75190000Y-94960000D01*
X75190000Y-97040000D02*
X75190000Y-99820000D01*
X75230000Y-92195000D02*
X75230000Y-94960000D01*
X75230000Y-97040000D02*
X75230000Y-99805000D01*
X75270000Y-92211000D02*
X75270000Y-94960000D01*
X75270000Y-97040000D02*
X75270000Y-99789000D01*
X75310000Y-92227000D02*
X75310000Y-94960000D01*
X75310000Y-97040000D02*
X75310000Y-99773000D01*
X75350000Y-92243000D02*
X75350000Y-94960000D01*
X75350000Y-97040000D02*
X75350000Y-99757000D01*
X75390000Y-92260000D02*
X75390000Y-94960000D01*
X75390000Y-97040000D02*
X75390000Y-99740000D01*
X75430000Y-92278000D02*
X75430000Y-94960000D01*
X75430000Y-97040000D02*
X75430000Y-99722000D01*
X75470000Y-92296000D02*
X75470000Y-94960000D01*
X75470000Y-97040000D02*
X75470000Y-99704000D01*
X75510000Y-92315000D02*
X75510000Y-94960000D01*
X75510000Y-97040000D02*
X75510000Y-99685000D01*
X75550000Y-92334000D02*
X75550000Y-94960000D01*
X75550000Y-97040000D02*
X75550000Y-99666000D01*
X75590000Y-92354000D02*
X75590000Y-94960000D01*
X75590000Y-97040000D02*
X75590000Y-99646000D01*
X75630000Y-92374000D02*
X75630000Y-94960000D01*
X75630000Y-97040000D02*
X75630000Y-99626000D01*
X75670000Y-92395000D02*
X75670000Y-94960000D01*
X75670000Y-97040000D02*
X75670000Y-99605000D01*
X75710000Y-92416000D02*
X75710000Y-94960000D01*
X75710000Y-97040000D02*
X75710000Y-99584000D01*
X75750000Y-92438000D02*
X75750000Y-94960000D01*
X75750000Y-97040000D02*
X75750000Y-99562000D01*
X75790000Y-92461000D02*
X75790000Y-94960000D01*
X75790000Y-97040000D02*
X75790000Y-99539000D01*
X75830000Y-92484000D02*
X75830000Y-94960000D01*
X75830000Y-97040000D02*
X75830000Y-99516000D01*
X75870000Y-92507000D02*
X75870000Y-94960000D01*
X75870000Y-97040000D02*
X75870000Y-99493000D01*
X75910000Y-92532000D02*
X75910000Y-94960000D01*
X75910000Y-97040000D02*
X75910000Y-99468000D01*
X75950000Y-92557000D02*
X75950000Y-94960000D01*
X75950000Y-97040000D02*
X75950000Y-99443000D01*
X75990000Y-92582000D02*
X75990000Y-94960000D01*
X75990000Y-97040000D02*
X75990000Y-99418000D01*
X76030000Y-92608000D02*
X76030000Y-94960000D01*
X76030000Y-97040000D02*
X76030000Y-99392000D01*
X76070000Y-92635000D02*
X76070000Y-94960000D01*
X76070000Y-97040000D02*
X76070000Y-99365000D01*
X76110000Y-92663000D02*
X76110000Y-94960000D01*
X76110000Y-97040000D02*
X76110000Y-99337000D01*
X76150000Y-92691000D02*
X76150000Y-94960000D01*
X76150000Y-97040000D02*
X76150000Y-99309000D01*
X76190000Y-92720000D02*
X76190000Y-94960000D01*
X76190000Y-97040000D02*
X76190000Y-99280000D01*
X76230000Y-92750000D02*
X76230000Y-94960000D01*
X76230000Y-97040000D02*
X76230000Y-99250000D01*
X76270000Y-92781000D02*
X76270000Y-94960000D01*
X76270000Y-97040000D02*
X76270000Y-99219000D01*
X76310000Y-92812000D02*
X76310000Y-94960000D01*
X76310000Y-97040000D02*
X76310000Y-99188000D01*
X76350000Y-92844000D02*
X76350000Y-94960000D01*
X76350000Y-97040000D02*
X76350000Y-99156000D01*
X76390000Y-92877000D02*
X76390000Y-94960000D01*
X76390000Y-97040000D02*
X76390000Y-99123000D01*
X76430000Y-92911000D02*
X76430000Y-94960000D01*
X76430000Y-97040000D02*
X76430000Y-99089000D01*
X76470000Y-92945000D02*
X76470000Y-94960000D01*
X76470000Y-97040000D02*
X76470000Y-99055000D01*
X76510000Y-92981000D02*
X76510000Y-94960000D01*
X76510000Y-97040000D02*
X76510000Y-99019000D01*
X76550000Y-93018000D02*
X76550000Y-98982000D01*
X76590000Y-93055000D02*
X76590000Y-98945000D01*
X76630000Y-93094000D02*
X76630000Y-98906000D01*
X76670000Y-93133000D02*
X76670000Y-98867000D01*
X76710000Y-93174000D02*
X76710000Y-98826000D01*
X76750000Y-93216000D02*
X76750000Y-98784000D01*
X76790000Y-93259000D02*
X76790000Y-98741000D01*
X76830000Y-93304000D02*
X76830000Y-98696000D01*
X76870000Y-93349000D02*
X76870000Y-98651000D01*
X76910000Y-93396000D02*
X76910000Y-98604000D01*
X76950000Y-93445000D02*
X76950000Y-98555000D01*
X76990000Y-93495000D02*
X76990000Y-98505000D01*
X77030000Y-93547000D02*
X77030000Y-98453000D01*
X77070000Y-93600000D02*
X77070000Y-98400000D01*
X77110000Y-93656000D02*
X77110000Y-98344000D01*
X77150000Y-93713000D02*
X77150000Y-98287000D01*
X77190000Y-93773000D02*
X77190000Y-98227000D01*
X77230000Y-93835000D02*
X77230000Y-98165000D01*
X77270000Y-93899000D02*
X77270000Y-98101000D01*
X77310000Y-93966000D02*
X77310000Y-98034000D01*
X77350000Y-94036000D02*
X77350000Y-97964000D01*
X77390000Y-94110000D02*
X77390000Y-97890000D01*
X77430000Y-94187000D02*
X77430000Y-97813000D01*
X77470000Y-94269000D02*
X77470000Y-97731000D01*
X77510000Y-94356000D02*
X77510000Y-97644000D01*
X77550000Y-94448000D02*
X77550000Y-97552000D01*
X77590000Y-94547000D02*
X77590000Y-97453000D01*
X77630000Y-94654000D02*
X77630000Y-97346000D01*
X77670000Y-94772000D02*
X77670000Y-97228000D01*
X77710000Y-94903000D02*
X77710000Y-97097000D01*
X77750000Y-95053000D02*
X77750000Y-96947000D01*
X77790000Y-95232000D02*
X77790000Y-96768000D01*
X77830000Y-95467000D02*
X77830000Y-96533000D01*
X77870000Y-96000000D02*
G75*
G02*
X69630000Y-96000000I-4120000J0D01*
G01*
X69630000Y-96000000D02*
G75*
G02*
X77870000Y-96000000I4120000J0D01*
G01*
%TO.C,C4*%
X71738748Y-83265000D02*
X72261252Y-83265000D01*
X71738748Y-84735000D02*
X72261252Y-84735000D01*
%TO.C,C8*%
D13*
X213265000Y-24298752D02*
X213265000Y-23776248D01*
X214735000Y-24298752D02*
X214735000Y-23776248D01*
%TO.C,C11*%
X204265000Y-69201248D02*
X204265000Y-69723752D01*
X205735000Y-69201248D02*
X205735000Y-69723752D01*
%TO.C,TP7*%
D10*
X111950000Y-45000000D02*
G75*
G02*
X110050000Y-45000000I-950000J0D01*
G01*
X110050000Y-45000000D02*
G75*
G02*
X111950000Y-45000000I950000J0D01*
G01*
%TO.C,TP8*%
X111950000Y-64000000D02*
G75*
G02*
X110050000Y-64000000I-950000J0D01*
G01*
X110050000Y-64000000D02*
G75*
G02*
X111950000Y-64000000I950000J0D01*
G01*
%TO.C,C6*%
X91738748Y-38265000D02*
X92261252Y-38265000D01*
X91738748Y-39735000D02*
X92261252Y-39735000D01*
%TO.C,SW1*%
X53620000Y-10340000D02*
X53620000Y-11723000D01*
X53620000Y-10340000D02*
X55003000Y-10340000D01*
X53860000Y-10580000D02*
X53860000Y-33200000D01*
X53860000Y-10580000D02*
X63760000Y-10580000D01*
X53860000Y-33200000D02*
X63760000Y-33200000D01*
X58133333Y-12365000D02*
X58133333Y-13635000D01*
X58133333Y-14905000D02*
X58133333Y-16175000D01*
X58133333Y-17445000D02*
X58133333Y-18715000D01*
X58133333Y-19985000D02*
X58133333Y-21255000D01*
X58133333Y-22525000D02*
X58133333Y-23795000D01*
X58133333Y-25065000D02*
X58133333Y-26335000D01*
X58133333Y-27605000D02*
X58133333Y-28875000D01*
X58133333Y-30145000D02*
X58133333Y-31415000D01*
X63760000Y-10580000D02*
X63760000Y-33200000D01*
X56780000Y-12365000D02*
X58133333Y-12365000D01*
X58133333Y-13635000D01*
X56780000Y-13635000D01*
X56780000Y-12365000D01*
G36*
X56780000Y-12365000D02*
G01*
X58133333Y-12365000D01*
X58133333Y-13635000D01*
X56780000Y-13635000D01*
X56780000Y-12365000D01*
G37*
X56780000Y-12365000D02*
X60840000Y-12365000D01*
X60840000Y-13635000D01*
X56780000Y-13635000D01*
X56780000Y-12365000D01*
X56780000Y-14905000D02*
X58133333Y-14905000D01*
X58133333Y-16175000D01*
X56780000Y-16175000D01*
X56780000Y-14905000D01*
G36*
X56780000Y-14905000D02*
G01*
X58133333Y-14905000D01*
X58133333Y-16175000D01*
X56780000Y-16175000D01*
X56780000Y-14905000D01*
G37*
X56780000Y-14905000D02*
X60840000Y-14905000D01*
X60840000Y-16175000D01*
X56780000Y-16175000D01*
X56780000Y-14905000D01*
X56780000Y-17445000D02*
X58133333Y-17445000D01*
X58133333Y-18715000D01*
X56780000Y-18715000D01*
X56780000Y-17445000D01*
G36*
X56780000Y-17445000D02*
G01*
X58133333Y-17445000D01*
X58133333Y-18715000D01*
X56780000Y-18715000D01*
X56780000Y-17445000D01*
G37*
X56780000Y-17445000D02*
X60840000Y-17445000D01*
X60840000Y-18715000D01*
X56780000Y-18715000D01*
X56780000Y-17445000D01*
X56780000Y-19985000D02*
X58133333Y-19985000D01*
X58133333Y-21255000D01*
X56780000Y-21255000D01*
X56780000Y-19985000D01*
G36*
X56780000Y-19985000D02*
G01*
X58133333Y-19985000D01*
X58133333Y-21255000D01*
X56780000Y-21255000D01*
X56780000Y-19985000D01*
G37*
X56780000Y-19985000D02*
X60840000Y-19985000D01*
X60840000Y-21255000D01*
X56780000Y-21255000D01*
X56780000Y-19985000D01*
X56780000Y-22525000D02*
X58133333Y-22525000D01*
X58133333Y-23795000D01*
X56780000Y-23795000D01*
X56780000Y-22525000D01*
G36*
X56780000Y-22525000D02*
G01*
X58133333Y-22525000D01*
X58133333Y-23795000D01*
X56780000Y-23795000D01*
X56780000Y-22525000D01*
G37*
X56780000Y-22525000D02*
X60840000Y-22525000D01*
X60840000Y-23795000D01*
X56780000Y-23795000D01*
X56780000Y-22525000D01*
X56780000Y-25065000D02*
X58133333Y-25065000D01*
X58133333Y-26335000D01*
X56780000Y-26335000D01*
X56780000Y-25065000D01*
G36*
X56780000Y-25065000D02*
G01*
X58133333Y-25065000D01*
X58133333Y-26335000D01*
X56780000Y-26335000D01*
X56780000Y-25065000D01*
G37*
X56780000Y-25065000D02*
X60840000Y-25065000D01*
X60840000Y-26335000D01*
X56780000Y-26335000D01*
X56780000Y-25065000D01*
X56780000Y-27605000D02*
X58133333Y-27605000D01*
X58133333Y-28875000D01*
X56780000Y-28875000D01*
X56780000Y-27605000D01*
G36*
X56780000Y-27605000D02*
G01*
X58133333Y-27605000D01*
X58133333Y-28875000D01*
X56780000Y-28875000D01*
X56780000Y-27605000D01*
G37*
X56780000Y-27605000D02*
X60840000Y-27605000D01*
X60840000Y-28875000D01*
X56780000Y-28875000D01*
X56780000Y-27605000D01*
X56780000Y-30145000D02*
X58133333Y-30145000D01*
X58133333Y-31415000D01*
X56780000Y-31415000D01*
X56780000Y-30145000D01*
G36*
X56780000Y-30145000D02*
G01*
X58133333Y-30145000D01*
X58133333Y-31415000D01*
X56780000Y-31415000D01*
X56780000Y-30145000D01*
G37*
X56780000Y-30145000D02*
X60840000Y-30145000D01*
X60840000Y-31415000D01*
X56780000Y-31415000D01*
X56780000Y-30145000D01*
%TO.C,TP3*%
X24950000Y-60000000D02*
G75*
G02*
X23050000Y-60000000I-950000J0D01*
G01*
X23050000Y-60000000D02*
G75*
G02*
X24950000Y-60000000I950000J0D01*
G01*
%TO.C,JP1*%
X207772936Y-81265000D02*
X208227064Y-81265000D01*
X207772936Y-82735000D02*
X208227064Y-82735000D01*
%TO.C,TP9*%
X158950000Y-88000000D02*
G75*
G02*
X157050000Y-88000000I-950000J0D01*
G01*
X157050000Y-88000000D02*
G75*
G02*
X158950000Y-88000000I950000J0D01*
G01*
%TO.C,R15*%
X167772936Y-41265000D02*
X168227064Y-41265000D01*
X167772936Y-42735000D02*
X168227064Y-42735000D01*
%TO.C,C9*%
D13*
X205701248Y-17265000D02*
X206223752Y-17265000D01*
X205701248Y-18735000D02*
X206223752Y-18735000D01*
%TO.C,C13*%
X180738748Y-61265000D02*
X181261252Y-61265000D01*
X180738748Y-62735000D02*
X181261252Y-62735000D01*
%TO.C,TP4*%
D10*
X111950000Y-18000000D02*
G75*
G02*
X110050000Y-18000000I-950000J0D01*
G01*
X110050000Y-18000000D02*
G75*
G02*
X111950000Y-18000000I950000J0D01*
G01*
%TO.C,R14*%
X167772936Y-11265000D02*
X168227064Y-11265000D01*
X167772936Y-12735000D02*
X168227064Y-12735000D01*
%TO.C,C2*%
X25738748Y-87265000D02*
X26261252Y-87265000D01*
X25738748Y-88735000D02*
X26261252Y-88735000D01*
%TO.C,SW2*%
X53620000Y-49340000D02*
X53620000Y-50723000D01*
X53620000Y-49340000D02*
X55003000Y-49340000D01*
X53860000Y-49580000D02*
X53860000Y-72200000D01*
X53860000Y-49580000D02*
X63760000Y-49580000D01*
X53860000Y-72200000D02*
X63760000Y-72200000D01*
X58133333Y-51365000D02*
X58133333Y-52635000D01*
X58133333Y-53905000D02*
X58133333Y-55175000D01*
X58133333Y-56445000D02*
X58133333Y-57715000D01*
X58133333Y-58985000D02*
X58133333Y-60255000D01*
X58133333Y-61525000D02*
X58133333Y-62795000D01*
X58133333Y-64065000D02*
X58133333Y-65335000D01*
X58133333Y-66605000D02*
X58133333Y-67875000D01*
X58133333Y-69145000D02*
X58133333Y-70415000D01*
X63760000Y-49580000D02*
X63760000Y-72200000D01*
X56780000Y-51365000D02*
X58133333Y-51365000D01*
X58133333Y-52635000D01*
X56780000Y-52635000D01*
X56780000Y-51365000D01*
G36*
X56780000Y-51365000D02*
G01*
X58133333Y-51365000D01*
X58133333Y-52635000D01*
X56780000Y-52635000D01*
X56780000Y-51365000D01*
G37*
X56780000Y-51365000D02*
X60840000Y-51365000D01*
X60840000Y-52635000D01*
X56780000Y-52635000D01*
X56780000Y-51365000D01*
X56780000Y-53905000D02*
X58133333Y-53905000D01*
X58133333Y-55175000D01*
X56780000Y-55175000D01*
X56780000Y-53905000D01*
G36*
X56780000Y-53905000D02*
G01*
X58133333Y-53905000D01*
X58133333Y-55175000D01*
X56780000Y-55175000D01*
X56780000Y-53905000D01*
G37*
X56780000Y-53905000D02*
X60840000Y-53905000D01*
X60840000Y-55175000D01*
X56780000Y-55175000D01*
X56780000Y-53905000D01*
X56780000Y-56445000D02*
X58133333Y-56445000D01*
X58133333Y-57715000D01*
X56780000Y-57715000D01*
X56780000Y-56445000D01*
G36*
X56780000Y-56445000D02*
G01*
X58133333Y-56445000D01*
X58133333Y-57715000D01*
X56780000Y-57715000D01*
X56780000Y-56445000D01*
G37*
X56780000Y-56445000D02*
X60840000Y-56445000D01*
X60840000Y-57715000D01*
X56780000Y-57715000D01*
X56780000Y-56445000D01*
X56780000Y-58985000D02*
X58133333Y-58985000D01*
X58133333Y-60255000D01*
X56780000Y-60255000D01*
X56780000Y-58985000D01*
G36*
X56780000Y-58985000D02*
G01*
X58133333Y-58985000D01*
X58133333Y-60255000D01*
X56780000Y-60255000D01*
X56780000Y-58985000D01*
G37*
X56780000Y-58985000D02*
X60840000Y-58985000D01*
X60840000Y-60255000D01*
X56780000Y-60255000D01*
X56780000Y-58985000D01*
X56780000Y-61525000D02*
X58133333Y-61525000D01*
X58133333Y-62795000D01*
X56780000Y-62795000D01*
X56780000Y-61525000D01*
G36*
X56780000Y-61525000D02*
G01*
X58133333Y-61525000D01*
X58133333Y-62795000D01*
X56780000Y-62795000D01*
X56780000Y-61525000D01*
G37*
X56780000Y-61525000D02*
X60840000Y-61525000D01*
X60840000Y-62795000D01*
X56780000Y-62795000D01*
X56780000Y-61525000D01*
X56780000Y-64065000D02*
X58133333Y-64065000D01*
X58133333Y-65335000D01*
X56780000Y-65335000D01*
X56780000Y-64065000D01*
G36*
X56780000Y-64065000D02*
G01*
X58133333Y-64065000D01*
X58133333Y-65335000D01*
X56780000Y-65335000D01*
X56780000Y-64065000D01*
G37*
X56780000Y-64065000D02*
X60840000Y-64065000D01*
X60840000Y-65335000D01*
X56780000Y-65335000D01*
X56780000Y-64065000D01*
X56780000Y-66605000D02*
X58133333Y-66605000D01*
X58133333Y-67875000D01*
X56780000Y-67875000D01*
X56780000Y-66605000D01*
G36*
X56780000Y-66605000D02*
G01*
X58133333Y-66605000D01*
X58133333Y-67875000D01*
X56780000Y-67875000D01*
X56780000Y-66605000D01*
G37*
X56780000Y-66605000D02*
X60840000Y-66605000D01*
X60840000Y-67875000D01*
X56780000Y-67875000D01*
X56780000Y-66605000D01*
X56780000Y-69145000D02*
X58133333Y-69145000D01*
X58133333Y-70415000D01*
X56780000Y-70415000D01*
X56780000Y-69145000D01*
G36*
X56780000Y-69145000D02*
G01*
X58133333Y-69145000D01*
X58133333Y-70415000D01*
X56780000Y-70415000D01*
X56780000Y-69145000D01*
G37*
X56780000Y-69145000D02*
X60840000Y-69145000D01*
X60840000Y-70415000D01*
X56780000Y-70415000D01*
X56780000Y-69145000D01*
%TO.C,D3*%
X196490000Y-80350000D02*
X196490000Y-83650000D01*
X196490000Y-80350000D02*
X202000000Y-80350000D01*
X196490000Y-83650000D02*
X202000000Y-83650000D01*
%TO.C,R1*%
X85772936Y-57265000D02*
X86227064Y-57265000D01*
X85772936Y-58735000D02*
X86227064Y-58735000D01*
%TO.C,C7*%
X81738748Y-63265000D02*
X82261252Y-63265000D01*
X81738748Y-64735000D02*
X82261252Y-64735000D01*
%TO.C,Y2*%
D13*
X203690000Y-64760000D02*
X208310000Y-64760000D01*
X208310000Y-64760000D02*
X208310000Y-59240000D01*
%TO.C,U5*%
D10*
X37175000Y-82800000D02*
X37175000Y-83750000D01*
X37175000Y-93200000D02*
X37175000Y-92250000D01*
X38540000Y-82800000D02*
X37175000Y-82800000D01*
X38540000Y-93200000D02*
X37175000Y-93200000D01*
X34350000Y-83790000D02*
X34010000Y-83320000D01*
X34690000Y-83320000D01*
X34350000Y-83790000D01*
G36*
X34350000Y-83790000D02*
G01*
X34010000Y-83320000D01*
X34690000Y-83320000D01*
X34350000Y-83790000D01*
G37*
%TO.C,TP1*%
X34950000Y-60000000D02*
G75*
G02*
X33050000Y-60000000I-950000J0D01*
G01*
X33050000Y-60000000D02*
G75*
G02*
X34950000Y-60000000I950000J0D01*
G01*
%TO.C,J2*%
X156620000Y-60620000D02*
X158000000Y-60620000D01*
X156620000Y-62000000D02*
X156620000Y-60620000D01*
X156620000Y-63270000D02*
X156620000Y-81160000D01*
X156620000Y-63270000D02*
X159380000Y-63270000D01*
X156620000Y-81160000D02*
X159380000Y-81160000D01*
X159380000Y-63270000D02*
X159380000Y-81160000D01*
%TD*%
%LPC*%
D14*
%TO.C,R12*%
X183000000Y-12000000D03*
X185000000Y-12000000D03*
%TD*%
D15*
%TO.C,C5*%
X87037500Y-18000000D03*
X84962500Y-18000000D03*
%TD*%
D16*
%TO.C,TP2*%
X44000000Y-60000000D03*
%TD*%
D17*
%TO.C,D5*%
X186000000Y-92000000D03*
X190000000Y-92000000D03*
%TD*%
D18*
%TO.C,L1*%
X58000000Y-88000000D03*
X63000000Y-88000000D03*
%TD*%
D19*
%TO.C,SR1*%
X10000000Y-60000000D03*
%TD*%
D20*
%TO.C,C1*%
X18000000Y-96000000D03*
D21*
X21500000Y-96000000D03*
%TD*%
D16*
%TO.C,TP5*%
X111000000Y-24000000D03*
%TD*%
D22*
%TO.C,C10*%
X206000000Y-57037500D03*
X206000000Y-54962500D03*
%TD*%
D15*
%TO.C,C12*%
X185037500Y-24000000D03*
X182962500Y-24000000D03*
%TD*%
D16*
%TO.C,TP6*%
X111000000Y-39000000D03*
%TD*%
D17*
%TO.C,D8*%
X174000000Y-100000000D03*
X178000000Y-100000000D03*
%TD*%
%TO.C,D7*%
X210000000Y-92000000D03*
X214000000Y-92000000D03*
%TD*%
D14*
%TO.C,R13*%
X183000000Y-42000000D03*
X185000000Y-42000000D03*
%TD*%
%TO.C,R16*%
X215000000Y-82000000D03*
X217000000Y-82000000D03*
%TD*%
D23*
%TO.C,F1*%
X28600000Y-72000000D03*
X31400000Y-72000000D03*
%TD*%
D19*
%TO.C,SR2*%
X22000000Y-66000000D03*
%TD*%
D17*
%TO.C,D1*%
X22000000Y-80000000D03*
X26000000Y-80000000D03*
%TD*%
%TO.C,D2*%
X54000000Y-98000000D03*
X58000000Y-98000000D03*
%TD*%
%TO.C,D4*%
X174000000Y-92000000D03*
X178000000Y-92000000D03*
%TD*%
%TO.C,D6*%
X198000000Y-92000000D03*
X202000000Y-92000000D03*
%TD*%
D14*
%TO.C,R11*%
X183000000Y-82000000D03*
X185000000Y-82000000D03*
%TD*%
D24*
%TO.C,Y1*%
X207150000Y-25450000D03*
X207150000Y-22550000D03*
X204850000Y-22550000D03*
X204850000Y-25450000D03*
%TD*%
D20*
%TO.C,C3*%
X72000000Y-96000000D03*
D21*
X75500000Y-96000000D03*
%TD*%
D25*
%TO.C,C4*%
X70962500Y-84000000D03*
X73037500Y-84000000D03*
%TD*%
D22*
%TO.C,C8*%
X214000000Y-25075000D03*
X214000000Y-23000000D03*
%TD*%
D26*
%TO.C,C11*%
X205000000Y-68425000D03*
X205000000Y-70500000D03*
%TD*%
D16*
%TO.C,TP7*%
X111000000Y-45000000D03*
%TD*%
%TO.C,TP8*%
X111000000Y-64000000D03*
%TD*%
D25*
%TO.C,C6*%
X90962500Y-39000000D03*
X93037500Y-39000000D03*
%TD*%
D20*
%TO.C,SW1*%
X55000000Y-13000000D03*
D21*
X55000000Y-15540000D03*
X55000000Y-18080000D03*
X55000000Y-20620000D03*
X55000000Y-23160000D03*
X55000000Y-25700000D03*
X55000000Y-28240000D03*
X55000000Y-30780000D03*
X62620000Y-30780000D03*
X62620000Y-28240000D03*
X62620000Y-25700000D03*
X62620000Y-23160000D03*
X62620000Y-20620000D03*
X62620000Y-18080000D03*
X62620000Y-15540000D03*
X62620000Y-13000000D03*
%TD*%
D19*
%TO.C,MH1*%
X6000000Y-6000000D03*
%TD*%
D16*
%TO.C,TP3*%
X24000000Y-60000000D03*
%TD*%
D19*
%TO.C,MH3*%
X6000000Y-99000000D03*
%TD*%
%TO.C,MH4*%
X224000000Y-109000000D03*
%TD*%
D14*
%TO.C,JP1*%
X207000000Y-82000000D03*
X209000000Y-82000000D03*
%TD*%
D16*
%TO.C,TP9*%
X158000000Y-88000000D03*
%TD*%
D14*
%TO.C,R15*%
X167000000Y-42000000D03*
X169000000Y-42000000D03*
%TD*%
D25*
%TO.C,C9*%
X204925000Y-18000000D03*
X207000000Y-18000000D03*
%TD*%
%TO.C,C13*%
X179962500Y-62000000D03*
X182037500Y-62000000D03*
%TD*%
D16*
%TO.C,TP4*%
X111000000Y-18000000D03*
%TD*%
D14*
%TO.C,R14*%
X167000000Y-12000000D03*
X169000000Y-12000000D03*
%TD*%
D25*
%TO.C,C2*%
X24962500Y-88000000D03*
X27037500Y-88000000D03*
%TD*%
D20*
%TO.C,SW2*%
X55000000Y-52000000D03*
D21*
X55000000Y-54540000D03*
X55000000Y-57080000D03*
X55000000Y-59620000D03*
X55000000Y-62160000D03*
X55000000Y-64700000D03*
X55000000Y-67240000D03*
X55000000Y-69780000D03*
X62620000Y-69780000D03*
X62620000Y-67240000D03*
X62620000Y-64700000D03*
X62620000Y-62160000D03*
X62620000Y-59620000D03*
X62620000Y-57080000D03*
X62620000Y-54540000D03*
X62620000Y-52000000D03*
%TD*%
D17*
%TO.C,D3*%
X198000000Y-82000000D03*
X202000000Y-82000000D03*
%TD*%
D14*
%TO.C,R1*%
X85000000Y-58000000D03*
X87000000Y-58000000D03*
%TD*%
D25*
%TO.C,C7*%
X80962500Y-64000000D03*
X83037500Y-64000000D03*
%TD*%
D19*
%TO.C,MH2*%
X224000000Y-6000000D03*
%TD*%
D24*
%TO.C,Y2*%
X207150000Y-63450000D03*
X207150000Y-60550000D03*
X204850000Y-60550000D03*
X204850000Y-63450000D03*
%TD*%
D27*
%TO.C,U5*%
X34350000Y-84600000D03*
X34350000Y-86300000D03*
X34350000Y-88000000D03*
D28*
X43500000Y-88000000D03*
D27*
X34350000Y-89700000D03*
X34350000Y-91400000D03*
%TD*%
D16*
%TO.C,TP1*%
X34000000Y-60000000D03*
%TD*%
D29*
%TO.C,J2*%
X158000000Y-62000000D03*
D30*
X158000000Y-64540000D03*
X158000000Y-67080000D03*
X158000000Y-69620000D03*
X158000000Y-72160000D03*
X158000000Y-74700000D03*
X158000000Y-77240000D03*
X158000000Y-79780000D03*
%TD*%
%LPD*%
M02*
