M48
; DRILL file KiCad 10.0.3+dfsg-1 date 2026-06-30T16:31:27
; FORMAT={-:-/ absolute / metric / decimal}
; #@! TF.CreationDate,2026-06-30T16:31:27-04:00
; #@! TF.GenerationSoftware,Kicad,Pcbnew,10.0.3+dfsg-1
; #@! TF.FileFunction,MixedPlating,1,2
FMAT,2
METRIC
; #@! TA.AperFunction,Plated,PTH,ViaDrill
T1C0.300
; #@! TA.AperFunction,Plated,PTH,ComponentDrill
T2C0.800
; #@! TA.AperFunction,Plated,PTH,ComponentDrill
T3C1.000
; #@! TA.AperFunction,Plated,PTH,ComponentDrill
T4C1.200
; #@! TA.AperFunction,Plated,PTH,ComponentDrill
T5C1.300
; #@! TA.AperFunction,NonPlated,NPTH,ComponentDrill
T6C3.200
%
G90
G05
T1
X1.5Y-1.5
X14.321Y-27.448
X22.039Y-60.453
X38.282Y-89.755
X63.856Y-65.802
X72.986Y-42.729
X85.275Y-40.245
X95.545Y-26.508
X101.0Y-105.0
X108.89Y-63.407
X115.007Y-65.609
X126.0Y-61.5
X127.239Y-46.038
X127.5Y-28.5
X127.5Y-30.5
X128.041Y-45.959
X129.0Y-59.5
X129.12Y-31.62
X129.932Y-25.026
X129.952Y-22.054
X131.0Y-82.5
X131.183Y-59.198
X132.942Y-92.946
X133.098Y-51.591
X133.782Y-77.672
X137.718Y-68.315
X138.289Y-27.152
X142.736Y-68.286
X144.9Y-45.683
X153.59Y-68.95
X156.742Y-88.102
X160.5Y-85.5
X167.0Y-12.0
X171.0Y-79.0
X177.714Y-68.286
X178.0Y-53.0
X178.0Y-58.0
X178.0Y-60.0
X180.777Y-89.992
X183.697Y-57.619
X185.394Y-58.851
X186.756Y-39.776
X186.837Y-27.25
X187.594Y-26.12
X187.654Y-21.455
X189.0Y-47.0
X189.592Y-57.373
X190.61Y-53.443
X191.899Y-20.814
X192.0Y-19.0
X192.37Y-60.745
X192.51Y-29.211
X192.736Y-48.637
X195.988Y-63.491
X196.335Y-24.928
X196.335Y-27.96
X197.698Y-54.545
X199.004Y-60.453
X208.559Y-25.064
X208.571Y-63.407
X210.0Y-26.0
X228.5Y-1.5
T2
X18.0Y-96.0
X21.5Y-96.0
X55.0Y-13.0
X55.0Y-15.54
X55.0Y-18.08
X55.0Y-20.62
X55.0Y-23.16
X55.0Y-25.7
X55.0Y-28.24
X55.0Y-30.78
X55.0Y-52.0
X55.0Y-54.54
X55.0Y-57.08
X55.0Y-59.62
X55.0Y-62.16
X55.0Y-64.7
X55.0Y-67.24
X55.0Y-69.78
X62.62Y-13.0
X62.62Y-15.54
X62.62Y-18.08
X62.62Y-20.62
X62.62Y-23.16
X62.62Y-25.7
X62.62Y-28.24
X62.62Y-30.78
X62.62Y-52.0
X62.62Y-54.54
X62.62Y-57.08
X62.62Y-59.62
X62.62Y-62.16
X62.62Y-64.7
X62.62Y-67.24
X62.62Y-69.78
X72.0Y-96.0
X75.5Y-96.0
T3
X124.0Y-29.58
X124.0Y-32.12
X124.0Y-34.66
X124.0Y-37.2
X124.0Y-39.74
X124.0Y-42.28
X124.0Y-44.82
X124.0Y-47.36
X124.0Y-49.9
X124.0Y-52.44
X124.0Y-54.98
X124.0Y-57.52
X124.0Y-60.06
X124.0Y-62.6
X124.0Y-65.14
X124.0Y-67.68
X124.0Y-70.22
X124.0Y-72.76
X124.0Y-75.3
X124.0Y-77.84
X124.0Y-80.38
X124.0Y-82.92
X124.0Y-85.46
X124.0Y-88.0
X139.24Y-29.58
X139.24Y-32.12
X139.24Y-34.66
X139.24Y-37.2
X139.24Y-39.74
X139.24Y-42.28
X139.24Y-44.82
X139.24Y-47.36
X139.24Y-49.9
X139.24Y-52.44
X139.24Y-54.98
X139.24Y-57.52
X139.24Y-60.06
X139.24Y-62.6
X139.24Y-65.14
X139.24Y-67.68
X139.24Y-70.22
X139.24Y-72.76
X139.24Y-75.3
X139.24Y-77.84
X139.24Y-80.38
X139.24Y-82.92
X139.24Y-85.46
X158.0Y-62.0
X158.0Y-64.54
X158.0Y-67.08
X158.0Y-69.62
X158.0Y-72.16
X158.0Y-74.7
X158.0Y-77.24
X158.0Y-79.78
T4
X12.0Y-16.0
X12.0Y-21.0
X12.0Y-26.0
X12.0Y-31.0
X12.0Y-36.0
X12.0Y-41.0
X12.0Y-46.0
X12.0Y-51.0
X19.5Y-16.0
X19.5Y-21.0
X19.5Y-26.0
X19.5Y-31.0
X19.5Y-36.0
X19.5Y-41.0
X19.5Y-46.0
X19.5Y-51.0
T5
X58.0Y-88.0
X63.0Y-88.0
T6
X6.0Y-6.0
X6.0Y-99.0
X10.0Y-60.0
X22.0Y-66.0
X224.0Y-6.0
X224.0Y-109.0
M30
