%TF.GenerationSoftware,KiCad,Pcbnew,10.0.3+dfsg-1*%
%TF.CreationDate,2026-06-30T16:31:26-04:00*%
%TF.ProjectId,teensy-41-true-dual-canfd-lin-r11_JARVIS_ROUTED_CLEAN_V2_GND_STITCH,7465656e-7379-42d3-9431-2d747275652d,rev?*%
%TF.SameCoordinates,Original*%
%TF.FileFunction,AssemblyDrawing,Bot*%
%FSLAX46Y46*%
G04 Gerber Fmt 4.6, Leading zero omitted, Abs format (unit mm)*
G04 Created by KiCad (PCBNEW 10.0.3+dfsg-1) date 2026-06-30 16:31:26*
%MOMM*%
%LPD*%
G01*
G04 APERTURE LIST*
%ADD10C,0.100000*%
%ADD11C,0.150000*%
G04 APERTURE END LIST*
D10*
X197277382Y-67575502D02*
X197277382Y-66925502D01*
X197277382Y-66925502D02*
X197060715Y-67389788D01*
X197060715Y-67389788D02*
X196844048Y-66925502D01*
X196844048Y-66925502D02*
X196844048Y-67575502D01*
X196163096Y-67513597D02*
X196194048Y-67544550D01*
X196194048Y-67544550D02*
X196286906Y-67575502D01*
X196286906Y-67575502D02*
X196348810Y-67575502D01*
X196348810Y-67575502D02*
X196441667Y-67544550D01*
X196441667Y-67544550D02*
X196503572Y-67482645D01*
X196503572Y-67482645D02*
X196534525Y-67420740D01*
X196534525Y-67420740D02*
X196565477Y-67296930D01*
X196565477Y-67296930D02*
X196565477Y-67204073D01*
X196565477Y-67204073D02*
X196534525Y-67080264D01*
X196534525Y-67080264D02*
X196503572Y-67018359D01*
X196503572Y-67018359D02*
X196441667Y-66956454D01*
X196441667Y-66956454D02*
X196348810Y-66925502D01*
X196348810Y-66925502D02*
X196286906Y-66925502D01*
X196286906Y-66925502D02*
X196194048Y-66956454D01*
X196194048Y-66956454D02*
X196163096Y-66987407D01*
X195884525Y-67575502D02*
X195884525Y-66925502D01*
X195884525Y-66925502D02*
X195636906Y-66925502D01*
X195636906Y-66925502D02*
X195575001Y-66956454D01*
X195575001Y-66956454D02*
X195544048Y-66987407D01*
X195544048Y-66987407D02*
X195513096Y-67049311D01*
X195513096Y-67049311D02*
X195513096Y-67142169D01*
X195513096Y-67142169D02*
X195544048Y-67204073D01*
X195544048Y-67204073D02*
X195575001Y-67235026D01*
X195575001Y-67235026D02*
X195636906Y-67265978D01*
X195636906Y-67265978D02*
X195884525Y-67265978D01*
X195265477Y-66987407D02*
X195234525Y-66956454D01*
X195234525Y-66956454D02*
X195172620Y-66925502D01*
X195172620Y-66925502D02*
X195017858Y-66925502D01*
X195017858Y-66925502D02*
X194955953Y-66956454D01*
X194955953Y-66956454D02*
X194925001Y-66987407D01*
X194925001Y-66987407D02*
X194894048Y-67049311D01*
X194894048Y-67049311D02*
X194894048Y-67111216D01*
X194894048Y-67111216D02*
X194925001Y-67204073D01*
X194925001Y-67204073D02*
X195296429Y-67575502D01*
X195296429Y-67575502D02*
X194894048Y-67575502D01*
X194305953Y-66925502D02*
X194615477Y-66925502D01*
X194615477Y-66925502D02*
X194646429Y-67235026D01*
X194646429Y-67235026D02*
X194615477Y-67204073D01*
X194615477Y-67204073D02*
X194553572Y-67173121D01*
X194553572Y-67173121D02*
X194398810Y-67173121D01*
X194398810Y-67173121D02*
X194336905Y-67204073D01*
X194336905Y-67204073D02*
X194305953Y-67235026D01*
X194305953Y-67235026D02*
X194275000Y-67296930D01*
X194275000Y-67296930D02*
X194275000Y-67451692D01*
X194275000Y-67451692D02*
X194305953Y-67513597D01*
X194305953Y-67513597D02*
X194336905Y-67544550D01*
X194336905Y-67544550D02*
X194398810Y-67575502D01*
X194398810Y-67575502D02*
X194553572Y-67575502D01*
X194553572Y-67575502D02*
X194615477Y-67544550D01*
X194615477Y-67544550D02*
X194646429Y-67513597D01*
X193655952Y-67575502D02*
X194027381Y-67575502D01*
X193841667Y-67575502D02*
X193841667Y-66925502D01*
X193841667Y-66925502D02*
X193903571Y-67018359D01*
X193903571Y-67018359D02*
X193965476Y-67080264D01*
X193965476Y-67080264D02*
X194027381Y-67111216D01*
X193284523Y-67204073D02*
X193346428Y-67173121D01*
X193346428Y-67173121D02*
X193377381Y-67142169D01*
X193377381Y-67142169D02*
X193408333Y-67080264D01*
X193408333Y-67080264D02*
X193408333Y-67049311D01*
X193408333Y-67049311D02*
X193377381Y-66987407D01*
X193377381Y-66987407D02*
X193346428Y-66956454D01*
X193346428Y-66956454D02*
X193284523Y-66925502D01*
X193284523Y-66925502D02*
X193160714Y-66925502D01*
X193160714Y-66925502D02*
X193098809Y-66956454D01*
X193098809Y-66956454D02*
X193067857Y-66987407D01*
X193067857Y-66987407D02*
X193036904Y-67049311D01*
X193036904Y-67049311D02*
X193036904Y-67080264D01*
X193036904Y-67080264D02*
X193067857Y-67142169D01*
X193067857Y-67142169D02*
X193098809Y-67173121D01*
X193098809Y-67173121D02*
X193160714Y-67204073D01*
X193160714Y-67204073D02*
X193284523Y-67204073D01*
X193284523Y-67204073D02*
X193346428Y-67235026D01*
X193346428Y-67235026D02*
X193377381Y-67265978D01*
X193377381Y-67265978D02*
X193408333Y-67327883D01*
X193408333Y-67327883D02*
X193408333Y-67451692D01*
X193408333Y-67451692D02*
X193377381Y-67513597D01*
X193377381Y-67513597D02*
X193346428Y-67544550D01*
X193346428Y-67544550D02*
X193284523Y-67575502D01*
X193284523Y-67575502D02*
X193160714Y-67575502D01*
X193160714Y-67575502D02*
X193098809Y-67544550D01*
X193098809Y-67544550D02*
X193067857Y-67513597D01*
X193067857Y-67513597D02*
X193036904Y-67451692D01*
X193036904Y-67451692D02*
X193036904Y-67327883D01*
X193036904Y-67327883D02*
X193067857Y-67265978D01*
X193067857Y-67265978D02*
X193098809Y-67235026D01*
X193098809Y-67235026D02*
X193160714Y-67204073D01*
X192541666Y-67235026D02*
X192758333Y-67235026D01*
X192758333Y-67575502D02*
X192758333Y-66925502D01*
X192758333Y-66925502D02*
X192448809Y-66925502D01*
X192201190Y-67575502D02*
X192201190Y-66925502D01*
X192201190Y-66925502D02*
X192046428Y-66925502D01*
X192046428Y-66925502D02*
X191953571Y-66956454D01*
X191953571Y-66956454D02*
X191891666Y-67018359D01*
X191891666Y-67018359D02*
X191860713Y-67080264D01*
X191860713Y-67080264D02*
X191829761Y-67204073D01*
X191829761Y-67204073D02*
X191829761Y-67296930D01*
X191829761Y-67296930D02*
X191860713Y-67420740D01*
X191860713Y-67420740D02*
X191891666Y-67482645D01*
X191891666Y-67482645D02*
X191953571Y-67544550D01*
X191953571Y-67544550D02*
X192046428Y-67575502D01*
X192046428Y-67575502D02*
X192201190Y-67575502D01*
X191705952Y-67637407D02*
X191210713Y-67637407D01*
X190839285Y-67235026D02*
X190746428Y-67265978D01*
X190746428Y-67265978D02*
X190715475Y-67296930D01*
X190715475Y-67296930D02*
X190684523Y-67358835D01*
X190684523Y-67358835D02*
X190684523Y-67451692D01*
X190684523Y-67451692D02*
X190715475Y-67513597D01*
X190715475Y-67513597D02*
X190746428Y-67544550D01*
X190746428Y-67544550D02*
X190808333Y-67575502D01*
X190808333Y-67575502D02*
X191055952Y-67575502D01*
X191055952Y-67575502D02*
X191055952Y-66925502D01*
X191055952Y-66925502D02*
X190839285Y-66925502D01*
X190839285Y-66925502D02*
X190777380Y-66956454D01*
X190777380Y-66956454D02*
X190746428Y-66987407D01*
X190746428Y-66987407D02*
X190715475Y-67049311D01*
X190715475Y-67049311D02*
X190715475Y-67111216D01*
X190715475Y-67111216D02*
X190746428Y-67173121D01*
X190746428Y-67173121D02*
X190777380Y-67204073D01*
X190777380Y-67204073D02*
X190839285Y-67235026D01*
X190839285Y-67235026D02*
X191055952Y-67235026D01*
X190560714Y-67637407D02*
X190065475Y-67637407D01*
X189941666Y-67544550D02*
X189848809Y-67575502D01*
X189848809Y-67575502D02*
X189694047Y-67575502D01*
X189694047Y-67575502D02*
X189632142Y-67544550D01*
X189632142Y-67544550D02*
X189601190Y-67513597D01*
X189601190Y-67513597D02*
X189570237Y-67451692D01*
X189570237Y-67451692D02*
X189570237Y-67389788D01*
X189570237Y-67389788D02*
X189601190Y-67327883D01*
X189601190Y-67327883D02*
X189632142Y-67296930D01*
X189632142Y-67296930D02*
X189694047Y-67265978D01*
X189694047Y-67265978D02*
X189817856Y-67235026D01*
X189817856Y-67235026D02*
X189879761Y-67204073D01*
X189879761Y-67204073D02*
X189910714Y-67173121D01*
X189910714Y-67173121D02*
X189941666Y-67111216D01*
X189941666Y-67111216D02*
X189941666Y-67049311D01*
X189941666Y-67049311D02*
X189910714Y-66987407D01*
X189910714Y-66987407D02*
X189879761Y-66956454D01*
X189879761Y-66956454D02*
X189817856Y-66925502D01*
X189817856Y-66925502D02*
X189663095Y-66925502D01*
X189663095Y-66925502D02*
X189570237Y-66956454D01*
X189167856Y-66925502D02*
X189044047Y-66925502D01*
X189044047Y-66925502D02*
X188982142Y-66956454D01*
X188982142Y-66956454D02*
X188920237Y-67018359D01*
X188920237Y-67018359D02*
X188889285Y-67142169D01*
X188889285Y-67142169D02*
X188889285Y-67358835D01*
X188889285Y-67358835D02*
X188920237Y-67482645D01*
X188920237Y-67482645D02*
X188982142Y-67544550D01*
X188982142Y-67544550D02*
X189044047Y-67575502D01*
X189044047Y-67575502D02*
X189167856Y-67575502D01*
X189167856Y-67575502D02*
X189229761Y-67544550D01*
X189229761Y-67544550D02*
X189291666Y-67482645D01*
X189291666Y-67482645D02*
X189322618Y-67358835D01*
X189322618Y-67358835D02*
X189322618Y-67142169D01*
X189322618Y-67142169D02*
X189291666Y-67018359D01*
X189291666Y-67018359D02*
X189229761Y-66956454D01*
X189229761Y-66956454D02*
X189167856Y-66925502D01*
X188610714Y-67575502D02*
X188610714Y-66925502D01*
X187929761Y-67513597D02*
X187960713Y-67544550D01*
X187960713Y-67544550D02*
X188053571Y-67575502D01*
X188053571Y-67575502D02*
X188115475Y-67575502D01*
X188115475Y-67575502D02*
X188208332Y-67544550D01*
X188208332Y-67544550D02*
X188270237Y-67482645D01*
X188270237Y-67482645D02*
X188301190Y-67420740D01*
X188301190Y-67420740D02*
X188332142Y-67296930D01*
X188332142Y-67296930D02*
X188332142Y-67204073D01*
X188332142Y-67204073D02*
X188301190Y-67080264D01*
X188301190Y-67080264D02*
X188270237Y-67018359D01*
X188270237Y-67018359D02*
X188208332Y-66956454D01*
X188208332Y-66956454D02*
X188115475Y-66925502D01*
X188115475Y-66925502D02*
X188053571Y-66925502D01*
X188053571Y-66925502D02*
X187960713Y-66956454D01*
X187960713Y-66956454D02*
X187929761Y-66987407D01*
X187310713Y-67575502D02*
X187682142Y-67575502D01*
X187496428Y-67575502D02*
X187496428Y-66925502D01*
X187496428Y-66925502D02*
X187558332Y-67018359D01*
X187558332Y-67018359D02*
X187620237Y-67080264D01*
X187620237Y-67080264D02*
X187682142Y-67111216D01*
X186753570Y-67142169D02*
X186753570Y-67575502D01*
X186908332Y-66894550D02*
X187063094Y-67358835D01*
X187063094Y-67358835D02*
X186660713Y-67358835D01*
D11*
X191454819Y-61238095D02*
X192264342Y-61238095D01*
X192264342Y-61238095D02*
X192359580Y-61285714D01*
X192359580Y-61285714D02*
X192407200Y-61333333D01*
X192407200Y-61333333D02*
X192454819Y-61428571D01*
X192454819Y-61428571D02*
X192454819Y-61619047D01*
X192454819Y-61619047D02*
X192407200Y-61714285D01*
X192407200Y-61714285D02*
X192359580Y-61761904D01*
X192359580Y-61761904D02*
X192264342Y-61809523D01*
X192264342Y-61809523D02*
X191454819Y-61809523D01*
X191454819Y-62190476D02*
X191454819Y-62857142D01*
X191454819Y-62857142D02*
X192454819Y-62428571D01*
X141310714Y-60949819D02*
X141310714Y-59949819D01*
X141310714Y-59949819D02*
X140977381Y-60664104D01*
X140977381Y-60664104D02*
X140644048Y-59949819D01*
X140644048Y-59949819D02*
X140644048Y-60949819D01*
X139596429Y-60854580D02*
X139644048Y-60902200D01*
X139644048Y-60902200D02*
X139786905Y-60949819D01*
X139786905Y-60949819D02*
X139882143Y-60949819D01*
X139882143Y-60949819D02*
X140025000Y-60902200D01*
X140025000Y-60902200D02*
X140120238Y-60806961D01*
X140120238Y-60806961D02*
X140167857Y-60711723D01*
X140167857Y-60711723D02*
X140215476Y-60521247D01*
X140215476Y-60521247D02*
X140215476Y-60378390D01*
X140215476Y-60378390D02*
X140167857Y-60187914D01*
X140167857Y-60187914D02*
X140120238Y-60092676D01*
X140120238Y-60092676D02*
X140025000Y-59997438D01*
X140025000Y-59997438D02*
X139882143Y-59949819D01*
X139882143Y-59949819D02*
X139786905Y-59949819D01*
X139786905Y-59949819D02*
X139644048Y-59997438D01*
X139644048Y-59997438D02*
X139596429Y-60045057D01*
X139167857Y-60949819D02*
X139167857Y-59949819D01*
X139167857Y-59949819D02*
X138786905Y-59949819D01*
X138786905Y-59949819D02*
X138691667Y-59997438D01*
X138691667Y-59997438D02*
X138644048Y-60045057D01*
X138644048Y-60045057D02*
X138596429Y-60140295D01*
X138596429Y-60140295D02*
X138596429Y-60283152D01*
X138596429Y-60283152D02*
X138644048Y-60378390D01*
X138644048Y-60378390D02*
X138691667Y-60426009D01*
X138691667Y-60426009D02*
X138786905Y-60473628D01*
X138786905Y-60473628D02*
X139167857Y-60473628D01*
X138215476Y-60045057D02*
X138167857Y-59997438D01*
X138167857Y-59997438D02*
X138072619Y-59949819D01*
X138072619Y-59949819D02*
X137834524Y-59949819D01*
X137834524Y-59949819D02*
X137739286Y-59997438D01*
X137739286Y-59997438D02*
X137691667Y-60045057D01*
X137691667Y-60045057D02*
X137644048Y-60140295D01*
X137644048Y-60140295D02*
X137644048Y-60235533D01*
X137644048Y-60235533D02*
X137691667Y-60378390D01*
X137691667Y-60378390D02*
X138263095Y-60949819D01*
X138263095Y-60949819D02*
X137644048Y-60949819D01*
X136739286Y-59949819D02*
X137215476Y-59949819D01*
X137215476Y-59949819D02*
X137263095Y-60426009D01*
X137263095Y-60426009D02*
X137215476Y-60378390D01*
X137215476Y-60378390D02*
X137120238Y-60330771D01*
X137120238Y-60330771D02*
X136882143Y-60330771D01*
X136882143Y-60330771D02*
X136786905Y-60378390D01*
X136786905Y-60378390D02*
X136739286Y-60426009D01*
X136739286Y-60426009D02*
X136691667Y-60521247D01*
X136691667Y-60521247D02*
X136691667Y-60759342D01*
X136691667Y-60759342D02*
X136739286Y-60854580D01*
X136739286Y-60854580D02*
X136786905Y-60902200D01*
X136786905Y-60902200D02*
X136882143Y-60949819D01*
X136882143Y-60949819D02*
X137120238Y-60949819D01*
X137120238Y-60949819D02*
X137215476Y-60902200D01*
X137215476Y-60902200D02*
X137263095Y-60854580D01*
X135834524Y-59949819D02*
X136025000Y-59949819D01*
X136025000Y-59949819D02*
X136120238Y-59997438D01*
X136120238Y-59997438D02*
X136167857Y-60045057D01*
X136167857Y-60045057D02*
X136263095Y-60187914D01*
X136263095Y-60187914D02*
X136310714Y-60378390D01*
X136310714Y-60378390D02*
X136310714Y-60759342D01*
X136310714Y-60759342D02*
X136263095Y-60854580D01*
X136263095Y-60854580D02*
X136215476Y-60902200D01*
X136215476Y-60902200D02*
X136120238Y-60949819D01*
X136120238Y-60949819D02*
X135929762Y-60949819D01*
X135929762Y-60949819D02*
X135834524Y-60902200D01*
X135834524Y-60902200D02*
X135786905Y-60854580D01*
X135786905Y-60854580D02*
X135739286Y-60759342D01*
X135739286Y-60759342D02*
X135739286Y-60521247D01*
X135739286Y-60521247D02*
X135786905Y-60426009D01*
X135786905Y-60426009D02*
X135834524Y-60378390D01*
X135834524Y-60378390D02*
X135929762Y-60330771D01*
X135929762Y-60330771D02*
X136120238Y-60330771D01*
X136120238Y-60330771D02*
X136215476Y-60378390D01*
X136215476Y-60378390D02*
X136263095Y-60426009D01*
X136263095Y-60426009D02*
X136310714Y-60521247D01*
X135358333Y-60045057D02*
X135310714Y-59997438D01*
X135310714Y-59997438D02*
X135215476Y-59949819D01*
X135215476Y-59949819D02*
X134977381Y-59949819D01*
X134977381Y-59949819D02*
X134882143Y-59997438D01*
X134882143Y-59997438D02*
X134834524Y-60045057D01*
X134834524Y-60045057D02*
X134786905Y-60140295D01*
X134786905Y-60140295D02*
X134786905Y-60235533D01*
X134786905Y-60235533D02*
X134834524Y-60378390D01*
X134834524Y-60378390D02*
X135405952Y-60949819D01*
X135405952Y-60949819D02*
X134786905Y-60949819D01*
X134025000Y-60426009D02*
X134358333Y-60426009D01*
X134358333Y-60949819D02*
X134358333Y-59949819D01*
X134358333Y-59949819D02*
X133882143Y-59949819D01*
X133501190Y-60949819D02*
X133501190Y-59949819D01*
X133501190Y-59949819D02*
X133263095Y-59949819D01*
X133263095Y-59949819D02*
X133120238Y-59997438D01*
X133120238Y-59997438D02*
X133025000Y-60092676D01*
X133025000Y-60092676D02*
X132977381Y-60187914D01*
X132977381Y-60187914D02*
X132929762Y-60378390D01*
X132929762Y-60378390D02*
X132929762Y-60521247D01*
X132929762Y-60521247D02*
X132977381Y-60711723D01*
X132977381Y-60711723D02*
X133025000Y-60806961D01*
X133025000Y-60806961D02*
X133120238Y-60902200D01*
X133120238Y-60902200D02*
X133263095Y-60949819D01*
X133263095Y-60949819D02*
X133501190Y-60949819D01*
X132739286Y-61045057D02*
X131977381Y-61045057D01*
X131167857Y-60854580D02*
X131215476Y-60902200D01*
X131215476Y-60902200D02*
X131358333Y-60949819D01*
X131358333Y-60949819D02*
X131453571Y-60949819D01*
X131453571Y-60949819D02*
X131596428Y-60902200D01*
X131596428Y-60902200D02*
X131691666Y-60806961D01*
X131691666Y-60806961D02*
X131739285Y-60711723D01*
X131739285Y-60711723D02*
X131786904Y-60521247D01*
X131786904Y-60521247D02*
X131786904Y-60378390D01*
X131786904Y-60378390D02*
X131739285Y-60187914D01*
X131739285Y-60187914D02*
X131691666Y-60092676D01*
X131691666Y-60092676D02*
X131596428Y-59997438D01*
X131596428Y-59997438D02*
X131453571Y-59949819D01*
X131453571Y-59949819D02*
X131358333Y-59949819D01*
X131358333Y-59949819D02*
X131215476Y-59997438D01*
X131215476Y-59997438D02*
X131167857Y-60045057D01*
X130786904Y-60664104D02*
X130310714Y-60664104D01*
X130882142Y-60949819D02*
X130548809Y-59949819D01*
X130548809Y-59949819D02*
X130215476Y-60949819D01*
X129882142Y-60949819D02*
X129882142Y-59949819D01*
X129882142Y-59949819D02*
X129310714Y-60949819D01*
X129310714Y-60949819D02*
X129310714Y-59949819D01*
X129072619Y-61045057D02*
X128310714Y-61045057D01*
X127739285Y-60426009D02*
X127596428Y-60473628D01*
X127596428Y-60473628D02*
X127548809Y-60521247D01*
X127548809Y-60521247D02*
X127501190Y-60616485D01*
X127501190Y-60616485D02*
X127501190Y-60759342D01*
X127501190Y-60759342D02*
X127548809Y-60854580D01*
X127548809Y-60854580D02*
X127596428Y-60902200D01*
X127596428Y-60902200D02*
X127691666Y-60949819D01*
X127691666Y-60949819D02*
X128072618Y-60949819D01*
X128072618Y-60949819D02*
X128072618Y-59949819D01*
X128072618Y-59949819D02*
X127739285Y-59949819D01*
X127739285Y-59949819D02*
X127644047Y-59997438D01*
X127644047Y-59997438D02*
X127596428Y-60045057D01*
X127596428Y-60045057D02*
X127548809Y-60140295D01*
X127548809Y-60140295D02*
X127548809Y-60235533D01*
X127548809Y-60235533D02*
X127596428Y-60330771D01*
X127596428Y-60330771D02*
X127644047Y-60378390D01*
X127644047Y-60378390D02*
X127739285Y-60426009D01*
X127739285Y-60426009D02*
X128072618Y-60426009D01*
X127310714Y-61045057D02*
X126548809Y-61045057D01*
X126405951Y-59949819D02*
X125786904Y-59949819D01*
X125786904Y-59949819D02*
X126120237Y-60330771D01*
X126120237Y-60330771D02*
X125977380Y-60330771D01*
X125977380Y-60330771D02*
X125882142Y-60378390D01*
X125882142Y-60378390D02*
X125834523Y-60426009D01*
X125834523Y-60426009D02*
X125786904Y-60521247D01*
X125786904Y-60521247D02*
X125786904Y-60759342D01*
X125786904Y-60759342D02*
X125834523Y-60854580D01*
X125834523Y-60854580D02*
X125882142Y-60902200D01*
X125882142Y-60902200D02*
X125977380Y-60949819D01*
X125977380Y-60949819D02*
X126263094Y-60949819D01*
X126263094Y-60949819D02*
X126358332Y-60902200D01*
X126358332Y-60902200D02*
X126405951Y-60854580D01*
X125501189Y-59949819D02*
X125167856Y-60949819D01*
X125167856Y-60949819D02*
X124834523Y-59949819D01*
X124596427Y-59949819D02*
X123977380Y-59949819D01*
X123977380Y-59949819D02*
X124310713Y-60330771D01*
X124310713Y-60330771D02*
X124167856Y-60330771D01*
X124167856Y-60330771D02*
X124072618Y-60378390D01*
X124072618Y-60378390D02*
X124024999Y-60426009D01*
X124024999Y-60426009D02*
X123977380Y-60521247D01*
X123977380Y-60521247D02*
X123977380Y-60759342D01*
X123977380Y-60759342D02*
X124024999Y-60854580D01*
X124024999Y-60854580D02*
X124072618Y-60902200D01*
X124072618Y-60902200D02*
X124167856Y-60949819D01*
X124167856Y-60949819D02*
X124453570Y-60949819D01*
X124453570Y-60949819D02*
X124548808Y-60902200D01*
X124548808Y-60902200D02*
X124596427Y-60854580D01*
X123786904Y-61045057D02*
X123024999Y-61045057D01*
X122786903Y-60949819D02*
X122786903Y-59949819D01*
X122120237Y-59949819D02*
X121929761Y-59949819D01*
X121929761Y-59949819D02*
X121834523Y-59997438D01*
X121834523Y-59997438D02*
X121739285Y-60092676D01*
X121739285Y-60092676D02*
X121691666Y-60283152D01*
X121691666Y-60283152D02*
X121691666Y-60616485D01*
X121691666Y-60616485D02*
X121739285Y-60806961D01*
X121739285Y-60806961D02*
X121834523Y-60902200D01*
X121834523Y-60902200D02*
X121929761Y-60949819D01*
X121929761Y-60949819D02*
X122120237Y-60949819D01*
X122120237Y-60949819D02*
X122215475Y-60902200D01*
X122215475Y-60902200D02*
X122310713Y-60806961D01*
X122310713Y-60806961D02*
X122358332Y-60616485D01*
X122358332Y-60616485D02*
X122358332Y-60283152D01*
X122358332Y-60283152D02*
X122310713Y-60092676D01*
X122310713Y-60092676D02*
X122215475Y-59997438D01*
X122215475Y-59997438D02*
X122120237Y-59949819D01*
X130979819Y-56333095D02*
X131789342Y-56333095D01*
X131789342Y-56333095D02*
X131884580Y-56380714D01*
X131884580Y-56380714D02*
X131932200Y-56428333D01*
X131932200Y-56428333D02*
X131979819Y-56523571D01*
X131979819Y-56523571D02*
X131979819Y-56714047D01*
X131979819Y-56714047D02*
X131932200Y-56809285D01*
X131932200Y-56809285D02*
X131884580Y-56856904D01*
X131884580Y-56856904D02*
X131789342Y-56904523D01*
X131789342Y-56904523D02*
X130979819Y-56904523D01*
X130979819Y-57285476D02*
X130979819Y-57904523D01*
X130979819Y-57904523D02*
X131360771Y-57571190D01*
X131360771Y-57571190D02*
X131360771Y-57714047D01*
X131360771Y-57714047D02*
X131408390Y-57809285D01*
X131408390Y-57809285D02*
X131456009Y-57856904D01*
X131456009Y-57856904D02*
X131551247Y-57904523D01*
X131551247Y-57904523D02*
X131789342Y-57904523D01*
X131789342Y-57904523D02*
X131884580Y-57856904D01*
X131884580Y-57856904D02*
X131932200Y-57809285D01*
X131932200Y-57809285D02*
X131979819Y-57714047D01*
X131979819Y-57714047D02*
X131979819Y-57428333D01*
X131979819Y-57428333D02*
X131932200Y-57333095D01*
X131932200Y-57333095D02*
X131884580Y-57285476D01*
X128079819Y-24380714D02*
X127079819Y-24380714D01*
X127079819Y-24380714D02*
X127794104Y-24714047D01*
X127794104Y-24714047D02*
X127079819Y-25047380D01*
X127079819Y-25047380D02*
X128079819Y-25047380D01*
X127984580Y-26094999D02*
X128032200Y-26047380D01*
X128032200Y-26047380D02*
X128079819Y-25904523D01*
X128079819Y-25904523D02*
X128079819Y-25809285D01*
X128079819Y-25809285D02*
X128032200Y-25666428D01*
X128032200Y-25666428D02*
X127936961Y-25571190D01*
X127936961Y-25571190D02*
X127841723Y-25523571D01*
X127841723Y-25523571D02*
X127651247Y-25475952D01*
X127651247Y-25475952D02*
X127508390Y-25475952D01*
X127508390Y-25475952D02*
X127317914Y-25523571D01*
X127317914Y-25523571D02*
X127222676Y-25571190D01*
X127222676Y-25571190D02*
X127127438Y-25666428D01*
X127127438Y-25666428D02*
X127079819Y-25809285D01*
X127079819Y-25809285D02*
X127079819Y-25904523D01*
X127079819Y-25904523D02*
X127127438Y-26047380D01*
X127127438Y-26047380D02*
X127175057Y-26094999D01*
X128079819Y-26523571D02*
X127079819Y-26523571D01*
X127079819Y-26523571D02*
X127079819Y-26904523D01*
X127079819Y-26904523D02*
X127127438Y-26999761D01*
X127127438Y-26999761D02*
X127175057Y-27047380D01*
X127175057Y-27047380D02*
X127270295Y-27094999D01*
X127270295Y-27094999D02*
X127413152Y-27094999D01*
X127413152Y-27094999D02*
X127508390Y-27047380D01*
X127508390Y-27047380D02*
X127556009Y-26999761D01*
X127556009Y-26999761D02*
X127603628Y-26904523D01*
X127603628Y-26904523D02*
X127603628Y-26523571D01*
X127175057Y-27475952D02*
X127127438Y-27523571D01*
X127127438Y-27523571D02*
X127079819Y-27618809D01*
X127079819Y-27618809D02*
X127079819Y-27856904D01*
X127079819Y-27856904D02*
X127127438Y-27952142D01*
X127127438Y-27952142D02*
X127175057Y-27999761D01*
X127175057Y-27999761D02*
X127270295Y-28047380D01*
X127270295Y-28047380D02*
X127365533Y-28047380D01*
X127365533Y-28047380D02*
X127508390Y-27999761D01*
X127508390Y-27999761D02*
X128079819Y-27428333D01*
X128079819Y-27428333D02*
X128079819Y-28047380D01*
X127079819Y-28952142D02*
X127079819Y-28475952D01*
X127079819Y-28475952D02*
X127556009Y-28428333D01*
X127556009Y-28428333D02*
X127508390Y-28475952D01*
X127508390Y-28475952D02*
X127460771Y-28571190D01*
X127460771Y-28571190D02*
X127460771Y-28809285D01*
X127460771Y-28809285D02*
X127508390Y-28904523D01*
X127508390Y-28904523D02*
X127556009Y-28952142D01*
X127556009Y-28952142D02*
X127651247Y-28999761D01*
X127651247Y-28999761D02*
X127889342Y-28999761D01*
X127889342Y-28999761D02*
X127984580Y-28952142D01*
X127984580Y-28952142D02*
X128032200Y-28904523D01*
X128032200Y-28904523D02*
X128079819Y-28809285D01*
X128079819Y-28809285D02*
X128079819Y-28571190D01*
X128079819Y-28571190D02*
X128032200Y-28475952D01*
X128032200Y-28475952D02*
X127984580Y-28428333D01*
X127079819Y-29856904D02*
X127079819Y-29666428D01*
X127079819Y-29666428D02*
X127127438Y-29571190D01*
X127127438Y-29571190D02*
X127175057Y-29523571D01*
X127175057Y-29523571D02*
X127317914Y-29428333D01*
X127317914Y-29428333D02*
X127508390Y-29380714D01*
X127508390Y-29380714D02*
X127889342Y-29380714D01*
X127889342Y-29380714D02*
X127984580Y-29428333D01*
X127984580Y-29428333D02*
X128032200Y-29475952D01*
X128032200Y-29475952D02*
X128079819Y-29571190D01*
X128079819Y-29571190D02*
X128079819Y-29761666D01*
X128079819Y-29761666D02*
X128032200Y-29856904D01*
X128032200Y-29856904D02*
X127984580Y-29904523D01*
X127984580Y-29904523D02*
X127889342Y-29952142D01*
X127889342Y-29952142D02*
X127651247Y-29952142D01*
X127651247Y-29952142D02*
X127556009Y-29904523D01*
X127556009Y-29904523D02*
X127508390Y-29856904D01*
X127508390Y-29856904D02*
X127460771Y-29761666D01*
X127460771Y-29761666D02*
X127460771Y-29571190D01*
X127460771Y-29571190D02*
X127508390Y-29475952D01*
X127508390Y-29475952D02*
X127556009Y-29428333D01*
X127556009Y-29428333D02*
X127651247Y-29380714D01*
X127175057Y-30333095D02*
X127127438Y-30380714D01*
X127127438Y-30380714D02*
X127079819Y-30475952D01*
X127079819Y-30475952D02*
X127079819Y-30714047D01*
X127079819Y-30714047D02*
X127127438Y-30809285D01*
X127127438Y-30809285D02*
X127175057Y-30856904D01*
X127175057Y-30856904D02*
X127270295Y-30904523D01*
X127270295Y-30904523D02*
X127365533Y-30904523D01*
X127365533Y-30904523D02*
X127508390Y-30856904D01*
X127508390Y-30856904D02*
X128079819Y-30285476D01*
X128079819Y-30285476D02*
X128079819Y-30904523D01*
X127556009Y-31666428D02*
X127556009Y-31333095D01*
X128079819Y-31333095D02*
X127079819Y-31333095D01*
X127079819Y-31333095D02*
X127079819Y-31809285D01*
X128079819Y-32190238D02*
X127079819Y-32190238D01*
X127079819Y-32190238D02*
X127079819Y-32428333D01*
X127079819Y-32428333D02*
X127127438Y-32571190D01*
X127127438Y-32571190D02*
X127222676Y-32666428D01*
X127222676Y-32666428D02*
X127317914Y-32714047D01*
X127317914Y-32714047D02*
X127508390Y-32761666D01*
X127508390Y-32761666D02*
X127651247Y-32761666D01*
X127651247Y-32761666D02*
X127841723Y-32714047D01*
X127841723Y-32714047D02*
X127936961Y-32666428D01*
X127936961Y-32666428D02*
X128032200Y-32571190D01*
X128032200Y-32571190D02*
X128079819Y-32428333D01*
X128079819Y-32428333D02*
X128079819Y-32190238D01*
X128175057Y-32952143D02*
X128175057Y-33714047D01*
X127984580Y-34523571D02*
X128032200Y-34475952D01*
X128032200Y-34475952D02*
X128079819Y-34333095D01*
X128079819Y-34333095D02*
X128079819Y-34237857D01*
X128079819Y-34237857D02*
X128032200Y-34095000D01*
X128032200Y-34095000D02*
X127936961Y-33999762D01*
X127936961Y-33999762D02*
X127841723Y-33952143D01*
X127841723Y-33952143D02*
X127651247Y-33904524D01*
X127651247Y-33904524D02*
X127508390Y-33904524D01*
X127508390Y-33904524D02*
X127317914Y-33952143D01*
X127317914Y-33952143D02*
X127222676Y-33999762D01*
X127222676Y-33999762D02*
X127127438Y-34095000D01*
X127127438Y-34095000D02*
X127079819Y-34237857D01*
X127079819Y-34237857D02*
X127079819Y-34333095D01*
X127079819Y-34333095D02*
X127127438Y-34475952D01*
X127127438Y-34475952D02*
X127175057Y-34523571D01*
X127794104Y-34904524D02*
X127794104Y-35380714D01*
X128079819Y-34809286D02*
X127079819Y-35142619D01*
X127079819Y-35142619D02*
X128079819Y-35475952D01*
X128079819Y-35809286D02*
X127079819Y-35809286D01*
X127079819Y-35809286D02*
X128079819Y-36380714D01*
X128079819Y-36380714D02*
X127079819Y-36380714D01*
X128175057Y-36618810D02*
X128175057Y-37380714D01*
X127794104Y-37571191D02*
X127794104Y-38047381D01*
X128079819Y-37475953D02*
X127079819Y-37809286D01*
X127079819Y-37809286D02*
X128079819Y-38142619D01*
X128175057Y-38237858D02*
X128175057Y-38999762D01*
X127079819Y-39142620D02*
X127079819Y-39761667D01*
X127079819Y-39761667D02*
X127460771Y-39428334D01*
X127460771Y-39428334D02*
X127460771Y-39571191D01*
X127460771Y-39571191D02*
X127508390Y-39666429D01*
X127508390Y-39666429D02*
X127556009Y-39714048D01*
X127556009Y-39714048D02*
X127651247Y-39761667D01*
X127651247Y-39761667D02*
X127889342Y-39761667D01*
X127889342Y-39761667D02*
X127984580Y-39714048D01*
X127984580Y-39714048D02*
X128032200Y-39666429D01*
X128032200Y-39666429D02*
X128079819Y-39571191D01*
X128079819Y-39571191D02*
X128079819Y-39285477D01*
X128079819Y-39285477D02*
X128032200Y-39190239D01*
X128032200Y-39190239D02*
X127984580Y-39142620D01*
X127079819Y-40047382D02*
X128079819Y-40380715D01*
X128079819Y-40380715D02*
X127079819Y-40714048D01*
X127079819Y-40952144D02*
X127079819Y-41571191D01*
X127079819Y-41571191D02*
X127460771Y-41237858D01*
X127460771Y-41237858D02*
X127460771Y-41380715D01*
X127460771Y-41380715D02*
X127508390Y-41475953D01*
X127508390Y-41475953D02*
X127556009Y-41523572D01*
X127556009Y-41523572D02*
X127651247Y-41571191D01*
X127651247Y-41571191D02*
X127889342Y-41571191D01*
X127889342Y-41571191D02*
X127984580Y-41523572D01*
X127984580Y-41523572D02*
X128032200Y-41475953D01*
X128032200Y-41475953D02*
X128079819Y-41380715D01*
X128079819Y-41380715D02*
X128079819Y-41095001D01*
X128079819Y-41095001D02*
X128032200Y-40999763D01*
X128032200Y-40999763D02*
X127984580Y-40952144D01*
X128175057Y-41761668D02*
X128175057Y-42523572D01*
X128079819Y-42761668D02*
X127079819Y-42761668D01*
X127079819Y-43428334D02*
X127079819Y-43618810D01*
X127079819Y-43618810D02*
X127127438Y-43714048D01*
X127127438Y-43714048D02*
X127222676Y-43809286D01*
X127222676Y-43809286D02*
X127413152Y-43856905D01*
X127413152Y-43856905D02*
X127746485Y-43856905D01*
X127746485Y-43856905D02*
X127936961Y-43809286D01*
X127936961Y-43809286D02*
X128032200Y-43714048D01*
X128032200Y-43714048D02*
X128079819Y-43618810D01*
X128079819Y-43618810D02*
X128079819Y-43428334D01*
X128079819Y-43428334D02*
X128032200Y-43333096D01*
X128032200Y-43333096D02*
X127936961Y-43237858D01*
X127936961Y-43237858D02*
X127746485Y-43190239D01*
X127746485Y-43190239D02*
X127413152Y-43190239D01*
X127413152Y-43190239D02*
X127222676Y-43237858D01*
X127222676Y-43237858D02*
X127127438Y-43333096D01*
X127127438Y-43333096D02*
X127079819Y-43428334D01*
X131786904Y-33549819D02*
X131786904Y-34359342D01*
X131786904Y-34359342D02*
X131739285Y-34454580D01*
X131739285Y-34454580D02*
X131691666Y-34502200D01*
X131691666Y-34502200D02*
X131596428Y-34549819D01*
X131596428Y-34549819D02*
X131405952Y-34549819D01*
X131405952Y-34549819D02*
X131310714Y-34502200D01*
X131310714Y-34502200D02*
X131263095Y-34454580D01*
X131263095Y-34454580D02*
X131215476Y-34359342D01*
X131215476Y-34359342D02*
X131215476Y-33549819D01*
X130786904Y-33645057D02*
X130739285Y-33597438D01*
X130739285Y-33597438D02*
X130644047Y-33549819D01*
X130644047Y-33549819D02*
X130405952Y-33549819D01*
X130405952Y-33549819D02*
X130310714Y-33597438D01*
X130310714Y-33597438D02*
X130263095Y-33645057D01*
X130263095Y-33645057D02*
X130215476Y-33740295D01*
X130215476Y-33740295D02*
X130215476Y-33835533D01*
X130215476Y-33835533D02*
X130263095Y-33978390D01*
X130263095Y-33978390D02*
X130834523Y-34549819D01*
X130834523Y-34549819D02*
X130215476Y-34549819D01*
X134379819Y-70880714D02*
X134379819Y-71452142D01*
X135379819Y-71166428D02*
X134379819Y-71166428D01*
X135379819Y-72261666D02*
X135379819Y-71785476D01*
X135379819Y-71785476D02*
X134379819Y-71785476D01*
X135379819Y-72595000D02*
X134379819Y-72595000D01*
X135379819Y-73071190D02*
X134379819Y-73071190D01*
X134379819Y-73071190D02*
X135379819Y-73642618D01*
X135379819Y-73642618D02*
X134379819Y-73642618D01*
X135379819Y-74642618D02*
X135379819Y-74071190D01*
X135379819Y-74356904D02*
X134379819Y-74356904D01*
X134379819Y-74356904D02*
X134522676Y-74261666D01*
X134522676Y-74261666D02*
X134617914Y-74166428D01*
X134617914Y-74166428D02*
X134665533Y-74071190D01*
X134379819Y-75261666D02*
X134379819Y-75356904D01*
X134379819Y-75356904D02*
X134427438Y-75452142D01*
X134427438Y-75452142D02*
X134475057Y-75499761D01*
X134475057Y-75499761D02*
X134570295Y-75547380D01*
X134570295Y-75547380D02*
X134760771Y-75594999D01*
X134760771Y-75594999D02*
X134998866Y-75594999D01*
X134998866Y-75594999D02*
X135189342Y-75547380D01*
X135189342Y-75547380D02*
X135284580Y-75499761D01*
X135284580Y-75499761D02*
X135332200Y-75452142D01*
X135332200Y-75452142D02*
X135379819Y-75356904D01*
X135379819Y-75356904D02*
X135379819Y-75261666D01*
X135379819Y-75261666D02*
X135332200Y-75166428D01*
X135332200Y-75166428D02*
X135284580Y-75118809D01*
X135284580Y-75118809D02*
X135189342Y-75071190D01*
X135189342Y-75071190D02*
X134998866Y-75023571D01*
X134998866Y-75023571D02*
X134760771Y-75023571D01*
X134760771Y-75023571D02*
X134570295Y-75071190D01*
X134570295Y-75071190D02*
X134475057Y-75118809D01*
X134475057Y-75118809D02*
X134427438Y-75166428D01*
X134427438Y-75166428D02*
X134379819Y-75261666D01*
X134475057Y-75975952D02*
X134427438Y-76023571D01*
X134427438Y-76023571D02*
X134379819Y-76118809D01*
X134379819Y-76118809D02*
X134379819Y-76356904D01*
X134379819Y-76356904D02*
X134427438Y-76452142D01*
X134427438Y-76452142D02*
X134475057Y-76499761D01*
X134475057Y-76499761D02*
X134570295Y-76547380D01*
X134570295Y-76547380D02*
X134665533Y-76547380D01*
X134665533Y-76547380D02*
X134808390Y-76499761D01*
X134808390Y-76499761D02*
X135379819Y-75928333D01*
X135379819Y-75928333D02*
X135379819Y-76547380D01*
X135379819Y-77023571D02*
X135379819Y-77214047D01*
X135379819Y-77214047D02*
X135332200Y-77309285D01*
X135332200Y-77309285D02*
X135284580Y-77356904D01*
X135284580Y-77356904D02*
X135141723Y-77452142D01*
X135141723Y-77452142D02*
X134951247Y-77499761D01*
X134951247Y-77499761D02*
X134570295Y-77499761D01*
X134570295Y-77499761D02*
X134475057Y-77452142D01*
X134475057Y-77452142D02*
X134427438Y-77404523D01*
X134427438Y-77404523D02*
X134379819Y-77309285D01*
X134379819Y-77309285D02*
X134379819Y-77118809D01*
X134379819Y-77118809D02*
X134427438Y-77023571D01*
X134427438Y-77023571D02*
X134475057Y-76975952D01*
X134475057Y-76975952D02*
X134570295Y-76928333D01*
X134570295Y-76928333D02*
X134808390Y-76928333D01*
X134808390Y-76928333D02*
X134903628Y-76975952D01*
X134903628Y-76975952D02*
X134951247Y-77023571D01*
X134951247Y-77023571D02*
X134998866Y-77118809D01*
X134998866Y-77118809D02*
X134998866Y-77309285D01*
X134998866Y-77309285D02*
X134951247Y-77404523D01*
X134951247Y-77404523D02*
X134903628Y-77452142D01*
X134903628Y-77452142D02*
X134808390Y-77499761D01*
X135379819Y-77928333D02*
X134379819Y-77928333D01*
X134379819Y-77928333D02*
X134379819Y-78166428D01*
X134379819Y-78166428D02*
X134427438Y-78309285D01*
X134427438Y-78309285D02*
X134522676Y-78404523D01*
X134522676Y-78404523D02*
X134617914Y-78452142D01*
X134617914Y-78452142D02*
X134808390Y-78499761D01*
X134808390Y-78499761D02*
X134951247Y-78499761D01*
X134951247Y-78499761D02*
X135141723Y-78452142D01*
X135141723Y-78452142D02*
X135236961Y-78404523D01*
X135236961Y-78404523D02*
X135332200Y-78309285D01*
X135332200Y-78309285D02*
X135379819Y-78166428D01*
X135379819Y-78166428D02*
X135379819Y-77928333D01*
X135379819Y-79499761D02*
X134903628Y-79166428D01*
X135379819Y-78928333D02*
X134379819Y-78928333D01*
X134379819Y-78928333D02*
X134379819Y-79309285D01*
X134379819Y-79309285D02*
X134427438Y-79404523D01*
X134427438Y-79404523D02*
X134475057Y-79452142D01*
X134475057Y-79452142D02*
X134570295Y-79499761D01*
X134570295Y-79499761D02*
X134713152Y-79499761D01*
X134713152Y-79499761D02*
X134808390Y-79452142D01*
X134808390Y-79452142D02*
X134856009Y-79404523D01*
X134856009Y-79404523D02*
X134903628Y-79309285D01*
X134903628Y-79309285D02*
X134903628Y-78928333D01*
X135475057Y-80594999D02*
X135427438Y-80499761D01*
X135427438Y-80499761D02*
X135332200Y-80404523D01*
X135332200Y-80404523D02*
X135189342Y-80261666D01*
X135189342Y-80261666D02*
X135141723Y-80166428D01*
X135141723Y-80166428D02*
X135141723Y-80071190D01*
X135379819Y-80118809D02*
X135332200Y-80023571D01*
X135332200Y-80023571D02*
X135236961Y-79928333D01*
X135236961Y-79928333D02*
X135046485Y-79880714D01*
X135046485Y-79880714D02*
X134713152Y-79880714D01*
X134713152Y-79880714D02*
X134522676Y-79928333D01*
X134522676Y-79928333D02*
X134427438Y-80023571D01*
X134427438Y-80023571D02*
X134379819Y-80118809D01*
X134379819Y-80118809D02*
X134379819Y-80309285D01*
X134379819Y-80309285D02*
X134427438Y-80404523D01*
X134427438Y-80404523D02*
X134522676Y-80499761D01*
X134522676Y-80499761D02*
X134713152Y-80547380D01*
X134713152Y-80547380D02*
X135046485Y-80547380D01*
X135046485Y-80547380D02*
X135236961Y-80499761D01*
X135236961Y-80499761D02*
X135332200Y-80404523D01*
X135332200Y-80404523D02*
X135379819Y-80309285D01*
X135379819Y-80309285D02*
X135379819Y-80118809D01*
X135379819Y-81499761D02*
X135379819Y-80928333D01*
X135379819Y-81214047D02*
X134379819Y-81214047D01*
X134379819Y-81214047D02*
X134522676Y-81118809D01*
X134522676Y-81118809D02*
X134617914Y-81023571D01*
X134617914Y-81023571D02*
X134665533Y-80928333D01*
X135475057Y-81690238D02*
X135475057Y-82452142D01*
X135379819Y-83166428D02*
X135379819Y-82690238D01*
X135379819Y-82690238D02*
X134379819Y-82690238D01*
X135379819Y-83499762D02*
X134379819Y-83499762D01*
X135379819Y-83975952D02*
X134379819Y-83975952D01*
X134379819Y-83975952D02*
X135379819Y-84547380D01*
X135379819Y-84547380D02*
X134379819Y-84547380D01*
X135475057Y-84785476D02*
X135475057Y-85547380D01*
X134379819Y-85690238D02*
X134379819Y-86309285D01*
X134379819Y-86309285D02*
X134760771Y-85975952D01*
X134760771Y-85975952D02*
X134760771Y-86118809D01*
X134760771Y-86118809D02*
X134808390Y-86214047D01*
X134808390Y-86214047D02*
X134856009Y-86261666D01*
X134856009Y-86261666D02*
X134951247Y-86309285D01*
X134951247Y-86309285D02*
X135189342Y-86309285D01*
X135189342Y-86309285D02*
X135284580Y-86261666D01*
X135284580Y-86261666D02*
X135332200Y-86214047D01*
X135332200Y-86214047D02*
X135379819Y-86118809D01*
X135379819Y-86118809D02*
X135379819Y-85833095D01*
X135379819Y-85833095D02*
X135332200Y-85737857D01*
X135332200Y-85737857D02*
X135284580Y-85690238D01*
X134379819Y-86595000D02*
X135379819Y-86928333D01*
X135379819Y-86928333D02*
X134379819Y-87261666D01*
X134379819Y-87499762D02*
X134379819Y-88118809D01*
X134379819Y-88118809D02*
X134760771Y-87785476D01*
X134760771Y-87785476D02*
X134760771Y-87928333D01*
X134760771Y-87928333D02*
X134808390Y-88023571D01*
X134808390Y-88023571D02*
X134856009Y-88071190D01*
X134856009Y-88071190D02*
X134951247Y-88118809D01*
X134951247Y-88118809D02*
X135189342Y-88118809D01*
X135189342Y-88118809D02*
X135284580Y-88071190D01*
X135284580Y-88071190D02*
X135332200Y-88023571D01*
X135332200Y-88023571D02*
X135379819Y-87928333D01*
X135379819Y-87928333D02*
X135379819Y-87642619D01*
X135379819Y-87642619D02*
X135332200Y-87547381D01*
X135332200Y-87547381D02*
X135284580Y-87499762D01*
X135475057Y-88309286D02*
X135475057Y-89071190D01*
X135379819Y-89785476D02*
X135379819Y-89309286D01*
X135379819Y-89309286D02*
X134379819Y-89309286D01*
X134379819Y-90309286D02*
X134379819Y-90499762D01*
X134379819Y-90499762D02*
X134427438Y-90595000D01*
X134427438Y-90595000D02*
X134522676Y-90690238D01*
X134522676Y-90690238D02*
X134713152Y-90737857D01*
X134713152Y-90737857D02*
X135046485Y-90737857D01*
X135046485Y-90737857D02*
X135236961Y-90690238D01*
X135236961Y-90690238D02*
X135332200Y-90595000D01*
X135332200Y-90595000D02*
X135379819Y-90499762D01*
X135379819Y-90499762D02*
X135379819Y-90309286D01*
X135379819Y-90309286D02*
X135332200Y-90214048D01*
X135332200Y-90214048D02*
X135236961Y-90118810D01*
X135236961Y-90118810D02*
X135046485Y-90071191D01*
X135046485Y-90071191D02*
X134713152Y-90071191D01*
X134713152Y-90071191D02*
X134522676Y-90118810D01*
X134522676Y-90118810D02*
X134427438Y-90214048D01*
X134427438Y-90214048D02*
X134379819Y-90309286D01*
X134427438Y-91690238D02*
X134379819Y-91595000D01*
X134379819Y-91595000D02*
X134379819Y-91452143D01*
X134379819Y-91452143D02*
X134427438Y-91309286D01*
X134427438Y-91309286D02*
X134522676Y-91214048D01*
X134522676Y-91214048D02*
X134617914Y-91166429D01*
X134617914Y-91166429D02*
X134808390Y-91118810D01*
X134808390Y-91118810D02*
X134951247Y-91118810D01*
X134951247Y-91118810D02*
X135141723Y-91166429D01*
X135141723Y-91166429D02*
X135236961Y-91214048D01*
X135236961Y-91214048D02*
X135332200Y-91309286D01*
X135332200Y-91309286D02*
X135379819Y-91452143D01*
X135379819Y-91452143D02*
X135379819Y-91547381D01*
X135379819Y-91547381D02*
X135332200Y-91690238D01*
X135332200Y-91690238D02*
X135284580Y-91737857D01*
X135284580Y-91737857D02*
X134951247Y-91737857D01*
X134951247Y-91737857D02*
X134951247Y-91547381D01*
X135379819Y-92166429D02*
X134379819Y-92166429D01*
X135284580Y-93214047D02*
X135332200Y-93166428D01*
X135332200Y-93166428D02*
X135379819Y-93023571D01*
X135379819Y-93023571D02*
X135379819Y-92928333D01*
X135379819Y-92928333D02*
X135332200Y-92785476D01*
X135332200Y-92785476D02*
X135236961Y-92690238D01*
X135236961Y-92690238D02*
X135141723Y-92642619D01*
X135141723Y-92642619D02*
X134951247Y-92595000D01*
X134951247Y-92595000D02*
X134808390Y-92595000D01*
X134808390Y-92595000D02*
X134617914Y-92642619D01*
X134617914Y-92642619D02*
X134522676Y-92690238D01*
X134522676Y-92690238D02*
X134427438Y-92785476D01*
X134427438Y-92785476D02*
X134379819Y-92928333D01*
X134379819Y-92928333D02*
X134379819Y-93023571D01*
X134379819Y-93023571D02*
X134427438Y-93166428D01*
X134427438Y-93166428D02*
X134475057Y-93214047D01*
X132286904Y-81549819D02*
X132286904Y-82359342D01*
X132286904Y-82359342D02*
X132239285Y-82454580D01*
X132239285Y-82454580D02*
X132191666Y-82502200D01*
X132191666Y-82502200D02*
X132096428Y-82549819D01*
X132096428Y-82549819D02*
X131905952Y-82549819D01*
X131905952Y-82549819D02*
X131810714Y-82502200D01*
X131810714Y-82502200D02*
X131763095Y-82454580D01*
X131763095Y-82454580D02*
X131715476Y-82359342D01*
X131715476Y-82359342D02*
X131715476Y-81549819D01*
X130810714Y-81883152D02*
X130810714Y-82549819D01*
X131048809Y-81502200D02*
X131286904Y-82216485D01*
X131286904Y-82216485D02*
X130667857Y-82216485D01*
D10*
X197230953Y-29575502D02*
X197230953Y-28925502D01*
X197230953Y-28925502D02*
X197014286Y-29389788D01*
X197014286Y-29389788D02*
X196797619Y-28925502D01*
X196797619Y-28925502D02*
X196797619Y-29575502D01*
X196116667Y-29513597D02*
X196147619Y-29544550D01*
X196147619Y-29544550D02*
X196240477Y-29575502D01*
X196240477Y-29575502D02*
X196302381Y-29575502D01*
X196302381Y-29575502D02*
X196395238Y-29544550D01*
X196395238Y-29544550D02*
X196457143Y-29482645D01*
X196457143Y-29482645D02*
X196488096Y-29420740D01*
X196488096Y-29420740D02*
X196519048Y-29296930D01*
X196519048Y-29296930D02*
X196519048Y-29204073D01*
X196519048Y-29204073D02*
X196488096Y-29080264D01*
X196488096Y-29080264D02*
X196457143Y-29018359D01*
X196457143Y-29018359D02*
X196395238Y-28956454D01*
X196395238Y-28956454D02*
X196302381Y-28925502D01*
X196302381Y-28925502D02*
X196240477Y-28925502D01*
X196240477Y-28925502D02*
X196147619Y-28956454D01*
X196147619Y-28956454D02*
X196116667Y-28987407D01*
X195838096Y-29575502D02*
X195838096Y-28925502D01*
X195838096Y-28925502D02*
X195590477Y-28925502D01*
X195590477Y-28925502D02*
X195528572Y-28956454D01*
X195528572Y-28956454D02*
X195497619Y-28987407D01*
X195497619Y-28987407D02*
X195466667Y-29049311D01*
X195466667Y-29049311D02*
X195466667Y-29142169D01*
X195466667Y-29142169D02*
X195497619Y-29204073D01*
X195497619Y-29204073D02*
X195528572Y-29235026D01*
X195528572Y-29235026D02*
X195590477Y-29265978D01*
X195590477Y-29265978D02*
X195838096Y-29265978D01*
X195219048Y-28987407D02*
X195188096Y-28956454D01*
X195188096Y-28956454D02*
X195126191Y-28925502D01*
X195126191Y-28925502D02*
X194971429Y-28925502D01*
X194971429Y-28925502D02*
X194909524Y-28956454D01*
X194909524Y-28956454D02*
X194878572Y-28987407D01*
X194878572Y-28987407D02*
X194847619Y-29049311D01*
X194847619Y-29049311D02*
X194847619Y-29111216D01*
X194847619Y-29111216D02*
X194878572Y-29204073D01*
X194878572Y-29204073D02*
X195250000Y-29575502D01*
X195250000Y-29575502D02*
X194847619Y-29575502D01*
X194259524Y-28925502D02*
X194569048Y-28925502D01*
X194569048Y-28925502D02*
X194600000Y-29235026D01*
X194600000Y-29235026D02*
X194569048Y-29204073D01*
X194569048Y-29204073D02*
X194507143Y-29173121D01*
X194507143Y-29173121D02*
X194352381Y-29173121D01*
X194352381Y-29173121D02*
X194290476Y-29204073D01*
X194290476Y-29204073D02*
X194259524Y-29235026D01*
X194259524Y-29235026D02*
X194228571Y-29296930D01*
X194228571Y-29296930D02*
X194228571Y-29451692D01*
X194228571Y-29451692D02*
X194259524Y-29513597D01*
X194259524Y-29513597D02*
X194290476Y-29544550D01*
X194290476Y-29544550D02*
X194352381Y-29575502D01*
X194352381Y-29575502D02*
X194507143Y-29575502D01*
X194507143Y-29575502D02*
X194569048Y-29544550D01*
X194569048Y-29544550D02*
X194600000Y-29513597D01*
X193609523Y-29575502D02*
X193980952Y-29575502D01*
X193795238Y-29575502D02*
X193795238Y-28925502D01*
X193795238Y-28925502D02*
X193857142Y-29018359D01*
X193857142Y-29018359D02*
X193919047Y-29080264D01*
X193919047Y-29080264D02*
X193980952Y-29111216D01*
X193238094Y-29204073D02*
X193299999Y-29173121D01*
X193299999Y-29173121D02*
X193330952Y-29142169D01*
X193330952Y-29142169D02*
X193361904Y-29080264D01*
X193361904Y-29080264D02*
X193361904Y-29049311D01*
X193361904Y-29049311D02*
X193330952Y-28987407D01*
X193330952Y-28987407D02*
X193299999Y-28956454D01*
X193299999Y-28956454D02*
X193238094Y-28925502D01*
X193238094Y-28925502D02*
X193114285Y-28925502D01*
X193114285Y-28925502D02*
X193052380Y-28956454D01*
X193052380Y-28956454D02*
X193021428Y-28987407D01*
X193021428Y-28987407D02*
X192990475Y-29049311D01*
X192990475Y-29049311D02*
X192990475Y-29080264D01*
X192990475Y-29080264D02*
X193021428Y-29142169D01*
X193021428Y-29142169D02*
X193052380Y-29173121D01*
X193052380Y-29173121D02*
X193114285Y-29204073D01*
X193114285Y-29204073D02*
X193238094Y-29204073D01*
X193238094Y-29204073D02*
X193299999Y-29235026D01*
X193299999Y-29235026D02*
X193330952Y-29265978D01*
X193330952Y-29265978D02*
X193361904Y-29327883D01*
X193361904Y-29327883D02*
X193361904Y-29451692D01*
X193361904Y-29451692D02*
X193330952Y-29513597D01*
X193330952Y-29513597D02*
X193299999Y-29544550D01*
X193299999Y-29544550D02*
X193238094Y-29575502D01*
X193238094Y-29575502D02*
X193114285Y-29575502D01*
X193114285Y-29575502D02*
X193052380Y-29544550D01*
X193052380Y-29544550D02*
X193021428Y-29513597D01*
X193021428Y-29513597D02*
X192990475Y-29451692D01*
X192990475Y-29451692D02*
X192990475Y-29327883D01*
X192990475Y-29327883D02*
X193021428Y-29265978D01*
X193021428Y-29265978D02*
X193052380Y-29235026D01*
X193052380Y-29235026D02*
X193114285Y-29204073D01*
X192495237Y-29235026D02*
X192711904Y-29235026D01*
X192711904Y-29575502D02*
X192711904Y-28925502D01*
X192711904Y-28925502D02*
X192402380Y-28925502D01*
X192154761Y-29575502D02*
X192154761Y-28925502D01*
X192154761Y-28925502D02*
X191999999Y-28925502D01*
X191999999Y-28925502D02*
X191907142Y-28956454D01*
X191907142Y-28956454D02*
X191845237Y-29018359D01*
X191845237Y-29018359D02*
X191814284Y-29080264D01*
X191814284Y-29080264D02*
X191783332Y-29204073D01*
X191783332Y-29204073D02*
X191783332Y-29296930D01*
X191783332Y-29296930D02*
X191814284Y-29420740D01*
X191814284Y-29420740D02*
X191845237Y-29482645D01*
X191845237Y-29482645D02*
X191907142Y-29544550D01*
X191907142Y-29544550D02*
X191999999Y-29575502D01*
X191999999Y-29575502D02*
X192154761Y-29575502D01*
X191659523Y-29637407D02*
X191164284Y-29637407D01*
X191040475Y-29389788D02*
X190730951Y-29389788D01*
X191102380Y-29575502D02*
X190885713Y-28925502D01*
X190885713Y-28925502D02*
X190669046Y-29575502D01*
X190607142Y-29637407D02*
X190111903Y-29637407D01*
X189988094Y-29544550D02*
X189895237Y-29575502D01*
X189895237Y-29575502D02*
X189740475Y-29575502D01*
X189740475Y-29575502D02*
X189678570Y-29544550D01*
X189678570Y-29544550D02*
X189647618Y-29513597D01*
X189647618Y-29513597D02*
X189616665Y-29451692D01*
X189616665Y-29451692D02*
X189616665Y-29389788D01*
X189616665Y-29389788D02*
X189647618Y-29327883D01*
X189647618Y-29327883D02*
X189678570Y-29296930D01*
X189678570Y-29296930D02*
X189740475Y-29265978D01*
X189740475Y-29265978D02*
X189864284Y-29235026D01*
X189864284Y-29235026D02*
X189926189Y-29204073D01*
X189926189Y-29204073D02*
X189957142Y-29173121D01*
X189957142Y-29173121D02*
X189988094Y-29111216D01*
X189988094Y-29111216D02*
X189988094Y-29049311D01*
X189988094Y-29049311D02*
X189957142Y-28987407D01*
X189957142Y-28987407D02*
X189926189Y-28956454D01*
X189926189Y-28956454D02*
X189864284Y-28925502D01*
X189864284Y-28925502D02*
X189709523Y-28925502D01*
X189709523Y-28925502D02*
X189616665Y-28956454D01*
X189214284Y-28925502D02*
X189090475Y-28925502D01*
X189090475Y-28925502D02*
X189028570Y-28956454D01*
X189028570Y-28956454D02*
X188966665Y-29018359D01*
X188966665Y-29018359D02*
X188935713Y-29142169D01*
X188935713Y-29142169D02*
X188935713Y-29358835D01*
X188935713Y-29358835D02*
X188966665Y-29482645D01*
X188966665Y-29482645D02*
X189028570Y-29544550D01*
X189028570Y-29544550D02*
X189090475Y-29575502D01*
X189090475Y-29575502D02*
X189214284Y-29575502D01*
X189214284Y-29575502D02*
X189276189Y-29544550D01*
X189276189Y-29544550D02*
X189338094Y-29482645D01*
X189338094Y-29482645D02*
X189369046Y-29358835D01*
X189369046Y-29358835D02*
X189369046Y-29142169D01*
X189369046Y-29142169D02*
X189338094Y-29018359D01*
X189338094Y-29018359D02*
X189276189Y-28956454D01*
X189276189Y-28956454D02*
X189214284Y-28925502D01*
X188657142Y-29575502D02*
X188657142Y-28925502D01*
X187976189Y-29513597D02*
X188007141Y-29544550D01*
X188007141Y-29544550D02*
X188099999Y-29575502D01*
X188099999Y-29575502D02*
X188161903Y-29575502D01*
X188161903Y-29575502D02*
X188254760Y-29544550D01*
X188254760Y-29544550D02*
X188316665Y-29482645D01*
X188316665Y-29482645D02*
X188347618Y-29420740D01*
X188347618Y-29420740D02*
X188378570Y-29296930D01*
X188378570Y-29296930D02*
X188378570Y-29204073D01*
X188378570Y-29204073D02*
X188347618Y-29080264D01*
X188347618Y-29080264D02*
X188316665Y-29018359D01*
X188316665Y-29018359D02*
X188254760Y-28956454D01*
X188254760Y-28956454D02*
X188161903Y-28925502D01*
X188161903Y-28925502D02*
X188099999Y-28925502D01*
X188099999Y-28925502D02*
X188007141Y-28956454D01*
X188007141Y-28956454D02*
X187976189Y-28987407D01*
X187357141Y-29575502D02*
X187728570Y-29575502D01*
X187542856Y-29575502D02*
X187542856Y-28925502D01*
X187542856Y-28925502D02*
X187604760Y-29018359D01*
X187604760Y-29018359D02*
X187666665Y-29080264D01*
X187666665Y-29080264D02*
X187728570Y-29111216D01*
X186799998Y-29142169D02*
X186799998Y-29575502D01*
X186954760Y-28894550D02*
X187109522Y-29358835D01*
X187109522Y-29358835D02*
X186707141Y-29358835D01*
D11*
X191454819Y-23238095D02*
X192264342Y-23238095D01*
X192264342Y-23238095D02*
X192359580Y-23285714D01*
X192359580Y-23285714D02*
X192407200Y-23333333D01*
X192407200Y-23333333D02*
X192454819Y-23428571D01*
X192454819Y-23428571D02*
X192454819Y-23619047D01*
X192454819Y-23619047D02*
X192407200Y-23714285D01*
X192407200Y-23714285D02*
X192359580Y-23761904D01*
X192359580Y-23761904D02*
X192264342Y-23809523D01*
X192264342Y-23809523D02*
X191454819Y-23809523D01*
X191454819Y-24714285D02*
X191454819Y-24523809D01*
X191454819Y-24523809D02*
X191502438Y-24428571D01*
X191502438Y-24428571D02*
X191550057Y-24380952D01*
X191550057Y-24380952D02*
X191692914Y-24285714D01*
X191692914Y-24285714D02*
X191883390Y-24238095D01*
X191883390Y-24238095D02*
X192264342Y-24238095D01*
X192264342Y-24238095D02*
X192359580Y-24285714D01*
X192359580Y-24285714D02*
X192407200Y-24333333D01*
X192407200Y-24333333D02*
X192454819Y-24428571D01*
X192454819Y-24428571D02*
X192454819Y-24619047D01*
X192454819Y-24619047D02*
X192407200Y-24714285D01*
X192407200Y-24714285D02*
X192359580Y-24761904D01*
X192359580Y-24761904D02*
X192264342Y-24809523D01*
X192264342Y-24809523D02*
X192026247Y-24809523D01*
X192026247Y-24809523D02*
X191931009Y-24761904D01*
X191931009Y-24761904D02*
X191883390Y-24714285D01*
X191883390Y-24714285D02*
X191835771Y-24619047D01*
X191835771Y-24619047D02*
X191835771Y-24428571D01*
X191835771Y-24428571D02*
X191883390Y-24333333D01*
X191883390Y-24333333D02*
X191931009Y-24285714D01*
X191931009Y-24285714D02*
X192026247Y-24238095D01*
D10*
%TO.C,U7*%
X192975000Y-57675000D02*
X190050000Y-57675000D01*
X190050000Y-66325000D01*
X193950000Y-66325000D01*
X193950000Y-58650000D01*
X192975000Y-57675000D01*
%TO.C,U3*%
X132500000Y-54645000D02*
X129575000Y-54645000D01*
X129575000Y-59545000D01*
X133475000Y-59545000D01*
X133475000Y-55620000D01*
X132500000Y-54645000D01*
%TO.C,U2*%
X133475000Y-35070000D02*
X133475000Y-32145000D01*
X128575000Y-32145000D01*
X128575000Y-36045000D01*
X132500000Y-36045000D01*
X133475000Y-35070000D01*
%TO.C,U4*%
X129075000Y-81120000D02*
X129075000Y-84045000D01*
X133975000Y-84045000D01*
X133975000Y-80145000D01*
X130050000Y-80145000D01*
X129075000Y-81120000D01*
%TO.C,U6*%
X192975000Y-19675000D02*
X190050000Y-19675000D01*
X190050000Y-28325000D01*
X193950000Y-28325000D01*
X193950000Y-20650000D01*
X192975000Y-19675000D01*
%TD*%
M02*
