%TF.GenerationSoftware,KiCad,Pcbnew,10.0.3+dfsg-1*%
%TF.CreationDate,2026-06-30T16:31:26-04:00*%
%TF.ProjectId,teensy-41-true-dual-canfd-lin-r11_JARVIS_ROUTED_CLEAN_V2_GND_STITCH,7465656e-7379-42d3-9431-2d747275652d,rev?*%
%TF.SameCoordinates,Original*%
%TF.FileFunction,Other,User*%
%FSLAX46Y46*%
G04 Gerber Fmt 4.6, Leading zero omitted, Abs format (unit mm)*
G04 Created by KiCad (PCBNEW 10.0.3+dfsg-1) date 2026-06-30 16:31:26*
%MOMM*%
%LPD*%
G01*
G04 APERTURE LIST*
%ADD10C,0.050000*%
G04 APERTURE END LIST*
%TO.C,U7*%
D10*
X188300000Y-57640000D02*
X188300000Y-66360000D01*
X188300000Y-66360000D02*
X189800000Y-66360000D01*
X189800000Y-57420000D02*
X189800000Y-57640000D01*
X189800000Y-57640000D02*
X188300000Y-57640000D01*
X189800000Y-66360000D02*
X189800000Y-66580000D01*
X189800000Y-66580000D02*
X194200000Y-66580000D01*
X194200000Y-57420000D02*
X189800000Y-57420000D01*
X194200000Y-57640000D02*
X194200000Y-57420000D01*
X194200000Y-66360000D02*
X195700000Y-66360000D01*
X194200000Y-66580000D02*
X194200000Y-66360000D01*
X195700000Y-57640000D02*
X194200000Y-57640000D01*
X195700000Y-66360000D02*
X195700000Y-57640000D01*
%TO.C,U3*%
X127825000Y-54635000D02*
X127825000Y-59555000D01*
X127825000Y-59555000D02*
X129325000Y-59555000D01*
X129325000Y-54395000D02*
X129325000Y-54635000D01*
X129325000Y-54635000D02*
X127825000Y-54635000D01*
X129325000Y-59555000D02*
X129325000Y-59795000D01*
X129325000Y-59795000D02*
X133725000Y-59795000D01*
X133725000Y-54395000D02*
X129325000Y-54395000D01*
X133725000Y-54635000D02*
X133725000Y-54395000D01*
X133725000Y-59555000D02*
X135225000Y-59555000D01*
X133725000Y-59795000D02*
X133725000Y-59555000D01*
X135225000Y-54635000D02*
X133725000Y-54635000D01*
X135225000Y-59555000D02*
X135225000Y-54635000D01*
%TO.C,U2*%
X128325000Y-31895000D02*
X128325000Y-36295000D01*
X128325000Y-36295000D02*
X128565000Y-36295000D01*
X128565000Y-30395000D02*
X128565000Y-31895000D01*
X128565000Y-31895000D02*
X128325000Y-31895000D01*
X128565000Y-36295000D02*
X128565000Y-37795000D01*
X128565000Y-37795000D02*
X133485000Y-37795000D01*
X133485000Y-30395000D02*
X128565000Y-30395000D01*
X133485000Y-31895000D02*
X133485000Y-30395000D01*
X133485000Y-36295000D02*
X133725000Y-36295000D01*
X133485000Y-37795000D02*
X133485000Y-36295000D01*
X133725000Y-31895000D02*
X133485000Y-31895000D01*
X133725000Y-36295000D02*
X133725000Y-31895000D01*
%TO.C,U4*%
X128825000Y-79895000D02*
X128825000Y-84295000D01*
X128825000Y-84295000D02*
X129065000Y-84295000D01*
X129065000Y-78395000D02*
X129065000Y-79895000D01*
X129065000Y-79895000D02*
X128825000Y-79895000D01*
X129065000Y-84295000D02*
X129065000Y-85795000D01*
X129065000Y-85795000D02*
X133985000Y-85795000D01*
X133985000Y-78395000D02*
X129065000Y-78395000D01*
X133985000Y-79895000D02*
X133985000Y-78395000D01*
X133985000Y-84295000D02*
X134225000Y-84295000D01*
X133985000Y-85795000D02*
X133985000Y-84295000D01*
X134225000Y-79895000D02*
X133985000Y-79895000D01*
X134225000Y-84295000D02*
X134225000Y-79895000D01*
%TO.C,U6*%
X188300000Y-19640000D02*
X188300000Y-28360000D01*
X188300000Y-28360000D02*
X189800000Y-28360000D01*
X189800000Y-19420000D02*
X189800000Y-19640000D01*
X189800000Y-19640000D02*
X188300000Y-19640000D01*
X189800000Y-28360000D02*
X189800000Y-28580000D01*
X189800000Y-28580000D02*
X194200000Y-28580000D01*
X194200000Y-19420000D02*
X189800000Y-19420000D01*
X194200000Y-19640000D02*
X194200000Y-19420000D01*
X194200000Y-28360000D02*
X195700000Y-28360000D01*
X194200000Y-28580000D02*
X194200000Y-28360000D01*
X195700000Y-19640000D02*
X194200000Y-19640000D01*
X195700000Y-28360000D02*
X195700000Y-19640000D01*
%TD*%
M02*
