%TF.GenerationSoftware,KiCad,Pcbnew,10.0.3+dfsg-1*%
%TF.CreationDate,2026-06-30T16:31:26-04:00*%
%TF.ProjectId,teensy-41-true-dual-canfd-lin-r11_JARVIS_ROUTED_CLEAN_V2_GND_STITCH,7465656e-7379-42d3-9431-2d747275652d,rev?*%
%TF.SameCoordinates,Original*%
%TF.FileFunction,Soldermask,Top*%
%TF.FilePolarity,Negative*%
%FSLAX46Y46*%
G04 Gerber Fmt 4.6, Leading zero omitted, Abs format (unit mm)*
G04 Created by KiCad (PCBNEW 10.0.3+dfsg-1) date 2026-06-30 16:31:26*
%MOMM*%
%LPD*%
G01*
G04 APERTURE LIST*
G04 Aperture macros list*
%AMRoundRect*
0 Rectangle with rounded corners*
0 $1 Rounding radius*
0 $2 $3 $4 $5 $6 $7 $8 $9 X,Y pos of 4 corners*
0 Add a 4 corners polygon primitive as box body*
4,1,4,$2,$3,$4,$5,$6,$7,$8,$9,$2,$3,0*
0 Add four circle primitives for the rounded corners*
1,1,$1+$1,$2,$3*
1,1,$1+$1,$4,$5*
1,1,$1+$1,$6,$7*
1,1,$1+$1,$8,$9*
0 Add four rect primitives between the rounded corners*
20,1,$1+$1,$2,$3,$4,$5,0*
20,1,$1+$1,$4,$5,$6,$7,0*
20,1,$1+$1,$6,$7,$8,$9,0*
20,1,$1+$1,$8,$9,$2,$3,0*%
G04 Aperture macros list end*
%ADD10RoundRect,0.250000X-0.350000X-0.450000X0.350000X-0.450000X0.350000X0.450000X-0.350000X0.450000X0*%
%ADD11RoundRect,0.250000X0.337500X0.475000X-0.337500X0.475000X-0.337500X-0.475000X0.337500X-0.475000X0*%
%ADD12C,1.500000*%
%ADD13RoundRect,0.250000X-1.000000X-0.650000X1.000000X-0.650000X1.000000X0.650000X-1.000000X0.650000X0*%
%ADD14C,2.600000*%
%ADD15C,3.200000*%
%ADD16RoundRect,0.250000X-0.550000X-0.550000X0.550000X-0.550000X0.550000X0.550000X-0.550000X0.550000X0*%
%ADD17C,1.600000*%
%ADD18RoundRect,0.250000X0.475000X-0.337500X0.475000X0.337500X-0.475000X0.337500X-0.475000X-0.337500X0*%
%ADD19RoundRect,0.250000X-0.375000X-0.625000X0.375000X-0.625000X0.375000X0.625000X-0.375000X0.625000X0*%
%ADD20RoundRect,0.250000X0.650000X-0.800000X0.650000X0.800000X-0.650000X0.800000X-0.650000X-0.800000X0*%
%ADD21RoundRect,0.250000X-0.337500X-0.475000X0.337500X-0.475000X0.337500X0.475000X-0.337500X0.475000X0*%
%ADD22RoundRect,0.250000X-0.475000X0.337500X-0.475000X-0.337500X0.475000X-0.337500X0.475000X0.337500X0*%
%ADD23RoundRect,0.250000X-2.050000X-0.300000X2.050000X-0.300000X2.050000X0.300000X-2.050000X0.300000X0*%
%ADD24RoundRect,0.250002X-4.449998X-5.149998X4.449998X-5.149998X4.449998X5.149998X-4.449998X5.149998X0*%
%ADD25R,1.700000X1.700000*%
%ADD26C,1.700000*%
G04 APERTURE END LIST*
D10*
%TO.C,R12*%
X183000000Y-12000000D03*
X185000000Y-12000000D03*
%TD*%
D11*
%TO.C,C5*%
X87037500Y-18000000D03*
X84962500Y-18000000D03*
%TD*%
D12*
%TO.C,TP2*%
X44000000Y-60000000D03*
%TD*%
D13*
%TO.C,D5*%
X186000000Y-92000000D03*
X190000000Y-92000000D03*
%TD*%
D14*
%TO.C,L1*%
X58000000Y-88000000D03*
X63000000Y-88000000D03*
%TD*%
D15*
%TO.C,SR1*%
X10000000Y-60000000D03*
%TD*%
D16*
%TO.C,C1*%
X18000000Y-96000000D03*
D17*
X21500000Y-96000000D03*
%TD*%
D12*
%TO.C,TP5*%
X111000000Y-24000000D03*
%TD*%
D18*
%TO.C,C10*%
X206000000Y-57037500D03*
X206000000Y-54962500D03*
%TD*%
D11*
%TO.C,C12*%
X185037500Y-24000000D03*
X182962500Y-24000000D03*
%TD*%
D12*
%TO.C,TP6*%
X111000000Y-39000000D03*
%TD*%
D13*
%TO.C,D8*%
X174000000Y-100000000D03*
X178000000Y-100000000D03*
%TD*%
%TO.C,D7*%
X210000000Y-92000000D03*
X214000000Y-92000000D03*
%TD*%
D10*
%TO.C,R13*%
X183000000Y-42000000D03*
X185000000Y-42000000D03*
%TD*%
%TO.C,R16*%
X215000000Y-82000000D03*
X217000000Y-82000000D03*
%TD*%
D19*
%TO.C,F1*%
X28600000Y-72000000D03*
X31400000Y-72000000D03*
%TD*%
D15*
%TO.C,SR2*%
X22000000Y-66000000D03*
%TD*%
D13*
%TO.C,D1*%
X22000000Y-80000000D03*
X26000000Y-80000000D03*
%TD*%
%TO.C,D2*%
X54000000Y-98000000D03*
X58000000Y-98000000D03*
%TD*%
%TO.C,D4*%
X174000000Y-92000000D03*
X178000000Y-92000000D03*
%TD*%
%TO.C,D6*%
X198000000Y-92000000D03*
X202000000Y-92000000D03*
%TD*%
D10*
%TO.C,R11*%
X183000000Y-82000000D03*
X185000000Y-82000000D03*
%TD*%
D20*
%TO.C,Y1*%
X207150000Y-25450000D03*
X207150000Y-22550000D03*
X204850000Y-22550000D03*
X204850000Y-25450000D03*
%TD*%
D16*
%TO.C,C3*%
X72000000Y-96000000D03*
D17*
X75500000Y-96000000D03*
%TD*%
D21*
%TO.C,C4*%
X70962500Y-84000000D03*
X73037500Y-84000000D03*
%TD*%
D18*
%TO.C,C8*%
X214000000Y-25075000D03*
X214000000Y-23000000D03*
%TD*%
D22*
%TO.C,C11*%
X205000000Y-68425000D03*
X205000000Y-70500000D03*
%TD*%
D12*
%TO.C,TP7*%
X111000000Y-45000000D03*
%TD*%
%TO.C,TP8*%
X111000000Y-64000000D03*
%TD*%
D21*
%TO.C,C6*%
X90962500Y-39000000D03*
X93037500Y-39000000D03*
%TD*%
D16*
%TO.C,SW1*%
X55000000Y-13000000D03*
D17*
X55000000Y-15540000D03*
X55000000Y-18080000D03*
X55000000Y-20620000D03*
X55000000Y-23160000D03*
X55000000Y-25700000D03*
X55000000Y-28240000D03*
X55000000Y-30780000D03*
X62620000Y-30780000D03*
X62620000Y-28240000D03*
X62620000Y-25700000D03*
X62620000Y-23160000D03*
X62620000Y-20620000D03*
X62620000Y-18080000D03*
X62620000Y-15540000D03*
X62620000Y-13000000D03*
%TD*%
D15*
%TO.C,MH1*%
X6000000Y-6000000D03*
%TD*%
D12*
%TO.C,TP3*%
X24000000Y-60000000D03*
%TD*%
D15*
%TO.C,MH3*%
X6000000Y-99000000D03*
%TD*%
%TO.C,MH4*%
X224000000Y-109000000D03*
%TD*%
D10*
%TO.C,JP1*%
X207000000Y-82000000D03*
X209000000Y-82000000D03*
%TD*%
D12*
%TO.C,TP9*%
X158000000Y-88000000D03*
%TD*%
D10*
%TO.C,R15*%
X167000000Y-42000000D03*
X169000000Y-42000000D03*
%TD*%
D21*
%TO.C,C9*%
X204925000Y-18000000D03*
X207000000Y-18000000D03*
%TD*%
%TO.C,C13*%
X179962500Y-62000000D03*
X182037500Y-62000000D03*
%TD*%
D12*
%TO.C,TP4*%
X111000000Y-18000000D03*
%TD*%
D10*
%TO.C,R14*%
X167000000Y-12000000D03*
X169000000Y-12000000D03*
%TD*%
D21*
%TO.C,C2*%
X24962500Y-88000000D03*
X27037500Y-88000000D03*
%TD*%
D16*
%TO.C,SW2*%
X55000000Y-52000000D03*
D17*
X55000000Y-54540000D03*
X55000000Y-57080000D03*
X55000000Y-59620000D03*
X55000000Y-62160000D03*
X55000000Y-64700000D03*
X55000000Y-67240000D03*
X55000000Y-69780000D03*
X62620000Y-69780000D03*
X62620000Y-67240000D03*
X62620000Y-64700000D03*
X62620000Y-62160000D03*
X62620000Y-59620000D03*
X62620000Y-57080000D03*
X62620000Y-54540000D03*
X62620000Y-52000000D03*
%TD*%
D13*
%TO.C,D3*%
X198000000Y-82000000D03*
X202000000Y-82000000D03*
%TD*%
D10*
%TO.C,R1*%
X85000000Y-58000000D03*
X87000000Y-58000000D03*
%TD*%
D21*
%TO.C,C7*%
X80962500Y-64000000D03*
X83037500Y-64000000D03*
%TD*%
D15*
%TO.C,MH2*%
X224000000Y-6000000D03*
%TD*%
D20*
%TO.C,Y2*%
X207150000Y-63450000D03*
X207150000Y-60550000D03*
X204850000Y-60550000D03*
X204850000Y-63450000D03*
%TD*%
D23*
%TO.C,U5*%
X34350000Y-84600000D03*
X34350000Y-86300000D03*
X34350000Y-88000000D03*
D24*
X43500000Y-88000000D03*
D23*
X34350000Y-89700000D03*
X34350000Y-91400000D03*
%TD*%
D12*
%TO.C,TP1*%
X34000000Y-60000000D03*
%TD*%
D25*
%TO.C,J2*%
X158000000Y-62000000D03*
D26*
X158000000Y-64540000D03*
X158000000Y-67080000D03*
X158000000Y-69620000D03*
X158000000Y-72160000D03*
X158000000Y-74700000D03*
X158000000Y-77240000D03*
X158000000Y-79780000D03*
%TD*%
M02*
