%TF.GenerationSoftware,KiCad,Pcbnew,10.0.3+dfsg-1*%
%TF.CreationDate,2026-06-30T16:31:26-04:00*%
%TF.ProjectId,teensy-41-true-dual-canfd-lin-r11_JARVIS_ROUTED_CLEAN_V2_GND_STITCH,7465656e-7379-42d3-9431-2d747275652d,rev?*%
%TF.SameCoordinates,Original*%
%TF.FileFunction,Other,User*%
%FSLAX46Y46*%
G04 Gerber Fmt 4.6, Leading zero omitted, Abs format (unit mm)*
G04 Created by KiCad (PCBNEW 10.0.3+dfsg-1) date 2026-06-30 16:31:26*
%MOMM*%
%LPD*%
G01*
G04 APERTURE LIST*
%ADD10C,0.050000*%
G04 APERTURE END LIST*
%TO.C,R12*%
D10*
X182150000Y-11050000D02*
X185850000Y-11050000D01*
X185850000Y-12950000D01*
X182150000Y-12950000D01*
X182150000Y-11050000D01*
%TO.C,C5*%
X84120000Y-17020000D02*
X87880000Y-17020000D01*
X87880000Y-18980000D01*
X84120000Y-18980000D01*
X84120000Y-17020000D01*
%TO.C,TP2*%
X45250000Y-60000000D02*
G75*
G02*
X42750000Y-60000000I-1250000J0D01*
G01*
X42750000Y-60000000D02*
G75*
G02*
X45250000Y-60000000I1250000J0D01*
G01*
%TO.C,D5*%
X184500000Y-90250000D02*
X191500000Y-90250000D01*
X184500000Y-93750000D02*
X184500000Y-90250000D01*
X191500000Y-90250000D02*
X191500000Y-93750000D01*
X191500000Y-93750000D02*
X184500000Y-93750000D01*
%TO.C,L1*%
X65100000Y-88000000D02*
G75*
G02*
X55900000Y-88000000I-4600000J0D01*
G01*
X55900000Y-88000000D02*
G75*
G02*
X65100000Y-88000000I4600000J0D01*
G01*
%TO.C,SR1*%
X13450000Y-60000000D02*
G75*
G02*
X6550000Y-60000000I-3450000J0D01*
G01*
X6550000Y-60000000D02*
G75*
G02*
X13450000Y-60000000I3450000J0D01*
G01*
%TO.C,C1*%
X24000000Y-96000000D02*
G75*
G02*
X15500000Y-96000000I-4250000J0D01*
G01*
X15500000Y-96000000D02*
G75*
G02*
X24000000Y-96000000I4250000J0D01*
G01*
%TO.C,TP5*%
X112250000Y-24000000D02*
G75*
G02*
X109750000Y-24000000I-1250000J0D01*
G01*
X109750000Y-24000000D02*
G75*
G02*
X112250000Y-24000000I1250000J0D01*
G01*
%TO.C,C10*%
X205020000Y-54120000D02*
X206980000Y-54120000D01*
X206980000Y-57880000D01*
X205020000Y-57880000D01*
X205020000Y-54120000D01*
%TO.C,C12*%
X182120000Y-23020000D02*
X185880000Y-23020000D01*
X185880000Y-24980000D01*
X182120000Y-24980000D01*
X182120000Y-23020000D01*
%TO.C,TP6*%
X112250000Y-39000000D02*
G75*
G02*
X109750000Y-39000000I-1250000J0D01*
G01*
X109750000Y-39000000D02*
G75*
G02*
X112250000Y-39000000I1250000J0D01*
G01*
%TO.C,D8*%
X172500000Y-98250000D02*
X179500000Y-98250000D01*
X172500000Y-101750000D02*
X172500000Y-98250000D01*
X179500000Y-98250000D02*
X179500000Y-101750000D01*
X179500000Y-101750000D02*
X172500000Y-101750000D01*
%TO.C,D7*%
X208500000Y-90250000D02*
X215500000Y-90250000D01*
X208500000Y-93750000D02*
X208500000Y-90250000D01*
X215500000Y-90250000D02*
X215500000Y-93750000D01*
X215500000Y-93750000D02*
X208500000Y-93750000D01*
%TO.C,R13*%
X182150000Y-41050000D02*
X185850000Y-41050000D01*
X185850000Y-42950000D01*
X182150000Y-42950000D01*
X182150000Y-41050000D01*
%TO.C,R16*%
X214150000Y-81050000D02*
X217850000Y-81050000D01*
X217850000Y-82950000D01*
X214150000Y-82950000D01*
X214150000Y-81050000D01*
%TO.C,F1*%
X27720000Y-70870000D02*
X32280000Y-70870000D01*
X32280000Y-73130000D01*
X27720000Y-73130000D01*
X27720000Y-70870000D01*
%TO.C,SR2*%
X25450000Y-66000000D02*
G75*
G02*
X18550000Y-66000000I-3450000J0D01*
G01*
X18550000Y-66000000D02*
G75*
G02*
X25450000Y-66000000I3450000J0D01*
G01*
%TO.C,D1*%
X20500000Y-78250000D02*
X27500000Y-78250000D01*
X20500000Y-81750000D02*
X20500000Y-78250000D01*
X27500000Y-78250000D02*
X27500000Y-81750000D01*
X27500000Y-81750000D02*
X20500000Y-81750000D01*
%TO.C,D2*%
X52500000Y-96250000D02*
X59500000Y-96250000D01*
X52500000Y-99750000D02*
X52500000Y-96250000D01*
X59500000Y-96250000D02*
X59500000Y-99750000D01*
X59500000Y-99750000D02*
X52500000Y-99750000D01*
%TO.C,D4*%
X172500000Y-90250000D02*
X179500000Y-90250000D01*
X172500000Y-93750000D02*
X172500000Y-90250000D01*
X179500000Y-90250000D02*
X179500000Y-93750000D01*
X179500000Y-93750000D02*
X172500000Y-93750000D01*
%TO.C,D6*%
X196500000Y-90250000D02*
X203500000Y-90250000D01*
X196500000Y-93750000D02*
X196500000Y-90250000D01*
X203500000Y-90250000D02*
X203500000Y-93750000D01*
X203500000Y-93750000D02*
X196500000Y-93750000D01*
%TO.C,R11*%
X182150000Y-81050000D02*
X185850000Y-81050000D01*
X185850000Y-82950000D01*
X182150000Y-82950000D01*
X182150000Y-81050000D01*
%TO.C,Y1*%
X203700000Y-21250000D02*
X208300000Y-21250000D01*
X208300000Y-26750000D01*
X203700000Y-26750000D01*
X203700000Y-21250000D01*
%TO.C,C3*%
X78000000Y-96000000D02*
G75*
G02*
X69500000Y-96000000I-4250000J0D01*
G01*
X69500000Y-96000000D02*
G75*
G02*
X78000000Y-96000000I4250000J0D01*
G01*
%TO.C,C4*%
X70120000Y-83020000D02*
X73880000Y-83020000D01*
X73880000Y-84980000D01*
X70120000Y-84980000D01*
X70120000Y-83020000D01*
%TO.C,C8*%
X213020000Y-22157500D02*
X214980000Y-22157500D01*
X214980000Y-25917500D01*
X213020000Y-25917500D01*
X213020000Y-22157500D01*
%TO.C,C11*%
X204020000Y-67582500D02*
X205980000Y-67582500D01*
X205980000Y-71342500D01*
X204020000Y-71342500D01*
X204020000Y-67582500D01*
%TO.C,TP7*%
X112250000Y-45000000D02*
G75*
G02*
X109750000Y-45000000I-1250000J0D01*
G01*
X109750000Y-45000000D02*
G75*
G02*
X112250000Y-45000000I1250000J0D01*
G01*
%TO.C,TP8*%
X112250000Y-64000000D02*
G75*
G02*
X109750000Y-64000000I-1250000J0D01*
G01*
X109750000Y-64000000D02*
G75*
G02*
X112250000Y-64000000I1250000J0D01*
G01*
%TO.C,C6*%
X90120000Y-38020000D02*
X93880000Y-38020000D01*
X93880000Y-39980000D01*
X90120000Y-39980000D01*
X90120000Y-38020000D01*
%TO.C,SW1*%
X53670000Y-10330000D02*
X63950000Y-10330000D01*
X63950000Y-33460000D01*
X53670000Y-33460000D01*
X53670000Y-10330000D01*
%TO.C,MH1*%
X9450000Y-6000000D02*
G75*
G02*
X2550000Y-6000000I-3450000J0D01*
G01*
X2550000Y-6000000D02*
G75*
G02*
X9450000Y-6000000I3450000J0D01*
G01*
%TO.C,TP3*%
X25250000Y-60000000D02*
G75*
G02*
X22750000Y-60000000I-1250000J0D01*
G01*
X22750000Y-60000000D02*
G75*
G02*
X25250000Y-60000000I1250000J0D01*
G01*
%TO.C,MH3*%
X9450000Y-99000000D02*
G75*
G02*
X2550000Y-99000000I-3450000J0D01*
G01*
X2550000Y-99000000D02*
G75*
G02*
X9450000Y-99000000I3450000J0D01*
G01*
%TO.C,MH4*%
X227450000Y-109000000D02*
G75*
G02*
X220550000Y-109000000I-3450000J0D01*
G01*
X220550000Y-109000000D02*
G75*
G02*
X227450000Y-109000000I3450000J0D01*
G01*
%TO.C,JP1*%
X206150000Y-81050000D02*
X209850000Y-81050000D01*
X209850000Y-82950000D01*
X206150000Y-82950000D01*
X206150000Y-81050000D01*
%TO.C,TP9*%
X159250000Y-88000000D02*
G75*
G02*
X156750000Y-88000000I-1250000J0D01*
G01*
X156750000Y-88000000D02*
G75*
G02*
X159250000Y-88000000I1250000J0D01*
G01*
%TO.C,R15*%
X166150000Y-41050000D02*
X169850000Y-41050000D01*
X169850000Y-42950000D01*
X166150000Y-42950000D01*
X166150000Y-41050000D01*
%TO.C,C9*%
X204082500Y-17020000D02*
X207842500Y-17020000D01*
X207842500Y-18980000D01*
X204082500Y-18980000D01*
X204082500Y-17020000D01*
%TO.C,C13*%
X179120000Y-61020000D02*
X182880000Y-61020000D01*
X182880000Y-62980000D01*
X179120000Y-62980000D01*
X179120000Y-61020000D01*
%TO.C,TP4*%
X112250000Y-18000000D02*
G75*
G02*
X109750000Y-18000000I-1250000J0D01*
G01*
X109750000Y-18000000D02*
G75*
G02*
X112250000Y-18000000I1250000J0D01*
G01*
%TO.C,R14*%
X166150000Y-11050000D02*
X169850000Y-11050000D01*
X169850000Y-12950000D01*
X166150000Y-12950000D01*
X166150000Y-11050000D01*
%TO.C,C2*%
X24120000Y-87020000D02*
X27880000Y-87020000D01*
X27880000Y-88980000D01*
X24120000Y-88980000D01*
X24120000Y-87020000D01*
%TO.C,SW2*%
X53670000Y-49330000D02*
X63950000Y-49330000D01*
X63950000Y-72460000D01*
X53670000Y-72460000D01*
X53670000Y-49330000D01*
%TO.C,D3*%
X196500000Y-80250000D02*
X203500000Y-80250000D01*
X196500000Y-83750000D02*
X196500000Y-80250000D01*
X203500000Y-80250000D02*
X203500000Y-83750000D01*
X203500000Y-83750000D02*
X196500000Y-83750000D01*
%TO.C,R1*%
X84150000Y-57050000D02*
X87850000Y-57050000D01*
X87850000Y-58950000D01*
X84150000Y-58950000D01*
X84150000Y-57050000D01*
%TO.C,C7*%
X80120000Y-63020000D02*
X83880000Y-63020000D01*
X83880000Y-64980000D01*
X80120000Y-64980000D01*
X80120000Y-63020000D01*
%TO.C,MH2*%
X227450000Y-6000000D02*
G75*
G02*
X220550000Y-6000000I-3450000J0D01*
G01*
X220550000Y-6000000D02*
G75*
G02*
X227450000Y-6000000I3450000J0D01*
G01*
%TO.C,Y2*%
X203700000Y-59250000D02*
X208300000Y-59250000D01*
X208300000Y-64750000D01*
X203700000Y-64750000D01*
X203700000Y-59250000D01*
%TO.C,U5*%
X31800000Y-82350000D02*
X48450000Y-82350000D01*
X48450000Y-93650000D01*
X31800000Y-93650000D01*
X31800000Y-82350000D01*
%TO.C,TP1*%
X35250000Y-60000000D02*
G75*
G02*
X32750000Y-60000000I-1250000J0D01*
G01*
X32750000Y-60000000D02*
G75*
G02*
X35250000Y-60000000I1250000J0D01*
G01*
%TO.C,J2*%
X156230000Y-60230000D02*
X159770000Y-60230000D01*
X159770000Y-81550000D01*
X156230000Y-81550000D01*
X156230000Y-60230000D01*
%TD*%
M02*
