M48
; DRILL file KiCad 10.0.3+dfsg-1 date 2026-06-21T04:46:32
; FORMAT={-:-/ absolute / metric / decimal}
; #@! TF.CreationDate,2026-06-21T04:46:32-04:00
; #@! TF.GenerationSoftware,Kicad,Pcbnew,10.0.3+dfsg-1
; #@! TF.FileFunction,MixedPlating,1,2
FMAT,2
METRIC
; #@! TA.AperFunction,Plated,PTH,ViaDrill
T1C0.300
; #@! TA.AperFunction,Plated,PTH,ComponentDrill
T2C0.800
; #@! TA.AperFunction,Plated,PTH,ComponentDrill
T3C1.000
; #@! TA.AperFunction,Plated,PTH,ComponentDrill
T4C1.200
; #@! TA.AperFunction,NonPlated,NPTH,ComponentDrill
T5C3.200
%
G90
G05
T1
X13.871Y-56.882
X24.141Y-83.747
X36.696Y-62.857
X36.971Y-83.791
X38.804Y-32.025
X74.682Y-93.718
X80.227Y-31.386
X92.833Y-19.27
X92.923Y-39.13
X93.004Y-63.365
X93.035Y-68.652
X94.173Y-39.635
X94.894Y-38.276
X95.164Y-20.524
X97.975Y-18.317
X113.33Y-18.0
X119.194Y-63.061
X122.34Y-61.481
X123.762Y-60.877
X130.667Y-28.333
X158.226Y-86.745
T2
X55.0Y-13.0
X55.0Y-15.54
X55.0Y-18.08
X55.0Y-20.62
X55.0Y-23.16
X55.0Y-25.7
X55.0Y-28.24
X55.0Y-30.78
X55.0Y-52.0
X55.0Y-54.54
X55.0Y-57.08
X55.0Y-59.62
X55.0Y-62.16
X55.0Y-64.7
X55.0Y-67.24
X55.0Y-69.78
X62.62Y-13.0
X62.62Y-15.54
X62.62Y-18.08
X62.62Y-20.62
X62.62Y-23.16
X62.62Y-25.7
X62.62Y-28.24
X62.62Y-30.78
X62.62Y-52.0
X62.62Y-54.54
X62.62Y-57.08
X62.62Y-59.62
X62.62Y-62.16
X62.62Y-64.7
X62.62Y-67.24
X62.62Y-69.78
T3
X118.0Y-15.0
X118.0Y-30.24
X120.54Y-15.0
X120.54Y-30.24
X123.08Y-15.0
X123.08Y-30.24
X125.62Y-15.0
X125.62Y-30.24
X128.16Y-15.0
X128.16Y-30.24
X130.7Y-15.0
X130.7Y-30.24
X133.24Y-15.0
X133.24Y-30.24
X135.78Y-15.0
X135.78Y-30.24
X138.32Y-15.0
X138.32Y-30.24
X140.86Y-15.0
X140.86Y-30.24
X143.4Y-15.0
X143.4Y-30.24
X145.94Y-15.0
X145.94Y-30.24
X148.48Y-15.0
X148.48Y-30.24
X151.02Y-15.0
X151.02Y-30.24
X153.56Y-15.0
X153.56Y-30.24
X156.1Y-15.0
X156.1Y-30.24
X158.0Y-62.0
X158.0Y-64.54
X158.0Y-67.08
X158.0Y-69.62
X158.0Y-72.16
X158.0Y-74.7
X158.0Y-77.24
X158.0Y-79.78
X158.64Y-15.0
X158.64Y-30.24
X161.18Y-15.0
X161.18Y-30.24
X163.72Y-15.0
X163.72Y-30.24
X166.26Y-15.0
X166.26Y-30.24
X168.8Y-15.0
X168.8Y-30.24
X171.34Y-15.0
X171.34Y-30.24
X173.88Y-30.24
X176.42Y-30.24
T4
X12.0Y-16.0
X12.0Y-21.0
X12.0Y-26.0
X12.0Y-31.0
X12.0Y-36.0
X12.0Y-41.0
X12.0Y-46.0
X12.0Y-51.0
X19.5Y-16.0
X19.5Y-21.0
X19.5Y-26.0
X19.5Y-31.0
X19.5Y-36.0
X19.5Y-41.0
X19.5Y-46.0
X19.5Y-51.0
T5
X6.0Y-6.0
X6.0Y-99.0
X10.0Y-60.0
X22.0Y-66.0
X174.0Y-6.0
X174.0Y-99.0
M30
