%TF.GenerationSoftware,KiCad,Pcbnew,10.0.3+dfsg-1*%
%TF.CreationDate,2026-06-21T04:46:32-04:00*%
%TF.ProjectId,teensy-41-can-lin-r5-pigtail-dipswitch-routed,7465656e-7379-42d3-9431-2d63616e2d6c,rev?*%
%TF.SameCoordinates,Original*%
%TF.FileFunction,Soldermask,Bot*%
%TF.FilePolarity,Negative*%
%FSLAX46Y46*%
G04 Gerber Fmt 4.6, Leading zero omitted, Abs format (unit mm)*
G04 Created by KiCad (PCBNEW 10.0.3+dfsg-1) date 2026-06-21 04:46:32*
%MOMM*%
%LPD*%
G01*
G04 APERTURE LIST*
G04 Aperture macros list*
%AMRoundRect*
0 Rectangle with rounded corners*
0 $1 Rounding radius*
0 $2 $3 $4 $5 $6 $7 $8 $9 X,Y pos of 4 corners*
0 Add a 4 corners polygon primitive as box body*
4,1,4,$2,$3,$4,$5,$6,$7,$8,$9,$2,$3,0*
0 Add four circle primitives for the rounded corners*
1,1,$1+$1,$2,$3*
1,1,$1+$1,$4,$5*
1,1,$1+$1,$6,$7*
1,1,$1+$1,$8,$9*
0 Add four rect primitives between the rounded corners*
20,1,$1+$1,$2,$3,$4,$5,0*
20,1,$1+$1,$4,$5,$6,$7,0*
20,1,$1+$1,$6,$7,$8,$9,0*
20,1,$1+$1,$8,$9,$2,$3,0*%
G04 Aperture macros list end*
%ADD10C,3.200000*%
%ADD11R,1.700000X1.700000*%
%ADD12C,1.700000*%
%ADD13RoundRect,0.250000X-0.550000X-0.550000X0.550000X-0.550000X0.550000X0.550000X-0.550000X0.550000X0*%
%ADD14C,1.600000*%
G04 APERTURE END LIST*
D10*
%TO.C,SR2*%
X22000000Y-66000000D03*
%TD*%
%TO.C,SR1*%
X10000000Y-60000000D03*
%TD*%
D11*
%TO.C,J2*%
X158000000Y-62000000D03*
D12*
X158000000Y-64540000D03*
X158000000Y-67080000D03*
X158000000Y-69620000D03*
X158000000Y-72160000D03*
X158000000Y-74700000D03*
X158000000Y-77240000D03*
X158000000Y-79780000D03*
%TD*%
D10*
%TO.C,MH4*%
X174000000Y-99000000D03*
%TD*%
D13*
%TO.C,SW2*%
X55000000Y-52000000D03*
D14*
X55000000Y-54540000D03*
X55000000Y-57080000D03*
X55000000Y-59620000D03*
X55000000Y-62160000D03*
X55000000Y-64700000D03*
X55000000Y-67240000D03*
X55000000Y-69780000D03*
X62620000Y-69780000D03*
X62620000Y-67240000D03*
X62620000Y-64700000D03*
X62620000Y-62160000D03*
X62620000Y-59620000D03*
X62620000Y-57080000D03*
X62620000Y-54540000D03*
X62620000Y-52000000D03*
%TD*%
D10*
%TO.C,MH2*%
X174000000Y-6000000D03*
%TD*%
D13*
%TO.C,SW1*%
X55000000Y-13000000D03*
D14*
X55000000Y-15540000D03*
X55000000Y-18080000D03*
X55000000Y-20620000D03*
X55000000Y-23160000D03*
X55000000Y-25700000D03*
X55000000Y-28240000D03*
X55000000Y-30780000D03*
X62620000Y-30780000D03*
X62620000Y-28240000D03*
X62620000Y-25700000D03*
X62620000Y-23160000D03*
X62620000Y-20620000D03*
X62620000Y-18080000D03*
X62620000Y-15540000D03*
X62620000Y-13000000D03*
%TD*%
D10*
%TO.C,MH1*%
X6000000Y-6000000D03*
%TD*%
%TO.C,MH3*%
X6000000Y-99000000D03*
%TD*%
M02*
